<svg width="365" height="221" viewBox="0 0 365 221" fill="none" xmlns="http://www.w3.org/2000/svg">
<g clip-path="url(#clip0)">
<path d="M180.66 207.799C238.082 207.799 284.632 161.282 284.632 103.9C284.632 46.5174 238.082 0 180.66 0C123.238 0 76.6875 46.5174 76.6875 103.9C76.6875 161.282 123.238 207.799 180.66 207.799Z" fill="url(#paint0_linear)"/>
<path d="M173.449 154.108C173.455 163.399 171.27 172.561 167.071 180.85C162.872 189.139 156.777 196.322 149.281 201.818H1.15201C-0.202574 197.3 -0.369662 192.509 0.666849 187.908C1.70336 183.306 3.90852 179.049 7.06978 175.547C10.231 172.045 14.2418 169.415 18.7155 167.912C23.1892 166.409 27.9749 166.083 32.6115 166.965C34.0942 161.151 37.0367 155.811 41.1606 151.45C45.2845 147.089 50.4534 143.851 56.1785 142.044C59.1703 127.701 67.3764 114.976 79.2108 106.328C91.0452 97.6795 105.668 93.7223 120.252 95.2209C134.836 96.7195 148.347 103.568 158.172 114.441C167.998 125.315 173.441 139.443 173.449 154.094V154.108Z" fill="url(#paint1_linear)"/>
<path d="M191.553 154.108C191.551 163.402 193.742 172.566 197.947 180.855C202.153 189.144 208.255 196.326 215.758 201.818H363.923C365.278 197.3 365.445 192.509 364.408 187.908C363.372 183.306 361.167 179.049 358.005 175.547C354.844 172.045 350.833 169.415 346.36 167.912C341.886 166.409 337.1 166.083 332.464 166.965C330.981 161.151 328.039 155.811 323.915 151.45C319.791 147.089 314.622 143.851 308.897 142.044C305.905 127.701 297.699 114.976 285.864 106.328C274.03 97.6795 259.408 93.7223 244.823 95.2209C230.239 96.7195 216.729 103.568 206.903 114.441C197.077 125.315 191.634 139.443 191.626 154.094L191.553 154.108Z" fill="url(#paint2_linear)"/>
<path opacity="0.1" d="M183.623 221C277.306 221 353.251 216.668 353.251 211.325C353.251 205.981 277.306 201.649 183.623 201.649C89.9408 201.649 13.9961 205.981 13.9961 211.325C13.9961 216.668 89.9408 221 183.623 221Z" fill="black"/>
<path d="M224.809 16.8071H135.837C134.998 16.8157 134.169 16.9894 133.397 17.3183C132.625 17.6471 131.926 18.1246 131.338 18.7236C130.751 19.3225 130.288 20.0312 129.975 20.8091C129.662 21.587 129.505 22.4189 129.514 23.2573V199.231H231.249V23.3746C231.261 21.652 230.591 19.9947 229.384 18.7643C228.177 17.5339 226.533 16.8303 224.809 16.8071Z" fill="url(#paint3_linear)"/>
<path d="M129.514 207.198C129.514 209.917 132.345 212.124 135.844 212.124H224.919C228.418 212.124 231.249 209.925 231.249 207.198V199.23H129.514V207.198Z" fill="url(#paint4_linear)"/>
<path d="M190.335 195.852H169.437C168.483 195.848 167.57 195.467 166.895 194.793C166.22 194.119 165.84 193.206 165.836 192.253C165.84 191.299 166.22 190.386 166.895 189.712C167.57 189.038 168.483 188.658 169.437 188.654H190.364C191.318 188.658 192.232 189.038 192.906 189.712C193.581 190.386 193.961 191.299 193.965 192.253C193.963 192.727 193.868 193.197 193.684 193.634C193.501 194.072 193.233 194.469 192.896 194.804C192.559 195.138 192.159 195.402 191.719 195.582C191.28 195.762 190.809 195.854 190.335 195.852Z" fill="#315563"/>
<path d="M169.393 28.8427H194.889C195.284 28.8156 195.654 28.6397 195.924 28.3506C196.194 28.0615 196.344 27.6807 196.344 27.2851C196.344 26.8896 196.194 26.5087 195.924 26.2196C195.654 25.9305 195.284 25.7546 194.889 25.7275H169.393C168.998 25.7546 168.628 25.9305 168.358 26.2196C168.088 26.5087 167.938 26.8896 167.938 27.2851C167.938 27.6807 168.088 28.0615 168.358 28.3506C168.628 28.6397 168.998 28.8156 169.393 28.8427Z" fill="#315563"/>
<path d="M161.918 28.8427C162.227 28.8427 162.53 28.7509 162.787 28.5791C163.044 28.4072 163.244 28.1629 163.362 27.8772C163.48 27.5915 163.51 27.2772 163.45 26.9742C163.389 26.6711 163.239 26.3929 163.02 26.1749C162.801 25.9568 162.522 25.8087 162.218 25.7493C161.915 25.6899 161.6 25.7219 161.315 25.8412C161.03 25.9605 160.786 26.1617 160.615 26.4194C160.444 26.6771 160.354 26.9797 160.355 27.2888C160.357 27.7016 160.523 28.0968 160.816 28.388C161.108 28.6792 161.505 28.8427 161.918 28.8427Z" fill="#315563"/>
<path d="M216.336 35.7769H144.879C143.448 35.7788 142.076 36.3478 141.064 37.3591C140.052 38.3704 139.482 39.7414 139.48 41.1716V179.418C139.48 180.127 139.62 180.828 139.891 181.483C140.163 182.137 140.56 182.732 141.062 183.233C141.563 183.734 142.158 184.131 142.813 184.402C143.468 184.674 144.17 184.813 144.879 184.813H216.336C217.045 184.814 217.747 184.675 218.403 184.404C219.058 184.134 219.654 183.736 220.155 183.235C220.657 182.734 221.054 182.139 221.325 181.484C221.596 180.829 221.735 180.127 221.734 179.418V41.1716C221.734 39.7408 221.165 38.3686 220.153 37.3569C219.141 36.3452 217.767 35.7769 216.336 35.7769Z" fill="#A0C6FF"/>
<path opacity="0.5" d="M210.124 126.482H149.618C148.382 126.482 147.381 127.483 147.381 128.718V129.268C147.381 130.502 148.382 131.503 149.618 131.503H210.124C211.359 131.503 212.361 130.502 212.361 129.268V128.718C212.361 127.483 211.359 126.482 210.124 126.482Z" fill="#FEFEFE"/>
<path opacity="0.5" d="M210.124 47.7314H149.618C148.382 47.7314 147.381 48.7323 147.381 49.967V50.5168C147.381 51.7514 148.382 52.7523 149.618 52.7523H210.124C211.359 52.7523 212.361 51.7514 212.361 50.5168V49.967C212.361 48.7323 211.359 47.7314 210.124 47.7314Z" fill="#FEFEFE"/>
<path opacity="0.5" d="M210.124 137.287H149.618C148.382 137.287 147.381 138.288 147.381 139.522V140.072C147.381 141.307 148.382 142.308 149.618 142.308H210.124C211.359 142.308 212.361 141.307 212.361 140.072V139.522C212.361 138.288 211.359 137.287 210.124 137.287Z" fill="#FEFEFE"/>
<path opacity="0.5" d="M210.124 148.098H149.618C148.382 148.098 147.381 149.099 147.381 150.334V150.883C147.381 152.118 148.382 153.119 149.618 153.119H210.124C211.359 153.119 212.361 152.118 212.361 150.883V150.334C212.361 149.099 211.359 148.098 210.124 148.098Z" fill="#FEFEFE"/>
<path opacity="0.5" d="M210.124 158.902H149.618C148.382 158.902 147.381 159.903 147.381 161.138V161.688C147.381 162.922 148.382 163.923 149.618 163.923H210.124C211.359 163.923 212.361 162.922 212.361 161.688V161.138C212.361 159.903 211.359 158.902 210.124 158.902Z" fill="#FEFEFE"/>
<path opacity="0.5" d="M210.124 169.713H149.618C148.382 169.713 147.381 170.714 147.381 171.949V172.499C147.381 173.733 148.382 174.734 149.618 174.734H210.124C211.359 174.734 212.361 173.733 212.361 172.499V171.949C212.361 170.714 211.359 169.713 210.124 169.713Z" fill="#FEFEFE"/>
<path opacity="0.5" d="M166.891 58.748H157.048C152.187 58.748 148.246 62.686 148.246 67.5438V77.3803C148.246 82.2381 152.187 86.1761 157.048 86.1761H166.891C171.753 86.1761 175.693 82.2381 175.693 77.3803V67.5438C175.693 62.686 171.753 58.748 166.891 58.748Z" fill="#FEFEFE"/>
<path opacity="0.5" d="M202.686 58.748H192.843C187.982 58.748 184.041 62.686 184.041 67.5438V77.3803C184.041 82.2381 187.982 86.1761 192.843 86.1761H202.686C207.548 86.1761 211.488 82.2381 211.488 77.3803V67.5438C211.488 62.686 207.548 58.748 202.686 58.748Z" fill="#FEFEFE"/>
<path opacity="0.5" d="M166.891 92.1133H157.048C152.187 92.1133 148.246 96.0513 148.246 100.909V110.746C148.246 115.603 152.187 119.541 157.048 119.541H166.891C171.753 119.541 175.693 115.603 175.693 110.746V100.909C175.693 96.0513 171.753 92.1133 166.891 92.1133Z" fill="#FEFEFE"/>
<path opacity="0.5" d="M202.686 92.1133H192.843C187.982 92.1133 184.041 96.0513 184.041 100.909V110.746C184.041 115.603 187.982 119.541 192.843 119.541H202.686C207.548 119.541 211.488 115.603 211.488 110.746V100.909C211.488 96.0513 207.548 92.1133 202.686 92.1133Z" fill="#FEFEFE"/>
<path opacity="0.2" d="M221.705 179.975C221.567 181.302 220.942 182.531 219.95 183.425C218.959 184.318 217.671 184.813 216.336 184.813H209.258L139.48 127.926V112.944L221.705 179.975Z" fill="url(#paint5_linear)"/>
<path opacity="0.2" d="M139.48 61.167L221.734 128.227V136.554L139.48 69.4936V61.167Z" fill="url(#paint6_linear)"/>
<path opacity="0.2" d="M144.879 35.7769H169.524L221.734 78.3482V106.238L139.781 39.4271C140.143 38.3628 140.829 37.4383 141.743 36.7837C142.658 36.129 143.754 35.7769 144.879 35.7769Z" fill="url(#paint7_linear)"/>
<path d="M57.58 101.583L55.8929 97.5959L52.4015 99.0618C51.681 97.9704 50.745 97.0376 49.6509 96.3205L51.1766 92.5603L47.1644 90.9331L45.5874 94.8032C44.7136 94.6859 43.828 94.6859 42.9541 94.8032L41.4138 91.1383L37.4089 92.8462L38.8759 96.3351C37.787 97.0591 36.8542 97.9937 36.1327 99.0838L32.8393 97.7498L31.2109 101.767L34.6143 103.145C34.4583 104.267 34.5005 105.408 34.739 106.516L31.2549 107.982L32.9346 111.977L36.6021 110.438C37.3579 111.419 38.2939 112.247 39.36 112.878L37.8197 116.661L41.8099 118.258L43.4822 114.161C44.4327 114.236 45.389 114.172 46.3209 113.971L47.7878 117.46L51.778 115.774L50.245 112.109C50.9394 111.573 51.5565 110.944 52.0788 110.24L55.9589 111.816L57.5946 107.806L53.8612 106.282C54.0581 105.242 54.0829 104.177 53.9345 103.13L57.58 101.583ZM45.8441 108.107C45.1197 108.414 44.3205 108.499 43.5476 108.352C42.7746 108.205 42.0628 107.832 41.5022 107.28C40.9415 106.728 40.5574 106.023 40.3983 105.253C40.2392 104.483 40.3123 103.683 40.6084 102.954C40.9045 102.226 41.4103 101.602 42.0617 101.161C42.7131 100.719 43.4808 100.482 44.2676 100.477C45.0544 100.472 45.825 100.701 46.4817 101.134C47.1383 101.567 47.6516 102.185 47.9565 102.91C48.3634 103.881 48.3679 104.974 47.9691 105.948C47.5702 106.923 46.8007 107.699 45.8294 108.107H45.8441Z" fill="url(#paint8_linear)"/>
<path d="M40.261 123.455L39.4174 121.462L37.6717 122.194C37.3129 121.649 36.8461 121.182 36.3001 120.824L37.0336 118.94L35.0238 118.126L34.239 120.069C33.8011 120.007 33.3566 120.007 32.9187 120.069L32.1485 118.244L30.1534 119.087L30.8869 120.831C30.339 121.19 29.8719 121.66 29.5153 122.209L27.8723 121.542L27.0508 123.543L28.7598 124.239C28.6805 124.798 28.7004 125.366 28.8185 125.918L27.0728 126.651L27.9163 128.645L29.7427 127.875C30.121 128.36 30.5892 128.768 31.1217 129.077L30.3882 130.968L32.3979 131.789L33.2268 129.737C33.7032 129.775 34.1826 129.742 34.6498 129.642L35.3832 131.386L37.4077 130.55L36.6375 128.725C36.9862 128.458 37.2949 128.142 37.5544 127.787L39.4981 128.571L40.3123 126.563L38.4272 125.83C38.5299 125.311 38.5448 124.778 38.4712 124.254L40.261 123.455ZM34.393 126.717C34.0309 126.87 33.6315 126.913 33.2453 126.839C32.859 126.765 32.5034 126.579 32.2232 126.303C31.9431 126.027 31.7511 125.675 31.6715 125.29C31.5919 124.905 31.6283 124.505 31.7761 124.141C31.9239 123.777 32.1765 123.465 32.5018 123.244C32.8272 123.024 33.2107 122.904 33.6039 122.901C33.9971 122.899 34.3823 123.012 34.7108 123.228C35.0393 123.444 35.2963 123.753 35.4493 124.115C35.5506 124.356 35.6034 124.614 35.6048 124.875C35.6061 125.136 35.556 125.395 35.4572 125.636C35.3584 125.878 35.2129 126.098 35.0291 126.283C34.8452 126.469 34.6266 126.616 34.3857 126.717H34.393Z" fill="url(#paint9_linear)"/>
<path d="M301.825 19.4458L297.534 18.8521L297.006 22.5976C295.7 22.6577 294.42 22.9819 293.243 23.5504L290.793 20.3107L287.331 22.9201L289.854 26.2625C289.305 26.9513 288.852 27.7106 288.505 28.52L284.595 27.9776L283.986 32.2509L287.734 32.7786C287.798 34.083 288.122 35.3615 288.688 36.5388L285.857 38.6791L288.468 42.1387L291.402 39.9398C292.28 40.6439 293.272 41.1919 294.336 41.5597L293.815 45.3052L298.106 45.9062L298.656 41.9848C299.899 41.8396 301.102 41.4563 302.199 40.856L304.663 44.1178L308.067 41.5084L305.397 37.9754C305.953 37.199 306.391 36.3443 306.695 35.4393L310.443 35.9597L311.045 31.6718L307.128 31.1221C307.018 30.2471 306.788 29.3914 306.446 28.5787L309.791 26.0572L307.179 22.5976L303.937 25.0457C303.142 24.3457 302.241 23.7767 301.267 23.3599L301.825 19.4458ZM301.407 32.8739C301.299 33.6527 300.962 34.382 300.439 34.9694C299.916 35.5569 299.231 35.9761 298.469 36.1739C297.708 36.3718 296.905 36.3394 296.162 36.0809C295.419 35.8224 294.769 35.3494 294.295 34.7218C293.821 34.0942 293.545 33.3402 293.5 32.5552C293.455 31.7703 293.644 30.9897 294.044 30.3123C294.443 29.6349 295.035 29.0912 295.743 28.75C296.452 28.4087 297.246 28.2853 298.025 28.3954C299.067 28.5426 300.008 29.0968 300.642 29.9363C301.276 30.7758 301.551 31.8322 301.407 32.8739Z" fill="url(#paint10_linear)"/>
<path d="M311.734 45.5178L309.585 45.2173L309.321 47.0937C308.666 47.1233 308.025 47.2854 307.435 47.5701L306.218 45.9503L304.487 47.255L305.748 48.9262C305.468 49.2665 305.241 49.647 305.074 50.0549L303.108 49.7837L302.814 51.924L304.685 52.1879C304.714 52.8416 304.877 53.4825 305.162 54.0717L303.746 55.1418L305.052 56.8716L306.519 55.7648C306.957 56.1168 307.453 56.3897 307.986 56.5711L307.722 58.4475L309.871 58.7481L310.142 56.791C310.754 56.7099 311.346 56.5161 311.888 56.2193L313.113 57.8538L314.844 56.5491L313.509 54.7826C313.785 54.3928 314.005 53.9659 314.162 53.5146L316.032 53.7785L316.333 51.6308L314.374 51.3596C314.319 50.9214 314.206 50.4925 314.037 50.0843L315.709 48.8235L314.396 47.0937L312.775 48.3178C312.381 47.9642 311.929 47.6792 311.44 47.4749L311.734 45.5178ZM311.521 52.2319C311.466 52.6209 311.298 52.985 311.036 53.2782C310.775 53.5714 310.432 53.7805 310.051 53.8791C309.671 53.9777 309.27 53.9614 308.899 53.8322C308.527 53.7029 308.203 53.4666 307.966 53.1531C307.729 52.8396 307.591 52.463 307.568 52.0709C307.545 51.6787 307.64 51.2887 307.839 50.95C308.038 50.6113 308.333 50.3393 308.687 50.1682C309.041 49.9972 309.437 49.9348 309.827 49.989C310.35 50.0618 310.822 50.3387 311.141 50.7591C311.46 51.1795 311.599 51.7091 311.528 52.2319H311.521Z" fill="url(#paint11_linear)"/>
<path d="M240.613 212.371L240.6 203.722L186.27 203.807L186.284 212.456L240.613 212.371Z" fill="url(#paint12_linear)"/>
<path d="M177.762 208.165C177.761 207.598 177.872 207.037 178.088 206.513C178.304 205.989 178.621 205.512 179.022 205.11C179.422 204.709 179.898 204.39 180.422 204.172C180.946 203.954 181.507 203.842 182.075 203.841H182.999V212.49H182.075C181.507 212.489 180.946 212.376 180.422 212.158C179.898 211.941 179.422 211.622 179.022 211.22C178.621 210.819 178.304 210.342 178.088 209.818C177.872 209.294 177.761 208.732 177.762 208.165Z" fill="url(#paint13_linear)"/>
<path d="M240.608 203.731L238.342 206.003L240.506 208.158L238.312 210.357L240.476 212.519L250.114 208.107L240.608 203.731Z" fill="#F3CBA4"/>
<path d="M247.597 206.949C247.323 207.271 247.172 207.68 247.172 208.103C247.172 208.526 247.323 208.935 247.597 209.258L250.113 208.107L247.597 206.949Z" fill="#01313C"/>
<path d="M234.71 205.681H189.263C189.061 205.681 188.896 205.845 188.896 206.047V206.384C188.896 206.587 189.061 206.751 189.263 206.751H234.71C234.913 206.751 235.077 206.587 235.077 206.384V206.047C235.077 205.845 234.913 205.681 234.71 205.681Z" fill="#FF9F17"/>
<path d="M234.71 208.723H189.263C189.061 208.723 188.896 208.887 188.896 209.089V209.426C188.896 209.629 189.061 209.793 189.263 209.793H234.71C234.913 209.793 235.077 209.629 235.077 209.426V209.089C235.077 208.887 234.913 208.723 234.71 208.723Z" fill="#FF9F17"/>
<path d="M186.286 203.812H183V212.461H186.286V203.812Z" fill="#24314A"/>
<path d="M227.93 125.176L224.996 128.245L255.546 157.409L258.479 154.34L227.93 125.176Z" fill="#242739"/>
<path d="M197.17 98.7322L197.082 98.8275C193.336 102.842 191.324 108.171 191.483 113.658C191.643 119.145 193.96 124.348 197.932 128.139C201.904 131.93 207.212 134.004 212.705 133.911C218.197 133.818 223.431 131.565 227.272 127.641L227.382 127.538C231.128 123.523 233.14 118.195 232.981 112.708C232.822 107.221 230.505 102.018 226.532 98.2264C222.56 94.4352 217.252 92.3614 211.76 92.4547C206.267 92.548 201.033 94.8009 197.192 98.7249L197.17 98.7322ZM224.375 124.526L224.199 124.702C221.105 127.794 216.923 129.553 212.547 129.602C208.172 129.652 203.951 127.988 200.788 124.966C197.624 121.945 195.77 117.807 195.622 113.437C195.473 109.067 197.043 104.812 199.994 101.583L200.163 101.4C203.269 98.3604 207.436 96.6463 211.784 96.6203C216.131 96.5942 220.319 98.2581 223.461 101.26C226.604 104.263 228.455 108.368 228.624 112.71C228.794 117.051 227.267 121.288 224.368 124.526H224.375Z" fill="url(#paint14_linear)"/>
<path d="M233.778 125.896C234.113 126.217 234.308 126.656 234.321 127.12C234.33 127.585 234.156 128.035 233.837 128.373L228.482 133.973C228.324 134.14 228.134 134.273 227.924 134.366C227.714 134.459 227.488 134.51 227.258 134.515C227.029 134.521 226.8 134.481 226.586 134.398C226.372 134.315 226.176 134.191 226.01 134.032C225.844 133.873 225.71 133.683 225.617 133.473C225.524 133.262 225.473 133.036 225.467 132.805C225.462 132.575 225.502 132.346 225.585 132.132C225.668 131.917 225.793 131.721 225.952 131.555L231.306 125.955C231.464 125.788 231.654 125.655 231.864 125.562C232.074 125.469 232.3 125.418 232.53 125.413C232.759 125.407 232.988 125.447 233.202 125.53C233.416 125.613 233.612 125.737 233.778 125.896Z" fill="#FFC027"/>
<path d="M260.177 151.088C260.343 151.248 260.475 151.44 260.567 151.651C260.659 151.862 260.708 152.089 260.712 152.32C260.72 152.549 260.68 152.778 260.597 152.992C260.514 153.206 260.389 153.401 260.228 153.566L254.881 159.166C254.725 159.345 254.535 159.491 254.321 159.595C254.108 159.699 253.875 159.758 253.638 159.769C253.401 159.78 253.164 159.743 252.941 159.66C252.719 159.577 252.516 159.449 252.344 159.285C252.172 159.121 252.036 158.924 251.943 158.705C251.85 158.487 251.802 158.252 251.803 158.015C251.803 157.777 251.852 157.542 251.946 157.325C252.04 157.107 252.178 156.91 252.35 156.747L257.698 151.147C258.019 150.812 258.461 150.618 258.925 150.607C259.389 150.596 259.839 150.769 260.177 151.088Z" fill="#FFC027"/>
<path d="M233.663 128.527L228.48 133.95L252.346 156.725L257.528 151.302L233.663 128.527Z" fill="url(#paint15_linear)"/>
<path d="M233.779 125.896C234.115 126.217 234.31 126.657 234.322 127.12C234.332 127.585 234.158 128.035 233.838 128.373L228.484 133.973C228.325 134.14 228.136 134.273 227.926 134.366C227.716 134.459 227.489 134.51 227.26 134.515C227.03 134.521 226.802 134.481 226.588 134.398C226.373 134.315 226.178 134.191 226.012 134.032L233.779 125.896Z" fill="#DB8527"/>
<path d="M260.177 151.089C260.343 151.249 260.476 151.44 260.568 151.651C260.66 151.863 260.709 152.09 260.713 152.32C260.72 152.55 260.681 152.778 260.598 152.993C260.515 153.207 260.389 153.402 260.229 153.566L254.882 159.166C254.56 159.501 254.118 159.695 253.654 159.706C253.19 159.717 252.74 159.544 252.402 159.225L260.177 151.089Z" fill="#DB8527"/>
<path opacity="0.7" d="M212.126 96.2324C215.417 96.2047 218.644 97.1468 221.402 98.9411C224.161 100.735 226.329 103.302 227.636 106.321C228.943 109.34 229.331 112.677 228.751 115.914C228.171 119.152 226.649 122.147 224.375 124.525L224.155 124.745C223.046 125.87 221.781 126.83 220.4 127.597C217.688 129.094 214.614 129.812 211.519 129.673C208.424 129.533 205.428 128.54 202.862 126.805C202.079 126.285 201.343 125.699 200.662 125.053C198.085 122.588 196.362 119.367 195.742 115.857C195.122 112.347 195.638 108.731 197.214 105.534C198.587 102.756 200.707 100.415 203.335 98.7709C205.963 97.127 208.996 96.2456 212.097 96.2251L212.126 96.2324Z" fill="url(#paint16_linear)"/>
<path d="M112.759 65.0937L114.916 62.9677C115.528 62.3643 116.355 62.0286 117.215 62.0345C118.075 62.0403 118.897 62.3872 119.501 62.9989L128.891 72.5115L122.103 79.2033L112.718 69.6959C112.416 69.392 112.178 69.0314 112.017 68.6349C111.856 68.2385 111.775 67.814 111.778 67.3861C111.782 66.9582 111.871 66.5353 112.039 66.1418C112.208 65.7484 112.452 65.3921 112.759 65.0937Z" fill="url(#paint17_linear)"/>
<path d="M130.075 70.0058L119.595 80.3369C118.877 81.0448 118.869 82.2004 119.578 82.918L120.773 84.1286C121.481 84.8461 122.637 84.854 123.355 84.1461L133.836 73.815C134.554 73.1071 134.561 71.9516 133.853 71.234L132.658 70.0234C131.95 69.3058 130.793 69.2979 130.075 70.0058Z" fill="url(#paint18_linear)"/>
<path d="M131.208 76.3911L142.005 87.3271C142.355 87.6829 142.628 88.1063 142.808 88.5714C142.989 89.0364 143.072 89.5334 143.054 90.0318C143.039 90.4369 143.106 90.8408 143.253 91.2188C143.399 91.5969 143.621 91.9412 143.905 92.2308L144.279 92.6119C144.574 92.8964 144.748 93.2831 144.766 93.6923C144.783 94.1016 144.643 94.5019 144.374 94.8108C144.232 94.9725 144.058 95.1032 143.863 95.1947C143.668 95.2862 143.456 95.3367 143.24 95.3429C143.025 95.349 142.811 95.3109 142.611 95.2307C142.411 95.1505 142.23 95.03 142.078 94.8768L141.66 94.459C141.375 94.1675 141.032 93.9388 140.653 93.7873C140.274 93.6359 139.867 93.5651 139.46 93.5794C138.96 93.5902 138.464 93.4989 138.001 93.3111C137.538 93.1233 137.118 92.843 136.768 92.4873L125.971 81.5513L131.208 76.3911Z" fill="#FEFEFE"/>
<path d="M107.861 127.399L102.03 137.492H100.981V194.481H91.4236V137.492H90.3747L84.5508 127.399L90.3747 117.313L92.8832 121.66L89.5679 127.399L92.8832 133.145H99.5213L102.837 127.399L99.5213 121.66L102.03 117.313L107.861 127.399Z" fill="url(#paint19_linear)"/>
<path d="M100.98 192.92C98.8909 191.88 96.5195 191.55 94.2255 191.979C91.9314 192.407 89.8397 193.572 88.2674 195.295C86.6951 197.019 85.728 199.207 85.5126 201.53C85.2972 203.852 85.8453 206.181 87.0738 208.164C88.3022 210.147 90.1441 211.676 92.3203 212.518C94.4964 213.361 96.8882 213.472 99.133 212.834C101.378 212.196 103.353 210.844 104.76 208.983C106.167 207.122 106.928 204.854 106.929 202.522C106.928 200.527 106.372 198.572 105.321 196.875C104.27 195.179 102.767 193.809 100.98 192.92ZM99.1171 207.579H93.2858L90.3519 202.536L93.2858 197.493H99.1171L102.051 202.536L99.1171 207.579Z" fill="url(#paint20_linear)"/>
<path d="M38.7291 35.3003L73.5993 16.8146L197.097 30.9757L197.361 28.8941L73.1519 14.6523L37.6582 33.4679L38.7291 35.3003Z" fill="white"/>
<path d="M77.7514 212.233H65.5535L65.5535 39.9837C65.5535 38.8835 65.9909 37.8282 66.7694 37.0502C67.548 36.2722 68.604 35.8351 69.705 35.8351H73.6219C74.7229 35.8351 75.7789 36.2722 76.5575 37.0502C77.336 37.8282 77.7734 38.8835 77.7734 39.9837L77.7734 212.233H77.7514Z" fill="url(#paint21_linear)"/>
<path d="M82.7893 197.317H60.5059V212.241H82.7893V197.317Z" fill="url(#paint22_linear)"/>
<path d="M33.8359 36.0256C33.8569 36.8468 34.0395 37.6557 34.3734 38.4063C34.7073 39.1569 35.186 39.8344 35.782 40.4001C36.378 40.9657 37.0797 41.4085 37.8471 41.703C38.6144 41.9975 39.4323 42.1381 40.254 42.1167H198.908C199.336 42.1187 199.764 42.0794 200.184 41.9994C201.101 41.8304 201.97 41.4635 202.73 40.9241C203.49 40.3848 204.124 39.6861 204.585 38.8769C205.069 38.0043 205.321 37.0229 205.319 36.0256C205.317 35.2172 205.149 34.4177 204.826 33.6765C204.503 32.9353 204.032 32.268 203.441 31.7157C202.534 30.8656 201.405 30.2889 200.184 30.0518C199.763 29.9756 199.336 29.9364 198.908 29.9346H40.254C38.7204 29.9015 37.2272 30.428 36.054 31.4156C34.8808 32.4032 34.1079 33.7841 33.8799 35.3C33.8505 35.5407 33.8358 35.7831 33.8359 36.0256Z" fill="url(#paint23_linear)"/>
<path d="M197.223 42.19L197.487 42.4538L201.206 46.17L209.633 54.5919L216.308 71.3405V52.0998L206.267 42.0727L203.773 39.5806L197.421 42.1093L197.223 42.19Z" fill="url(#paint24_linear)"/>
<path d="M178.664 52.1002V71.3408L185.339 54.5923L193.415 46.5222L197.485 42.4542L197.749 42.1903L197.419 42.1097L190.349 40.4238L188.324 42.4468L178.664 52.1002Z" fill="url(#paint25_linear)"/>
<path d="M189.389 36.0261C189.389 37.6019 189.856 39.1423 190.732 40.4525C191.608 41.7628 192.854 42.784 194.311 43.387C195.767 43.9901 197.371 44.1479 198.917 43.8404C200.464 43.533 201.884 42.7742 203 41.6599C204.115 40.5456 204.874 39.126 205.182 37.5804C205.489 36.0349 205.331 34.4329 204.728 32.977C204.124 31.5212 203.102 30.2768 201.791 29.4014C200.48 28.5259 198.939 28.0586 197.362 28.0586C195.247 28.0586 193.219 28.898 191.724 30.3922C190.229 31.8864 189.389 33.913 189.389 36.0261Z" fill="url(#paint26_linear)"/>
<path d="M197.362 40.4237C198.232 40.4237 199.083 40.1657 199.807 39.6825C200.531 39.1992 201.095 38.5124 201.428 37.7088C201.761 36.9052 201.848 36.0209 201.678 35.1678C201.508 34.3147 201.089 33.5311 200.474 32.916C199.858 32.301 199.074 31.8821 198.22 31.7124C197.367 31.5427 196.482 31.6298 195.678 31.9627C194.874 32.2956 194.186 32.8592 193.703 33.5825C193.219 34.3057 192.961 35.156 192.961 36.0258C192.961 37.1922 193.425 38.3108 194.25 39.1356C195.075 39.9603 196.195 40.4237 197.362 40.4237Z" fill="white"/>
<path d="M63.6818 35.7765C63.673 37.3545 64.1334 38.8995 65.0045 40.2157C65.8756 41.5319 67.1182 42.5599 68.5747 43.1695C70.0313 43.7791 71.6361 43.9427 73.1858 43.6397C74.7355 43.3366 76.1603 42.5806 77.2795 41.4673C78.3986 40.3541 79.1618 38.9338 79.4722 37.3866C79.7826 35.8394 79.6262 34.2349 79.023 32.7766C78.4197 31.3183 77.3967 30.0719 76.0836 29.1953C74.7705 28.3188 73.2266 27.8516 71.6475 27.853C69.5418 27.8549 67.5223 28.6892 66.0299 30.1737C64.5375 31.6581 63.6934 33.6723 63.6818 35.7765Z" fill="url(#paint27_linear)"/>
<path d="M71.647 40.1746C72.5175 40.1746 73.3683 39.9167 74.0921 39.4335C74.8158 38.9502 75.3799 38.2634 75.713 37.4598C76.0461 36.6562 76.1332 35.7719 75.9634 34.9188C75.7936 34.0657 75.3745 33.2821 74.759 32.667C74.1435 32.052 73.3593 31.6331 72.5056 31.4634C71.6519 31.2937 70.767 31.3808 69.9629 31.7137C69.1587 32.0465 68.4714 32.6102 67.9878 33.3334C67.5042 34.0567 67.2461 34.907 67.2461 35.7768C67.2461 36.9432 67.7098 38.0618 68.5351 38.8865C69.3604 39.7113 70.4798 40.1746 71.647 40.1746Z" fill="white"/>
<path d="M76.2181 79.1982H71.6484V80.327H76.2181V79.1982Z" fill="url(#paint28_linear)"/>
<path d="M76.2181 86.1763H71.6484V87.3051H76.2181V86.1763Z" fill="url(#paint29_linear)"/>
<path d="M76.2181 93.1543H71.6484V94.2831H76.2181V93.1543Z" fill="url(#paint30_linear)"/>
<path d="M76.2181 100.132H71.6484V101.261H76.2181V100.132Z" fill="url(#paint31_linear)"/>
<path d="M76.2181 107.103H71.6484V108.231H76.2181V107.103Z" fill="url(#paint32_linear)"/>
<path d="M76.2181 114.081H71.6484V115.209H76.2181V114.081Z" fill="url(#paint33_linear)"/>
<path d="M76.2181 121.059H71.6484V122.187H76.2181V121.059Z" fill="url(#paint34_linear)"/>
<path d="M76.2181 128.037H71.6484V129.165H76.2181V128.037Z" fill="url(#paint35_linear)"/>
<path d="M76.2181 135.015H71.6484V136.143H76.2181V135.015Z" fill="url(#paint36_linear)"/>
<path d="M76.2181 141.992H71.6484V143.121H76.2181V141.992Z" fill="url(#paint37_linear)"/>
<path d="M76.2181 148.97H71.6484V150.099H76.2181V148.97Z" fill="url(#paint38_linear)"/>
<path d="M76.2181 155.948H71.6484V157.077H76.2181V155.948Z" fill="url(#paint39_linear)"/>
<path d="M76.2181 162.926H71.6484V164.055H76.2181V162.926Z" fill="url(#paint40_linear)"/>
<path d="M76.2181 169.904H71.6484V171.033H76.2181V169.904Z" fill="url(#paint41_linear)"/>
<path d="M76.2181 176.882H71.6484V178.011H76.2181V176.882Z" fill="url(#paint42_linear)"/>
<path d="M76.2181 183.86H71.6484V184.989H76.2181V183.86Z" fill="url(#paint43_linear)"/>
<path d="M122.003 112.197L118.922 117.276V148.443H115.299V117.276L112.211 112.197L117.111 99.6997L122.003 112.197Z" fill="url(#paint44_linear)"/>
<path d="M123.455 157.29L120.675 159.753L123.455 162.215V211.86H110.766V162.215L113.546 159.753L110.766 157.29V148.589H123.455V157.29Z" fill="url(#paint45_linear)"/>
<path d="M124.041 147.959H110.178C109.7 147.959 109.312 148.346 109.312 148.824V149.63C109.312 150.108 109.7 150.495 110.178 150.495H124.041C124.519 150.495 124.907 150.108 124.907 149.63V148.824C124.907 148.346 124.519 147.959 124.041 147.959Z" fill="url(#paint46_linear)"/>
<path d="M115.768 211.86H113.59V150.495H115.768" fill="url(#paint47_linear)"/>
<path d="M118.467 150.495H120.645V211.86H118.467" fill="url(#paint48_linear)"/>
<path d="M289.941 201.749L298.49 200.399L290.01 146.773L281.461 148.123L289.941 201.749Z" fill="url(#paint49_linear)"/>
<path d="M284.397 139.046C285.53 138.867 286.688 139.144 287.617 139.818C288.545 140.491 289.168 141.505 289.348 142.638L289.495 143.554L280.928 144.902L280.788 143.994C280.699 143.432 280.721 142.858 280.854 142.304C280.987 141.751 281.228 141.23 281.563 140.77C281.899 140.31 282.322 139.921 282.808 139.625C283.294 139.329 283.834 139.133 284.397 139.046Z" fill="url(#paint50_linear)"/>
<path d="M298.48 200.411L295.883 198.527L294.086 200.997L291.571 199.172L289.773 201.642L295.619 210.474L298.48 200.411Z" fill="#F3CBA4"/>
<path d="M296.383 207.814C296.025 207.603 295.604 207.523 295.194 207.587C294.783 207.652 294.408 207.856 294.131 208.166L295.657 210.467L296.383 207.814Z" fill="#01313C"/>
<path d="M295.629 194.89L288.606 150.02C288.574 149.82 288.387 149.683 288.186 149.714L287.853 149.766C287.653 149.798 287.516 149.985 287.547 150.185L294.571 195.055C294.602 195.255 294.79 195.392 294.99 195.36L295.323 195.308C295.523 195.277 295.66 195.089 295.629 194.89Z" fill="#FF9F17"/>
<path d="M292.625 195.365L285.602 150.495C285.57 150.295 285.383 150.158 285.183 150.189L284.849 150.242C284.649 150.273 284.512 150.46 284.544 150.66L291.567 195.53C291.598 195.73 291.786 195.867 291.986 195.835L292.319 195.783C292.519 195.752 292.656 195.565 292.625 195.365Z" fill="#FF9F17"/>
<path d="M289.986 146.789L289.479 143.545L280.927 144.882L281.435 148.126L289.986 146.789Z" fill="#24314A"/>
<path d="M305.308 144.904L296.727 146.028L303.79 199.859L312.372 198.735L305.308 144.904Z" fill="url(#paint51_linear)"/>
<path d="M309.182 207.755C308.619 207.83 308.046 207.792 307.497 207.645C306.948 207.498 306.433 207.244 305.982 206.899C305.532 206.553 305.153 206.122 304.869 205.63C304.585 205.138 304.4 204.595 304.326 204.032L304.209 203.116L312.791 201.994L312.908 202.91C312.982 203.473 312.945 204.045 312.798 204.593C312.65 205.141 312.397 205.655 312.05 206.105C311.704 206.555 311.273 206.932 310.781 207.216C310.288 207.499 309.745 207.682 309.182 207.755Z" fill="url(#paint52_linear)"/>
<path d="M296.727 146.038L299.272 147.995L301.135 145.569L303.599 147.46L305.462 145.041L299.851 136.055L296.727 146.038Z" fill="#F3CBA4"/>
<path d="M299.023 138.701C299.38 138.93 299.806 139.025 300.226 138.97C300.646 138.915 301.033 138.713 301.319 138.401L299.852 136.055L299.023 138.701Z" fill="url(#paint53_linear)"/>
<path d="M299.404 151.627L305.242 196.666C305.268 196.867 305.452 197.008 305.653 196.982L305.987 196.939C306.188 196.913 306.33 196.729 306.304 196.528L300.466 151.489C300.44 151.289 300.256 151.147 300.055 151.173L299.721 151.216C299.52 151.242 299.378 151.426 299.404 151.627Z" fill="url(#paint54_linear)"/>
<path d="M302.424 151.234L308.261 196.273C308.288 196.474 308.471 196.615 308.672 196.589L309.007 196.546C309.208 196.52 309.35 196.336 309.324 196.135L303.486 151.096C303.46 150.896 303.276 150.754 303.075 150.78L302.74 150.823C302.54 150.849 302.398 151.033 302.424 151.234Z" fill="url(#paint55_linear)"/>
<path d="M303.771 199.858L304.193 203.115L312.777 202.004L312.355 198.747L303.771 199.858Z" fill="#24314A"/>
<path d="M314.626 151.826L321.953 152.637L316.109 205.367C316.036 206.03 315.702 206.637 315.181 207.053C314.66 207.47 313.995 207.663 313.331 207.589L310.999 207.331C310.335 207.258 309.729 206.924 309.312 206.404C308.894 205.883 308.701 205.218 308.775 204.556L314.619 151.825L314.626 151.826Z" fill="url(#paint56_linear)"/>
<path d="M323.186 141.695L315.852 140.883L314.64 151.818L321.974 152.63L323.186 141.695Z" fill="#02313D"/>
<path d="M326.808 132.471C326.712 135.876 325.428 139.141 323.178 141.699L315.843 140.886C315.843 140.886 313.452 136.393 314.794 132.464C315.042 131.712 315.367 130.988 315.762 130.302C318.549 125.581 322.525 129.048 321.982 118.904C322.004 118.904 327.014 125.149 326.808 132.471Z" fill="#FDFDFD"/>
<path d="M326.809 132.471C324.953 134.604 321.036 131.914 319.716 130.507C318.139 128.814 315.858 130.243 315.77 130.302C318.557 125.581 322.532 129.048 321.99 118.904C322.004 118.904 327.014 125.149 326.809 132.471Z" fill="url(#paint57_linear)"/>
<path d="M322.48 169.201L322.055 172.932L321.13 181.09L317.639 211.926H287.39L283.898 181.09L282.967 172.932L282.549 169.201H322.48Z" fill="url(#paint58_linear)"/>
<path d="M323.302 166.782H281.72C280.505 166.782 279.52 167.766 279.52 168.981V171.033C279.52 172.247 280.505 173.232 281.72 173.232H323.302C324.517 173.232 325.502 172.247 325.502 171.033V168.981C325.502 167.766 324.517 166.782 323.302 166.782Z" fill="url(#paint59_linear)"/>
<path d="M262.986 91.1089V213.296H277.304V91.1089H262.986ZM270.145 99.2303C269.596 99.2288 269.059 99.0647 268.603 98.7585C268.147 98.4524 267.791 98.018 267.582 97.5103C267.373 97.0026 267.319 96.4442 267.427 95.9059C267.535 95.3675 267.8 94.8732 268.189 94.4854C268.578 94.0976 269.074 93.8338 269.613 93.7272C270.152 93.6206 270.711 93.676 271.218 93.8865C271.726 94.0969 272.159 94.453 272.464 94.9097C272.77 95.3664 272.932 95.9032 272.932 96.4523C272.932 96.8177 272.86 97.1796 272.72 97.5171C272.58 97.8546 272.375 98.1612 272.116 98.4192C271.857 98.6773 271.549 98.8817 271.211 99.0209C270.873 99.1601 270.511 99.2312 270.145 99.2303Z" fill="url(#paint60_linear)"/>
<path d="M267.469 102.661H264.322V103.386H267.469V102.661Z" fill="#243042"/>
<path d="M267.469 106.861H264.322V107.586H267.469V106.861Z" fill="#243042"/>
<path d="M267.469 111.061H264.322V111.786H267.469V111.061Z" fill="#243042"/>
<path d="M267.469 115.261H264.322V115.986H267.469V115.261Z" fill="#243042"/>
<path d="M267.469 119.46H264.322V120.186H267.469V119.46Z" fill="#243042"/>
<path d="M267.469 123.661H264.322V124.386H267.469V123.661Z" fill="#243042"/>
<path d="M267.469 127.868H264.322V128.593H267.469V127.868Z" fill="#243042"/>
<path d="M267.469 132.068H264.322V132.794H267.469V132.068Z" fill="#243042"/>
<path d="M267.469 136.268H264.322V136.993H267.469V136.268Z" fill="#243042"/>
<path d="M267.469 140.468H264.322V141.193H267.469V140.468Z" fill="#243042"/>
<path d="M267.469 144.668H264.322V145.394H267.469V144.668Z" fill="#243042"/>
<path d="M267.469 148.868H264.322V149.593H267.469V148.868Z" fill="#243042"/>
<path d="M267.469 153.068H264.322V153.794H267.469V153.068Z" fill="#243042"/>
<path d="M267.469 157.268H264.322V157.993H267.469V157.268Z" fill="#243042"/>
<path d="M267.469 161.028H264.322V161.753H267.469V161.028Z" fill="#243042"/>
<path d="M267.469 165.228H264.322V165.953H267.469V165.228Z" fill="#243042"/>
<path d="M267.469 169.428H264.322V170.153H267.469V169.428Z" fill="#243042"/>
<path d="M267.469 173.627H264.322V174.353H267.469V173.627Z" fill="#243042"/>
<path d="M267.469 177.828H264.322V178.553H267.469V177.828Z" fill="#243042"/>
<path d="M267.469 182.027H264.322V182.753H267.469V182.027Z" fill="#243042"/>
<path d="M267.469 186.228H264.322V186.953H267.469V186.228Z" fill="#243042"/>
<path d="M267.469 190.428H264.322V191.153H267.469V190.428Z" fill="#243042"/>
<path d="M267.469 194.627H264.322V195.353H267.469V194.627Z" fill="#243042"/>
<path d="M267.469 198.828H264.322V199.553H267.469V198.828Z" fill="#243042"/>
<path d="M267.469 203.027H264.322V203.753H267.469V203.027Z" fill="#243042"/>
<path d="M267.469 207.228H264.322V207.953H267.469V207.228Z" fill="#243042"/>
<path d="M270.48 44.3964C272.352 38.1871 268.833 31.6366 262.619 29.7655C256.406 27.8944 249.851 31.4111 247.978 37.6204C246.106 43.8297 249.625 50.3801 255.839 52.2513C262.052 54.1224 268.607 50.6057 270.48 44.3964Z" fill="white"/>
<path d="M301.319 119.761C307.809 119.761 313.069 114.504 313.069 108.019C313.069 101.534 307.809 96.2764 301.319 96.2764C294.829 96.2764 289.568 101.534 289.568 108.019C289.568 114.504 294.829 119.761 301.319 119.761Z" fill="white"/>
<path d="M115.101 86.1764C105.345 87.2758 104.45 88.1627 103.365 97.904C102.265 88.1554 101.377 87.2685 91.6289 86.1764C101.384 85.0769 102.272 84.1827 103.365 74.4487C104.45 84.1827 105.345 85.0769 115.101 86.1764Z" fill="white"/>
</g>
<defs>
<linearGradient id="paint0_linear" x1="180.66" y1="141.318" x2="180.66" y2="-73.0119" gradientUnits="userSpaceOnUse">
<stop stop-color="#9AE1DB"/>
<stop offset="0.12" stop-color="#A8E5E0" stop-opacity="0.86"/>
<stop offset="0.56" stop-color="#D6F3F0" stop-opacity="0.4"/>
<stop offset="0.86" stop-color="#F4FCFB" stop-opacity="0.11"/>
<stop offset="1" stop-color="white" stop-opacity="0"/>
</linearGradient>
<linearGradient id="paint1_linear" x1="20507.4" y1="29530.9" x2="20507.4" y2="13936.2" gradientUnits="userSpaceOnUse">
<stop stop-color="#9AE1DB"/>
<stop offset="0.12" stop-color="#A8E5E0" stop-opacity="0.86"/>
<stop offset="0.56" stop-color="#D6F3F0" stop-opacity="0.4"/>
<stop offset="0.86" stop-color="#F4FCFB" stop-opacity="0.11"/>
<stop offset="1" stop-color="white" stop-opacity="0"/>
</linearGradient>
<linearGradient id="paint2_linear" x1="-90334.1" y1="29530.9" x2="-90334.1" y2="13936.2" gradientUnits="userSpaceOnUse">
<stop stop-color="#9AE1DB"/>
<stop offset="0.12" stop-color="#A8E5E0" stop-opacity="0.86"/>
<stop offset="0.56" stop-color="#D6F3F0" stop-opacity="0.4"/>
<stop offset="0.86" stop-color="#F4FCFB" stop-opacity="0.11"/>
<stop offset="1" stop-color="white" stop-opacity="0"/>
</linearGradient>
<linearGradient id="paint3_linear" x1="180.382" y1="214.337" x2="180.382" y2="129.136" gradientUnits="userSpaceOnUse">
<stop stop-color="#0C1425"/>
<stop offset="1" stop-color="#24314A"/>
</linearGradient>
<linearGradient id="paint4_linear" x1="25148.2" y1="3969.42" x2="25148.2" y2="3750.49" gradientUnits="userSpaceOnUse">
<stop stop-color="#0C1425"/>
<stop offset="1" stop-color="#24314A"/>
</linearGradient>
<linearGradient id="paint5_linear" x1="211.832" y1="177.967" x2="101.353" y2="92.06" gradientUnits="userSpaceOnUse">
<stop stop-color="white"/>
<stop offset="0.5" stop-color="white" stop-opacity="0.49"/>
<stop offset="1" stop-color="white" stop-opacity="0"/>
</linearGradient>
<linearGradient id="paint6_linear" x1="23626.2" y1="12548.2" x2="12301" y2="2876.16" gradientUnits="userSpaceOnUse">
<stop stop-color="white"/>
<stop offset="0.5" stop-color="white" stop-opacity="0.49"/>
<stop offset="1" stop-color="white" stop-opacity="0"/>
</linearGradient>
<linearGradient id="paint7_linear" x1="25336.2" y1="9040" x2="10773.7" y2="-3812.62" gradientUnits="userSpaceOnUse">
<stop stop-color="white"/>
<stop offset="0.5" stop-color="white" stop-opacity="0.49"/>
<stop offset="1" stop-color="white" stop-opacity="0"/>
</linearGradient>
<linearGradient id="paint8_linear" x1="6833.96" y1="15003" x2="5878.07" y2="12737.4" gradientUnits="userSpaceOnUse">
<stop stop-color="#9AE1DB"/>
<stop offset="0.12" stop-color="#A8E5E0" stop-opacity="0.86"/>
<stop offset="0.56" stop-color="#D6F3F0" stop-opacity="0.4"/>
<stop offset="0.86" stop-color="#F4FCFB" stop-opacity="0.11"/>
<stop offset="1" stop-color="white" stop-opacity="0"/>
</linearGradient>
<linearGradient id="paint9_linear" x1="3098.64" y1="7557.01" x2="2927.55" y2="7151.51" gradientUnits="userSpaceOnUse">
<stop stop-color="#9AE1DB"/>
<stop offset="0.12" stop-color="#A8E5E0" stop-opacity="0.86"/>
<stop offset="0.56" stop-color="#D6F3F0" stop-opacity="0.4"/>
<stop offset="0.86" stop-color="#F4FCFB" stop-opacity="0.11"/>
<stop offset="1" stop-color="white" stop-opacity="0"/>
</linearGradient>
<linearGradient id="paint10_linear" x1="-286.137" y1="-5252.52" x2="-2698.7" y2="-5589.68" gradientUnits="userSpaceOnUse">
<stop stop-color="#9AE1DB"/>
<stop offset="0.12" stop-color="#A8E5E0" stop-opacity="0.86"/>
<stop offset="0.56" stop-color="#D6F3F0" stop-opacity="0.4"/>
<stop offset="0.86" stop-color="#F4FCFB" stop-opacity="0.11"/>
<stop offset="1" stop-color="white" stop-opacity="0"/>
</linearGradient>
<linearGradient id="paint11_linear" x1="48.3709" y1="-2365.22" x2="-383.558" y2="-2425.58" gradientUnits="userSpaceOnUse">
<stop stop-color="#9AE1DB"/>
<stop offset="0.12" stop-color="#A8E5E0" stop-opacity="0.86"/>
<stop offset="0.56" stop-color="#D6F3F0" stop-opacity="0.4"/>
<stop offset="0.86" stop-color="#F4FCFB" stop-opacity="0.11"/>
<stop offset="1" stop-color="white" stop-opacity="0"/>
</linearGradient>
<linearGradient id="paint12_linear" x1="213.448" y1="217.93" x2="213.448" y2="203.989" gradientUnits="userSpaceOnUse">
<stop stop-color="#FF9129"/>
<stop offset="1" stop-color="#FFCA27"/>
</linearGradient>
<linearGradient id="paint13_linear" x1="177.762" y1="208.136" x2="183.014" y2="208.136" gradientUnits="userSpaceOnUse">
<stop stop-color="#FF3629"/>
<stop offset="1" stop-color="#FF7051"/>
</linearGradient>
<linearGradient id="paint14_linear" x1="13918.8" y1="6859.1" x2="11614.6" y2="6364.92" gradientUnits="userSpaceOnUse">
<stop stop-color="#0C1425"/>
<stop offset="1" stop-color="#24314A"/>
</linearGradient>
<linearGradient id="paint15_linear" x1="2889" y1="7097.75" x2="2761.23" y2="7075.4" gradientUnits="userSpaceOnUse">
<stop stop-color="#0C1425"/>
<stop offset="1" stop-color="#24314A"/>
</linearGradient>
<linearGradient id="paint16_linear" x1="9897.76" y1="4329.16" x2="9897.76" y2="7785.37" gradientUnits="userSpaceOnUse">
<stop stop-color="white"/>
<stop offset="0.5" stop-color="white" stop-opacity="0.49"/>
<stop offset="1" stop-color="white" stop-opacity="0"/>
</linearGradient>
<linearGradient id="paint17_linear" x1="2747.17" y1="3404.31" x2="2526.69" y2="3263.2" gradientUnits="userSpaceOnUse">
<stop stop-color="#FF3629"/>
<stop offset="1" stop-color="#FF7051"/>
</linearGradient>
<linearGradient id="paint18_linear" x1="3458.47" y1="674.85" x2="3411.12" y2="547.994" gradientUnits="userSpaceOnUse">
<stop stop-color="#FF3629"/>
<stop offset="1" stop-color="#FF7051"/>
</linearGradient>
<linearGradient id="paint19_linear" x1="3141.94" y1="21176.4" x2="3141.94" y2="16473.8" gradientUnits="userSpaceOnUse">
<stop stop-color="#0C1425"/>
<stop offset="1" stop-color="#24314A"/>
</linearGradient>
<linearGradient id="paint20_linear" x1="2586.65" y1="6117.59" x2="3214.19" y2="6117.59" gradientUnits="userSpaceOnUse">
<stop stop-color="#0C1425"/>
<stop offset="1" stop-color="#24314A"/>
</linearGradient>
<linearGradient id="paint21_linear" x1="1259.18" y1="51348.3" x2="1259.18" y2="16384.4" gradientUnits="userSpaceOnUse">
<stop stop-color="#FF9129"/>
<stop offset="1" stop-color="#FFCA27"/>
</linearGradient>
<linearGradient id="paint22_linear" x1="2220" y1="4548.09" x2="2231.42" y2="4279.76" gradientUnits="userSpaceOnUse">
<stop stop-color="#0C1425"/>
<stop offset="1" stop-color="#24314A"/>
</linearGradient>
<linearGradient id="paint23_linear" x1="50002.3" y1="653.109" x2="37876.3" y2="-1996.26" gradientUnits="userSpaceOnUse">
<stop stop-color="#FF9129"/>
<stop offset="1" stop-color="#FFCA27"/>
</linearGradient>
<linearGradient id="paint24_linear" x1="5490.57" y1="1752.07" x2="6035.44" y2="2501.96" gradientUnits="userSpaceOnUse">
<stop stop-color="#FF9129"/>
<stop offset="1" stop-color="#FFCA27"/>
</linearGradient>
<linearGradient id="paint25_linear" x1="5227.91" y1="1599.88" x2="4664.21" y2="2205.69" gradientUnits="userSpaceOnUse">
<stop stop-color="#FF9129"/>
<stop offset="1" stop-color="#FFCA27"/>
</linearGradient>
<linearGradient id="paint26_linear" x1="4306.67" y1="811.26" x2="4653.18" y2="811.26" gradientUnits="userSpaceOnUse">
<stop stop-color="#0C1425"/>
<stop offset="1" stop-color="#24314A"/>
</linearGradient>
<linearGradient id="paint27_linear" x1="1448.12" y1="805.637" x2="1794.63" y2="805.637" gradientUnits="userSpaceOnUse">
<stop stop-color="#0C1425"/>
<stop offset="1" stop-color="#24314A"/>
</linearGradient>
<linearGradient id="paint28_linear" x1="518.012" y1="202.033" x2="546.527" y2="202.033" gradientUnits="userSpaceOnUse">
<stop stop-color="#0C1425"/>
<stop offset="1" stop-color="#24314A"/>
</linearGradient>
<linearGradient id="paint29_linear" x1="518.012" y1="219.757" x2="546.527" y2="219.757" gradientUnits="userSpaceOnUse">
<stop stop-color="#0C1425"/>
<stop offset="1" stop-color="#24314A"/>
</linearGradient>
<linearGradient id="paint30_linear" x1="518.012" y1="237.483" x2="546.527" y2="237.483" gradientUnits="userSpaceOnUse">
<stop stop-color="#0C1425"/>
<stop offset="1" stop-color="#24314A"/>
</linearGradient>
<linearGradient id="paint31_linear" x1="518.012" y1="255.202" x2="546.527" y2="255.202" gradientUnits="userSpaceOnUse">
<stop stop-color="#0C1425"/>
<stop offset="1" stop-color="#24314A"/>
</linearGradient>
<linearGradient id="paint32_linear" x1="518.012" y1="272.923" x2="546.527" y2="272.923" gradientUnits="userSpaceOnUse">
<stop stop-color="#0C1425"/>
<stop offset="1" stop-color="#24314A"/>
</linearGradient>
<linearGradient id="paint33_linear" x1="518.012" y1="290.646" x2="546.527" y2="290.646" gradientUnits="userSpaceOnUse">
<stop stop-color="#0C1425"/>
<stop offset="1" stop-color="#24314A"/>
</linearGradient>
<linearGradient id="paint34_linear" x1="518.012" y1="308.359" x2="546.527" y2="308.359" gradientUnits="userSpaceOnUse">
<stop stop-color="#0C1425"/>
<stop offset="1" stop-color="#24314A"/>
</linearGradient>
<linearGradient id="paint35_linear" x1="518.012" y1="326.082" x2="546.527" y2="326.082" gradientUnits="userSpaceOnUse">
<stop stop-color="#0C1425"/>
<stop offset="1" stop-color="#24314A"/>
</linearGradient>
<linearGradient id="paint36_linear" x1="518.012" y1="343.806" x2="546.527" y2="343.806" gradientUnits="userSpaceOnUse">
<stop stop-color="#0C1425"/>
<stop offset="1" stop-color="#24314A"/>
</linearGradient>
<linearGradient id="paint37_linear" x1="518.012" y1="361.529" x2="546.527" y2="361.529" gradientUnits="userSpaceOnUse">
<stop stop-color="#0C1425"/>
<stop offset="1" stop-color="#24314A"/>
</linearGradient>
<linearGradient id="paint38_linear" x1="518.012" y1="379.253" x2="546.527" y2="379.253" gradientUnits="userSpaceOnUse">
<stop stop-color="#0C1425"/>
<stop offset="1" stop-color="#24314A"/>
</linearGradient>
<linearGradient id="paint39_linear" x1="518.012" y1="396.981" x2="546.527" y2="396.981" gradientUnits="userSpaceOnUse">
<stop stop-color="#0C1425"/>
<stop offset="1" stop-color="#24314A"/>
</linearGradient>
<linearGradient id="paint40_linear" x1="518.012" y1="414.702" x2="546.527" y2="414.702" gradientUnits="userSpaceOnUse">
<stop stop-color="#0C1425"/>
<stop offset="1" stop-color="#24314A"/>
</linearGradient>
<linearGradient id="paint41_linear" x1="518.012" y1="432.426" x2="546.527" y2="432.426" gradientUnits="userSpaceOnUse">
<stop stop-color="#0C1425"/>
<stop offset="1" stop-color="#24314A"/>
</linearGradient>
<linearGradient id="paint42_linear" x1="518.012" y1="450.146" x2="546.527" y2="450.146" gradientUnits="userSpaceOnUse">
<stop stop-color="#0C1425"/>
<stop offset="1" stop-color="#24314A"/>
</linearGradient>
<linearGradient id="paint43_linear" x1="518.012" y1="467.877" x2="546.527" y2="467.877" gradientUnits="userSpaceOnUse">
<stop stop-color="#0C1425"/>
<stop offset="1" stop-color="#24314A"/>
</linearGradient>
<linearGradient id="paint44_linear" x1="1675.62" y1="10221.2" x2="1675.62" y2="8520.54" gradientUnits="userSpaceOnUse">
<stop stop-color="#0C1425"/>
<stop offset="1" stop-color="#24314A"/>
</linearGradient>
<linearGradient id="paint45_linear" x1="2136.76" y1="20679.3" x2="2136.76" y2="14509.1" gradientUnits="userSpaceOnUse">
<stop stop-color="#FF3629"/>
<stop offset="1" stop-color="#FF7051"/>
</linearGradient>
<linearGradient id="paint46_linear" x1="2599.05" y1="686.427" x2="2599.05" y2="655.867" gradientUnits="userSpaceOnUse">
<stop stop-color="#0C1425"/>
<stop offset="1" stop-color="#24314A"/>
</linearGradient>
<linearGradient id="paint47_linear" x1="454.171" y1="14751.6" x2="454.171" y2="10173.8" gradientUnits="userSpaceOnUse">
<stop stop-color="#FF3629"/>
<stop offset="1" stop-color="#FF7051"/>
</linearGradient>
<linearGradient id="paint48_linear" x1="473.557" y1="14751.6" x2="473.557" y2="10173.8" gradientUnits="userSpaceOnUse">
<stop stop-color="#FF3629"/>
<stop offset="1" stop-color="#FF7051"/>
</linearGradient>
<linearGradient id="paint49_linear" x1="-5059.3" y1="98.9577" x2="-4038.4" y2="-60.8409" gradientUnits="userSpaceOnUse">
<stop stop-color="#FF9129"/>
<stop offset="1" stop-color="#FFCA27"/>
</linearGradient>
<linearGradient id="paint50_linear" x1="-475.91" y1="-1069.46" x2="-466.23" y2="-1007.53" gradientUnits="userSpaceOnUse">
<stop stop-color="#FF3629"/>
<stop offset="1" stop-color="#FF7051"/>
</linearGradient>
<linearGradient id="paint51_linear" x1="3893.85" y1="13768.1" x2="3893.85" y2="11358.1" gradientUnits="userSpaceOnUse">
<stop stop-color="#FF3629"/>
<stop offset="1" stop-color="#FF7051"/>
</linearGradient>
<linearGradient id="paint52_linear" x1="713.09" y1="-4226.17" x2="705.067" y2="-4288.16" gradientUnits="userSpaceOnUse">
<stop stop-color="#FF3629"/>
<stop offset="1" stop-color="#FF7051"/>
</linearGradient>
<linearGradient id="paint53_linear" x1="1234.95" y1="685.732" x2="1242.14" y2="685.732" gradientUnits="userSpaceOnUse">
<stop stop-color="#FF3629"/>
<stop offset="1" stop-color="#FF7051"/>
</linearGradient>
<linearGradient id="paint54_linear" x1="19130.6" y1="427.734" x2="19565.6" y2="427.734" gradientUnits="userSpaceOnUse">
<stop stop-color="#FF3629"/>
<stop offset="1" stop-color="#FF7051"/>
</linearGradient>
<linearGradient id="paint55_linear" x1="19324" y1="426.744" x2="19759.1" y2="426.744" gradientUnits="userSpaceOnUse">
<stop stop-color="#FF3629"/>
<stop offset="1" stop-color="#FF7051"/>
</linearGradient>
<linearGradient id="paint56_linear" x1="3473.92" y1="14167.7" x2="4934.55" y2="12976.1" gradientUnits="userSpaceOnUse">
<stop stop-color="#FF9129"/>
<stop offset="1" stop-color="#FFCA27"/>
</linearGradient>
<linearGradient id="paint57_linear" x1="5136.56" y1="2868.54" x2="5187.16" y2="2563.74" gradientUnits="userSpaceOnUse">
<stop stop-color="#FF3629"/>
<stop offset="1" stop-color="#FF7051"/>
</linearGradient>
<linearGradient id="paint58_linear" x1="16775" y1="9587.13" x2="16577.1" y2="12826.7" gradientUnits="userSpaceOnUse">
<stop stop-color="#0C1425"/>
<stop offset="1" stop-color="#24314A"/>
</linearGradient>
<linearGradient id="paint59_linear" x1="19285.5" y1="1585.44" x2="19284.8" y2="1652.51" gradientUnits="userSpaceOnUse">
<stop stop-color="#0C1425"/>
<stop offset="1" stop-color="#24314A"/>
</linearGradient>
<linearGradient id="paint60_linear" x1="5536.21" y1="38108.5" x2="5536.21" y2="20883.7" gradientUnits="userSpaceOnUse">
<stop stop-color="#FF9129"/>
<stop offset="1" stop-color="#FFCA27"/>
</linearGradient>
<clipPath id="clip0">
<rect width="365" height="221" fill="white"/>
</clipPath>
</defs>
</svg>
