<svg width="35" height="35" viewBox="0 0 35 35" fill="none" xmlns="http://www.w3.org/2000/svg">
<path d="M31.543 0C32.4544 0 33.252 0.302734 33.9355 0.908203C34.6191 1.51367 34.9609 2.27214 34.9609 3.18359C34.9609 4.00391 34.668 4.98698 34.082 6.13281C29.7591 14.3229 26.7318 19.2188 25 20.8203C23.737 22.0052 22.3177 22.5977 20.7422 22.5977C19.1016 22.5977 17.6921 21.9954 16.5137 20.791C15.3353 19.5866 14.7461 18.1576 14.7461 16.5039C14.7461 14.8372 15.3451 13.457 16.543 12.3633L29.0039 1.05469C29.7721 0.351562 30.6185 0 31.543 0ZM13.7891 20.1953C14.2969 21.1849 14.9902 22.0312 15.8691 22.7344C16.748 23.4375 17.7279 23.9323 18.8086 24.2188L18.8281 25.6055C18.8802 28.3789 18.0371 30.638 16.2988 32.3828C14.5605 34.1276 12.2917 35 9.49219 35C7.89062 35 6.47135 34.6973 5.23438 34.0918C3.9974 33.4863 3.00456 32.6562 2.25586 31.6016C1.50716 30.5469 0.94401 29.3555 0.566406 28.0273C0.188802 26.6992 0 25.2669 0 23.7305C0.0911458 23.7956 0.358073 23.9909 0.800781 24.3164C1.24349 24.6419 1.64714 24.9316 2.01172 25.1855C2.3763 25.4395 2.76042 25.6771 3.16406 25.8984C3.56771 26.1198 3.86719 26.2305 4.0625 26.2305C4.59635 26.2305 4.95443 25.9896 5.13672 25.5078C5.46224 24.6484 5.83659 23.916 6.25977 23.3105C6.68294 22.7051 7.13542 22.2103 7.61719 21.8262C8.09896 21.4421 8.67188 21.1328 9.33594 20.8984C10 20.6641 10.6706 20.498 11.3477 20.4004C12.0247 20.3027 12.8385 20.2344 13.7891 20.1953Z" fill="#A0C6FF"/>
</svg>
