<svg width="34" height="34" viewBox="0 0 34 34" fill="none" xmlns="http://www.w3.org/2000/svg">
<g clip-path="url(#clip0)">
<mask id="path-1-inside-1" fill="white">
<path d="M19.4094 26.722L20.2529 26.1848L19.1786 24.4979L18.3444 25.0291C18.0814 25.1895 15.7117 26.5006 13.656 23.2726C12.5855 21.5916 11.3515 20.8919 10.2405 20.7055C10.5414 19.6199 10.4293 18.2059 9.35871 16.5248C7.30298 13.2968 9.49319 11.704 9.74048 11.5394L10.584 11.0022L9.50963 9.31528L8.66446 9.85352C7.20824 10.7857 5.12774 13.6044 7.67175 17.5991C9.17581 19.9609 7.86252 21.0225 7.58448 21.2114L8.67062 22.8908C8.73978 22.8468 10.3758 21.8452 11.9691 24.347C14.5131 28.3417 17.9472 27.6485 19.4094 26.722ZM24.4658 10.4606C24.3967 10.5047 22.7606 11.5063 21.1674 9.0045C18.6234 5.00979 15.1892 5.703 13.727 6.62946L12.8835 7.16662L13.9579 8.85358L14.7921 8.32232C15.0551 8.16194 17.4247 6.85084 19.4804 10.0788C20.551 11.7599 21.785 12.4595 22.896 12.6459C22.595 13.7315 22.7072 15.1456 23.7778 16.8267C25.8335 20.0546 23.6433 21.6475 23.396 21.8121L22.5525 22.3492L23.6268 24.0362L24.472 23.4979C25.9282 22.5658 28.0087 19.747 25.4647 15.7523C23.9606 13.3906 25.2739 12.329 25.552 12.14L24.4658 10.4606Z"/>
</mask>
<path d="M19.4094 26.722L21.5503 30.1009L21.5581 30.0959L19.4094 26.722ZM20.2529 26.1848L22.4016 29.5587L25.7755 27.4101L23.6268 24.0362L20.2529 26.1848ZM19.1786 24.4979L22.5525 22.3492L20.4038 18.9753L17.0299 21.124L19.1786 24.4979ZM18.3444 25.0291L20.4269 28.4443L20.4602 28.424L20.493 28.403L18.3444 25.0291ZM10.2405 20.7055L6.38585 19.6369L5.19957 23.9158L9.57869 24.6504L10.2405 20.7055ZM9.74048 11.5394L7.59182 8.16549L7.55775 8.18719L7.52412 8.20958L9.74048 11.5394ZM10.584 11.0022L12.7326 14.3761L16.1065 12.2275L13.9579 8.85358L10.584 11.0022ZM9.50963 9.31528L12.8835 7.16662L10.7349 3.79271L7.36097 5.94137L9.50963 9.31528ZM8.66446 9.85352L6.5158 6.4796L6.50801 6.48459L8.66446 9.85352ZM7.58448 21.2114L5.3364 17.9029L2.10234 20.1004L4.22569 23.3836L7.58448 21.2114ZM8.67062 22.8908L5.31183 25.0631L7.4689 28.3984L10.8193 26.2648L8.67062 22.8908ZM24.4658 10.4606L27.8246 8.28839L25.6676 4.95303L22.3172 7.0867L24.4658 10.4606ZM13.727 6.62946L11.5862 3.25058L11.5784 3.25555L13.727 6.62946ZM12.8835 7.16662L10.7349 3.79271L7.36097 5.94137L9.50963 9.31528L12.8835 7.16662ZM13.9579 8.85358L10.584 11.0022L12.7326 14.3761L16.1065 12.2275L13.9579 8.85358ZM14.7921 8.32232L12.7095 4.9072L12.6763 4.92749L12.6434 4.94841L14.7921 8.32232ZM22.896 12.6459L26.7506 13.7146L27.9369 9.43565L23.5578 8.70104L22.896 12.6459ZM23.396 21.8121L25.5446 25.186L25.5787 25.1643L25.6123 25.1419L23.396 21.8121ZM22.5525 22.3492L20.4038 18.9753L17.0299 21.124L19.1786 24.4979L22.5525 22.3492ZM23.6268 24.0362L20.2529 26.1848L22.4016 29.5587L25.7755 27.4101L23.6268 24.0362ZM24.472 23.4979L26.6207 26.8719L26.6284 26.8669L24.472 23.4979ZM25.552 12.14L27.8001 15.4485L31.0341 13.251L28.9108 9.96782L25.552 12.14ZM21.5581 30.0959L22.4016 29.5587L18.1043 22.8109L17.2608 23.3481L21.5581 30.0959ZM23.6268 24.0362L22.5525 22.3492L15.8047 26.6465L16.879 28.3335L23.6268 24.0362ZM17.0299 21.124L16.1957 21.6552L20.493 28.403L21.3272 27.8718L17.0299 21.124ZM16.2619 21.614C16.3919 21.5347 16.4779 21.4968 16.5492 21.4736C16.6227 21.4496 16.7513 21.4185 16.9244 21.4295C17.1261 21.4422 17.2876 21.5066 17.369 21.5585C17.4332 21.5994 17.2909 21.5338 17.0299 21.124L10.2821 25.4213C11.8831 27.9352 14.066 29.265 16.4205 29.4136C18.482 29.5437 19.984 28.7143 20.4269 28.4443L16.2619 21.614ZM17.0299 21.124C15.4395 18.6266 13.2843 17.1603 10.9022 16.7607L9.57869 24.6504C9.55068 24.6457 9.57629 24.64 9.66386 24.7015C9.75883 24.7682 9.98719 24.9582 10.2821 25.4213L17.0299 21.124ZM14.0951 21.7742C14.7404 19.4466 14.3231 16.8735 12.7326 14.3761L5.98479 18.6735C6.27971 19.1366 6.35527 19.4238 6.37557 19.5381C6.39429 19.6435 6.37826 19.6643 6.38585 19.6369L14.0951 21.7742ZM12.7326 14.3761C12.4716 13.9664 12.4721 13.8093 12.482 13.8842C12.4945 13.9791 12.4848 14.152 12.4113 14.3399C12.3482 14.5013 12.2658 14.6051 12.212 14.6627C12.1601 14.7183 12.0877 14.7821 11.9568 14.8692L7.52412 8.20958C7.09409 8.49581 5.71176 9.50553 4.96059 11.4268C4.10279 13.6207 4.38382 16.1596 5.98479 18.6735L12.7326 14.3761ZM11.8891 14.9133L12.7326 14.3761L8.4353 7.62833L7.59182 8.16549L11.8891 14.9133ZM13.9579 8.85358L12.8835 7.16662L6.13572 11.4639L7.21005 13.1509L13.9579 8.85358ZM7.36097 5.94137L6.51581 6.47961L10.8131 13.2274L11.6583 12.6892L7.36097 5.94137ZM6.50801 6.48459C5.08467 7.39567 3.5192 9.08189 2.82723 11.4606C2.08496 14.0122 2.48172 16.896 4.29784 19.7478L11.0457 15.4505C10.6591 14.8435 10.5348 14.4197 10.4945 14.1778C10.4555 13.9434 10.4802 13.7936 10.5088 13.6952C10.5415 13.5827 10.6004 13.4709 10.6812 13.3683C10.7697 13.2558 10.8408 13.2098 10.8209 13.2225L6.50801 6.48459ZM4.29784 19.7478C4.46282 20.0068 4.4348 20.0495 4.4045 19.8928C4.36973 19.713 4.36111 19.4177 4.46473 19.0719C4.65931 18.4226 5.08899 18.071 5.3364 17.9029L9.83256 24.5199C10.358 24.1629 11.5834 23.1861 12.1281 21.3683C12.7208 19.3901 12.2452 17.334 11.0457 15.4505L4.29784 19.7478ZM4.22569 23.3836L5.31183 25.0631L12.0294 20.7186L10.9433 19.0392L4.22569 23.3836ZM10.8193 26.2648C10.5081 26.4629 10.027 26.7068 9.38144 26.6474C9.01641 26.6137 8.725 26.4899 8.54301 26.3662C8.3825 26.2571 8.42546 26.2292 8.59516 26.4956L15.343 22.1983C14.0461 20.1619 12.2399 18.8768 10.1152 18.6811C8.23606 18.508 6.90233 19.2747 6.52196 19.5169L10.8193 26.2648ZM8.59516 26.4956C10.4113 29.3474 12.8569 30.9267 15.4836 31.3329C17.9323 31.7116 20.1226 31.0055 21.5503 30.1009L17.2686 23.3431C17.2877 23.331 17.2153 23.3762 17.0757 23.4089C16.9483 23.4387 16.822 23.4448 16.7063 23.4269C16.605 23.4112 16.4589 23.3703 16.2631 23.2359C16.061 23.0971 15.7295 22.8053 15.343 22.1983L8.59516 26.4956ZM22.3172 7.0867C22.6284 6.88851 23.1095 6.64464 23.755 6.70409C24.12 6.73771 24.4115 6.8616 24.5934 6.98526C24.754 7.09434 24.711 7.1223 24.5413 6.85585L17.7935 11.1532C19.0903 13.1895 20.8966 14.4747 23.0213 14.6704C24.9004 14.8435 26.2341 14.0768 26.6145 13.8345L22.3172 7.0867ZM24.5413 6.85585C22.7252 4.0041 20.2795 2.42478 17.6529 2.01854C15.2042 1.63983 13.0139 2.34598 11.5862 3.25059L15.8679 10.0083C15.8488 10.0204 15.9211 9.97529 16.0607 9.94259C16.1882 9.91275 16.3144 9.90665 16.4302 9.92455C16.5314 9.94021 16.6776 9.98117 16.8734 10.1156C17.0755 10.2543 17.4069 10.5462 17.7935 11.1532L24.5413 6.85585ZM11.5784 3.25555L10.7349 3.79271L15.0322 10.5405L15.8757 10.0034L11.5784 3.25555ZM9.50963 9.31528L10.584 11.0022L17.3318 6.70492L16.2574 5.01797L9.50963 9.31528ZM16.1065 12.2275L16.9407 11.6962L12.6434 4.94841L11.8092 5.47967L16.1065 12.2275ZM16.8746 11.7374C16.7446 11.8167 16.6585 11.8546 16.5872 11.8779C16.5137 11.9019 16.3852 11.9329 16.2121 11.922C16.0104 11.9093 15.8488 11.8449 15.7675 11.793C15.7032 11.752 15.8455 11.8176 16.1065 12.2275L22.8543 7.93017C21.2534 5.4163 19.0705 4.08647 16.7159 3.93788C14.6544 3.80778 13.1524 4.63712 12.7095 4.9072L16.8746 11.7374ZM16.1065 12.2275C17.697 14.7249 19.8521 16.1912 22.2342 16.5908L23.5578 8.70104C23.5858 8.70574 23.5602 8.71147 23.4726 8.64995C23.3776 8.58322 23.1493 8.39327 22.8543 7.93017L16.1065 12.2275ZM19.0414 11.5773C18.3961 13.9049 18.8134 16.4779 20.4038 18.9753L27.1517 14.678C26.8567 14.2149 26.7812 13.9276 26.7609 13.8134C26.7422 13.708 26.7582 13.6872 26.7506 13.7146L19.0414 11.5773ZM20.4038 18.9753C20.6648 19.3851 20.6643 19.5421 20.6545 19.4672C20.642 19.3723 20.6517 19.1994 20.7251 19.0116C20.7882 18.8502 20.8707 18.7463 20.9244 18.6888C20.9763 18.6331 21.0487 18.5694 21.1796 18.4822L25.6123 25.1419C26.0424 24.8557 27.4247 23.8459 28.1759 21.9247C29.0337 19.7308 28.7526 17.1919 27.1517 14.678L20.4038 18.9753ZM21.2473 18.4381L20.4038 18.9753L24.7012 25.7231L25.5446 25.186L21.2473 18.4381ZM19.1786 24.4979L20.2529 26.1848L27.0007 21.8875L25.9264 20.2006L19.1786 24.4979ZM25.7755 27.4101L26.6206 26.8718L22.3233 20.124L21.4782 20.6623L25.7755 27.4101ZM26.6284 26.8669C28.0518 25.9558 29.6173 24.2696 30.3092 21.8909C31.0515 19.3393 30.6547 16.4554 28.8386 13.6037L22.0908 17.901C22.4773 18.5079 22.6017 18.9318 22.6419 19.1737C22.681 19.4081 22.6563 19.5579 22.6276 19.6563C22.5949 19.7688 22.536 19.8805 22.4553 19.9832C22.3668 20.0957 22.2957 20.1417 22.3155 20.129L26.6284 26.8669ZM28.8386 13.6037C28.6736 13.3446 28.7017 13.3019 28.732 13.4587C28.7667 13.6385 28.7753 13.9338 28.6717 14.2796C28.4771 14.9289 28.0475 15.2804 27.8001 15.4485L23.3039 8.83155C22.7784 9.18858 21.5531 10.1654 21.0084 11.9832C20.4156 13.9614 20.8913 16.0174 22.0908 17.901L28.8386 13.6037ZM28.9108 9.96782L27.8246 8.28839L21.1071 12.6328L22.1932 14.3123L28.9108 9.96782Z" fill="#004063" mask="url(#path-1-inside-1)"/>
</g>
<defs>
<clipPath id="clip0">
<rect width="24" height="24" fill="white" transform="translate(0 13) rotate(-32.4908)"/>
</clipPath>
</defs>
</svg>
