<svg width="1401" height="1040" viewBox="0 0 1401 1040" fill="none" xmlns="http://www.w3.org/2000/svg">
<g clip-path="url(#clip0)">
<rect width="1401" height="1040" fill="white" fill-opacity="0.41"/>
<path d="M1290.69 252.809C1131.68 31.6787 795.779 -58.0214 465.43 38.5878C290.784 89.6621 122.393 191.997 38.9428 390.151C-110.234 744.372 202.981 857.502 407.79 893.558C506.824 910.992 600.098 940.279 685.332 980.152C838.676 1051.89 1110.11 1115.45 1314.78 816.64C1463.13 600.06 1396.61 400.104 1290.69 252.809Z" fill="#F2F2F2" fill-opacity="0.09"/>
<path d="M368.803 296.559C368.358 293.045 367.458 289.603 366.126 286.32C365.956 285.699 365.659 285.12 365.253 284.621C364.847 284.121 364.342 283.711 363.769 283.418C363.003 283.219 362.199 283.21 361.429 283.392L349.418 285.228C348.413 285.274 347.45 285.648 346.678 286.292C345.113 287.937 346.654 290.584 346.606 292.852C346.552 295.403 344.284 297.473 341.825 298.158C339.315 298.665 336.726 298.633 334.229 298.064L317.434 295.456C322.38 293.878 326.783 290.942 330.139 286.983C332.349 284.366 333.525 279.481 330.331 278.242C329.382 277.982 328.392 277.902 327.414 278.008C319.805 278.067 313.817 271.718 306.693 269.044C302.134 267.443 297.185 267.324 292.554 268.703C287.923 270.083 283.847 272.891 280.909 276.725L289.856 277.156C290.697 277.11 291.532 277.332 292.239 277.791C294.2 279.401 291.762 282.494 292.038 285.015C292.397 288.29 296.749 288.989 300.029 289.321C303.309 289.652 307.471 292.315 305.893 295.208C289.406 300.884 272.628 284.114 255.313 286.179C250.93 286.701 246.792 288.422 242.513 289.503C216.376 296.112 189.355 278.479 162.655 282.214C156.719 283.225 150.885 284.762 145.222 286.808C141.588 288.001 137.798 289.289 135.158 292.055C132.517 294.82 131.512 299.55 134.014 302.441C127.119 303.009 120.179 302.349 113.515 300.494C115.317 301.495 116.816 302.963 117.855 304.742C118.894 306.522 119.434 308.549 119.419 310.609C108.654 312.363 98.1742 315.557 88.2612 320.103C90.1114 323.178 92.2723 326.055 94.7101 328.689L81.082 337.439C85.6863 338.598 88.0668 344.872 85.3892 348.791C90.1633 346.668 93.122 341.178 98.2271 340.064C101.572 339.335 104.975 340.702 108.147 341.987C111.32 343.271 114.807 344.517 118.092 343.553C121.376 342.589 123.799 338.333 121.712 335.621C135.751 331.527 150.259 329.262 164.878 328.881C166.006 328.74 167.15 328.957 168.148 329.501C170.051 330.821 169.55 333.67 169.448 335.983C169.345 338.295 171.148 341.335 173.217 340.292C170.783 342.401 172.863 346.37 175.198 348.587C177.532 350.805 180.346 353.864 178.916 356.748C178.543 357.501 177.911 358.103 177.552 358.863C176.493 361.105 178.175 363.719 180.158 365.208C182.142 366.697 184.572 367.737 185.95 369.799C187.328 371.861 186.703 375.47 184.238 375.758L177.234 366.87C174.841 369.35 173.201 372.457 172.503 375.831C179.93 381.899 181.047 394.249 174.829 401.55C171.652 405.281 167.133 407.548 163.189 410.458C159.245 413.368 155.595 417.512 155.605 422.411C155.622 430.875 154.93 438.739 158.104 446.587C163.957 461.057 170.714 475.145 178.335 488.768C180.336 492.345 182.923 496.266 186.977 496.882C181.853 484.415 177.241 471.755 173.14 458.901C175.811 458.912 178.898 459.124 180.464 461.286C181.76 463.077 181.482 465.512 181.885 467.686C182.397 469.792 183.252 471.799 184.414 473.629L208.883 517.187C210.911 520.798 213.238 524.674 217.115 526.136C219.593 527.071 222.461 526.895 224.742 528.241C226.53 529.296 227.735 531.169 229.558 532.163C234.712 534.973 241.88 529.584 246.697 532.939C248.074 533.898 248.95 535.422 250.219 536.52C254.668 540.371 261.966 537.795 267.102 540.667C270.412 542.518 272.127 546.22 273.893 549.575C278.315 557.979 285.47 566.212 294.947 566.881C297.924 567.091 300.965 566.527 303.875 567.189C306.785 567.85 309.65 570.388 309.183 573.334C308.382 578.384 310.879 583.914 310.208 588.983C308.987 598.217 295.881 602.275 294.756 611.52C294.509 613.544 294.895 615.634 294.413 617.615C293.821 620.044 291.996 622.021 291.348 624.435C290.119 629.01 293.398 633.562 297.001 636.64C300.604 639.717 304.901 642.371 306.871 646.679C308.953 651.233 307.93 656.542 308.607 661.502C310.085 672.332 319.444 680.359 329.076 685.536C332.011 687.113 335.162 688.64 337.061 691.376C339.541 694.947 339.294 699.654 340.121 703.921C342.149 714.371 350.951 722.981 351.201 733.622C351.379 741.186 347.172 748.047 344.659 755.184C342.303 762.022 341.45 769.287 342.159 776.483C342.868 783.68 345.122 790.64 348.767 796.887C350.647 800.059 352.896 803.05 354.226 806.49C356.599 812.627 355.829 819.603 358.017 825.809C360.91 834.013 368.859 840.79 368.099 849.455C371.707 856.945 379.677 860.625 387.69 862.854L402.052 866.85C404.802 867.615 407.675 868.386 410.476 867.832C413.276 867.278 415.948 864.954 415.876 862.102C408.833 860.515 401.564 858.827 395.759 854.538C389.953 850.249 385.976 842.611 388.179 835.74C389.2 832.554 391.373 828.875 389.307 826.242C388.124 824.735 385.961 824.341 384.627 822.966C382.546 820.821 383.261 817.217 384.757 814.63C386.253 812.044 388.416 809.732 389.019 806.806C389.324 805.169 389.12 803.478 388.436 801.959C387.751 800.441 386.619 799.168 385.19 798.312C387.853 797.307 390.275 795.754 392.298 793.754C394.168 791.62 395.031 788.331 393.561 785.906C397.928 786.459 403.083 786.73 405.95 783.392C408.239 780.726 408.082 776.74 407.178 773.346C406.273 769.951 404.744 766.654 404.697 763.141C414.77 763.618 424.866 763.276 434.885 762.118C433.436 757.242 430.144 753.122 425.707 750.631C430.244 749.864 434.377 744.435 435.811 740.065C437.244 735.695 436.879 730.935 435.993 726.422C435.653 725.26 435.606 724.032 435.857 722.848C436.368 721.22 437.968 720.227 439.447 719.378L461.969 706.452C463.313 705.779 464.531 704.88 465.57 703.795C467.93 701.025 467.581 696.844 466.372 693.412C465.164 689.981 463.229 686.754 462.764 683.146C461.372 672.356 472.929 664.614 476.83 654.457C478.361 650.471 478.673 646.138 478.969 641.879C479.287 637.305 479.311 631.991 475.796 629.043C472.427 626.217 467.163 626.848 463.637 624.219C460.405 621.809 459.29 617.129 455.759 615.183C452.552 613.415 448.532 614.539 444.966 613.708C438.686 612.244 434.734 605.011 428.321 604.342C424.703 603.964 420.608 605.732 417.642 603.626C415.029 601.77 414.924 598.04 414.427 594.876C413.555 589.957 411.196 585.423 407.668 581.886C404.139 578.348 399.61 575.976 394.691 575.089C390.961 574.491 386.9 574.718 383.726 572.669C380.512 570.594 379.039 566.71 376.514 563.837C372.446 559.206 366.038 557.561 360.035 556.151L335.619 550.414C331.285 549.396 325.698 548.856 323.372 552.65C322.683 554.095 322.196 555.627 321.923 557.204C321.052 560.056 319.298 562.559 316.913 564.353C314.529 566.146 311.637 567.138 308.653 567.186C306.607 563.698 303.292 561.134 299.4 560.03C296.924 559.341 294.274 559.264 291.913 558.249C290.627 557.622 289.482 556.739 288.549 555.655C287.617 554.57 286.915 553.307 286.488 551.942C286.061 550.577 285.917 549.139 286.065 547.717C286.213 546.294 286.65 544.917 287.349 543.669C288.757 541.164 289.3 538.266 288.896 535.422C288.492 532.578 287.162 529.946 285.112 527.932C280.96 524.207 274.953 523.306 269.386 523.679C267.928 520.499 270.366 516.912 272.993 514.601C275.62 512.29 278.811 510.019 279.383 506.568C280.283 501.14 273.353 497.017 268.091 498.636C262.829 500.254 259.471 505.362 257.251 510.397C255.977 513.285 254.894 516.327 252.885 518.763C250.876 521.199 247.64 522.943 244.58 522.161C240.247 521.055 238.573 515.91 237.615 511.545C236.328 505.689 235.034 499.751 235.304 493.76C235.573 487.77 237.594 481.62 242.014 477.565C249.216 470.957 260.265 471.605 269.985 472.659C267.689 470.073 268.256 465.715 270.713 463.281C272.01 462.129 273.569 461.311 275.254 460.898C276.939 460.484 278.699 460.487 280.383 460.907C283.312 461.516 285.95 463.093 287.874 465.383C290.636 468.749 291.421 473.293 293.509 477.113C295.597 480.933 300.292 484.191 304.134 482.142C307.453 480.372 307.98 475.772 307.154 472.104C306.328 468.436 304.574 464.87 304.873 461.122C305.444 453.971 312.861 449.666 319.407 446.721C325.953 443.776 333.448 439.815 334.485 432.716C334.521 431.326 334.783 429.952 335.262 428.646C335.988 427.493 336.997 426.545 338.193 425.892C357.296 413.275 376.718 400.504 398.552 393.61C399.688 393.251 399.822 393.65 400.979 393.369C402.6 392.433 401.526 389.844 399.973 388.801C398.419 387.758 396.343 386.958 395.949 385.13C395.659 383.786 396.451 382.467 396.657 381.107C397.163 377.767 393.165 374.683 390.059 376.018C388.306 373.697 391.776 371 394.582 370.228C403.009 367.91 411.659 366.498 420.385 366.015C421.392 365.855 422.424 366.031 423.322 366.514C424.787 367.529 424.6 369.856 423.561 371.304C422.523 372.753 420.907 373.662 419.612 374.887C418.198 376.264 417.189 378.003 416.696 379.913C416.203 381.824 416.245 383.833 416.816 385.722C421.372 388.038 426.325 390.422 431.37 389.606C436.416 388.79 440.894 383.125 438.523 378.6C436.314 374.386 429.68 373.436 428.539 368.818C427.204 363.411 434.863 358.602 433.137 353.306C432.382 350.987 430.068 349.621 428.293 347.947C426.197 345.893 424.771 343.254 424.203 340.376C423.635 337.498 423.95 334.516 425.109 331.821C422.218 332.329 419.247 332.137 416.445 331.261C413.643 330.385 411.093 328.85 409.007 326.785C405.156 322.901 402.084 316.773 396.615 316.947C391.596 317.107 387.273 322.958 382.58 321.173C381.426 320.734 380.209 319.84 379.09 320.364C378.723 320.602 378.416 320.92 378.19 321.294C377.965 321.668 377.827 322.088 377.788 322.523C376.596 328.221 378.647 334.714 375.54 339.637C372.158 344.995 364.336 345.738 360.237 350.57C358.012 353.193 357.149 356.727 355.104 359.492C353.058 362.257 348.717 364.015 346.262 361.605C347.469 359.127 347.798 356.312 347.197 353.622C346.595 350.932 345.099 348.526 342.952 346.796C340.673 345.31 338.216 344.116 335.639 343.242C332.76 342.024 330.021 340.498 327.47 338.691C326.192 337.921 325.154 336.811 324.471 335.485C323.931 333.824 324.004 332.025 324.676 330.413C325.921 326.847 328.117 323.688 331.027 321.278C333.937 318.867 337.45 317.297 341.188 316.736C344.456 316.292 348.26 316.449 350.423 313.96C351.568 312.643 352.168 310.652 353.829 310.117C354.892 309.904 355.995 310.04 356.974 310.504L369.173 314.796C370.534 315.41 372.033 315.657 373.519 315.514C374.256 315.415 374.928 315.041 375.401 314.467C375.874 313.893 376.111 313.161 376.067 312.419C375.677 310.395 372.56 309.423 372.843 307.381C373.002 306.719 373.358 306.121 373.864 305.666C378.267 300.983 383.651 297.331 389.631 294.971C395.612 292.611 402.04 291.601 408.456 292.014C409.996 294.542 407.561 297.534 405.535 299.692C403.508 301.849 401.88 305.704 404.33 307.365C405.335 307.877 406.452 308.128 407.579 308.096C410.582 308.502 413.501 309.387 416.224 310.716C420.44 312.55 424.574 314.556 428.628 316.734C428.27 314.063 427.928 311.249 428.941 308.752C429.954 306.254 432.834 304.295 435.349 305.268C437.772 306.205 439.015 309.412 441.598 309.706C445.042 310.098 446.401 305.013 444.962 301.861C443.523 298.709 440.675 296.069 440.437 292.613C440.277 290.281 441.165 287.389 439.301 285.977C438.638 285.553 437.885 285.289 437.102 285.206L390.564 276.648C387.801 276.14 383.808 276.529 383.686 279.335C383.617 280.901 385.017 282.45 384.397 283.89C383.735 285.427 381.562 285.286 379.978 285.83C377.522 286.673 376.289 289.588 376.525 292.173C376.957 294.742 377.952 297.183 379.44 299.322C376.413 298.057 371.83 297.824 368.803 296.559Z" fill="#3F3D56" fill-opacity="0.09"/>
<path d="M331.668 257.079C328.734 256.109 325.572 256.063 322.61 256.95C319.649 257.836 317.032 259.611 315.115 262.034C314.348 263.042 313.705 264.432 314.346 265.524C315.266 267.089 317.609 266.471 319.337 265.911C321.877 265.004 324.641 264.938 327.221 265.723C328.843 266.28 330.294 267.263 331.924 267.799C332.717 268.131 333.586 268.24 334.436 268.116C335.287 267.992 336.088 267.638 336.753 267.094C337.871 265.954 337.941 264.182 337.943 262.586C338.021 262.051 337.978 261.507 337.818 260.991C337.658 260.476 337.385 260.002 337.019 259.606C336.367 259.228 335.634 259.012 334.881 258.974C333.195 258.662 331.671 257.772 330.571 256.457" fill="#3F3D56" fill-opacity="0.09"/>
<path d="M348.45 252.41C347.794 252.374 347.139 252.508 346.549 252.798C345.958 253.089 345.453 253.526 345.081 254.068C344.709 254.61 344.482 255.238 344.424 255.893C344.365 256.547 344.475 257.206 344.745 257.806C346.762 258.355 348.869 258.493 350.94 258.209C351.973 258.049 352.936 257.587 353.706 256.881C354.477 256.175 355.021 255.256 355.271 254.242C352.832 254.685 350.315 254.205 348.212 252.895" fill="#3F3D56" fill-opacity="0.09"/>
<path d="M404.75 244.612C399.26 245.779 393.928 247.589 388.863 250.005C391.251 250.923 393.28 252.582 394.653 254.739C396.025 256.896 396.668 259.437 396.487 261.986C396.273 262.965 396.297 263.981 396.559 264.949C397.143 266.362 398.833 266.893 400.32 267.256C402.99 268.068 405.779 268.423 408.568 268.308C409.963 268.235 411.318 267.815 412.51 267.087C413.702 266.359 414.694 265.346 415.395 264.138C415.799 262.992 416.273 261.872 416.815 260.784C420.378 255.362 430.962 261.918 434.787 256.677C436.135 254.831 436.011 252.052 437.768 250.589C438.677 249.952 439.73 249.55 440.832 249.42C448.525 247.893 456.295 246.787 464.109 246.107C467.811 245.785 472.637 244.457 472.667 240.743C458.723 238.006 444.264 239.95 431.539 246.273C426.954 248.567 420.89 253.395 416.474 250.352C414.82 249.213 414.902 246.146 412.626 244.865C410.3 243.555 407.22 244.088 404.75 244.612Z" fill="#3F3D56" fill-opacity="0.09"/>
<path d="M450.353 253.135L456.899 254.392C455.694 254.338 454.491 254.542 453.372 254.99C452.252 255.438 451.241 256.119 450.405 256.989C449.57 257.858 448.929 258.896 448.527 260.032C448.125 261.168 447.969 262.377 448.071 263.578C454.201 265.625 460.884 263.633 467.342 263.905C473.799 264.177 481.312 268.787 480.209 275.151C479.876 277.075 478.764 278.998 479.342 280.864C479.748 282.171 480.902 283.099 481.553 284.303C482.91 286.812 481.825 289.986 480.112 292.267C478.398 294.548 476.095 296.368 474.59 298.792C470.849 304.821 472.975 312.616 475.203 319.351C475.848 321.896 477.038 324.271 478.691 326.311C481.992 329.819 487.373 330.124 492.192 330.195C495.699 330.246 499.716 330.073 501.934 327.357C504.83 323.812 502.805 318.28 504.712 314.119C506.443 310.34 510.854 308.719 514.851 307.569C522.173 305.463 529.634 303.672 536.556 300.49C545.152 296.539 553.185 290.382 562.632 289.873C565.282 289.73 567.999 290.043 570.552 289.317C573.105 288.591 575.53 286.386 575.336 283.74C575.171 281.48 573.258 279.82 571.762 278.116C570.267 276.412 569.093 273.791 570.467 271.988L595.23 267.366C593.475 262.586 592.107 256.289 596.141 253.178C597.596 252.055 599.544 251.606 600.783 250.249C602.895 247.935 601.833 243.95 599.396 241.983C596.958 240.016 593.661 239.559 590.539 239.3C579.681 238.398 568.761 238.994 557.882 239.59C536.616 240.755 515.35 241.92 494.084 243.085C489.803 243.319 484.86 242.961 480.934 244.42C477.61 245.656 475.246 247.924 471.445 248.721C464.427 250.193 456.703 249.197 450.353 253.135Z" fill="#3F3D56" fill-opacity="0.09"/>
<path d="M567.621 304.842C566.954 304.737 566.272 304.891 565.715 305.274C565.348 305.679 565.129 306.197 565.095 306.742C564.672 309.151 565.176 311.63 566.504 313.683C567.181 314.69 568.115 315.498 569.21 316.022C570.305 316.547 571.52 316.769 572.729 316.665C575.677 316.29 577.849 313.777 580.559 312.55C584.735 310.662 602.471 307.719 590.202 301.094C585.974 298.812 583.242 300.827 579.91 302.33C576.118 304.269 571.869 305.137 567.621 304.842V304.842Z" fill="#3F3D56" fill-opacity="0.09"/>
<path d="M675.082 249.395C673.649 249.98 672.451 251.023 671.673 252.36C671.315 253.039 671.232 253.83 671.441 254.568C671.65 255.307 672.135 255.937 672.796 256.328C673.331 256.522 673.898 256.612 674.467 256.593L680.292 256.767C682.767 256.841 685.858 257.368 686.523 259.751C687.017 261.521 685.912 263.795 687.245 265.059C687.817 265.502 688.506 265.771 689.227 265.832C691.146 266.324 693.149 266.389 695.096 266.021C699.335 264.885 697.107 262.3 698.442 259.998C700.485 256.476 700.131 258.608 703.73 256.589C706.388 255.099 709.822 252.394 707.604 248.595C703.746 241.988 680.774 246.557 675.082 249.395Z" fill="#3F3D56" fill-opacity="0.09"/>
<path d="M790.056 246.073L786.673 246.524C779.046 247.541 771.375 248.568 764.028 250.857C767.208 252.114 770.545 252.932 773.946 253.289C775.818 253.381 777.677 253.645 779.501 254.078C782.746 255.044 786.015 257.536 789.15 256.259C791.094 255.468 791.728 253.445 793.338 252.373C794.45 251.633 798.667 250.435 799.138 249.688C802.949 243.649 792.985 245.682 790.056 246.073Z" fill="#3F3D56" fill-opacity="0.09"/>
<path d="M804.909 261.437C800.39 263.962 796.198 267.03 792.426 270.572C790.837 272.065 789.213 273.922 789.358 276.097C789.549 278.988 792.631 280.665 795.3 281.795L806.113 286.37C807.425 284.522 806.224 281.971 804.869 280.156C803.513 278.34 801.902 276.239 802.501 274.054C803.184 271.561 806.227 270.711 808.778 270.281C812.934 269.581 824.147 269.638 822.799 262.943C821.212 255.055 809.081 259.106 804.909 261.437Z" fill="#3F3D56" fill-opacity="0.09"/>
<path d="M802.734 707.823C801.705 710.802 801.607 714.31 803.388 716.911C805.386 719.828 809.385 720.916 812.845 720.176C816.29 719.26 819.361 717.287 821.624 714.535C823.695 712.229 825.398 709.619 826.674 706.795C828.456 702.396 829.712 697.802 830.418 693.108L833.775 675.492C834.525 671.555 834.496 659.484 827.255 663.417C825.277 664.491 820.697 672.974 818.624 675.379C814.888 679.715 814.394 683.921 812.427 689.173C809.963 695.752 805.012 701.234 802.734 707.823Z" fill="#3F3D56" fill-opacity="0.09"/>
<path d="M1185.17 797.972C1182.8 797.048 1180.5 795.954 1178.29 794.698C1176.07 800.791 1174.89 807.213 1174.8 813.696L1191.01 804.527C1193.45 803.148 1196.22 801.232 1196.17 798.432C1196.19 798.086 1196.12 797.741 1195.96 797.432C1195.8 797.124 1195.56 796.863 1195.27 796.678C1194.91 796.534 1194.52 796.488 1194.13 796.545C1191.73 796.745 1189.54 797.928 1187.27 798.75C1185 799.572 1182.35 800.006 1180.27 798.786" fill="#3F3D56" fill-opacity="0.41"/>
<path d="M1270.69 803.415C1268.92 803.899 1267.18 804.522 1265.5 805.28C1261.77 807.171 1259.24 810.765 1255.9 813.256C1252.69 815.641 1248.84 816.95 1245.05 818.223C1243.94 819.207 1244.45 821.188 1245.66 822.052C1246.96 822.791 1248.45 823.126 1249.94 823.014C1253.87 823.101 1258.02 823.139 1261.46 821.24C1263.4 819.982 1265.22 818.541 1266.89 816.937C1270.91 813.578 1275.75 811.362 1280.54 809.22C1282.28 808.563 1283.89 807.6 1285.3 806.377C1288.31 803.414 1288.52 798.843 1284.18 797.835C1280.68 797.02 1274.03 802.336 1270.69 803.415Z" fill="#3F3D56" fill-opacity="0.09"/>
<path d="M1308.48 778.746C1308.68 776.708 1308.41 774.652 1307.69 772.733C1306.97 770.815 1305.83 769.084 1304.35 767.672C1304.3 771.751 1304.18 776.096 1301.88 779.469C1300.25 781.872 1297.68 783.495 1295.89 785.784C1294.1 788.073 1293.3 791.702 1295.4 793.71C1296.75 794.732 1298.38 795.295 1300.07 795.317C1304.26 795.809 1309.1 796.084 1312.03 793.063C1313.63 791.414 1314.41 788.972 1316.37 787.76C1317.1 787.455 1317.74 786.99 1318.27 786.4C1319.08 785.119 1317.79 783.43 1316.35 782.968C1314.91 782.507 1313.32 782.724 1311.87 782.285C1310.42 781.847 1309.09 780.217 1309.83 778.899" fill="#3F3D56" fill-opacity="0.09"/>
<path d="M1241.32 629.203C1239.13 629.736 1236.85 629.87 1234.61 629.598C1230.89 628.914 1227.99 626.108 1224.98 623.808C1217.83 618.368 1209.14 615.334 1200.16 615.141C1191.99 614.987 1183.74 617.199 1175.71 615.656C1176.24 618.57 1178.73 620.756 1181.4 622.055C1184.06 623.355 1187 624.008 1189.67 625.281C1193.96 627.34 1197.36 630.873 1199.25 635.234C1200.11 637.244 1200.65 639.431 1201.96 641.186C1204.62 644.774 1209.68 645.562 1214.14 645.268C1219.96 644.886 1226.04 643.213 1231.45 645.38C1235.59 647.037 1238.56 650.659 1242.02 653.476C1245.47 656.293 1250.34 658.383 1254.31 656.351C1250.19 655.016 1246.6 652.4 1244.07 648.882C1241.54 645.365 1240.2 641.132 1240.25 636.8C1244.14 637.158 1255.36 637.019 1254.75 630.407C1254.24 624.802 1244.67 628.598 1241.32 629.203Z" fill="#3F3D56" fill-opacity="0.09"/>
<path d="M1190.38 674.798C1191.07 671.009 1194.85 667.662 1193.67 663.994C1192.86 661.457 1189.92 660.205 1187.25 660.142C1184.59 660.08 1181.97 660.873 1179.3 660.948C1177.57 660.856 1175.83 660.88 1174.1 661.022C1168.81 661.891 1165.55 667.432 1160.56 669.402C1157.53 670.6 1154.13 670.371 1150.98 671.199C1143.82 673.079 1139.29 679.837 1134.29 685.285C1126.21 694.049 1115.68 700.186 1104.06 702.901C1099.99 703.842 1095.62 704.445 1092.39 707.085C1088.1 710.583 1087.05 716.578 1086.1 722.022C1083.46 737.059 1079.44 751.818 1074.08 766.111L1091.07 768.28C1094.3 768.692 1097.65 769.095 1100.76 768.139C1103.02 767.286 1105.17 766.146 1107.14 764.746C1114.7 760.05 1123.17 756.995 1132 755.777C1136.45 755.167 1141.11 755.055 1145.29 756.708C1149.46 758.361 1153.05 762.109 1153.4 766.584C1155.2 766.023 1157.13 765.962 1158.96 766.409C1160.8 766.855 1162.48 767.792 1163.83 769.12C1166.49 771.829 1168.23 775.305 1168.81 779.057C1169.26 781.38 1169.71 784.164 1171.86 785.139C1173.62 785.934 1175.64 785.078 1177.57 784.924C1184.1 784.401 1189.52 792.014 1195.94 790.703C1202.83 789.297 1204.52 778.99 1211.24 776.925C1215.1 775.74 1220.51 777.181 1222.36 773.595C1223.98 770.433 1220.74 766.785 1221.07 763.245C1221.48 758.886 1226.63 757.035 1230.59 755.175C1244.27 748.763 1250.76 730.371 1244.13 716.806C1240.21 708.768 1232.48 702.442 1231.05 693.612C1229.96 686.819 1232.64 678.897 1228.3 673.55C1226.1 670.83 1222.36 669.329 1221.05 666.083C1220.23 664.04 1220.56 661.722 1220.11 659.564C1219.67 657.406 1217.79 655.148 1215.65 655.708C1209.46 657.331 1207.49 676.442 1204.17 681.086C1199.14 688.144 1188.79 683.495 1190.38 674.798Z" fill="#3F3D56" fill-opacity="0.09"/>
<path d="M1075.96 636.423C1073.84 635.831 1071.53 635.247 1069.51 636.094C1067.48 636.941 1066.3 639.915 1067.92 641.391C1080.65 640.895 1093.45 640.403 1106.07 642.131C1120.61 644.121 1135 649.05 1149.6 647.6C1141.26 645.141 1132.78 643.174 1124.21 641.711L1109.91 638.982C1106.08 638.179 1102.2 637.581 1098.31 637.189C1090.15 636.516 1083.98 638.67 1075.96 636.423Z" fill="#3F3D56" fill-opacity="0.09"/>
<path d="M1088.7 592.126C1087.64 592.038 1086.33 591.962 1085.79 592.87C1085.27 593.737 1085.86 594.883 1085.58 595.856C1085.2 597.185 1083.46 597.524 1082.09 597.343C1080.71 597.162 1079.23 596.729 1078.01 597.39C1077.4 597.811 1076.93 598.42 1076.69 599.127C1076.45 599.833 1076.45 600.598 1076.68 601.308C1077.18 602.716 1077.98 603.996 1079.03 605.056C1080.83 607.32 1082.88 609.373 1085.14 611.177C1089.51 614.403 1095.44 615.958 1098.19 620.642C1098.58 621.55 1099.18 622.354 1099.94 622.988C1101.26 623.825 1102.98 623.188 1104.41 622.538L1109.4 620.259C1110.3 619.935 1111.1 619.389 1111.73 618.673C1112.87 617.126 1112.17 614.928 1111.22 613.262C1110.26 611.596 1109.03 609.872 1109.24 607.962C1109.61 604.557 1113.99 603.254 1115.79 600.341C1117.6 597.404 1116.42 593.62 1116.63 590.174C1116.88 586.143 1119.41 580.901 1115.33 577.89C1111.87 575.331 1108.56 577.696 1106.07 580.521C1100.82 586.479 1098.34 592.931 1088.7 592.126Z" fill="#3F3D56" fill-opacity="0.09"/>
<path d="M1119 531.91C1120.7 535.171 1124.25 537.117 1126.11 540.293C1128.13 543.735 1127.9 548.182 1130.08 551.518C1132.32 554.941 1136.84 556.759 1138.09 560.652C1139.47 564.902 1136.35 570.068 1138.83 573.782C1139.3 574.389 1139.88 574.894 1140.55 575.263C1141.22 575.633 1141.96 575.86 1142.72 575.93C1143.48 576 1144.24 575.911 1144.97 575.669C1145.69 575.427 1146.36 575.038 1146.92 574.525C1147.97 573.386 1148.53 571.884 1148.49 570.338C1148.44 568.792 1147.79 567.326 1146.68 566.251C1145.21 564.911 1143.1 564.333 1141.87 562.768C1141.23 561.865 1140.81 560.829 1140.63 559.738C1139.96 556.591 1140.06 553.328 1140.94 550.231C1141.27 549.445 1141.35 548.579 1141.18 547.745C1140.63 546.14 1138.45 546.026 1136.92 545.281C1133.46 543.59 1133.54 538.701 1134.15 534.894C1133.74 537.429 1124.71 533.118 1123.76 531.682C1121.89 528.83 1122.91 523.328 1122.54 520.177C1118.48 522.131 1116.91 527.924 1119 531.91Z" fill="#3F3D56" fill-opacity="0.09"/>
<path d="M1027.98 582.081C1026.32 580.216 1023.8 578.264 1021.57 579.389C1019.86 580.248 1019.39 582.606 1020.06 584.394C1020.88 586.13 1022.13 587.624 1023.7 588.728C1028.36 592.567 1033.38 596.033 1037.44 600.496C1044.71 608.484 1048.57 619.263 1056.48 626.621C1058.07 628.327 1060.17 629.466 1062.47 629.863C1064.77 630.077 1067.36 628.603 1067.63 626.305C1067.85 624.413 1066.53 622.718 1065.23 621.316C1062.16 617.976 1058.8 614.901 1055.9 611.411C1054.56 610.071 1053.72 608.313 1053.51 606.43C1053.5 604.55 1055.21 602.584 1057.03 603.049C1054.82 602.483 1053.17 598.794 1049.92 598.1C1047.2 597.521 1046.55 599.202 1043.31 597.816C1037.14 595.172 1032.3 586.914 1027.98 582.081Z" fill="#3F3D56" fill-opacity="0.09"/>
<path d="M1172.93 400.438C1171.16 399.913 1169.42 399.292 1167.72 398.578C1163.14 397.204 1157.08 400.568 1157.69 405.308C1158.1 408.457 1161.03 410.581 1162.65 413.313C1165.05 417.364 1164.41 422.502 1163.15 427.039C1162.84 428.443 1162.25 429.771 1161.41 430.944C1160.25 432.182 1158.86 433.184 1157.31 433.895C1151.13 437.361 1145.67 441.992 1141.25 447.532C1140.77 448.044 1140.43 448.675 1140.28 449.359C1140.06 450.96 1141.67 452.126 1142.58 453.46C1144.6 456.425 1143.14 460.415 1143.34 463.997C1143.31 464.504 1143.41 465.01 1143.63 465.467C1143.85 465.925 1144.18 466.319 1144.6 466.611C1145.81 467.23 1147.26 466.179 1147.92 464.983C1150.11 461.015 1148.46 454.646 1152.57 452.732C1153.35 452.371 1154.29 452.218 1154.81 451.535C1155.63 450.452 1154.84 448.848 1155.26 447.554C1155.88 445.61 1158.54 445.523 1160.58 445.609C1164.1 445.756 1167.62 445.288 1170.97 444.227C1172.29 443.914 1173.48 443.222 1174.41 442.237C1175.64 440.704 1175.53 438.524 1175.29 436.575C1174.06 426.859 1170.98 417.468 1166.21 408.909C1169.82 409.37 1173.75 409.77 1176.87 407.889C1178.62 406.835 1180.71 403.685 1179.84 401.542C1178.47 398.151 1176 401.005 1172.93 400.438Z" fill="#3F3D56" fill-opacity="0.09"/>
<path d="M709.924 453.875C710.356 456.192 710.781 458.631 710.021 460.862C709.261 463.093 706.872 464.957 704.615 464.273C702.864 463.743 701.852 461.983 700.608 460.641C693.693 453.18 678.089 457.5 673.817 448.269C672.073 444.501 673.258 439.988 672.069 436.011C671.319 433.712 669.826 431.728 667.825 430.369C665.824 429.011 663.428 428.355 661.013 428.505C658.811 428.823 656.667 429.462 654.651 430.403C641.143 435.809 626.962 439.354 612.498 440.939C609.749 441.107 607.03 441.601 604.399 442.412C598.46 444.564 594.402 450.066 591.514 455.681C588.626 461.296 586.494 467.375 582.622 472.364C578.553 477.607 572.851 481.278 567.532 485.249C565.483 486.569 563.777 488.356 562.554 490.463C561.401 492.829 561.466 495.581 561.556 498.211L562.643 530.154C562.783 534.262 562.958 538.518 564.798 542.195C567.096 546.786 571.635 549.793 574.784 553.849C577.998 558.017 579.671 563.167 579.523 568.427C579.456 570.541 579.245 573.043 580.893 574.371C581.896 575.02 583.069 575.357 584.263 575.339L627.5 578.876C635.106 579.498 643.535 580.521 648.5 586.311C650.844 589.044 652.726 592.975 656.316 593.268C657.856 593.394 659.354 592.762 660.894 592.64C664.779 592.333 668.192 595.28 670.346 598.526C673.607 603.473 675.087 609.382 674.543 615.281C674.19 618.984 673.041 622.584 672.793 626.295C671.851 640.417 683.83 652.687 684.063 666.839C684.199 675.163 680.245 682.94 676.39 690.321C682.612 699.74 677.517 712.284 679.994 723.296C682.344 733.743 691.061 741.922 693.233 752.408C694.227 757.208 694.284 763.115 698.52 765.588C700.379 766.493 702.439 766.905 704.503 766.785C716.953 766.932 729.262 764.132 740.421 758.613C745.659 756.016 751.087 752.138 752.001 746.367C752.739 741.713 750.377 736.507 752.781 732.453C755.613 727.675 762.87 728.053 767.038 724.38C773.8 718.42 768.527 707.054 771.267 698.471C773.729 690.755 782.206 686.656 786.408 679.731C788.062 676.752 789.248 673.538 789.927 670.2C791.852 662.223 793.05 654.087 793.507 645.894C793.619 640.916 793.986 635.946 794.607 631.006C799.137 602.878 826.963 584.043 835.996 557.021C836.859 554.441 837.264 551.003 834.967 549.543C833.605 548.893 832.06 548.732 830.592 549.085L810.661 551.597C808.186 551.909 805.561 552.2 803.288 551.172C801.014 550.145 799.385 547.271 800.591 545.088C803.976 538.96 797.013 531.216 793.919 524.936C785.588 508.026 775.666 491.946 764.289 476.913C763.56 476.14 763.104 475.15 762.99 474.094L768.646 474.283C766.737 467.435 763.586 459.942 756.929 457.437C753.178 456.026 749.024 456.514 745.022 456.732C733.559 457.358 721.269 455.628 709.924 453.875Z" fill="#3F3D56" fill-opacity="0.09"/>
<path d="M745.031 299.566C748.03 302.75 751.392 306.125 755.732 306.68C763.397 307.66 768.909 299.738 772.418 292.856C772.548 294.611 773.358 296.245 774.675 297.412C775.992 298.579 777.713 299.186 779.471 299.105C781.363 298.787 783.169 298.081 784.776 297.033C799.964 288.738 816.976 284.343 834.284 284.242C834.118 282.932 834.443 281.607 835.197 280.522C835.951 279.437 837.081 278.67 838.367 278.368C841.886 277.671 845.056 280.712 846.754 283.87C848.451 287.029 849.51 290.689 852.207 293.054C854.904 295.418 860.126 295.315 861.191 291.891C862.214 288.605 858.788 285.802 855.941 283.864C853.094 281.926 850.094 278.34 852.011 275.48C866.554 272.263 881.186 269.034 896.067 268.394C898.601 268.482 901.125 268.048 903.483 267.117C905.752 266.004 907.556 263.478 906.946 261.027C903.699 261.789 900.297 261.569 897.176 260.392C894.055 259.215 891.355 257.137 889.421 254.42C910.069 252.718 932.03 251.266 950.329 260.976C952.525 265.687 941.334 269.606 944.328 273.856C945.283 275.211 947.197 275.37 948.855 275.4C961.571 275.636 974.361 275.868 986.933 273.949C991.528 273.248 996.169 272.258 1000.78 272.827C1008.47 273.774 1015.04 278.897 1022.6 280.567C1025.67 281.247 1029.12 281.27 1031.72 279.482C1034.31 277.694 1035.42 273.622 1033.3 271.297C1040.42 264.326 1052.23 266.054 1061.62 269.391C1071.01 272.728 1079.9 278.11 1089.84 278.854C1096.96 279.388 1104.19 277.472 1111.23 278.69C1115.66 279.455 1119.77 281.422 1124.1 282.631C1132.28 284.917 1140.93 284.434 1149.42 284.544C1171.09 284.836 1192.52 289.092 1212.66 297.101C1215.28 297.954 1217.68 299.37 1219.69 301.252C1221.56 303.257 1222.52 306.372 1221.26 308.81L1200.45 305.772C1202.41 309.628 1207.48 310.285 1211.6 311.616C1215.72 312.946 1219.99 317.491 1217.51 321.04C1213.05 319.62 1209.01 324.079 1206.75 328.181C1204.5 332.283 1201.75 337.196 1197.08 337.446C1192.89 337.67 1187.82 334.106 1185.1 337.288C1188.87 342.042 1192.1 347.201 1194.72 352.67C1197.42 358.284 1199.34 365.359 1195.7 370.41C1195.12 371.312 1194.25 371.986 1193.24 372.316C1190.26 373.069 1188.32 369.43 1186.19 367.225C1183.5 364.445 1179.43 363.658 1175.79 362.354C1172.15 361.051 1168.31 358.486 1168.02 354.63C1167.85 352.231 1169.11 350 1170.05 347.783C1171.62 344.045 1172.3 339.996 1172.05 335.95C1171.85 332.695 1170.94 329.31 1168.6 327.035C1166.26 324.761 1162.22 324.04 1159.71 326.123C1158.54 327.095 1157.6 328.649 1156.08 328.707C1153.39 328.81 1151.32 324.126 1149.16 325.725C1149.41 327.429 1149.06 329.167 1148.16 330.637C1141.71 336.247 1131.79 333.874 1123.47 335.855C1119.51 336.987 1115.73 338.64 1112.21 340.772C1110.89 341.334 1109.77 342.274 1108.99 343.473C1107.95 345.49 1109.09 348.073 1110.92 349.415C1112.87 350.605 1115.05 351.349 1117.31 351.593C1127.46 353.513 1137.75 356.486 1145.76 362.997C1153.77 369.509 1159.02 380.273 1156.48 390.275L1136.48 371.172C1137.24 379.193 1137.67 387.236 1137.77 395.302C1137.9 396.876 1137.69 398.46 1137.14 399.943C1135.71 403.091 1131.85 404.15 1128.46 404.845C1127.52 405.024 1126.62 405.4 1125.84 405.948C1125.05 406.497 1124.39 407.206 1123.9 408.028C1123.4 408.85 1123.09 409.767 1122.98 410.718C1122.86 411.67 1122.95 412.635 1123.24 413.549C1124.44 417.469 1127.44 420.526 1130.19 423.571C1132.94 426.616 1135.64 430.078 1136 434.162C1136.36 438.247 1133.28 442.851 1129.19 442.567C1126.08 442.352 1123.78 439.576 1122.46 436.763C1121.13 433.95 1120.35 430.816 1118.36 428.426C1112.34 421.192 1098.82 424.291 1093.43 416.579C1092.05 418.137 1091.1 420.02 1090.66 422.05C1090.22 424.08 1090.3 426.188 1090.91 428.176C1093.41 426.607 1096.85 428.065 1098.73 430.345C1100.62 432.625 1101.51 435.549 1102.99 438.11C1104.98 441.566 1108.16 444.63 1108.44 448.611C1108.37 450.117 1108.39 451.625 1108.52 453.127C1109.01 455.54 1111.05 457.272 1112.47 459.288C1115.76 463.98 1115.6 470.425 1113.47 475.748C1111.35 481.072 1107.54 485.52 1103.77 489.832C1097.17 497.365 1090.44 504.853 1082.63 511.108C1080.4 512.893 1078.02 514.648 1076.63 517.144C1075.24 519.639 1075.17 523.142 1077.3 525.04C1075.77 525.117 1073.03 525.867 1071.51 525.944C1070.97 519.82 1070.85 513.667 1071.16 507.527C1065.13 504.634 1058.64 512.381 1059.42 519.018C1060.19 525.656 1065 530.982 1068.42 536.725C1070.92 540.924 1072.78 545.821 1071.94 550.636C1071.11 555.451 1066.81 559.893 1061.94 559.468C1054.19 558.793 1050.95 547.676 1043.27 546.403C1042.6 546.245 1041.89 546.315 1041.25 546.604C1040.11 547.228 1039.92 548.752 1039.85 550.049C1039.54 556.414 1039.27 563.032 1041.75 568.901C1045.39 577.486 1054.79 584.697 1052.82 593.81C1042.2 588.877 1036.68 576.977 1034.17 565.545C1031.66 554.114 1031.24 542.114 1026.75 531.308C1023.34 535.678 1016.17 532.065 1013.05 527.48C1010.09 523.133 1008.28 518.105 1005.41 513.7C1002.54 509.294 998.148 505.35 992.895 505.108C987.387 504.854 982.61 508.631 978.41 512.2C974.956 515.134 971.409 518.184 969.39 522.241C966.452 528.144 967.221 535.104 967.079 541.695C966.926 548.822 965.415 556.34 960.555 561.557C955.695 566.774 946.724 568.591 941.364 563.89C938.565 561.435 937.21 557.767 936.003 554.247C930.185 537.278 925.34 519.991 921.491 502.471C920.59 506.47 917.076 511.624 913.72 509.268C912.966 508.635 912.356 507.849 911.929 506.963C905.668 496.358 894.073 489.997 882.358 486.183C870.643 482.369 858.317 480.59 846.731 476.398C840.239 474.048 834.038 470.961 828.25 467.198C826.775 469.364 825.913 471.889 825.757 474.505C825.6 477.121 826.155 479.73 827.362 482.056C829.932 486.604 835.747 489.235 840.725 487.646C843.298 486.824 845.47 485.039 848.023 484.158C850.575 483.276 854.001 483.709 855.117 486.167C856.186 488.519 854.571 491.365 855.372 493.821C856.592 497.562 862.238 497.85 864.212 501.254C865.681 503.787 864.472 507.151 862.375 509.194C860.278 511.238 857.479 512.359 854.919 513.782C846.613 518.398 840.706 526.278 833.446 532.409C826.187 538.54 815.944 543.016 807.293 539.084C809.355 528.648 796.915 520.986 794.627 510.597C793.874 507.177 794.264 503.545 793.189 500.213C791.632 495.388 787.349 492.071 783.835 488.415C779.573 483.932 776.253 478.641 774.071 472.855C771.888 467.069 770.887 460.905 771.127 454.727C771.317 450.433 772.106 446.069 771.127 441.884C770.148 437.699 766.681 433.649 762.385 433.838C752.572 434.272 740.21 435.001 735.062 426.641C733.225 423.658 732.425 419.288 735.082 417.002C736.956 415.389 739.722 415.541 742.183 415.783L764.293 417.957C769.464 418.465 775.054 418.885 779.491 416.183C783.928 413.481 785.851 406.31 781.742 403.132C778.74 400.809 773.361 400.935 772.489 397.242C771.762 394.167 775.168 390.678 773.328 388.108C772.009 386.265 769.044 386.776 767.247 388.158C765.45 389.539 764.146 391.559 762.135 392.605C758.607 394.44 754.391 392.694 750.595 391.507C746.8 390.32 741.711 390.219 739.87 393.743C737.811 397.683 741.697 402.846 739.653 406.794C736.952 412.014 727.802 409.042 724.008 413.532C719.655 418.685 726.971 426.368 725.503 432.95C723.628 433.878 721.545 434.304 719.456 434.186C717.368 434.069 715.345 433.413 713.587 432.281C711.857 431.105 710.478 429.483 709.598 427.586C708.717 425.69 708.367 423.59 708.585 421.511C708.948 418.55 710.493 415.527 709.458 412.729C708.621 410.467 706.348 409.12 704.236 407.954L682.751 396.088C680.756 399.786 683.278 404.371 686.432 407.149C689.585 409.926 693.536 412.018 695.608 415.674C696.918 418.207 697.212 421.144 696.429 423.885C695.646 426.627 693.845 428.967 691.394 430.427C691.087 430.639 690.738 430.781 690.37 430.846C690.003 430.91 689.625 430.893 689.265 430.798C688.922 430.597 688.623 430.329 688.386 430.01C688.148 429.691 687.978 429.328 687.883 428.942C684.093 419.247 678.401 409.688 669.301 404.623C660.202 399.559 647.127 400.6 641.159 409.131C639.742 411.158 638.791 413.468 637.556 415.61C630.997 426.992 616.934 432.382 603.795 432.03C602.51 432.101 601.231 431.801 600.112 431.165C597.989 429.7 598.084 426.59 598.409 424.031L599.789 413.174C600.065 410.994 600.467 408.584 602.194 407.223C604.628 405.304 608.139 406.515 611.238 406.47C613.587 406.36 615.845 405.532 617.706 404.096C619.567 402.661 620.941 400.688 621.643 398.446C622.269 396.181 622.265 393.789 621.631 391.526C620.998 389.264 619.758 387.217 618.046 385.607C616.626 384.273 614.719 382.598 615.469 380.8C615.769 380.303 616.173 379.877 616.655 379.553C617.137 379.229 617.684 379.014 618.257 378.924C623.825 377.308 629.708 376.885 635.183 374.978C640.659 373.071 645.968 369.171 647.265 363.523C647.662 361.793 647.843 359.696 649.399 358.838C650.179 358.509 651.017 358.337 651.864 358.334C654.833 357.912 657.536 356.395 659.44 354.081C661.345 351.768 662.315 348.825 662.157 345.833C664.781 344.001 668.457 345.348 670.996 347.297C673.534 349.246 675.775 351.821 678.864 352.661C684.62 354.227 690.183 349.133 696.148 349.11C698.657 349.1 701.254 349.986 703.614 349.136C706.006 348.275 707.435 345.895 709.271 344.136C711.108 342.378 714.33 341.305 716.025 343.2L714.581 332.511C717.489 333.245 720.52 333.349 723.472 332.816C726.423 332.283 729.226 331.125 731.692 329.42L713.032 323.118C712.382 322.956 711.782 322.636 711.287 322.186C709.93 320.726 711.277 318.451 712.381 316.791C715.02 312.821 715.463 306.281 711.123 304.305C708.161 302.956 704.76 304.575 701.917 306.159L688.297 313.749C687.864 316.336 691.03 317.803 692.992 319.545C694.179 320.6 695.019 321.988 695.402 323.529C695.784 325.069 695.692 326.689 695.137 328.176C694.582 329.663 693.589 330.947 692.29 331.86C690.991 332.773 689.446 333.272 687.858 333.291C688.755 334.457 689.378 335.809 689.682 337.247C689.985 338.686 689.96 340.174 689.61 341.602L680.446 342.261C679.418 342.468 678.349 342.259 677.474 341.681C676.494 340.811 676.627 339.287 676.4 337.996C675.851 334.882 672.8 332.7 669.686 332.14C666.572 331.581 663.387 332.298 660.303 333.006C658.994 333.477 657.556 333.444 656.27 332.913C655.532 332.434 654.972 331.728 654.674 330.9C653.323 327.625 654.586 323.775 656.757 320.973C658.928 318.172 661.901 316.124 664.57 313.792C670.953 308.195 675.643 300.925 678.11 292.804C683.155 290.692 688.378 287.822 693.422 285.709C701.2 281.774 709.922 280.085 718.607 280.833L735.692 281.159C740.75 281.255 745.945 281.379 750.622 283.306C755.299 285.233 759.409 289.402 759.732 294.447C759.829 295.018 759.78 295.605 759.588 296.152C759.397 296.699 759.069 297.188 758.636 297.574C757.976 297.934 757.228 298.102 756.476 298.06C751.759 298.226 749.748 299.401 745.031 299.566Z" fill="#3F3D56" fill-opacity="0.09"/>
<path d="M608.856 353.076C609.524 352.444 610.004 351.641 610.245 350.755C610.485 349.868 610.477 348.933 610.22 348.051C608.596 347.425 606.829 347.264 605.118 347.587C603.407 347.909 601.821 348.703 600.537 349.878C599.525 350.901 598.653 352.054 597.943 353.305C595.698 356.966 593.712 361.338 595.013 365.429C595.119 365.876 595.313 366.296 595.584 366.666C595.855 367.037 596.197 367.349 596.591 367.585C597.174 367.819 597.802 367.918 598.429 367.873C600.902 367.87 603.373 367.718 605.828 367.418C607.335 367.234 609.086 366.808 609.669 365.407C610.435 363.564 608.581 361.479 609.121 359.558C609.477 358.699 610.016 357.928 610.7 357.299C611.04 356.982 611.301 356.59 611.462 356.155C611.624 355.72 611.682 355.253 611.631 354.791C611.413 353.89 610.032 353.379 609.535 354.162" fill="#3F3D56" fill-opacity="0.09"/>
<path d="M621.681 336.46C619.484 335.956 617.219 335.813 614.977 336.039C614.48 336.024 613.989 336.136 613.548 336.363C613.121 336.678 612.811 337.127 612.668 337.637C612.194 339.157 612.31 340.799 612.994 342.236C613.677 343.674 614.877 344.801 616.355 345.394C617.161 345.579 617.932 345.889 618.642 346.313C620.538 347.783 619.329 350.788 619.688 353.16C620.091 355.823 622.671 358.058 622.198 360.71C621.825 362.799 619.593 364.453 619.952 366.544C620.328 368.734 623.11 369.393 625.327 369.568C626.611 369.793 627.934 369.641 629.134 369.132C630.338 368.31 631.194 367.071 631.537 365.655C632.444 362.955 632.826 360.107 632.66 357.263C632.65 355.97 632.325 354.699 631.713 353.56C631.046 352.657 630.306 351.81 629.501 351.027C625.253 346.09 629.726 338.725 621.681 336.46Z" fill="#3F3D56" fill-opacity="0.09"/>
<path opacity="0.8" d="M1180.2 723.239C1180.2 723.239 854.895 536.626 714.847 571.985C714.847 571.985 418.044 603.905 383.646 674.131C383.646 674.131 289.298 379.479 254.9 369.657" stroke="#6C63FF" stroke-opacity="0.15" stroke-width="5" stroke-miterlimit="10"/>
<path opacity="0.8" d="M383.646 674.131C438.191 528.769 929.588 367.693 929.588 367.693C859.809 385.372 714.847 571.985 714.847 571.985C714.847 571.985 408.216 349.032 254.9 369.657C254.9 369.657 930.079 391.756 1180.2 723.239" stroke="#6C63FF" stroke-opacity="0.15" stroke-width="5" stroke-miterlimit="10"/>
<path d="M254.901 383.899C262.771 383.899 269.151 377.523 269.151 369.657C269.151 361.792 262.771 355.416 254.901 355.416C247.031 355.416 240.65 361.792 240.65 369.657C240.65 377.523 247.031 383.899 254.901 383.899Z" fill="#8B8B8B" fill-opacity="0.2"/>
<path d="M383.645 688.372C391.515 688.372 397.896 681.996 397.896 674.131C397.896 666.265 391.515 659.889 383.645 659.889C375.775 659.889 369.395 666.265 369.395 674.131C369.395 681.996 375.775 688.372 383.645 688.372Z" fill="#8B8B8B" fill-opacity="0.2"/>
<path d="M929.587 381.934C937.458 381.934 943.838 375.558 943.838 367.693C943.838 359.828 937.458 353.451 929.587 353.451C921.717 353.451 915.337 359.828 915.337 367.693C915.337 375.558 921.717 381.934 929.587 381.934Z" fill="#8B8B8B" fill-opacity="0.2"/>
<path d="M1180.2 737.481C1188.07 737.481 1194.45 731.104 1194.45 723.239C1194.45 715.374 1188.07 708.998 1180.2 708.998C1172.33 708.998 1165.95 715.374 1165.95 723.239C1165.95 731.104 1172.33 737.481 1180.2 737.481Z" fill="#8B8B8B" fill-opacity="0.2"/>
<path d="M714.847 586.226C722.717 586.226 729.098 579.85 729.098 571.985C729.098 564.119 722.717 557.743 714.847 557.743C706.977 557.743 700.597 564.119 700.597 571.985C700.597 579.85 706.977 586.226 714.847 586.226Z" fill="#8B8B8B" fill-opacity="0.2"/>
</g>
<defs>
<clipPath id="clip0">
<rect width="1401" height="1040" fill="white"/>
</clipPath>
</defs>
</svg>
