<svg width="56" height="56" viewBox="0 0 56 56" fill="none" xmlns="http://www.w3.org/2000/svg">
<path d="M2.625 33.25H32.375V36.75H2.625V33.25Z" fill="#FAA231"/>
<path d="M4.375 36.75H30.625V53.375H4.375V36.75Z" fill="#804913"/>
<path d="M8.75 41.125H26.25V46.375H8.75V41.125Z" fill="#FAA231"/>
<path d="M5.25 33.25V22.5159C5.24999 22.0706 5.3859 21.6359 5.63955 21.2699C5.89319 20.9039 6.25251 20.624 6.66947 20.4677L12.25 18.375H17.5L23.0805 20.4677C23.4975 20.624 23.8568 20.9039 24.1105 21.2699C24.3641 21.6359 24.5 22.0706 24.5 22.5159V33.25H5.25Z" fill="#25B1FA"/>
<path d="M18.375 18.375L14.875 21.875L11.375 18.375L13.125 14.875H16.625L18.375 18.375Z" fill="#FFD4CF"/>
<path d="M19.25 7H10.5V12.7614C10.5 13.1392 10.5978 13.5105 10.7839 13.8392C10.97 14.1679 11.2381 14.4429 11.562 14.6372L13.7495 15.9497C14.0895 16.1537 14.4785 16.2615 14.875 16.2615C15.2715 16.2615 15.6605 16.1537 16.0005 15.9497L18.188 14.6372C18.5119 14.4429 18.78 14.1679 18.9661 13.8392C19.1522 13.5105 19.25 13.1392 19.25 12.7614V7Z" fill="#FFD4CF"/>
<path d="M8.75 4.8125V2.625H14.4375C15.0177 2.625 15.5741 2.85547 15.9843 3.2657C16.3945 3.67594 16.625 4.23234 16.625 4.8125V7H10.9375C10.3573 7 9.80094 6.76953 9.3907 6.3593C8.98047 5.94906 8.75 5.39266 8.75 4.8125Z" fill="#FAA231"/>
<path d="M20.125 7H16.625V3.5L18.4681 3.9608C18.9414 4.07912 19.3615 4.35226 19.6617 4.73678C19.9619 5.12131 20.125 5.59516 20.125 6.083V7Z" fill="#804913"/>
<path d="M11.375 18.375L14.875 21.875L9.625 22.75L11.375 18.375Z" fill="#B3E9FF"/>
<path d="M18.375 18.375L14.875 21.875L20.125 22.75L18.375 18.375Z" fill="#B3E9FF"/>
<path d="M53.375 42H37.625L36.75 46.375H50.0938C50.964 46.375 51.7986 46.0293 52.4139 45.4139C53.0293 44.7986 53.375 43.964 53.375 43.0938V42Z" fill="#804913"/>
<path d="M50.75 36.75H39.4249C38.4211 36.75 37.4478 37.0952 36.6683 37.7277C35.8888 38.3602 35.3505 39.2415 35.1437 40.2238L32.375 53.375H36.75L40.25 42H48.5625C48.8498 42 49.1342 41.9434 49.3996 41.8335C49.665 41.7236 49.9062 41.5624 50.1093 41.3593C50.3124 41.1562 50.4736 40.915 50.5835 40.6496C50.6934 40.3842 50.75 40.0998 50.75 39.8125V36.75Z" fill="#D76B4C"/>
<path d="M50.75 36.75H40.25V26.6388C40.25 25.804 40.4093 24.9768 40.7193 24.2016L42 21H48.5625C49.1427 21 49.6991 21.2305 50.1093 21.6407C50.5195 22.0509 50.75 22.6073 50.75 23.1875V36.75Z" fill="#FAA231"/>
<path d="M38.5 6.125H45.7188C46.589 6.125 47.4236 6.4707 48.0389 7.08606C48.6543 7.70141 49 8.53601 49 9.40625V11.375H40.6875C40.1073 11.375 39.5509 11.1445 39.1407 10.7343C38.7305 10.3241 38.5 9.76766 38.5 9.1875V6.125Z" fill="#FA5D3F"/>
<path d="M36.75 53.375H28C28 52.4467 28.3687 51.5565 29.0251 50.9001C29.6815 50.2437 30.5717 49.875 31.5 49.875H37.625L36.75 53.375Z" fill="#FA5D3F"/>
<path d="M40.2496 11.375V14L38.9745 16.5503C38.9245 16.6503 38.9009 16.7615 38.9059 16.8733C38.911 16.985 38.9445 17.0936 39.0033 17.1887C39.0621 17.2839 39.1442 17.3624 39.2419 17.4169C39.3396 17.4714 39.4496 17.5 39.5614 17.5H41.1246V18.8125C41.1246 19.0998 41.1812 19.3842 41.2911 19.6496C41.4011 19.915 41.5622 20.1562 41.7653 20.3593C41.9685 20.5624 42.2096 20.7236 42.475 20.8335C42.7404 20.9434 43.0249 21 43.3121 21H46.8121C47.0994 21 47.3838 20.9434 47.6492 20.8335C47.9146 20.7236 48.1558 20.5624 48.3589 20.3593C48.562 20.1562 48.7232 19.915 48.8331 19.6496C48.943 19.3842 48.9996 19.0998 48.9996 18.8125V11.375H40.2496Z" fill="#FFD4CF"/>
<path d="M39.1562 32.375H42V36.75H35.875V35.6562C35.875 34.786 36.2207 33.9514 36.8361 33.3361C37.4514 32.7207 38.286 32.375 39.1562 32.375Z" fill="#FFD4CF"/>
<path d="M53.375 41.125H51.3297C51.5248 40.715 51.6257 40.2665 51.625 39.8125V27.125H49.875V35.875H42.875V33.25H46.375C46.6071 33.25 46.8296 33.1578 46.9937 32.9937C47.1578 32.8296 47.25 32.6071 47.25 32.375V25.375H45.5V31.5H41.125V26.6388C41.1244 25.9152 41.2624 25.1982 41.5318 24.5266L42.5927 21.875H48.5625C48.9105 21.8754 49.2441 22.0138 49.4902 22.2598C49.7362 22.5059 49.8746 22.8395 49.875 23.1875V25.375H51.625V23.1875C51.6242 22.54 51.4186 21.9094 51.0376 21.3859C50.6566 20.8623 50.1197 20.4728 49.5038 20.273C49.748 19.825 49.8757 19.3228 49.875 18.8125V9.40625C49.8738 8.30433 49.4355 7.24789 48.6563 6.46871C47.8771 5.68953 46.8207 5.25124 45.7188 5.25H38.5C38.2679 5.25 38.0454 5.34219 37.8813 5.50628C37.7172 5.67038 37.625 5.89294 37.625 6.125V9.1875C37.6254 9.76697 37.79 10.3345 38.0998 10.8242C38.4095 11.314 38.8516 11.7059 39.375 11.9547V13.7938L38.1923 16.1593C38.0757 16.3927 38.0206 16.6521 38.0324 16.9128C38.0442 17.1735 38.1223 17.4268 38.2596 17.6488C38.3968 17.8708 38.5884 18.054 38.8163 18.1811C39.0442 18.3082 39.3009 18.375 39.5618 18.375H40.25V18.8125C40.2494 19.5962 40.5503 20.35 41.0904 20.9179L39.9069 23.8766C39.5547 24.7549 39.3742 25.6925 39.375 26.6388V31.5H39.1562C38.0543 31.5012 36.9979 31.9395 36.2187 32.7187C35.4395 33.4979 35.0012 34.5543 35 35.6562V36.75C34.9999 36.9285 35.0545 37.1028 35.1563 37.2494C35.2582 37.3961 35.4024 37.508 35.5697 37.5703C34.9262 38.2634 34.483 39.1183 34.2874 40.0436L32.4019 49H31.5C30.3401 49.0013 29.228 49.4627 28.4078 50.2828C27.5877 51.103 27.1263 52.2151 27.125 53.375C27.125 53.6071 27.2172 53.8296 27.3813 53.9937C27.5454 54.1578 27.7679 54.25 28 54.25H36.75C36.9451 54.25 37.1347 54.1848 37.2885 54.0647C37.4423 53.9446 37.5515 53.7765 37.5989 53.5872L38.4739 50.0872C38.4748 50.0831 38.4757 50.079 38.4767 50.0749L38.6632 50.1324L39.55 47.25H44.625V50.75H42.4375C41.6256 50.7509 40.8471 51.0739 40.273 51.648C39.6989 52.2221 39.3759 53.0006 39.375 53.8125V54.25H41.125V53.8125C41.1254 53.4645 41.2638 53.1309 41.5098 52.8848C41.7559 52.6388 42.0895 52.5004 42.4375 52.5H48.5625C48.9105 52.5004 49.2441 52.6388 49.4902 52.8848C49.7362 53.1309 49.8746 53.4645 49.875 53.8125V54.25H51.625V53.8125C51.6241 53.0006 51.3011 52.2221 50.727 51.648C50.1529 51.0739 49.3744 50.7509 48.5625 50.75H46.375V47.25H50.0938C51.1957 47.2488 52.2521 46.8105 53.0313 46.0313C53.8105 45.2521 54.2488 44.1957 54.25 43.0938V42C54.25 41.7679 54.1578 41.5454 53.9937 41.3813C53.8296 41.2172 53.6071 41.125 53.375 41.125ZM39.375 9.1875V7H45.7188C46.3567 7.00072 46.9683 7.25447 47.4194 7.70557C47.8705 8.15668 48.1243 8.7683 48.125 9.40625V10.5H40.6875C40.3395 10.4996 40.0059 10.3612 39.7598 10.1152C39.5138 9.8691 39.3754 9.53548 39.375 9.1875ZM39.9158 16.625L41.0326 14.3913C41.0934 14.2698 41.125 14.1359 41.125 14V12.25H48.125V18.8125C48.1246 19.1605 47.9862 19.4941 47.7402 19.7402C47.4941 19.9862 47.1605 20.1246 46.8125 20.125H43.3125C42.9645 20.1246 42.6309 19.9862 42.3848 19.7402C42.1388 19.4941 42.0004 19.1605 42 18.8125V17.5C42 17.2679 41.9078 17.0454 41.7437 16.8813C41.5796 16.7172 41.3571 16.625 41.125 16.625H39.9158ZM36.75 35.6562C36.7507 35.0183 37.0045 34.4067 37.4556 33.9556C37.9067 33.5045 38.5183 33.2507 39.1562 33.25H41.125V35.875H36.75V35.6562ZM36.0668 52.5H29.025C29.2065 51.9886 29.5418 51.5458 29.9849 51.2325C30.4281 50.9192 30.9573 50.7506 31.5 50.75H36.5043L36.0668 52.5ZM39.4137 41.7426L37.1806 49H34.1906L36.0003 40.404C36.1685 39.6196 36.5998 38.9163 37.2227 38.4108C37.8456 37.9053 38.6227 37.628 39.4249 37.625H49.875V39.8125C49.8746 40.1605 49.7362 40.4941 49.4902 40.7402C49.2441 40.9862 48.9105 41.1246 48.5625 41.125H40.25C40.0629 41.125 39.8807 41.185 39.7302 41.2962C39.5797 41.4073 39.4688 41.5638 39.4137 41.7426ZM52.5 43.0938C52.4993 43.7317 52.2455 44.3433 51.7944 44.7944C51.3433 45.2455 50.7317 45.4993 50.0938 45.5H40.0886L40.8962 42.875H52.5V43.0938Z" fill="black"/>
<path d="M21 33.25H14.875V28.875H17.7188C18.589 28.875 19.4236 29.2207 20.0389 29.8361C20.6543 30.4514 21 31.286 21 32.1562V33.25Z" fill="#FFD4CF"/>
<path d="M23.625 7.4375V12.25L21 15.75H32.8125C33.3927 15.75 33.9491 15.5195 34.3593 15.1093C34.7695 14.6991 35 14.1427 35 13.5625V7.4375C35 6.85734 34.7695 6.30094 34.3593 5.8907C33.9491 5.48047 33.3927 5.25 32.8125 5.25H25.8125C25.2323 5.25 24.6759 5.48047 24.2657 5.8907C23.8555 6.30094 23.625 6.85734 23.625 7.4375Z" fill="#B3E9FF"/>
<path d="M26.25 7.875H32.375V9.625H26.25V7.875Z" fill="black"/>
<path d="M26.25 11.375H32.375V13.125H26.25V11.375Z" fill="black"/>
<path d="M32.375 32.375H25.375V22.5159C25.373 21.893 25.1819 21.2853 24.8271 20.7733C24.4723 20.2613 23.9704 19.869 23.3878 19.6485L19.1987 18.0774L19.1878 18.05C19.1847 18.0425 19.1815 18.0351 19.1784 18.0275L19.1761 18.0223C19.173 18.0155 19.1699 18.0087 19.1668 18.0019L19.1653 17.9989L19.1581 17.9842L18.0398 15.7475L18.6387 15.3881C19.0911 15.1147 19.4656 14.7295 19.7259 14.2694C19.9862 13.8094 20.1237 13.29 20.125 12.7614V7.875C20.3571 7.875 20.5796 7.78281 20.7437 7.61872C20.9078 7.45462 21 7.23207 21 7V6.083C21.0008 5.39982 20.7728 4.73605 20.3523 4.19756C19.9319 3.65907 19.3432 3.27688 18.6803 3.11194L16.8372 2.65114C16.7532 2.63006 16.6665 2.62166 16.5799 2.6262C16.0085 2.06418 15.239 1.74946 14.4375 1.75H8.75C8.51794 1.75 8.29538 1.84219 8.13128 2.00628C7.96719 2.17038 7.875 2.39294 7.875 2.625V4.8125C7.87542 5.39197 8.04003 5.95946 8.34975 6.44921C8.65948 6.93897 9.10164 7.33093 9.625 7.57969V12.7619C9.62649 13.2904 9.76407 13.8097 10.0245 14.2696C10.2849 14.7296 10.6594 15.1147 11.1118 15.388L11.7108 15.7474L10.5924 17.9841L10.5852 17.9987L10.5838 18.0018C10.5806 18.0086 10.5775 18.0154 10.5745 18.0222L10.5722 18.0274C10.569 18.035 10.5658 18.0424 10.5628 18.0499L10.5518 18.0773L6.36278 19.6483C5.78008 19.8689 5.27805 20.2611 4.92311 20.7731C4.56817 21.2852 4.37704 21.8929 4.375 22.5159V28H6.125V22.5159C6.12585 22.249 6.20772 21.9885 6.35978 21.7691C6.51184 21.5497 6.72693 21.3816 6.97659 21.287L9.67214 20.2762L8.81256 22.425C8.75492 22.5692 8.73665 22.726 8.75964 22.8796C8.78263 23.0331 8.84604 23.1777 8.94337 23.2986C9.0407 23.4196 9.16845 23.5124 9.31351 23.5677C9.45857 23.6229 9.61571 23.6386 9.76883 23.6131L14.875 22.762L19.9812 23.6131C20.1343 23.6386 20.2914 23.6229 20.4365 23.5677C20.5816 23.5124 20.7093 23.4196 20.8066 23.2986C20.904 23.1777 20.9674 23.0331 20.9904 22.8796C21.0133 22.726 20.9951 22.5692 20.9374 22.425L20.0779 20.2762L22.7734 21.287C23.0231 21.3816 23.2382 21.5497 23.3902 21.7691C23.5423 21.9885 23.6241 22.249 23.625 22.5159V32.375H21.875V32.1562C21.8738 31.0543 21.4355 29.9979 20.6563 29.2187C19.8771 28.4395 18.8207 28.0012 17.7188 28H9.625V29.75H14V32.375H6.125V29.75H4.375V32.375H2.625C2.39294 32.375 2.17038 32.4672 2.00628 32.6313C1.84219 32.7954 1.75 33.0179 1.75 33.25V36.75C1.75 36.9821 1.84219 37.2046 2.00628 37.3687C2.17038 37.5328 2.39294 37.625 2.625 37.625H3.5V53.375C3.5 53.6071 3.59219 53.8296 3.75628 53.9937C3.92038 54.1578 4.14294 54.25 4.375 54.25H25.375V52.5H5.25V37.625H29.75V47.25H31.5V37.625H32.375C32.6071 37.625 32.8296 37.5328 32.9937 37.3687C33.1578 37.2046 33.25 36.9821 33.25 36.75V33.25C33.25 33.0179 33.1578 32.7954 32.9937 32.6313C32.8296 32.4672 32.6071 32.375 32.375 32.375ZM17.5 4.62077L18.2558 4.80966C18.5399 4.88033 18.7922 5.04412 18.9724 5.27491C19.1526 5.50571 19.2503 5.79019 19.25 6.083V6.125H17.5V4.62077ZM9.625 3.5H14.4375C14.7855 3.50038 15.1191 3.63878 15.3652 3.88484C15.6112 4.1309 15.7496 4.46452 15.75 4.8125V6.125H10.9375C10.5895 6.12462 10.2559 5.98622 10.0098 5.74016C9.76378 5.4941 9.62538 5.16048 9.625 4.8125V3.5ZM11.375 7.875H18.375V12.7614C18.3744 12.988 18.3154 13.2105 18.2038 13.4076C18.0922 13.6048 17.9317 13.7698 17.7378 13.8869L15.5503 15.1994C15.3464 15.322 15.1129 15.3868 14.875 15.3868C14.6371 15.3868 14.4036 15.322 14.1997 15.1994L12.0122 13.8869C11.8183 13.7698 11.6578 13.6048 11.5462 13.4076C11.4346 13.2105 11.3756 12.988 11.375 12.7614V7.875ZM13.2993 16.7C13.7751 16.9862 14.3198 17.1374 14.875 17.1374C15.4302 17.1374 15.9749 16.9862 16.4507 16.7L16.5342 16.6499L17.3108 18.2022L14.875 20.6375L12.4397 18.2022L13.2162 16.6499L13.2993 16.7ZM11.0149 21.6312L11.6946 19.9321L13.054 21.2915L11.0149 21.6312ZM16.696 21.2915L18.0554 19.9321L18.7351 21.6312L16.696 21.2915ZM15.75 29.75H17.7188C18.3567 29.7507 18.9683 30.0045 19.4194 30.4556C19.8705 30.9067 20.1243 31.5183 20.125 32.1562V32.375H15.75V29.75ZM31.5 35.875H3.5V34.125H31.5V35.875Z" fill="black"/>
<path d="M26.25 40.25H8.75C8.51794 40.25 8.29538 40.3422 8.13128 40.5063C7.96719 40.6704 7.875 40.8929 7.875 41.125V46.375C7.875 46.6071 7.96719 46.8296 8.13128 46.9937C8.29538 47.1578 8.51794 47.25 8.75 47.25H26.25C26.4821 47.25 26.7046 47.1578 26.8687 46.9937C27.0328 46.8296 27.125 46.6071 27.125 46.375V41.125C27.125 40.8929 27.0328 40.6704 26.8687 40.5063C26.7046 40.3422 26.4821 40.25 26.25 40.25ZM25.375 45.5H9.625V42H25.375V45.5Z" fill="black"/>
<path d="M32.8125 4.375H25.8125C25.0006 4.37593 24.2221 4.69888 23.648 5.27301C23.0739 5.84714 22.7509 6.62556 22.75 7.4375V11.9583L20.3 15.225C20.2025 15.355 20.1431 15.5096 20.1285 15.6714C20.1139 15.8333 20.1447 15.996 20.2174 16.1413C20.29 16.2867 20.4018 16.4089 20.54 16.4943C20.6782 16.5797 20.8375 16.625 21 16.625H32.8125C33.6245 16.6241 34.4029 16.3011 34.977 15.727C35.5511 15.1529 35.8741 14.3744 35.875 13.5625V7.4375C35.8741 6.62556 35.5511 5.84714 34.977 5.27301C34.4029 4.69888 33.6245 4.37593 32.8125 4.375ZM34.125 13.5625C34.1246 13.9105 33.9862 14.2441 33.7402 14.4902C33.4941 14.7362 33.1605 14.8746 32.8125 14.875H22.75L24.325 12.775C24.4386 12.6235 24.5 12.4393 24.5 12.25V7.4375C24.5004 7.08952 24.6388 6.7559 24.8848 6.50984C25.1309 6.26378 25.4645 6.12538 25.8125 6.125H32.8125C33.1605 6.12538 33.4941 6.26378 33.7402 6.50984C33.9862 6.7559 34.1246 7.08952 34.125 7.4375V13.5625Z" fill="black"/>
</svg>
