<svg width="56" height="56" viewBox="0 0 56 56" fill="none" xmlns="http://www.w3.org/2000/svg">
<path d="M37.4044 11.0271L40.9241 7.50633C41.0257 7.40464 41.1463 7.32396 41.2791 7.26892C41.4119 7.21388 41.5542 7.18555 41.6979 7.18555C41.8417 7.18555 41.984 7.21388 42.1168 7.26892C42.2495 7.32396 42.3702 7.40464 42.4718 7.50633L48.6132 13.6477C48.818 13.8529 48.9331 14.1311 48.9331 14.421C48.9331 14.711 48.818 14.9891 48.6132 15.1943L34.7554 29.0521L27.0674 21.3641L30.7664 17.664L37.4044 11.0271Z" fill="#0A4B5E" fill-opacity="0.96"/>
<path d="M44.9333 39.2305L46.6604 46.2414L39.6494 44.5144L44.9333 39.2305Z" fill="#E48E66"/>
<path d="M21.783 26.648L12.8066 17.6716L18.0905 12.3877L27.067 21.3641L34.7549 29.0521L44.9334 39.2305L39.6495 44.5144L29.471 34.336L21.783 26.648Z" fill="#A0C6FF"/>
<path d="M17.4913 30.9392L21.7832 26.6484L29.4712 34.3364L15.5324 48.2752C15.4308 48.3769 15.3102 48.4575 15.1774 48.5126C15.0447 48.5676 14.9023 48.596 14.7586 48.596C14.6149 48.596 14.4725 48.5676 14.3397 48.5126C14.207 48.4575 14.0863 48.3769 13.9848 48.2752L7.84336 42.1338C7.6385 41.9286 7.52344 41.6504 7.52344 41.3605C7.52344 41.0705 7.6385 40.7924 7.84336 40.5872L17.4913 30.9392Z" fill="#0A4B5E" fill-opacity="0.96"/>
<path d="M18.0911 12.3877L12.8072 17.6716L10.4873 15.3518L11.86 13.9802L14.9837 10.8554L15.7712 10.0679L18.0911 12.3877Z" fill="#F8EC7D"/>
<path d="M14.9835 10.8554L11.8598 13.9803L11.8587 13.9792L11.2703 14.5611L11.0964 14.3861L9.89541 13.184C9.65075 12.9392 9.45684 12.6484 9.3248 12.3285C9.19277 12.0085 9.1252 11.6656 9.12598 11.3194C9.12677 10.9733 9.19588 10.6307 9.32937 10.3113C9.46285 9.99198 9.65807 9.7021 9.90384 9.45835C10.1496 9.2146 10.4411 9.02177 10.7615 8.89092C11.082 8.76007 11.4251 8.69378 11.7713 8.69585C12.1174 8.69792 12.4597 8.7683 12.7786 8.90297C13.0975 9.03764 13.3866 9.23394 13.6295 9.48061L14.8053 10.6772L14.9835 10.8554Z" fill="#E48E66"/>
<path d="M13.8394 40.6575C13.7788 40.5952 13.7064 40.5456 13.6264 40.5115C13.5464 40.4774 13.4605 40.4596 13.3736 40.459C13.2866 40.4584 13.2005 40.4751 13.12 40.5081C13.0396 40.5411 12.9665 40.5898 12.9051 40.6512C12.8436 40.7127 12.795 40.7858 12.762 40.8662C12.729 40.9466 12.7123 41.0328 12.7129 41.1197C12.7135 41.2067 12.7314 41.2926 12.7654 41.3726C12.7995 41.4525 12.8492 41.5249 12.9115 41.5856L14.5324 43.2065C14.5934 43.2674 14.6657 43.3158 14.7453 43.3487C14.825 43.3817 14.9103 43.3987 14.9965 43.3987C15.0827 43.3987 15.168 43.3817 15.2476 43.3487C15.3272 43.3157 15.3996 43.2674 15.4605 43.2064C15.5214 43.1455 15.5698 43.0731 15.6028 42.9935C15.6357 42.9139 15.6527 42.8286 15.6527 42.7424C15.6527 42.6562 15.6357 42.5709 15.6027 42.4912C15.5697 42.4116 15.5214 42.3393 15.4605 42.2783L13.8394 40.6575Z" fill="#63316D"/>
<path d="M14.1831 26.3265C14.2439 26.3882 14.3163 26.4373 14.3961 26.4709C14.476 26.5046 14.5617 26.5221 14.6483 26.5224C14.7349 26.5227 14.8208 26.5059 14.9009 26.4729C14.981 26.4399 15.0537 26.3914 15.115 26.3301C15.1762 26.2689 15.2247 26.1961 15.2577 26.116C15.2907 26.0359 15.3075 25.95 15.3071 25.8634C15.3068 25.7768 15.2893 25.6911 15.2556 25.6112C15.222 25.5314 15.1728 25.459 15.1111 25.3983L8.21575 18.5043L10.4758 16.2691L20.8547 26.648L17.0312 30.4718C17.0297 30.4731 17.0281 30.474 17.0268 30.4753C17.0255 30.4766 17.0245 30.4782 17.0233 30.4795L7.37892 40.1231C7.05094 40.4514 6.86671 40.8964 6.86671 41.3605C6.86671 41.8245 7.05094 42.2696 7.37892 42.5978L13.5202 48.7391C13.6827 48.9018 13.8757 49.0308 14.0881 49.1188C14.3005 49.2068 14.5282 49.2521 14.7581 49.2521C14.988 49.2521 15.2156 49.2068 15.428 49.1188C15.6404 49.0308 15.8334 48.9018 15.9959 48.7391L29.4709 35.2641L39.1854 44.9786C39.2133 45.0059 39.2435 45.0307 39.2758 45.0525C39.285 45.0589 39.2941 45.0649 39.3035 45.0707C39.3312 45.0881 39.3601 45.1033 39.3901 45.1163C39.3954 45.1186 39.4003 45.1217 39.4057 45.1238C39.4339 45.1351 39.4629 45.1444 39.4924 45.1517L46.5033 46.8787C46.613 46.9057 46.7278 46.904 46.8366 46.8737C46.9454 46.8433 47.0445 46.7854 47.1244 46.7056C47.2043 46.6257 47.2622 46.5266 47.2925 46.4178C47.3229 46.3091 47.3246 46.1943 47.2976 46.0846L45.5705 39.0737C45.5631 39.0439 45.5537 39.0147 45.5424 38.9862C45.5405 38.9816 45.5379 38.9774 45.5359 38.9729C45.5226 38.9421 45.507 38.9123 45.4891 38.8839C45.4835 38.8748 45.4782 38.866 45.4715 38.8571C45.4495 38.8247 45.4247 38.7943 45.3972 38.7663L35.6827 29.0521L49.0762 15.6583C49.4042 15.3301 49.5884 14.885 49.5884 14.421C49.5884 13.9569 49.4042 13.5119 49.0762 13.1836L42.9351 7.04233C42.7726 6.87969 42.5796 6.75066 42.3672 6.66263C42.1548 6.57461 41.9271 6.5293 41.6972 6.5293C41.4673 6.5293 41.2396 6.57461 41.0272 6.66263C40.8148 6.75066 40.6218 6.87969 40.4593 7.04233L30.3057 17.1967C30.3045 17.1979 30.303 17.1987 30.3017 17.1999C30.3004 17.2011 30.2997 17.2026 30.2985 17.2039L27.0666 20.436L18.5543 11.9236L16.2345 9.60378C16.1114 9.48072 15.9445 9.41159 15.7704 9.41159C15.5964 9.41159 15.4295 9.48072 15.3064 9.60378L14.9855 9.9248L14.0964 9.01994C13.7925 8.71358 13.4313 8.47007 13.0333 8.30331C12.6353 8.13655 12.2084 8.04982 11.7769 8.04806C11.3454 8.04629 10.9178 8.12954 10.5185 8.29304C10.1191 8.45654 9.75592 8.69709 9.44955 9.00096C9.14319 9.30483 8.89968 9.66607 8.73293 10.0641C8.56617 10.462 8.47943 10.889 8.47767 11.3205C8.47591 11.752 8.55916 12.1796 8.72266 12.5789C8.88616 12.9782 9.12671 13.3415 9.43058 13.6478L10.3397 14.5577L6.82373 18.0352C6.76223 18.096 6.71336 18.1684 6.67993 18.2481C6.64649 18.3279 6.62915 18.4135 6.62891 18.5C6.62866 18.5865 6.64552 18.6721 6.6785 18.7521C6.71149 18.832 6.75995 18.9047 6.82111 18.9658L14.1831 26.3265ZM44.005 39.2305L39.6491 43.5864L13.7344 17.6715L18.0902 13.3158L44.005 39.2305ZM15.068 47.8107C14.9845 47.8904 14.8736 47.9349 14.7582 47.9349C14.6428 47.9349 14.5318 47.8904 14.4484 47.8107L8.30686 41.6694C8.22511 41.5872 8.17923 41.476 8.17923 41.3601C8.17923 41.2442 8.22511 41.133 8.30686 41.0508L17.4913 31.8672L20.4225 34.7984C20.4833 34.8602 20.5557 34.9093 20.6355 34.9429C20.7154 34.9765 20.8011 34.994 20.8877 34.9944C20.9743 34.9947 21.0602 34.9779 21.1403 34.9449C21.2204 34.9119 21.2931 34.8634 21.3544 34.8021C21.4156 34.7408 21.4642 34.6681 21.4971 34.588C21.5301 34.5078 21.5469 34.422 21.5465 34.3354C21.5462 34.2487 21.5287 34.163 21.495 34.0832C21.4614 34.0034 21.4122 33.931 21.3505 33.8703L18.4192 30.9397L21.7826 27.5766L28.542 34.3365L15.068 47.8107ZM40.9359 44.1556L44.5742 40.5174L45.7633 45.3447L40.9359 44.1556ZM30.7661 18.5924L33.6974 21.5237C33.758 21.586 33.8304 21.6356 33.9104 21.6697C33.9904 21.7038 34.0763 21.7216 34.1632 21.7222C34.2502 21.7228 34.3363 21.7061 34.4168 21.6731C34.4972 21.6401 34.5703 21.5914 34.6317 21.53C34.6932 21.4685 34.7418 21.3954 34.7748 21.315C34.8078 21.2346 34.8245 21.1484 34.8239 21.0615C34.8233 20.9745 34.8054 20.8886 34.7714 20.8086C34.7373 20.7287 34.6876 20.6563 34.6253 20.5956L31.6941 17.6644L37.4035 11.955L39.1381 13.6898C39.1991 13.7508 39.2714 13.7991 39.3511 13.8321C39.4307 13.8651 39.516 13.882 39.6022 13.882C39.6884 13.882 39.7738 13.8651 39.8534 13.8321C39.933 13.7991 40.0054 13.7508 40.0663 13.6898C40.1272 13.6289 40.1756 13.5565 40.2086 13.4769C40.2416 13.3973 40.2585 13.3119 40.2585 13.2257C40.2585 13.1395 40.2416 13.0542 40.2086 12.9746C40.1756 12.895 40.1272 12.8226 40.0663 12.7617L38.3315 11.0268L41.3871 7.97038C41.4705 7.89065 41.5815 7.84616 41.6969 7.84616C41.8123 7.84616 41.9233 7.89065 42.0067 7.97038L48.1482 14.1117C48.23 14.1938 48.2759 14.305 48.2759 14.4209C48.2759 14.5368 48.23 14.648 48.1482 14.7302L34.7546 28.124L27.9952 21.3647L30.7661 18.5924ZM17.1622 12.3877L12.8063 16.7436L11.4148 15.3519L15.7704 10.9959L17.1622 12.3877ZM10.3585 12.7202C10.176 12.5362 10.0316 12.3181 9.93339 12.0782C9.83521 11.8384 9.78523 11.5816 9.7863 11.3224C9.78737 11.0633 9.83948 10.8069 9.93964 10.5679C10.0398 10.3289 10.1861 10.1119 10.3701 9.92945C10.5541 9.74696 10.7722 9.6025 11.012 9.50432C11.2519 9.40614 11.5087 9.35616 11.7678 9.35723C12.027 9.3583 12.2834 9.41041 12.5224 9.51057C12.7614 9.61073 12.9783 9.75698 13.1608 9.94099L14.0577 10.8534L11.4023 13.5077C11.4005 13.5095 11.3985 13.5105 11.3966 13.5123L11.2729 13.6347L10.3585 12.7202Z" fill="#63316D"/>
</svg>
