<svg width="257" height="252" viewBox="0 0 257 252" fill="none" xmlns="http://www.w3.org/2000/svg">
<circle cx="82.4343" cy="6.67179" r="3.5" transform="rotate(25.6537 82.4343 6.67179)" stroke="#A0C6FF" stroke-width="3"/>
<circle cx="110.379" cy="20.0927" r="3.5" transform="rotate(25.6537 110.379 20.0927)" stroke="#A0C6FF" stroke-width="3"/>
<circle cx="138.323" cy="33.5136" r="3.5" transform="rotate(25.6537 138.323 33.5136)" stroke="#A0C6FF" stroke-width="3"/>
<circle cx="166.267" cy="46.9345" r="3.5" transform="rotate(25.6537 166.267 46.9345)" stroke="#A0C6FF" stroke-width="3"/>
<circle cx="194.212" cy="60.3553" r="3.5" transform="rotate(25.6537 194.212 60.3553)" stroke="#A0C6FF" stroke-width="3"/>
<circle cx="222.156" cy="73.7762" r="3.5" transform="rotate(25.6537 222.156 73.7762)" stroke="#A0C6FF" stroke-width="3"/>
<circle cx="250.1" cy="87.1971" r="3.5" transform="rotate(25.6537 250.1 87.1971)" stroke="#A0C6FF" stroke-width="3"/>
<circle cx="71.611" cy="29.2076" r="3.5" transform="rotate(25.6537 71.611 29.2076)" stroke="#A0C6FF" stroke-width="3"/>
<circle cx="99.5554" cy="42.6283" r="3.5" transform="rotate(25.6537 99.5554 42.6283)" stroke="#A0C6FF" stroke-width="3"/>
<circle cx="127.5" cy="56.0492" r="3.5" transform="rotate(25.6537 127.5 56.0492)" stroke="#A0C6FF" stroke-width="3"/>
<circle cx="155.444" cy="69.4701" r="3.5" transform="rotate(25.6537 155.444 69.4701)" stroke="#A0C6FF" stroke-width="3"/>
<circle cx="211.333" cy="96.3118" r="3.5" transform="rotate(25.6537 211.333 96.3118)" stroke="#A0C6FF" stroke-width="3"/>
<circle cx="183.388" cy="82.891" r="3.5" transform="rotate(25.6537 183.388 82.891)" stroke="#A0C6FF" stroke-width="3"/>
<circle cx="239.277" cy="109.733" r="3.5" transform="rotate(25.6537 239.277 109.733)" stroke="#A0C6FF" stroke-width="3"/>
<circle cx="60.7878" cy="51.7432" r="3.5" transform="rotate(25.6537 60.7878 51.7432)" stroke="#A0C6FF" stroke-width="3"/>
<circle cx="88.7321" cy="65.1641" r="3.5" transform="rotate(25.6537 88.7321 65.1641)" stroke="#A0C6FF" stroke-width="3"/>
<circle cx="116.676" cy="78.5849" r="3.5" transform="rotate(25.6537 116.676 78.5849)" stroke="#A0C6FF" stroke-width="3"/>
<circle cx="200.509" cy="118.848" r="3.5" transform="rotate(25.6537 200.509 118.848)" stroke="#A0C6FF" stroke-width="3"/>
<circle cx="144.621" cy="92.0058" r="3.5" transform="rotate(25.6537 144.621 92.0058)" stroke="#A0C6FF" stroke-width="3"/>
<circle cx="172.565" cy="105.427" r="3.5" transform="rotate(25.6537 172.565 105.427)" stroke="#A0C6FF" stroke-width="3"/>
<circle cx="228.454" cy="132.268" r="3.5" transform="rotate(25.6537 228.454 132.268)" stroke="#A0C6FF" stroke-width="3"/>
<circle cx="49.9646" cy="74.2788" r="3.5" transform="rotate(25.6537 49.9646 74.2788)" stroke="#A0C6FF" stroke-width="3"/>
<circle cx="77.9089" cy="87.6997" r="3.5" transform="rotate(25.6537 77.9089 87.6997)" stroke="#A0C6FF" stroke-width="3"/>
<circle cx="189.686" cy="141.383" r="3.5" transform="rotate(25.6537 189.686 141.383)" stroke="#A0C6FF" stroke-width="3"/>
<circle cx="105.853" cy="101.121" r="3.5" transform="rotate(25.6537 105.853 101.121)" stroke="#A0C6FF" stroke-width="3"/>
<circle cx="133.798" cy="114.541" r="3.5" transform="rotate(25.6537 133.798 114.541)" stroke="#A0C6FF" stroke-width="3"/>
<circle cx="161.742" cy="127.962" r="3.5" transform="rotate(25.6537 161.742 127.962)" stroke="#A0C6FF" stroke-width="3"/>
<circle cx="217.631" cy="154.804" r="3.5" transform="rotate(25.6537 217.631 154.804)" stroke="#A0C6FF" stroke-width="3"/>
<circle cx="39.1413" cy="96.8145" r="3.5" transform="rotate(25.6537 39.1413 96.8145)" stroke="#A0C6FF" stroke-width="3"/>
<circle cx="178.863" cy="163.919" r="3.5" transform="rotate(25.6537 178.863 163.919)" stroke="#A0C6FF" stroke-width="3"/>
<circle cx="67.0856" cy="110.235" r="3.5" transform="rotate(25.6537 67.0856 110.235)" stroke="#A0C6FF" stroke-width="3"/>
<circle cx="95.03" cy="123.656" r="3.5" transform="rotate(25.6537 95.03 123.656)" stroke="#A0C6FF" stroke-width="3"/>
<circle cx="122.974" cy="137.077" r="3.5" transform="rotate(25.6537 122.974 137.077)" stroke="#A0C6FF" stroke-width="3"/>
<circle cx="150.919" cy="150.498" r="3.5" transform="rotate(25.6537 150.919 150.498)" stroke="#A0C6FF" stroke-width="3"/>
<circle cx="206.807" cy="177.34" r="3.5" transform="rotate(25.6537 206.807 177.34)" stroke="#A0C6FF" stroke-width="3"/>
<circle cx="17.4948" cy="141.886" r="3.5" transform="rotate(25.6537 17.4948 141.886)" stroke="#A0C6FF" stroke-width="3"/>
<circle cx="45.4392" cy="155.307" r="3.5" transform="rotate(25.6537 45.4392 155.307)" stroke="#A0C6FF" stroke-width="3"/>
<circle cx="168.04" cy="186.454" r="3.5" transform="rotate(25.6537 168.04 186.454)" stroke="#A0C6FF" stroke-width="3"/>
<circle cx="28.3181" cy="119.35" r="3.5" transform="rotate(25.6537 28.3181 119.35)" stroke="#A0C6FF" stroke-width="3"/>
<circle cx="56.2624" cy="132.771" r="3.5" transform="rotate(25.6537 56.2624 132.771)" stroke="#A0C6FF" stroke-width="3"/>
<circle cx="84.2067" cy="146.192" r="3.5" transform="rotate(25.6537 84.2067 146.192)" stroke="#A0C6FF" stroke-width="3"/>
<circle cx="157.217" cy="208.99" r="3.5" transform="rotate(25.6537 157.217 208.99)" stroke="#A0C6FF" stroke-width="3"/>
<circle cx="112.151" cy="159.613" r="3.5" transform="rotate(25.6537 112.151 159.613)" stroke="#A0C6FF" stroke-width="3"/>
<circle cx="140.095" cy="173.034" r="3.5" transform="rotate(25.6537 140.095 173.034)" stroke="#A0C6FF" stroke-width="3"/>
<circle cx="195.984" cy="199.875" r="3.5" transform="rotate(25.6537 195.984 199.875)" stroke="#A0C6FF" stroke-width="3"/>
<circle cx="73.3835" cy="168.728" r="3.5" transform="rotate(25.6537 73.3835 168.728)" stroke="#A0C6FF" stroke-width="3"/>
<circle cx="101.328" cy="182.148" r="3.5" transform="rotate(25.6537 101.328 182.148)" stroke="#A0C6FF" stroke-width="3"/>
<circle cx="129.272" cy="195.569" r="3.5" transform="rotate(25.6537 129.272 195.569)" stroke="#A0C6FF" stroke-width="3"/>
<circle cx="185.161" cy="222.411" r="3.5" transform="rotate(25.6537 185.161 222.411)" stroke="#A0C6FF" stroke-width="3"/>
<circle cx="146.393" cy="231.526" r="3.5" transform="rotate(25.6537 146.393 231.526)" stroke="#A0C6FF" stroke-width="3"/>
<circle cx="6.67158" cy="164.422" r="3.5" transform="rotate(25.6537 6.67158 164.422)" stroke="#A0C6FF" stroke-width="3"/>
<circle cx="34.6159" cy="177.842" r="3.5" transform="rotate(25.6537 34.6159 177.842)" stroke="#A0C6FF" stroke-width="3"/>
<circle cx="62.5603" cy="191.263" r="3.5" transform="rotate(25.6537 62.5603 191.263)" stroke="#A0C6FF" stroke-width="3"/>
<circle cx="90.5046" cy="204.684" r="3.5" transform="rotate(25.6537 90.5046 204.684)" stroke="#A0C6FF" stroke-width="3"/>
<circle cx="118.449" cy="218.105" r="3.5" transform="rotate(25.6537 118.449 218.105)" stroke="#A0C6FF" stroke-width="3"/>
<circle cx="174.338" cy="244.947" r="3.5" transform="rotate(25.6537 174.338 244.947)" stroke="#A0C6FF" stroke-width="3"/>
</svg>
