<svg width="1440" height="252" viewBox="0 0 1440 252" fill="none" xmlns="http://www.w3.org/2000/svg">
<path d="M1440 72.817L1360 51.4927C1280 29.7678 1120 -12.2802 960 3.43777C800 19.7564 640 93.841 480 120.872C320 147.903 160 125.878 80 115.566L0 104.854V233H80C160 233 320 233 480 233C640 233 800 233 960 233C1120 233 1280 233 1360 233H1440V72.817Z" fill="#A0C6FF"/>
<path d="M0 91.7338L80 70.4338C160 48.7338 320 6.73384 480 22.4338C640 38.7338 800 112.734 960 139.734C1120 166.734 1280 144.734 1360 134.434L1440 123.734V251.734H1360C1280 251.734 1120 251.734 960 251.734C800 251.734 640 251.734 480 251.734C320 251.734 160 251.734 80 251.734H0V91.7338Z" fill="#004063"/>
</svg>
