<svg width="516" height="367" viewBox="0 0 516 367" fill="none" xmlns="http://www.w3.org/2000/svg">
<g opacity="0.06">
<path d="M88.2459 315.866L44.123 281.777L0 315.866V367H88.2459V315.866Z" fill="url(#paint0_linear)"/>
<path d="M195.185 247.687L151.062 213.598L106.939 247.687V367H195.185V247.687Z" fill="url(#paint1_linear)"/>
<path d="M302.123 213.598L258.341 179.509L213.877 213.598V367H302.123V213.598Z" fill="url(#paint2_linear)"/>
<path d="M409.062 162.464L364.939 128.375L320.816 162.464V367H409.062V162.464Z" fill="url(#paint3_linear)"/>
<path d="M515.999 94.2854L471.876 60.196L427.768 94.2854V367H515.999V94.2854Z" fill="url(#paint4_linear)"/>
<path d="M1.42188 254.434C1.42188 254.434 49.7524 203.3 151.005 186.256C224.922 173.799 296.864 148.715 370.994 79.2434C408.536 44.1172 442.552 20.8513 471.934 8.73535" stroke="#BDBDBD" stroke-width="2" stroke-linecap="round" stroke-linejoin="round"/>
<path d="M44.2225 230.998C48.5403 230.998 52.0407 227.5 52.0407 223.186C52.0407 218.871 48.5403 215.374 44.2225 215.374C39.9046 215.374 36.4043 218.871 36.4043 223.186C36.4043 227.5 39.9046 230.998 44.2225 230.998Z" fill="url(#paint5_linear)"/>
<path d="M151.062 194.068C155.38 194.068 158.881 190.57 158.881 186.256C158.881 181.941 155.38 178.443 151.062 178.443C146.744 178.443 143.244 181.941 143.244 186.256C143.244 190.57 146.744 194.068 151.062 194.068Z" fill="url(#paint6_linear)"/>
<path d="M258 163.174C262.318 163.174 265.818 159.677 265.818 155.362C265.818 151.048 262.318 147.55 258 147.55C253.682 147.55 250.182 151.048 250.182 155.362C250.182 159.677 253.682 163.174 258 163.174Z" fill="url(#paint7_linear)"/>
<path d="M364.939 91.7998C369.257 91.7998 372.757 88.3022 372.757 83.9877C372.757 79.6731 369.257 76.1755 364.939 76.1755C360.621 76.1755 357.121 79.6731 357.121 83.9877C357.121 88.3022 360.621 91.7998 364.939 91.7998Z" fill="url(#paint8_linear)"/>
<path d="M471.906 15.6243C476.224 15.6243 479.724 12.1267 479.724 7.81214C479.724 3.49761 476.224 0 471.906 0C467.588 0 464.088 3.49761 464.088 7.81214C464.088 12.1267 467.588 15.6243 471.906 15.6243Z" fill="url(#paint9_linear)"/>
</g>
<defs>
<linearGradient id="paint0_linear" x1="25.9706" y1="294.319" x2="64.2849" y2="393.922" gradientUnits="userSpaceOnUse">
<stop stop-color="#FDC830"/>
<stop offset="1" stop-color="#F37335"/>
</linearGradient>
<linearGradient id="paint1_linear" x1="122.419" y1="232.248" x2="182.141" y2="389.075" gradientUnits="userSpaceOnUse">
<stop stop-color="#FF839D"/>
<stop offset="1" stop-color="#F50B9A"/>
</linearGradient>
<linearGradient id="paint2_linear" x1="237.033" y1="220.544" x2="286.771" y2="386.282" gradientUnits="userSpaceOnUse">
<stop stop-color="#FF63DE"/>
<stop offset="1" stop-color="#B122E5"/>
</linearGradient>
<linearGradient id="paint3_linear" x1="327.284" y1="156.839" x2="411.76" y2="399.212" gradientUnits="userSpaceOnUse">
<stop stop-color="#8E2DE2"/>
<stop offset="1" stop-color="#4A00E0"/>
</linearGradient>
<linearGradient id="paint4_linear" x1="443.774" y1="123.616" x2="514.93" y2="394.994" gradientUnits="userSpaceOnUse">
<stop stop-color="#9C27B0"/>
<stop offset="1" stop-color="#4A148C"/>
</linearGradient>
<linearGradient id="paint5_linear" x1="484.855" y1="2574.32" x2="574.644" y2="2800.92" gradientUnits="userSpaceOnUse">
<stop stop-color="#FDC830"/>
<stop offset="1" stop-color="#F37335"/>
</linearGradient>
<linearGradient id="paint6_linear" x1="1745.97" y1="2103.98" x2="1870.91" y2="2365.76" gradientUnits="userSpaceOnUse">
<stop stop-color="#FF839D"/>
<stop offset="1" stop-color="#F50B9A"/>
</linearGradient>
<linearGradient id="paint7_linear" x1="3033.3" y1="1761.69" x2="3162.15" y2="1984.42" gradientUnits="userSpaceOnUse">
<stop stop-color="#FF63DE"/>
<stop offset="1" stop-color="#B122E5"/>
</linearGradient>
<linearGradient id="paint8_linear" x1="4310.77" y1="880.981" x2="4420.09" y2="1095.88" gradientUnits="userSpaceOnUse">
<stop stop-color="#8E2DE2"/>
<stop offset="1" stop-color="#4A00E0"/>
</linearGradient>
<linearGradient id="paint9_linear" x1="5606.58" y1="-38.2796" x2="5728.23" y2="273.957" gradientUnits="userSpaceOnUse">
<stop stop-color="#9C27B0"/>
<stop offset="1" stop-color="#4A148C"/>
</linearGradient>
</defs>
</svg>
