<svg width="323" height="225" viewBox="0 0 323 225" fill="none" xmlns="http://www.w3.org/2000/svg">
<g clip-path="url(#clip0)">
<path d="M107.781 213.968H109.574L199.365 213.074C225.635 212.817 251.532 215.395 274.445 200.184C283.847 194.017 291.698 185.759 297.386 176.054C304.731 163.331 307.832 147.572 300.363 134.17C297.296 128.674 292.748 124.004 290.381 118.183C285.044 105.217 291.025 90.9688 294.375 78.301C296.57 69.9851 297.912 61.0663 295.233 52.896C292.998 46.0977 288.096 40.3806 282.261 36.2642C276.425 32.1478 269.669 29.4521 262.823 27.4009C250.522 23.7141 237.314 21.9054 224.569 24.1715C211.825 26.4376 200.798 33.9565 188.635 38.1976C171.177 44.289 152.071 43.3604 133.768 40.7201C115.465 38.0798 97.3285 33.7902 78.8456 33.3536C62.4464 32.9725 47.2033 37.3383 38.0034 51.9119C33.6348 58.7358 31.4827 66.7459 31.8424 74.8429C32.59 87.7118 41.783 96.5405 44.3443 108.363C45.5973 114.177 44.6281 120.275 42.7175 125.902C39.3948 135.674 33.3238 144.301 29.6342 153.941C27.4674 159.582 26.1383 165.625 26.4706 171.661C27.3152 187.1 39.7963 201.293 53.6826 207.072C70.608 214.169 89.6723 214.134 107.781 213.968Z" fill="#E6E7E8"/>
<path d="M230.516 213.967H228.501L127.434 213.073C97.8615 212.81 68.7043 215.436 42.9183 199.976C32.4239 193.69 23.3971 185.333 17.0908 175.458C8.83232 162.534 5.32266 146.526 13.7472 132.908C17.2084 127.33 22.2826 122.583 24.9823 116.672C30.991 103.505 24.2555 89.0282 20.4897 76.1594C17.9976 67.698 16.5093 58.6267 19.5275 50.3316C22.0403 43.4017 27.5575 37.6222 34.1268 33.4157C40.6962 29.2093 48.297 26.4858 56.0086 24.4069C69.8534 20.6647 84.7228 18.8629 99.073 21.129C113.423 23.3951 125.8 31.0804 139.493 35.3908C159.146 41.5792 180.674 40.6436 201.248 37.9618C221.821 35.2799 242.284 30.914 263.051 30.4913C281.506 30.1032 298.667 34.5384 308.995 49.3406C313.841 56.2705 316.499 64.4963 315.98 72.6736C315.142 85.7434 304.793 94.7107 301.914 106.727C300.495 112.624 301.588 118.827 303.741 124.537C307.486 134.468 314.312 143.248 318.472 153.026C320.902 158.757 322.404 164.897 322.03 171.044C321.075 186.733 307.029 201.154 291.398 207.024C272.313 214.168 250.888 214.134 230.516 213.967Z" stroke="#E6E7E8" stroke-width="2.56" stroke-miterlimit="10"/>
<path d="M220.902 213.968H219.185L133.063 213.074C107.866 212.81 83.0141 215.437 61.0701 199.976C51.9522 193.603 44.4223 185.213 39.0637 175.458C32.0236 162.534 29.04 146.526 36.2117 132.909C39.1468 127.33 43.4871 122.583 45.7854 116.672C50.908 103.505 45.1693 89.0285 41.9573 76.1597C39.8459 67.7121 38.5584 58.6409 41.1335 50.3458C43.2725 43.4159 47.9729 37.6363 53.5939 33.4299C59.2149 29.2234 65.6735 26.5 72.2429 24.421C84.011 20.6789 96.7205 18.8771 108.932 21.1432C121.143 23.4093 131.713 31.0945 143.378 35.4049C160.13 41.5933 178.46 40.6509 195.988 37.969C213.516 35.2871 230.932 30.9143 248.668 30.4916C264.395 30.1035 279.022 34.5387 287.821 49.3409C292.056 56.3625 294.127 64.4792 293.774 72.6739C293.082 85.7437 284.242 94.711 281.784 106.727C280.58 112.625 281.508 118.827 283.342 124.537C286.533 134.468 292.341 143.248 295.899 153.026C297.976 158.757 299.25 164.897 298.931 171.044C298.114 186.733 286.146 201.154 272.827 207.024C256.538 214.169 238.277 214.134 220.902 213.968Z" stroke="#F9FBFC" stroke-width="2.37" stroke-miterlimit="10"/>
<path d="M45.2792 140.233C45.2792 140.233 46.4698 143.144 47.3559 145.403C46.9254 145.383 46.4956 145.456 46.096 145.618L45.916 145.694C45.52 145.848 45.1613 146.084 44.8638 146.387L42.7871 141.211L45.2792 140.233Z" fill="#5E60F4"/>
<path d="M47.3843 145.403C47.9399 145.433 48.4757 145.62 48.9291 145.942C49.3826 146.265 49.7351 146.71 49.9456 147.226L51.6416 151.384L52.1469 152.631L49.5926 153.677L49.0942 153.878L46.5398 154.918L46.0345 153.67L44.3385 149.512C44.1285 148.998 44.069 148.434 44.1671 147.887C44.2651 147.339 44.5167 146.831 44.8923 146.422C45.1897 146.118 45.5485 145.882 45.9445 145.729L46.1244 145.652C46.5214 145.479 46.9513 145.394 47.3843 145.403ZM48.4365 148.66C48.3607 148.455 48.2252 148.277 48.0474 148.149C47.8696 148.022 47.6577 147.951 47.4391 147.945C47.2205 147.939 47.0052 147.999 46.821 148.117C46.6368 148.235 46.4922 148.406 46.4058 148.607C46.3194 148.808 46.2952 149.031 46.3364 149.246C46.3775 149.461 46.4821 149.658 46.6366 149.813C46.7912 149.968 46.9885 150.073 47.2032 150.115C47.418 150.156 47.6402 150.132 47.8412 150.046C48.1039 149.941 48.3153 149.737 48.4303 149.478C48.5454 149.219 48.5551 148.926 48.4573 148.66H48.4365Z" fill="#FC7808"/>
<path d="M47.0171 148.057C47.2175 147.976 47.4375 147.956 47.6493 148C47.8611 148.044 48.0551 148.149 48.2069 148.303C48.3587 148.458 48.4614 148.653 48.5021 148.866C48.5428 149.079 48.5196 149.299 48.4355 149.498C48.3513 149.697 48.21 149.867 48.0294 149.986C47.8488 150.105 47.637 150.168 47.4208 150.167C47.2045 150.165 46.9935 150.1 46.8145 149.978C46.6355 149.857 46.4964 149.685 46.4149 149.485C46.3597 149.352 46.3316 149.209 46.332 149.065C46.3325 148.92 46.3616 148.778 46.4177 148.645C46.4737 148.512 46.5555 148.392 46.6585 148.291C46.7614 148.19 46.8833 148.111 47.0171 148.057Z" fill="#5E60F4"/>
<path d="M68.6917 174.502L69.2039 176.713H69.1901L68.6432 177.066L66.8711 175.652L68.6917 174.502Z" fill="#E9B38B"/>
<path d="M51.918 178.868L52.7487 178.175C52.9494 179.699 53.5586 184.211 53.6001 184.523C53.5378 184.218 52.4718 180.642 51.918 178.868Z" fill="#5E60F4"/>
<path d="M69.2033 176.712L69.4317 177.696L68.6426 177.066L69.1894 176.712H69.2033Z" fill="#5E60F4"/>
<path d="M63.2425 165.826L68.6904 174.502L66.8698 175.652L65.5338 173.518L61.4219 166.976L63.2425 165.826Z" fill="#8338EA"/>
<path d="M50.0765 172.485C50.3975 172.416 50.7317 172.444 51.037 172.565C51.3423 172.686 51.605 172.895 51.7918 173.165C51.9786 173.435 52.0813 173.755 52.0869 174.083C52.0924 174.412 52.0005 174.735 51.8229 175.011C51.6453 175.288 51.3898 175.505 51.0888 175.636C50.7878 175.768 50.4546 175.806 50.1315 175.748C49.8084 175.69 49.5097 175.537 49.2733 175.309C49.0368 175.081 48.8731 174.788 48.8028 174.467C48.7102 174.035 48.7922 173.585 49.0309 173.213C49.2696 172.842 49.6456 172.58 50.0765 172.485Z" fill="#8338EA"/>
<path d="M52.7687 178.154L51.938 178.847L51.5296 179.207L50.782 175.742C51.2134 175.651 51.5907 175.391 51.8309 175.02C52.0711 174.65 52.1544 174.199 52.0626 173.767C51.9708 173.336 51.7114 172.958 51.3414 172.717C50.9714 172.477 50.5212 172.393 50.0897 172.485L46.0332 153.685L46.5385 154.932L49.0929 153.892L54.0701 177.024L52.7687 178.154Z" fill="#A5B7C6"/>
<path d="M51.6408 151.397L61.4222 166.976L65.5341 173.518L62.1767 173.719L49.5918 153.691L52.1462 152.645L51.6408 151.397Z" fill="#A5B7C6"/>
<path d="M314.928 216.885H3.16355C1.41637 216.885 0 218.303 0 220.052V221.826C0 223.575 1.41637 224.993 3.16355 224.993H314.928C316.676 224.993 318.092 223.575 318.092 221.826V220.052C318.092 218.303 316.676 216.885 314.928 216.885Z" fill="#E6E7E8"/>
<path d="M261.909 120.836C261.96 120.851 262.012 120.856 262.065 120.85C262.117 120.844 262.167 120.827 262.213 120.801C262.259 120.776 262.299 120.741 262.331 120.699C262.363 120.658 262.387 120.61 262.401 120.559C265.114 110.746 257.382 106.505 257.306 106.464C257.26 106.426 257.206 106.398 257.149 106.383C257.091 106.368 257.031 106.366 256.972 106.377C256.914 106.389 256.859 106.413 256.811 106.448C256.763 106.483 256.723 106.529 256.695 106.581C256.666 106.634 256.65 106.692 256.647 106.751C256.644 106.811 256.654 106.87 256.677 106.925C256.7 106.98 256.734 107.03 256.778 107.07C256.822 107.11 256.875 107.14 256.932 107.157C257.23 107.316 264.173 111.148 261.632 120.324C261.615 120.375 261.609 120.43 261.614 120.485C261.619 120.539 261.635 120.592 261.661 120.64C261.687 120.688 261.722 120.73 261.765 120.764C261.807 120.797 261.856 120.822 261.909 120.836Z" fill="#8338EA"/>
<path d="M264.583 114.132L263.095 113.72L263.506 112.23C263.893 110.827 264.822 109.636 266.087 108.918C267.352 108.2 268.85 108.015 270.251 108.402L271.739 108.814L271.328 110.304C270.94 111.707 270.012 112.898 268.747 113.616C267.482 114.334 265.984 114.519 264.583 114.132Z" fill="#8338EA"/>
<path d="M253.997 113.948C256.663 113.948 259.141 115.293 261.072 117.51C261.468 117.968 261.99 118.298 262.573 118.458C263.156 118.619 263.773 118.602 264.346 118.411C267.115 117.503 269.961 117.621 272.238 119C277.084 121.931 277.624 129.443 273.415 135.777C269.206 142.111 261.861 144.869 257.009 141.931C256.5 141.621 255.915 141.458 255.32 141.46C249.643 141.46 244.756 135.341 244.396 127.739C244.036 120.137 248.328 113.969 253.997 113.948Z" fill="#FB5507"/>
<path d="M268.963 126.221C268.963 128.259 270.16 129.901 271.607 129.894C273.054 129.887 274.217 128.224 274.203 126.187C274.189 124.149 273.006 122.5 271.559 122.514C270.112 122.528 268.956 124.177 268.963 126.221Z" fill="#FC7808"/>
<path d="M184.096 189.207H133.998V214.695H184.096V189.207Z" fill="#C4C5C7"/>
<path d="M184.096 189.207H133.998V193.885H184.096V189.207Z" fill="#AEB1B5"/>
<path d="M196.299 214.695H121.793V220.336H196.299V214.695Z" fill="#D4D5D6"/>
<path d="M249.969 76.5684H68.1308C66.8806 76.5684 65.8672 77.5829 65.8672 78.8344V186.934C65.8672 188.185 66.8806 189.2 68.1308 189.2H249.969C251.219 189.2 252.232 188.185 252.232 186.934V78.8344C252.232 77.5829 251.219 76.5684 249.969 76.5684Z" fill="#1D262D" stroke="#C4C5C7" stroke-width="1.12" stroke-miterlimit="10"/>
<path d="M247.137 184.107V81.6689L70.9543 81.6689V184.107H247.137Z" fill="#72BAEA"/>
<path d="M247.13 122.971C239.125 129.463 230.746 135.48 222.036 140.989C214.179 146.02 206.018 150.545 197.808 154.932C196.236 155.763 194.665 156.574 193.087 157.385C194.907 156.387 196.721 155.389 198.521 154.371C206.724 149.776 214.754 144.863 222.493 139.527C231.111 133.607 239.34 127.139 247.13 120.165V119.721C239.196 126.65 230.818 133.054 222.05 138.889C214.262 144.114 206.198 148.903 197.96 153.373C196.114 154.384 194.268 155.38 192.422 156.359C194.568 155.154 196.703 153.932 198.825 152.693C206.985 147.916 214.899 142.756 222.569 137.212C231.224 130.896 239.431 123.987 247.13 116.533V116.083C239.284 123.488 230.929 130.333 222.126 136.568C214.424 142.015 206.463 147.066 198.244 151.723C195.277 153.4 192.277 155.043 189.245 156.65C200.923 150.102 212.105 142.704 222.701 134.516C230.245 128.681 237.385 122.34 244.07 115.535C245.095 114.491 246.106 113.433 247.102 112.361V111.904C246.016 113.041 244.922 114.163 243.807 115.265C237.052 121.967 229.847 128.2 222.244 133.92C210.857 142.631 198.618 150.116 186.047 156.976C190.671 154.287 195.253 151.508 199.746 148.584C207.822 143.331 215.584 137.609 222.992 131.446C231.723 124.181 239.8 116.162 247.13 107.483V107.005C239.657 115.675 231.429 123.662 222.542 130.871C215.084 136.901 207.281 142.489 199.172 147.607C194.326 150.656 189.432 153.539 184.455 156.325C189.937 153.047 195.343 149.637 200.577 145.978C208.597 140.423 216.245 134.346 223.469 127.787C230.694 121.235 237.39 114.121 243.496 106.513C244.742 104.933 245.956 103.329 247.137 101.703V101.204C245.863 102.923 244.553 104.614 243.205 106.277C237.023 113.784 230.258 120.789 222.971 127.226C215.691 133.664 208 139.62 199.947 145.057C194.596 148.688 189.079 152.07 183.478 155.313C198.161 146.186 211.999 135.639 224.203 123.387C232.938 114.735 240.633 105.09 247.13 94.6486V94.122C240.471 104.601 232.596 114.255 223.67 122.881C210.427 135.847 195.357 146.803 179.367 156.145C196.292 145.452 212.11 132.819 225.352 117.76C232.08 110.166 238.02 101.907 243.08 93.1102C244.513 90.6016 245.849 88.0375 247.109 85.4388V84.8359C245.725 87.6078 244.306 90.2828 242.762 92.9162C237.603 101.623 231.572 109.782 224.764 117.268C211.224 132.278 195.108 144.78 177.906 155.285L177.214 155.701C178.709 154.726 180.197 153.733 181.679 152.721C190.363 146.798 198.612 140.261 206.364 133.158C214.107 126.04 221.161 118.204 227.429 109.756C233.718 101.332 239.001 92.2015 243.17 82.549C243.295 82.258 243.406 81.9669 243.53 81.6759H243.136C243.032 81.9184 242.935 82.1609 242.831 82.3688C238.563 91.9328 233.192 100.964 226.827 109.278C220.497 117.606 213.393 125.314 205.609 132.299C197.821 139.268 189.544 145.669 180.841 151.453C178.478 153.033 176.085 154.569 173.662 156.061L174.999 155.161C177.179 153.671 179.415 152.257 181.506 150.635L187.86 145.895L193.987 140.857C194.492 140.434 195.011 140.033 195.51 139.589L196.97 138.258L199.905 135.59C200.874 134.69 201.878 133.83 202.82 132.902L205.589 130.081C213.068 122.608 219.792 114.414 225.664 105.619C230.637 98.083 234.813 90.0495 238.124 81.6481H237.66C234.28 89.9168 230.053 97.8128 225.048 105.21C219.107 113.887 212.322 121.954 204.793 129.291L201.989 132.063C201.048 132.978 200.037 133.823 199.068 134.703L196.119 137.316L194.651 138.626C194.153 139.055 193.627 139.45 193.121 139.866L187.05 144.835L180.682 149.464C178.605 151.051 176.348 152.43 174.168 153.885C172.922 154.696 171.683 155.514 170.437 156.318C170.935 155.971 171.44 155.625 171.939 155.292L175.13 153.102L178.217 150.774L181.305 148.439C182.329 147.662 183.382 146.893 184.337 146.048L190.269 141.079C194.077 137.614 197.884 134.149 201.421 130.365C208.589 122.945 215.007 114.835 220.583 106.152C225.517 98.4729 229.589 90.2712 232.725 81.6966H232.282C229.055 90.138 224.921 98.2033 219.953 105.75C214.307 114.314 207.83 122.299 200.618 129.589C197.081 133.297 193.232 136.685 189.411 140.095L183.465 144.946C182.489 145.777 181.45 146.533 180.419 147.288L177.331 149.568L174.237 151.841L171.046 153.976C169.329 155.098 167.633 156.255 165.909 157.364C168.948 155.285 171.987 153.158 174.909 150.836C176.902 149.298 178.917 147.801 180.799 146.124C182.682 144.447 184.655 142.895 186.51 141.204L191.986 136.02C193.786 134.267 195.447 132.396 197.219 130.587C204.067 123.222 210.174 115.2 215.453 106.637C220.283 98.7815 224.23 90.4147 227.221 81.6897H226.792C223.714 90.2866 219.701 98.5181 214.823 106.235C209.472 114.675 203.305 122.567 196.41 129.797C194.651 131.571 192.948 133.408 191.149 135.126L185.645 140.206C183.776 141.862 181.817 143.414 179.913 145.022C178.01 146.63 176.002 148.12 174.009 149.624C170.084 152.7 165.868 155.396 161.756 158.21L161.181 158.563L165.743 155.341C167.737 153.92 169.62 152.34 171.565 150.85C172.52 150.088 173.503 149.353 174.445 148.57L177.214 146.159C179.041 144.53 180.959 143.005 182.689 141.259C184.42 139.513 186.234 137.877 187.964 136.145L192.976 130.767C199.505 123.461 205.302 115.529 210.282 107.088C215.002 99.0698 218.806 90.5455 221.621 81.6759H221.206C218.281 90.4315 214.388 98.832 209.597 106.721C204.542 115.044 198.683 122.85 192.104 130.026L187.064 135.299C185.32 136.997 183.527 138.64 181.762 140.31C179.996 141.98 178.107 143.511 176.265 145.105L173.496 147.461C172.555 148.231 171.572 148.944 170.61 149.686C168.664 151.141 166.782 152.68 164.781 154.066L158.779 158.224C158.225 158.605 157.665 158.965 157.104 159.325C160.877 156.637 164.573 153.844 168.18 150.912C175.538 144.834 182.393 138.168 188.677 130.982C194.894 123.739 200.382 115.901 205.063 107.58C209.662 99.4021 213.313 90.725 215.945 81.7174H215.55C212.813 90.6105 209.077 99.1636 204.412 107.213C199.655 115.415 194.102 123.129 187.833 130.241C181.493 137.267 174.596 143.77 167.211 149.686C162.836 153.151 158.302 156.422 153.664 159.547C157.466 156.775 161.177 153.876 164.795 150.85C171.832 144.785 178.366 138.156 184.33 131.031C190.278 123.898 195.474 116.169 199.836 107.968C204.303 99.6217 207.788 90.7847 210.22 81.6343H209.839C207.296 90.6685 203.717 99.3773 199.172 107.587C194.728 115.689 189.457 123.309 183.444 130.324C177.435 137.315 170.867 143.804 163.805 149.727C159.098 153.574 154.197 157.17 149.178 160.6L150.846 159.346L153.56 157.323L156.17 155.161L158.779 152.998C159.638 152.305 160.531 151.612 161.341 150.788L166.318 146.193C167.951 144.634 169.488 142.971 171.073 141.342C172.659 139.714 174.133 138.03 175.622 136.332L177.844 133.775C178.591 132.929 179.228 132.008 179.92 131.121L181.997 128.453C182.689 127.559 183.382 126.672 184.011 125.729L187.846 120.151L191.356 114.357C191.965 113.415 192.443 112.382 192.983 111.398L194.561 108.404C198.882 99.9054 202.197 90.9305 204.44 81.662H204.073C201.716 90.8263 198.301 99.6846 193.897 108.058L192.284 111.01C191.737 111.987 191.252 112.999 190.629 113.935L187.064 119.638L183.181 125.126C182.551 126.055 181.845 126.921 181.146 127.794L179.069 130.421C178.377 131.287 177.684 132.188 176.944 133.019L174.701 135.521C173.206 137.191 171.745 138.889 170.125 140.434C168.505 141.98 166.982 143.629 165.349 145.154L160.351 149.637C159.534 150.407 158.641 151.086 157.776 151.793L155.166 153.872L152.549 155.951L149.863 158.002C148.137 159.277 146.39 160.527 144.623 161.751C149.238 158.281 153.671 154.585 157.921 150.663C164.404 144.737 170.324 138.223 175.608 131.204C180.936 124.23 185.546 116.736 189.369 108.834C193.527 100.177 196.649 91.0587 198.673 81.6689H198.327C196.17 90.9603 192.932 99.9662 188.677 108.502C184.766 116.293 180.079 123.669 174.687 130.518C169.355 137.402 163.394 143.775 156.883 149.554C151.547 154.306 145.929 158.73 140.061 162.804C141.681 161.557 143.287 160.289 144.907 159.041C148.126 156.269 151.435 153.546 154.432 150.511C157.568 147.614 160.392 144.419 163.272 141.28L167.349 136.353C168.041 135.549 168.658 134.669 169.294 133.816L171.191 131.245C176.191 124.335 180.526 116.966 184.136 109.236C188.135 100.425 191.082 91.1718 192.914 81.6689H192.581C190.617 91.08 187.55 100.226 183.444 108.917C179.753 116.538 175.349 123.791 170.291 130.58L168.374 133.103C167.73 133.941 167.121 134.8 166.408 135.59L162.296 140.441C159.402 143.511 156.55 146.637 153.407 149.45C150.396 152.409 147.08 155.036 143.855 157.766C141.023 159.887 138.227 162.049 135.333 164.086C140.865 159.899 146.085 155.313 150.95 150.365C151.642 149.63 152.438 148.937 153.124 148.161L155.2 145.861C156.585 144.315 158.018 142.832 159.278 141.183C160.538 139.534 161.887 137.981 163.147 136.332L166.761 131.287C171.414 124.454 175.426 117.205 178.744 109.631C182.613 100.69 185.377 91.3088 186.974 81.6966H186.663C184.929 91.2228 182.039 100.501 178.058 109.326C174.652 116.794 170.562 123.93 165.84 130.643L162.185 135.59C160.911 137.191 159.575 138.744 158.274 140.324C156.973 141.904 155.553 143.387 154.169 144.897L152.092 147.143C151.4 147.898 150.625 148.57 149.898 149.291C144.3 154.777 138.283 159.817 131.9 164.363C137.407 159.982 142.603 155.222 147.447 150.116C152.918 144.249 157.892 137.938 162.317 131.245C166.654 124.507 170.361 117.383 173.392 109.964L174.486 107.192C174.853 106.256 175.241 105.335 175.532 104.378L177.394 98.668L178.93 92.8676C179.048 92.3825 179.193 91.9044 179.304 91.4193L179.595 89.9502L180.183 87.005C180.516 85.2378 180.806 83.4707 181.063 81.6897H180.772C180.488 83.443 180.176 85.1962 179.817 86.9356L179.187 89.8531L178.868 91.3153C178.75 91.8004 178.605 92.2717 178.474 92.7568L176.861 98.5086L174.915 104.156C174.611 105.106 174.223 106.014 173.836 106.928L172.7 109.7C169.574 117.017 165.781 124.03 161.368 130.649C156.881 137.207 151.859 143.382 146.354 149.111C140.784 154.765 134.79 159.985 128.424 164.724L127.358 165.486C133.255 160.715 138.772 155.492 143.861 149.866C154.255 138.289 162.437 124.901 168 110.366C171.57 101.137 173.968 91.4959 175.137 81.6689H174.867C173.549 91.4013 171.026 100.932 167.356 110.04C161.614 124.371 153.291 137.525 142.802 148.847C137.562 154.467 131.881 159.657 125.815 164.37C124.832 165.133 123.828 165.867 122.838 166.609C123.323 166.207 123.821 165.812 124.306 165.403C130.092 160.589 135.438 155.269 140.283 149.506C141.473 148.044 142.733 146.644 143.848 145.133L147.198 140.601C148.299 139.076 149.275 137.468 150.32 135.902C150.825 135.112 151.372 134.343 151.836 133.532L153.221 131.086C155.166 127.871 156.772 124.468 158.433 121.107L160.655 115.93C161.043 115.078 161.347 114.198 161.68 113.311L162.642 110.664C162.953 109.784 163.286 108.903 163.59 108.016L164.407 105.335C164.913 103.533 165.549 101.766 165.93 99.9223L167.225 94.4546L168.215 88.9107C168.581 86.5129 168.907 84.1013 169.121 81.6897H168.907C168.623 84.0875 168.284 86.4714 167.875 88.8483L166.802 94.3437L165.418 99.7698C165.003 101.592 164.345 103.339 163.805 105.127L162.96 107.795C162.649 108.668 162.268 109.534 161.971 110.407L160.974 113.02C160.648 113.893 160.316 114.766 159.915 115.605L157.623 120.705C155.913 124.018 154.266 127.358 152.286 130.518L150.853 132.916C150.382 133.712 149.822 134.461 149.316 135.237C148.257 136.769 147.24 138.342 146.153 139.832L142.761 144.267C141.632 145.743 140.359 147.101 139.161 148.529C134.284 154.138 128.919 159.302 123.129 163.962C121.744 165.121 120.314 166.253 118.837 167.357C119.771 166.553 120.699 165.729 121.64 164.925L123.717 163.123L125.669 161.217C126.957 159.928 128.293 158.695 129.532 157.364L133.194 153.317C133.824 152.624 134.392 151.931 134.959 151.238L136.669 149.118C141.204 143.452 145.206 137.378 148.624 130.975C149.053 130.171 149.524 129.395 149.919 128.577L151.102 126.124C151.864 124.475 152.729 122.874 153.38 121.176L155.457 116.145L157.236 111.01C159.487 104.116 161.15 97.0428 162.206 89.867C162.58 87.1597 162.873 84.4386 163.085 81.7036H162.85C162.591 84.4201 162.254 87.1228 161.839 89.8116C160.662 96.9342 158.886 103.945 156.529 110.768L154.667 115.84L152.528 120.802C151.836 122.472 150.971 124.045 150.189 125.653L148.977 128.065C148.569 128.868 148.091 129.631 147.648 130.414C144.144 136.698 140.063 142.642 135.458 148.168L133.734 150.247C133.159 150.94 132.592 151.633 131.962 152.271L128.272 156.2C127.033 157.489 125.683 158.681 124.396 159.935L122.444 161.779L120.367 163.518C118.982 164.668 117.646 165.853 116.213 166.983C114.78 168.113 113.382 169.194 111.942 170.268C109.056 172.409 106.127 174.495 103.13 176.505C99.0919 179.193 94.973 181.748 90.7734 184.169H139.002C150.576 179.337 162.021 174.206 173.337 168.778C181.748 164.689 190.089 160.462 198.258 155.971C206.426 151.481 214.574 146.817 222.382 141.668C230.979 136.068 239.242 129.971 247.13 123.408V122.971Z" fill="#67A8D4"/>
<path d="M247.138 81.6689H70.9551V85.9031H247.138V81.6689Z" fill="#8EC8EE"/>
<path d="M224.528 91.4956H97.5158C96.9462 91.4956 96.4844 91.9579 96.4844 92.5282V175.694C96.4844 176.264 96.9462 176.726 97.5158 176.726H224.528C225.098 176.726 225.56 176.264 225.56 175.694V92.5282C225.56 91.9579 225.098 91.4956 224.528 91.4956Z" fill="#DCE8EF"/>
<path d="M103.752 95.7017C103.754 96.0463 103.653 96.3836 103.462 96.6707C103.272 96.9578 103.001 97.1818 102.683 97.3143C102.365 97.4468 102.015 97.4819 101.678 97.415C101.34 97.3481 101.03 97.1823 100.786 96.9386C100.543 96.6949 100.377 96.3843 100.31 96.0463C100.244 95.7082 100.279 95.3579 100.411 95.0398C100.543 94.7217 100.767 94.4501 101.054 94.2595C101.341 94.0689 101.678 93.9679 102.022 93.9693C102.481 93.9693 102.921 94.1518 103.246 94.4767C103.57 94.8016 103.752 95.2422 103.752 95.7017Z" fill="#FB5507"/>
<path d="M111.27 95.7017C111.271 96.046 111.171 96.383 110.98 96.6699C110.79 96.9569 110.52 97.1809 110.202 97.3136C109.885 97.4464 109.535 97.4818 109.198 97.4155C108.86 97.3491 108.55 97.184 108.306 96.941C108.063 96.6981 107.896 96.3881 107.829 96.0505C107.761 95.7129 107.795 95.3629 107.927 95.0446C108.058 94.7264 108.281 94.4543 108.566 94.2629C108.852 94.0714 109.188 93.9692 109.532 93.9692C109.992 93.9692 110.433 94.1515 110.759 94.4762C111.084 94.8009 111.268 95.2416 111.27 95.7017Z" fill="#3887FE"/>
<path d="M118.782 95.7017C118.782 96.0444 118.68 96.3793 118.49 96.6642C118.3 96.9491 118.029 97.1712 117.713 97.3023C117.397 97.4334 117.049 97.4678 116.713 97.4009C116.378 97.3341 116.069 97.1691 115.827 96.9268C115.585 96.6845 115.42 96.3758 115.354 96.0397C115.287 95.7036 115.321 95.3553 115.452 95.0387C115.583 94.7222 115.805 94.4516 116.089 94.2612C116.374 94.0708 116.709 93.9692 117.051 93.9692C117.51 93.9692 117.95 94.1518 118.275 94.4767C118.599 94.8016 118.782 95.2422 118.782 95.7017Z" fill="#FFBF0B"/>
<path d="M223.331 99.5273H138.49V174.509H223.331V99.5273Z" fill="#A5B7C6"/>
<path d="M122.942 103.65H100.285V104.946H122.942V103.65Z" fill="#A5B7C6"/>
<path d="M134.198 110.102H100.285V111.398H134.198V110.102Z" fill="#A5B7C6"/>
<path d="M134.198 114.309H100.285V115.604H134.198V114.309Z" fill="#A5B7C6"/>
<path d="M134.198 118.522H100.285V119.818H134.198V118.522Z" fill="#A5B7C6"/>
<path d="M134.198 122.729H100.285V124.024H134.198V122.729Z" fill="#A5B7C6"/>
<path d="M134.198 126.935H100.285V128.231H134.198V126.935Z" fill="#A5B7C6"/>
<path d="M134.198 131.142H100.285V132.438H134.198V131.142Z" fill="#A5B7C6"/>
<path d="M134.198 135.348H100.285V136.644H134.198V135.348Z" fill="#A5B7C6"/>
<path d="M122.589 139.554H100.285V140.85H122.589V139.554Z" fill="#A5B7C6"/>
<path d="M91.2025 91.4956H79.3583C78.6739 91.4956 78.1191 92.051 78.1191 92.7361V175.486C78.1191 176.171 78.6739 176.726 79.3583 176.726H91.2025C91.8869 176.726 92.4416 176.171 92.4416 175.486V92.7361C92.4416 92.051 91.8869 91.4956 91.2025 91.4956Z" fill="#DCE8EF"/>
<path d="M89.5682 95.7021H80.9844V104.295H89.5682V95.7021Z" stroke="#A5B7C6" stroke-width="0.64" stroke-miterlimit="10"/>
<path d="M89.5682 107.58H80.9844V116.173H89.5682V107.58Z" stroke="#A5B7C6" stroke-width="0.64" stroke-miterlimit="10"/>
<path d="M89.5682 119.451H80.9844V128.044H89.5682V119.451Z" stroke="#A5B7C6" stroke-width="0.64" stroke-miterlimit="10"/>
<path d="M89.5682 131.329H80.9844V139.922H89.5682V131.329Z" stroke="#A5B7C6" stroke-width="0.64" stroke-miterlimit="10"/>
<path d="M89.5682 143.199H80.9844V151.792H89.5682V143.199Z" stroke="#A5B7C6" stroke-width="0.64" stroke-miterlimit="10"/>
<path d="M89.5682 155.077H80.9844V163.67H89.5682V155.077Z" stroke="#A5B7C6" stroke-width="0.64" stroke-miterlimit="10"/>
<path d="M87.2224 99.9985C87.2238 100.384 87.1109 100.761 86.898 101.082C86.6851 101.403 86.3818 101.654 86.0264 101.802C85.6711 101.951 85.2798 101.99 84.902 101.916C84.5242 101.842 84.177 101.657 83.9042 101.385C83.6315 101.113 83.4455 100.766 83.3699 100.388C83.2943 100.01 83.3324 99.618 83.4794 99.2618C83.6265 98.9056 83.8758 98.6011 84.1958 98.3868C84.5159 98.1725 84.8922 98.0581 85.2772 98.0581C85.7919 98.0581 86.2857 98.2623 86.6503 98.626C87.0149 98.9897 87.2206 99.4832 87.2224 99.9985Z" fill="#A5B7C6"/>
<path d="M82.9376 171.861C82.939 172.033 82.8894 172.201 82.7951 172.344C82.7009 172.488 82.5662 172.6 82.4083 172.666C82.2503 172.733 82.0761 172.751 81.9078 172.719C81.7395 172.686 81.5846 172.604 81.4629 172.483C81.3412 172.362 81.2581 172.208 81.2242 172.04C81.1902 171.872 81.2069 171.697 81.2722 171.538C81.3375 171.38 81.4484 171.244 81.5909 171.148C81.7333 171.053 81.9009 171.002 82.0723 171.002C82.3006 171.002 82.5196 171.092 82.6817 171.253C82.8438 171.414 82.9358 171.633 82.9376 171.861Z" fill="#A5B7C6"/>
<path d="M86.1427 171.861C86.1441 172.033 86.0945 172.201 86.0002 172.344C85.906 172.488 85.7713 172.6 85.6134 172.666C85.4554 172.733 85.2812 172.751 85.1129 172.719C84.9446 172.686 84.7897 172.604 84.668 172.483C84.5463 172.362 84.4632 172.208 84.4292 172.04C84.3953 171.872 84.412 171.697 84.4773 171.538C84.5426 171.38 84.6535 171.244 84.7959 171.148C84.9384 171.053 85.106 171.002 85.2774 171.002C85.5057 171.002 85.7247 171.092 85.8868 171.253C86.0489 171.414 86.1409 171.633 86.1427 171.861Z" fill="#A5B7C6"/>
<path d="M89.3536 171.861C89.355 172.033 89.3054 172.201 89.2112 172.344C89.1169 172.488 88.9823 172.6 88.8243 172.666C88.6663 172.733 88.4921 172.751 88.3238 172.719C88.1555 172.686 88.0007 172.604 87.879 172.483C87.7572 172.362 87.6741 172.208 87.6402 172.04C87.6062 171.872 87.623 171.697 87.6882 171.538C87.7535 171.38 87.8644 171.244 88.0069 171.148C88.1493 171.053 88.3169 171.002 88.4883 171.002C88.7166 171.002 88.9357 171.092 89.0978 171.253C89.2598 171.414 89.3518 171.633 89.3536 171.861Z" fill="#A5B7C6"/>
<path d="M87.0501 110.102H83.5059V113.65H87.0501V110.102Z" fill="#A5B7C6"/>
<path d="M85.2764 121.779L83.0059 125.722H87.5539L85.2764 121.779Z" fill="#A5B7C6"/>
<path d="M87.2224 135.611C87.2238 135.997 87.1109 136.374 86.898 136.695C86.6851 137.016 86.3818 137.267 86.0264 137.415C85.6711 137.564 85.2798 137.603 84.902 137.529C84.5242 137.455 84.177 137.27 83.9042 136.998C83.6315 136.726 83.4455 136.379 83.3699 136.001C83.2943 135.623 83.3324 135.231 83.4794 134.875C83.6265 134.518 83.8758 134.214 84.1958 134C84.5159 133.785 84.8922 133.671 85.2772 133.671C85.7919 133.671 86.2857 133.875 86.6503 134.239C87.0149 134.602 87.2206 135.096 87.2224 135.611Z" fill="#A5B7C6"/>
<path d="M87.0501 145.708H83.5059V149.256H87.0501V145.708Z" fill="#A5B7C6"/>
<path d="M85.2764 157.385L83.0059 161.328H87.5539L85.2764 157.385Z" fill="#A5B7C6"/>
<path d="M214.596 106.568H147.227V167.468H214.596V106.568Z" stroke="#F9FBFC" stroke-width="1.28" stroke-miterlimit="10"/>
<path d="M149.131 104.655H145.316V108.474H149.131V104.655Z" fill="#F9FBFC"/>
<path d="M149.131 165.555H145.316V169.374H149.131V165.555Z" fill="#F9FBFC"/>
<path d="M216.498 104.655H212.684V108.474H216.498V104.655Z" fill="#F9FBFC"/>
<path d="M182.814 104.655H179V108.474H182.814V104.655Z" fill="#F9FBFC"/>
<path d="M182.814 165.555H179V169.374H182.814V165.555Z" fill="#F9FBFC"/>
<path d="M145.316 135.105V138.924H149.131V135.105H145.316Z" fill="#F9FBFC"/>
<path d="M212.691 135.105V138.924H216.506V135.105H212.691Z" fill="#F9FBFC"/>
<path d="M216.498 165.555H212.684V169.374H216.498V165.555Z" fill="#F9FBFC"/>
<path d="M196.299 128.321C196.301 125.778 195.675 123.274 194.476 121.033C193.277 118.791 191.543 116.881 189.427 115.473C187.312 114.065 184.882 113.203 182.353 112.964C179.825 112.724 177.276 113.115 174.934 114.1C172.593 115.086 170.532 116.637 168.934 118.614C167.337 120.59 166.252 122.932 165.778 125.43C165.304 127.929 165.455 130.505 166.217 132.931C166.979 135.357 168.329 137.556 170.146 139.333C171.828 140.939 173.171 142.867 174.096 145.003C175.021 147.138 175.509 149.437 175.531 151.765V153.719H186.282V152.104C186.3 149.706 186.792 147.335 187.731 145.129C188.669 142.922 190.036 140.924 191.751 139.249C193.194 137.82 194.339 136.118 195.12 134.242C195.9 132.366 196.301 130.353 196.299 128.321Z" fill="#FFBF0B"/>
<path d="M183.479 161.113H178.336L177.471 158.515H184.352L183.479 161.113Z" fill="#434F7E"/>
<path d="M179.138 142.597C178.867 142.542 178.607 142.441 178.369 142.299C178.184 142.204 178.026 142.062 177.911 141.887C177.797 141.711 177.731 141.51 177.719 141.301V131.8C177.738 131.563 177.824 131.336 177.966 131.145C178.108 130.954 178.3 130.806 178.522 130.719C178.528 130.584 178.57 130.452 178.643 130.338C178.716 130.224 178.817 130.13 178.937 130.068C179.191 129.92 179.481 129.843 179.775 129.846C180.467 129.846 181.028 130.227 181.028 130.719C181.248 130.806 181.44 130.954 181.58 131.145C181.721 131.336 181.805 131.563 181.824 131.8V141.301C181.824 142.063 180.924 142.687 179.747 142.687C179.542 142.677 179.337 142.647 179.138 142.597ZM180.045 130.366C179.759 130.305 179.461 130.344 179.2 130.476C179.089 130.546 179.027 130.629 179.027 130.698C179.025 130.719 179.025 130.74 179.027 130.761L179.145 131.003L178.889 131.107C178.466 131.266 178.196 131.537 178.196 131.8V141.301C178.211 141.421 178.256 141.536 178.326 141.636C178.396 141.735 178.489 141.815 178.598 141.869C178.946 142.066 179.341 142.164 179.74 142.153C180.578 142.153 181.284 141.765 181.284 141.301V131.8C181.284 131.537 181.021 131.266 180.592 131.107L180.342 131.01L180.453 130.761C180.459 130.74 180.459 130.719 180.453 130.698C180.515 130.58 180.342 130.428 180.045 130.366Z" fill="#EFF4F6"/>
<path d="M181.409 142.597C181.137 142.545 180.877 142.444 180.641 142.299C180.455 142.204 180.297 142.062 180.183 141.887C180.069 141.711 180.002 141.51 179.99 141.301V131.8C180.01 131.563 180.096 131.336 180.237 131.145C180.379 130.954 180.572 130.806 180.793 130.719C180.793 130.227 181.34 129.846 182.046 129.846C182.34 129.843 182.629 129.92 182.884 130.068C183.004 130.13 183.105 130.224 183.178 130.338C183.251 130.452 183.293 130.584 183.299 130.719C183.52 130.806 183.711 130.954 183.852 131.145C183.993 131.336 184.077 131.563 184.095 131.8V141.301C184.095 142.063 183.195 142.687 182.019 142.687C181.813 142.677 181.609 142.647 181.409 142.597ZM182.316 130.366C182.226 130.355 182.136 130.355 182.046 130.366C181.589 130.366 181.299 130.573 181.299 130.726C181.296 130.747 181.296 130.768 181.299 130.788L181.416 131.038L181.16 131.135C180.738 131.294 180.468 131.564 180.468 131.828V141.301C180.483 141.421 180.527 141.536 180.597 141.636C180.667 141.735 180.761 141.815 180.869 141.869C181.217 142.066 181.612 142.164 182.012 142.153C182.849 142.153 183.555 141.765 183.555 141.301V131.8C183.555 131.537 183.292 131.266 182.863 131.107L182.607 131.003L182.725 130.761C182.73 130.74 182.73 130.719 182.725 130.698C182.725 130.622 182.662 130.546 182.558 130.476C182.483 130.428 182.402 130.391 182.316 130.366Z" fill="#EFF4F6"/>
<path d="M181.16 142.16H180.654V153.705H181.16V142.16Z" fill="#EFF4F6"/>
<g style="mix-blend-mode:multiply">
<g style="mix-blend-mode:multiply">
<path d="M184.98 113.463C187.326 115.926 188.935 118.999 189.622 122.331C190.31 125.664 190.049 129.123 188.87 132.314C187.691 135.506 185.64 138.302 182.951 140.385C180.263 142.467 177.044 143.752 173.662 144.094C174.876 146.452 175.516 149.064 175.531 151.716V153.671H186.282V152.056C186.306 149.666 186.801 147.304 187.74 145.107C188.678 142.909 190.041 140.918 191.75 139.25C193.665 137.346 195.045 134.972 195.754 132.366C196.462 129.76 196.474 127.013 195.787 124.401C195.101 121.789 193.74 119.403 191.842 117.483C189.944 115.564 187.575 114.177 184.973 113.463H184.98Z" fill="#F0F1F1"/>
</g>
</g>
<path d="M175.082 149.686H186.739V154.904C186.739 155.858 186.361 156.773 185.687 157.447C185.013 158.122 184.099 158.501 183.147 158.501H178.682C177.729 158.501 176.815 158.122 176.141 157.447C175.467 156.773 175.089 155.858 175.089 154.904V149.686H175.082Z" fill="#4D5B91"/>
<path d="M186.96 150.996H174.859V152.375H186.96V150.996Z" fill="#434F7E"/>
<path d="M186.96 153.414H174.859V154.793H186.96V153.414Z" fill="#434F7E"/>
<path d="M186.96 155.84H174.859V157.219H186.96V155.84Z" fill="#434F7E"/>
<path d="M178.875 121.149C178.875 121.971 178.632 122.775 178.175 123.459C177.719 124.142 177.07 124.675 176.311 124.99C175.552 125.305 174.717 125.387 173.912 125.227C173.106 125.066 172.366 124.67 171.785 124.089C171.204 123.507 170.808 122.766 170.648 121.96C170.488 121.153 170.57 120.317 170.885 119.557C171.199 118.798 171.731 118.148 172.414 117.691C173.097 117.235 173.9 116.991 174.722 116.991C175.821 117 176.872 117.441 177.649 118.219C178.426 118.996 178.866 120.049 178.875 121.149Z" fill="#F9E384"/>
<path d="M76.4435 186.733C76.4435 186.905 76.3925 187.072 76.2972 187.215C76.2018 187.358 76.0662 187.469 75.9077 187.534C75.7492 187.599 75.5749 187.616 75.4068 187.582C75.2388 187.548 75.0846 187.465 74.9639 187.343C74.8431 187.221 74.7613 187.066 74.7287 186.898C74.6961 186.729 74.7142 186.555 74.7808 186.397C74.8473 186.238 74.9593 186.104 75.1025 186.009C75.2457 185.915 75.4137 185.865 75.5851 185.867C75.6984 185.867 75.8106 185.889 75.9152 185.933C76.0198 185.976 76.1147 186.04 76.1945 186.121C76.2743 186.201 76.3374 186.297 76.3801 186.402C76.4229 186.507 76.4444 186.62 76.4435 186.733Z" fill="#FB5507"/>
<path d="M231.576 181.889C230.697 181.543 228.745 190.316 226.266 197.274C230.482 178.39 230.261 167.073 229.285 166.706C228.308 166.338 224.079 177.71 221.151 192.908C221.525 172.624 220.092 162.333 219.039 162.236C217.987 162.139 218.084 173.151 215.474 194.495C213.834 182.444 211.778 176.158 211.085 176.234C210.393 176.311 211.051 183.587 211.383 197.274C209.452 187.572 207.922 184.107 206.648 184.64C206.205 184.827 205.88 189.491 207.977 201.542H230.579C230.579 201.542 232.988 182.43 231.576 181.889Z" fill="#FFBF0B"/>
<g style="mix-blend-mode:multiply">
<path d="M220.589 205.991C221.025 203.018 221.579 200.073 222.139 197.128C222.7 194.183 223.323 191.258 223.96 188.327C225.243 182.478 226.646 176.655 228.169 170.857C228.287 170.406 228.64 170.475 228.55 170.94C227.442 176.83 226.256 182.702 224.991 188.556C224.364 191.489 223.711 194.411 223.032 197.322C222.354 200.232 221.673 203.145 220.99 206.06C220.88 206.546 220.52 206.462 220.589 205.991Z" fill="#DCE8EF"/>
</g>
<g style="mix-blend-mode:multiply">
<g style="mix-blend-mode:multiply">
<path d="M226.633 203.961C227.577 198.089 228.966 192.297 230.786 186.636C230.798 186.586 230.83 186.542 230.874 186.515C230.918 186.487 230.971 186.479 231.022 186.491C231.072 186.503 231.116 186.534 231.143 186.578C231.17 186.622 231.179 186.676 231.167 186.726C230.199 192.593 228.811 198.383 227.014 204.051C226.99 204.087 226.956 204.115 226.917 204.131C226.877 204.147 226.833 204.15 226.791 204.14C226.75 204.13 226.712 204.108 226.684 204.076C226.655 204.044 226.638 204.004 226.633 203.961Z" fill="#DCE8EF"/>
</g>
</g>
<g style="mix-blend-mode:multiply">
<path d="M218.153 204.681C217.966 192.402 218.257 180.094 218.97 167.828C218.97 167.357 219.364 167.35 219.364 167.828C219.489 180.122 219.288 192.422 218.561 204.681C218.534 205.208 218.16 205.166 218.153 204.681Z" fill="#DCE8EF"/>
</g>
<g style="mix-blend-mode:multiply">
<path d="M214.511 205.208C213.211 197.846 212.349 190.414 211.929 182.949C211.921 182.922 211.92 182.893 211.925 182.864C211.929 182.836 211.94 182.809 211.956 182.785C211.972 182.761 211.993 182.741 212.018 182.726C212.042 182.711 212.07 182.701 212.098 182.698C212.127 182.694 212.156 182.697 212.183 182.706C212.21 182.714 212.236 182.729 212.257 182.748C212.278 182.767 212.295 182.791 212.307 182.817C212.318 182.844 212.324 182.872 212.323 182.901C213.609 190.268 214.476 197.702 214.919 205.167C214.94 205.479 214.594 205.499 214.511 205.208Z" fill="#DCE8EF"/>
</g>
<g style="mix-blend-mode:multiply">
<path d="M211.342 204.931C209.555 199.288 208.201 193.518 207.292 187.669C207.28 187.618 207.289 187.565 207.316 187.521C207.344 187.476 207.387 187.445 207.438 187.433C207.488 187.421 207.541 187.43 207.586 187.457C207.63 187.484 207.661 187.528 207.673 187.579C209.44 193.225 210.798 198.992 211.737 204.834C211.738 204.882 211.723 204.928 211.694 204.966C211.666 205.004 211.625 205.031 211.579 205.042C211.532 205.054 211.484 205.049 211.441 205.029C211.397 205.008 211.363 204.974 211.342 204.931Z" fill="#DCE8EF"/>
</g>
<path d="M234.505 199.325L234.103 206.774L234.02 208.313L233.473 218.375L233.432 219.144C233.405 219.584 233.212 219.998 232.892 220.3C232.572 220.603 232.148 220.772 231.708 220.773H207.376C206.936 220.773 206.512 220.605 206.192 220.302C205.873 219.999 205.682 219.584 205.659 219.144L205.617 218.375L205.07 208.313L204.987 206.774L204.586 199.325H234.505Z" fill="#95A8B5"/>
<path d="M227.574 200.101L226.535 219.103C226.523 219.344 226.418 219.572 226.243 219.738C226.068 219.905 225.835 219.997 225.594 219.997H231.706C231.949 219.999 232.183 219.907 232.36 219.741C232.537 219.574 232.642 219.346 232.655 219.103L233.686 200.101H227.574Z" fill="#8A9DA8"/>
<path d="M281.632 73.6441C281.232 73.2451 280.691 73.021 280.126 73.021C279.562 73.021 279.02 73.2451 278.621 73.6441L257.3 95.009C256.901 95.408 256.678 95.9489 256.678 96.5128C256.678 97.0768 256.901 97.6177 257.3 98.0166L262.491 103.214L286.824 78.8416L281.632 73.6441Z" fill="#A5B7C6"/>
<path d="M262.49 103.214L263.293 104.018C263.693 104.417 264.234 104.641 264.799 104.641C265.363 104.641 265.905 104.417 266.304 104.018L287.626 82.6528C288.024 82.2538 288.247 81.7129 288.247 81.149C288.247 80.585 288.024 80.0441 287.626 79.6452L286.823 78.8413L262.49 103.214Z" fill="#758D9E"/>
<path d="M275.499 75.4664L259.111 91.8828L266.461 99.2354L282.848 82.819L275.499 75.4664Z" fill="#FC7808"/>
<path d="M273.459 80.8228L264.461 89.8374L268.496 93.8737L277.494 84.8592L273.459 80.8228Z" fill="#FB5507"/>
<path d="M282.854 82.8209L266.467 99.2373L269.429 102.201L285.817 85.7845L282.854 82.8209Z" fill="#FB5507"/>
<path d="M53.9947 76.499V89.7767C54.4897 89.8947 54.9242 90.1906 55.2157 90.6081C55.5072 91.0256 55.6355 91.5357 55.5762 92.0416C55.5168 92.5475 55.274 93.014 54.8938 93.3525C54.5136 93.6911 54.0224 93.8781 53.5136 93.8781C53.0048 93.8781 52.5136 93.6911 52.1334 93.3525C51.7532 93.014 51.5104 92.5475 51.451 92.0416C51.3917 91.5357 51.52 91.0256 51.8115 90.6081C52.103 90.1906 52.5375 89.8947 53.0325 89.7767V76.499L43.3965 91.7448L53.5101 107.774L63.6861 91.7587L53.9947 76.499Z" fill="#A5B7C6"/>
<path d="M60.9718 101.481H57.9883V114.96H60.9718V101.481Z" fill="#1C70EA"/>
<path d="M57.9895 101.481H46.0898V114.96H57.9895V101.481Z" fill="#3887FE"/>
<path d="M61.4566 97.8989H45.6112C44.8389 97.8989 44.2129 98.5256 44.2129 99.2988V100.082C44.2129 100.855 44.8389 101.482 45.6112 101.482H61.4566C62.2289 101.482 62.855 100.855 62.855 100.082V99.2988C62.855 98.5256 62.2289 97.8989 61.4566 97.8989Z" fill="#5E60F4"/>
<path d="M251.797 173.885L245.566 171.363L263.17 136.055C263.58 135.235 264.284 134.6 265.141 134.276C265.998 133.952 266.945 133.964 267.794 134.309L251.797 173.885Z" fill="#B1B5BA"/>
<path d="M252.46 185.333C250.823 184.671 249.018 184.555 247.31 185L251.795 173.913L245.565 171.39L247.137 176.477L241.703 189.879C241.091 191.395 240.942 193.058 241.275 194.659C241.607 196.259 242.406 197.725 243.571 198.871C244.736 200.017 246.213 200.792 247.818 201.097C249.422 201.402 251.081 201.225 252.584 200.586C254.088 199.948 255.368 198.878 256.264 197.511C257.16 196.145 257.631 194.543 257.618 192.908C257.605 191.273 257.108 189.679 256.19 188.327C255.271 186.975 253.974 185.926 252.46 185.312V185.333ZM247.213 198.313C246.165 197.888 245.266 197.162 244.63 196.227C243.994 195.291 243.65 194.187 243.64 193.056C243.63 191.924 243.956 190.815 244.576 189.868C245.196 188.922 246.082 188.181 247.122 187.738C248.163 187.296 249.311 187.172 250.422 187.383C251.533 187.593 252.556 188.129 253.363 188.922C254.17 189.714 254.724 190.729 254.955 191.837C255.186 192.945 255.084 194.096 254.661 195.146C254.093 196.554 252.988 197.679 251.592 198.273C250.195 198.867 248.62 198.881 247.213 198.313Z" fill="#6125BF"/>
<path d="M246.971 169.914L250.647 175.548L281.846 151.425C282.564 150.866 283.046 150.057 283.197 149.159C283.349 148.261 283.158 147.338 282.663 146.574L246.971 169.914Z" fill="#C4C5C7"/>
<path d="M224.183 169.089C222.347 170.29 221.063 172.172 220.613 174.321C220.164 176.47 220.585 178.71 221.785 180.548C222.984 182.386 224.864 183.671 227.011 184.122C229.158 184.572 231.395 184.15 233.231 182.949L245.359 175.007L250.648 175.569L246.972 169.935L236.948 176.49C237.04 174.961 236.705 173.436 235.981 172.086C235.257 170.736 234.172 169.615 232.847 168.847C231.523 168.079 230.011 167.695 228.481 167.738C226.951 167.78 225.463 168.248 224.183 169.089ZM225.568 171.217C226.514 170.598 227.623 170.273 228.753 170.284C229.884 170.296 230.986 170.642 231.92 171.28C232.854 171.918 233.577 172.819 234 173.869C234.423 174.919 234.525 176.071 234.293 177.179C234.062 178.287 233.508 179.301 232.701 180.094C231.894 180.887 230.87 181.422 229.759 181.632C228.648 181.843 227.5 181.719 226.459 181.276C225.419 180.833 224.533 180.091 223.913 179.145C223.502 178.515 223.218 177.809 223.079 177.069C222.94 176.33 222.947 175.57 223.102 174.833C223.256 174.096 223.554 173.397 223.978 172.775C224.402 172.153 224.945 171.622 225.575 171.21L225.568 171.217Z" fill="#8338EA"/>
<path d="M55.3828 122C56.7738 112.793 50.4456 104.2 41.2485 102.808C32.0514 101.415 23.468 107.75 22.0771 116.958C20.6862 126.165 27.0143 134.757 36.2115 136.15C45.4086 137.542 53.9919 131.207 55.3828 122Z" fill="#72BAEA"/>
<path opacity="0.2" d="M32.4734 123.47C31.6877 124.048 30.7486 124.38 29.7746 124.424C28.8006 124.469 27.8353 124.223 27.0006 123.719C26.1658 123.214 25.499 122.474 25.0842 121.59C24.6694 120.707 24.5252 119.721 24.6698 118.755C24.8145 117.79 25.2414 116.889 25.8969 116.167C26.5523 115.444 27.4068 114.932 28.3527 114.695C29.2985 114.458 30.2932 114.507 31.2114 114.835C32.1296 115.164 32.93 115.757 33.5118 116.54C33.8999 117.063 34.181 117.657 34.3389 118.289C34.4969 118.921 34.5285 119.577 34.432 120.221C34.3355 120.865 34.1128 121.484 33.7767 122.041C33.4405 122.599 32.9976 123.085 32.4734 123.47Z" fill="#F0F5F7"/>
<path d="M27.3507 104.025C24.296 106.276 21.9769 109.384 20.6866 112.956C19.3963 116.527 19.1928 120.401 20.1017 124.088C21.0106 127.775 22.9911 131.109 25.7929 133.67C28.5947 136.23 32.092 137.901 35.8424 138.472C39.5929 139.042 43.4282 138.487 46.8634 136.876C50.2986 135.265 53.1794 132.67 55.1416 129.42C57.1038 126.17 58.0593 122.41 57.8873 118.616C57.7152 114.822 56.4234 111.165 54.1751 108.106C52.6829 106.073 50.805 104.355 48.6486 103.049C46.4923 101.743 44.0999 100.876 41.6084 100.497C39.1169 100.118 36.5752 100.234 34.1287 100.839C31.6822 101.445 29.3789 102.527 27.3507 104.025ZM48.7271 133.054C46.0452 135.036 42.8361 136.178 39.5059 136.334C36.1756 136.49 32.874 135.653 30.0189 133.93C27.1637 132.207 24.8834 129.675 23.4665 126.654C22.0496 123.633 21.5598 120.259 22.0591 116.959C22.5583 113.659 24.0243 110.582 26.2713 108.116C28.5184 105.651 31.4456 103.908 34.6824 103.109C37.9192 102.309 41.3202 102.489 44.4549 103.625C47.5896 104.762 50.3171 106.803 52.2922 109.492C54.9362 113.091 56.0457 117.594 55.3773 122.011C54.709 126.428 52.3173 130.4 48.7271 133.054Z" fill="#1D262D"/>
<path d="M51.1806 134.152L49.041 135.731L59.8119 150.357L61.9515 148.777L51.1806 134.152Z" fill="#A5B7C6"/>
<path d="M57.149 139.31L52.3906 142.822L65.2648 160.303L70.0231 156.791L57.149 139.31Z" fill="#1D262D"/>
<path d="M65.2637 160.296L70.0055 166.74C70.236 167.053 70.5258 167.318 70.8583 167.519C71.1909 167.72 71.5598 167.853 71.9439 167.912C72.3279 167.97 72.7197 167.952 73.0968 167.858C73.4739 167.765 73.829 167.598 74.1417 167.368C74.4544 167.137 74.7187 166.847 74.9194 166.514C75.1201 166.181 75.2534 165.812 75.3115 165.427C75.3697 165.043 75.3517 164.65 75.2584 164.273C75.1652 163.895 74.9986 163.54 74.7682 163.227L70.0194 156.789L65.2637 160.296Z" fill="#A5B7C6"/>
<path d="M285.854 101.197L283.535 104.794L280.025 101.474L281.382 99.3677L285.854 101.197Z" fill="#3887FE"/>
<path d="M285.854 101.177L283.535 104.773C283.501 105.478 283.619 106.182 283.88 106.837C284.142 107.492 284.541 108.084 285.051 108.571L289.931 100.989C289.278 100.725 288.576 100.604 287.872 100.636C287.169 100.669 286.48 100.853 285.854 101.177Z" fill="#3887FE"/>
<path d="M280.027 101.474L281.411 99.3954C281.429 98.9823 281.359 98.57 281.205 98.1863C281.051 97.8026 280.817 97.4564 280.518 97.1709L277.666 101.613C278.047 101.757 278.454 101.819 278.861 101.795C279.268 101.771 279.665 101.662 280.027 101.474Z" fill="#3887FE"/>
<path d="M298.869 112.14L287.205 105.245L287.78 104.351L298.869 112.14Z" fill="#C4C5C7"/>
<path d="M288.498 118.182L285.396 116.422L287.992 113.338L289.806 114.364L288.498 118.182Z" fill="#FB5507"/>
<path d="M288.499 118.183L285.398 116.422C284.811 116.43 284.232 116.563 283.7 116.812C283.168 117.06 282.694 117.419 282.311 117.864L288.852 121.578C289.037 121.019 289.101 120.428 289.04 119.842C288.979 119.257 288.795 118.691 288.499 118.183Z" fill="#FB5507"/>
<path d="M287.972 113.338L289.786 114.364C290.131 114.363 290.471 114.286 290.783 114.141C291.094 113.995 291.371 113.782 291.593 113.519L287.765 111.35C287.656 111.677 287.618 112.024 287.654 112.367C287.69 112.71 287.798 113.041 287.972 113.338Z" fill="#FB5507"/>
<path d="M280.012 129.561L285.19 119.499L285.965 119.943L280.012 129.561Z" fill="#C4C5C7"/>
<path d="M288.408 136.893L284.836 136.921L285.542 132.95L287.633 132.929L288.408 136.893Z" fill="#FE9C0A"/>
<path d="M288.402 136.893H284.837C284.335 137.192 283.902 137.593 283.566 138.071C283.229 138.548 282.997 139.092 282.885 139.665L290.403 139.603C290.28 139.035 290.038 138.5 289.693 138.032C289.349 137.565 288.908 137.177 288.402 136.893Z" fill="#FE9C0A"/>
<path d="M285.543 132.95H287.62C287.917 132.776 288.173 132.54 288.37 132.258C288.567 131.975 288.701 131.653 288.762 131.314H284.359C284.427 131.656 284.568 131.98 284.773 132.262C284.977 132.544 285.24 132.779 285.543 132.95Z" fill="#FE9C0A"/>
<path d="M286.734 150.996L286.201 139.686L287.087 139.679L286.734 150.996Z" fill="#C4C5C7"/>
<path d="M285.273 208.77C286.85 208.765 288.361 208.135 289.477 207.019C290.592 205.902 291.221 204.389 291.226 202.811V190.496H285.446V186.858H292.126C292.861 186.858 293.565 187.15 294.084 187.67C294.604 188.19 294.895 188.895 294.895 189.63V202.797C294.893 205.34 293.884 207.78 292.088 209.579C290.292 211.378 287.856 212.391 285.315 212.395H284.512V208.763L285.273 208.77Z" fill="#C4C5C7"/>
<path d="M283.631 221.015H258.904C258.509 221.015 258.117 220.937 257.752 220.786C257.387 220.634 257.055 220.412 256.775 220.132C256.496 219.852 256.274 219.52 256.122 219.154C255.971 218.788 255.893 218.396 255.893 218.001V182.887H286.643V218.001C286.643 218.8 286.325 219.567 285.761 220.132C285.196 220.698 284.43 221.015 283.631 221.015Z" fill="#C4C5C7"/>
<path d="M279.715 183.643V217.599C279.716 217.941 279.649 218.28 279.519 218.596C279.389 218.912 279.198 219.199 278.957 219.441C278.716 219.683 278.43 219.875 278.114 220.006C277.799 220.137 277.461 220.205 277.119 220.205H283.273C283.615 220.205 283.953 220.137 284.268 220.006C284.584 219.875 284.87 219.683 285.111 219.441C285.352 219.199 285.543 218.912 285.673 218.596C285.804 218.28 285.87 217.941 285.869 217.599V183.643H279.715Z" fill="#B5B7BA"/>
<path d="M262.976 185.306H258.553V217.377H262.976V185.306Z" fill="#DCDEE2"/>
<path d="M313.28 127.358C313.28 127.358 282.593 160.012 271.24 173.941L274.868 176.934L278.495 179.921C290.007 166.138 316.257 129.818 316.257 129.818C316.098 129.139 315.722 128.531 315.186 128.087C314.65 127.643 313.983 127.387 313.287 127.358H313.28Z" fill="#8338EA"/>
<path d="M274.868 176.92L271.241 173.94C270.099 175.326 269.164 176.532 268.472 177.495C260.781 188.105 255.721 195.971 255.721 195.971L257.742 197.71L259.819 199.401L259.853 199.366C259.853 199.366 266.617 192.908 275.574 183.351C276.384 182.478 277.395 181.321 278.537 179.935L274.91 176.948L274.868 176.92Z" fill="#FFBF0B"/>
<path d="M255.672 195.999C255.672 195.999 248.75 196.643 248.75 208.535C260.421 206.31 259.75 199.387 259.75 199.387L257.673 197.696L255.672 195.999Z" fill="#5E60F4"/>
<g style="mix-blend-mode:multiply">
<g style="mix-blend-mode:multiply">
<path d="M255.701 195.957C255.701 195.957 260.761 188.091 268.452 177.482C269.144 176.518 270.1 175.306 271.221 173.926C282.574 160.011 313.261 127.358 313.261 127.358C313.963 127.351 314.64 127.611 315.158 128.085L257.702 197.696L255.701 195.957Z" fill="#E9E5D9"/>
</g>
</g>
<path d="M89.1395 210.295H26.2285V211.224H29.6897V219.484H26.2285V220.413H89.1395C90.4797 220.413 91.765 219.88 92.7127 218.931C93.6604 217.982 94.1928 216.695 94.1928 215.354C94.1928 214.012 93.6604 212.725 92.7127 211.777C91.765 210.828 90.4797 210.295 89.1395 210.295Z" fill="#FF006C"/>
<path d="M57.4912 211.223C58.5031 211.341 59.4365 211.826 60.114 212.588C60.7915 213.349 61.1658 214.334 61.1658 215.353C61.1658 216.373 60.7915 217.357 60.114 218.119C59.4365 218.88 58.5031 219.366 57.4912 219.484H28.2578C28.843 218.185 29.1456 216.778 29.1456 215.353C29.1456 213.929 28.843 212.521 28.2578 211.223H57.4912Z" fill="#D1D9E0"/>
<path d="M28.7832 217.987H60.6679C60.744 217.89 60.8202 217.793 60.8894 217.689H28.8593C28.8317 217.786 28.8109 217.89 28.7832 217.987ZM29.1432 215.52H61.6093C61.6093 215.471 61.6093 215.416 61.6093 215.367C61.6093 215.319 61.6093 215.27 61.6093 215.222H29.1432V215.52ZM29.0739 216.747H61.374C61.374 216.649 61.4363 216.546 61.4639 216.449H29.0739V216.747ZM60.9171 213.025C60.8409 212.921 60.7717 212.817 60.6886 212.72H28.7832L28.8593 213.025H60.9171ZM29.0739 214.266H61.4639C61.4639 214.162 61.4086 214.065 61.374 213.968H29.0739C29.0739 214.065 29.0739 214.134 29.0739 214.266Z" fill="#A7B6C1"/>
<path d="M95.868 200.177H32.957V201.113H36.4182V209.366H32.957V210.295H95.868C97.2082 210.295 98.4935 209.762 99.4412 208.813C100.389 207.865 100.921 206.578 100.921 205.236C100.921 203.894 100.389 202.608 99.4412 201.659C98.4935 200.71 97.2082 200.177 95.868 200.177Z" fill="#FC7808"/>
<path d="M64.2266 201.113C64.8105 201.041 65.403 201.094 65.9649 201.268C66.5268 201.443 67.0452 201.735 67.4859 202.125C67.9266 202.515 68.2795 202.994 68.5212 203.531C68.7628 204.068 68.8878 204.651 68.8878 205.239C68.8878 205.828 68.7628 206.411 68.5212 206.948C68.2795 207.485 67.9266 207.964 67.4859 208.354C67.0452 208.744 66.5268 209.036 65.9649 209.211C65.403 209.385 64.8105 209.438 64.2266 209.366H34.9863C35.5748 208.07 35.8793 206.663 35.8793 205.239C35.8793 203.816 35.5748 202.409 34.9863 201.113H64.2266Z" fill="#D1D9E0"/>
<path d="M35.5117 207.897H67.4033C67.4794 207.8 67.5556 207.703 67.6248 207.599H35.5879C35.5671 207.668 35.5394 207.772 35.5117 207.897ZM35.8717 205.416H68.3447C68.3447 205.368 68.3447 205.319 68.3447 205.264C68.3447 205.208 68.3447 205.167 68.3447 205.118H35.8717V205.416ZM35.7748 206.657H68.1025C68.1371 206.56 68.1717 206.463 68.1994 206.359H35.8163L35.7748 206.657ZM67.6179 202.935C67.5496 202.832 67.4757 202.732 67.3964 202.637H35.5117C35.5117 202.734 35.5671 202.831 35.5879 202.935H67.6179ZM35.8094 204.176H68.1994C68.1994 204.072 68.1371 203.975 68.1025 203.878H35.7748L35.8094 204.176Z" fill="#A7B6C1"/>
<path d="M91.6941 190.066H28.7832V190.995H32.2444V199.249H28.7832V200.177H91.6941C92.373 200.202 93.05 200.09 93.6846 199.847C94.3193 199.605 94.8985 199.236 95.3877 198.765C95.8769 198.293 96.266 197.727 96.5317 197.101C96.7975 196.475 96.9345 195.802 96.9345 195.122C96.9345 194.442 96.7975 193.769 96.5317 193.143C96.266 192.517 95.8769 191.951 95.3877 191.479C94.8985 191.007 94.3193 190.639 93.6846 190.396C93.05 190.153 92.373 190.041 91.6941 190.066Z" fill="#3887FE"/>
<path d="M60.0528 190.995C61.0588 191.119 61.9848 191.607 62.6563 192.367C63.3278 193.127 63.6985 194.107 63.6985 195.122C63.6985 196.137 63.3278 197.116 62.6563 197.876C61.9848 198.637 61.0588 199.125 60.0528 199.249H30.8125C31.3975 197.952 31.7001 196.545 31.7001 195.122C31.7001 193.699 31.3975 192.292 30.8125 190.995H60.0528Z" fill="#D1D9E0"/>
<path d="M31.3379 197.751H63.2225C63.3024 197.659 63.3763 197.562 63.4441 197.46H31.414C31.3863 197.551 31.3656 197.654 31.3379 197.751ZM31.6979 195.271H64.164C64.164 195.222 64.164 195.174 64.164 195.125C64.164 195.077 64.164 195.021 64.164 194.973H31.6979V195.271ZM31.594 196.511H63.9286C63.9632 196.414 63.9909 196.317 64.0255 196.213H31.6356C31.6285 196.313 31.6146 196.413 31.594 196.511ZM63.4371 192.79C63.361 192.686 63.2918 192.589 63.2087 192.492H31.3379C31.3379 192.589 31.3863 192.693 31.414 192.79H63.4371ZM31.6356 194.037H64.0255C64.0255 193.933 63.9632 193.836 63.9286 193.739H31.594C31.6146 193.837 31.6285 193.937 31.6356 194.037Z" fill="#A7B6C1"/>
<path d="M6.17533 139.354C5.80528 139.722 5.51166 140.161 5.3113 140.644C5.11095 141.127 5.00781 141.644 5.00781 142.167C5.00781 142.69 5.11095 143.208 5.3113 143.69C5.51166 144.173 5.80528 144.612 6.17533 144.981L8.9443 147.753L15.9221 154.773L64.5175 203.42L73.5166 207.752L75.6487 205.617L71.3222 196.608L22.7268 147.96L15.7144 140.92L12.9455 138.148C12.1967 137.408 11.187 136.993 10.135 136.993C9.08293 136.993 8.07324 137.408 7.32445 138.148L6.17533 139.354Z" fill="#EEE2D2"/>
<path d="M6.17533 144.98C5.80528 144.611 5.51166 144.173 5.3113 143.69C5.11095 143.207 5.00781 142.69 5.00781 142.167C5.00781 141.644 5.11095 141.126 5.3113 140.644C5.51166 140.161 5.80528 139.722 6.17533 139.353L7.34522 138.161C8.094 137.422 9.1037 137.007 10.1557 137.007C11.2077 137.007 12.2174 137.422 12.9662 138.161L15.7352 140.933L14.7384 141.952L13.1116 143.574L11.4848 145.202L9.86498 146.81L8.95122 147.745L6.17533 144.98Z" fill="#FF006C"/>
<path d="M15.9421 154.772L8.92969 147.731L9.84345 146.796L16.8766 153.844L15.9421 154.772Z" fill="#F5D032"/>
<path d="M11.4707 145.188L13.0905 143.56L20.1099 150.586L19.3484 151.37L18.5039 152.215L11.4707 145.188Z" fill="#F5D032"/>
<path d="M14.7168 141.931L15.7136 140.919L22.7468 147.96L21.7361 148.958L14.7168 141.931Z" fill="#F5D032"/>
<path d="M14.7169 141.934L13.0918 143.561L20.1111 150.588L21.7362 148.961L14.7169 141.934Z" fill="#DEBC2D"/>
<path d="M9.84375 146.796L11.4705 145.188L18.5037 152.215L16.8769 153.844L9.84375 146.796Z" fill="#DEBC2D"/>
<path d="M15.9434 154.772L16.8779 153.844L18.5047 152.215L19.3492 151.37L67.9446 200.018L64.5387 203.42L15.9434 154.772Z" fill="#FFBF0B"/>
<path d="M19.3477 151.37L20.1091 150.587L21.7359 148.958L22.7535 147.96L71.3419 196.608L67.943 200.018L19.3477 151.37Z" fill="#FE9C0A"/>
<path d="M76.2507 209.027L73.5371 207.752L75.6692 205.617L76.9429 208.334C76.9892 208.431 77.0043 208.54 76.9862 208.646C76.968 208.752 76.9175 208.849 76.8416 208.925C76.7656 209.001 76.6681 209.052 76.5622 209.07C76.4564 209.088 76.3476 209.073 76.2507 209.027Z" fill="#5E60F4"/>
<path d="M64.5371 203.421L67.9429 200.018L71.3418 196.608L75.6684 205.617L73.5363 207.752L64.5371 203.421Z" fill="#E9B38B"/>
<path d="M149.06 187.433C148.499 173.22 135.797 163.254 125.78 159.422C112.565 154.37 95.1481 156.234 86.7305 168.791C82.7362 174.758 83.0824 182.339 89.5825 186.317C90.4232 186.832 91.3353 187.22 92.2892 187.467C94.1928 187.98 96.1311 188.015 98.1871 188.417C101.244 189.036 104.147 190.256 106.729 192.007C109.782 194.064 112.341 196.774 114.219 199.941C115.915 202.824 116.642 206.026 119.107 208.444C121.675 210.974 125.427 212.041 129.026 211.909C142.054 211.362 149.524 199.706 149.06 187.433ZM107.297 182.395C106.981 181.634 106.898 180.797 107.058 179.99C107.218 179.182 107.614 178.44 108.195 177.858C108.777 177.275 109.518 176.879 110.325 176.719C111.132 176.559 111.968 176.643 112.728 176.959C113.487 177.276 114.136 177.811 114.591 178.496C115.046 179.182 115.288 179.988 115.285 180.811C115.283 181.635 115.036 182.439 114.576 183.122C114.117 183.805 113.465 184.335 112.703 184.647C111.688 185.063 110.549 185.059 109.536 184.637C108.523 184.215 107.718 183.409 107.297 182.395Z" fill="#A5B7C6"/>
<path d="M149.953 185.451C149.392 171.238 136.69 161.272 126.673 157.44C113.458 152.388 96.0414 154.252 87.6238 166.809C83.6295 172.776 83.9687 180.357 90.4689 184.335C91.3114 184.851 92.2259 185.239 93.1825 185.486C95.0792 185.998 97.0175 186.033 99.0804 186.442C102.137 187.058 105.04 188.276 107.623 190.025C110.668 192.082 113.217 194.793 115.085 197.959C116.788 200.842 117.508 204.044 119.972 206.462C122.54 208.992 126.299 210.059 129.899 209.927C142.948 209.359 150.438 197.724 149.953 185.451ZM108.176 180.413C107.86 179.652 107.776 178.815 107.936 178.007C108.096 177.199 108.492 176.456 109.074 175.874C109.655 175.291 110.397 174.895 111.204 174.735C112.012 174.575 112.848 174.659 113.608 174.976C114.368 175.293 115.016 175.828 115.471 176.515C115.926 177.201 116.167 178.007 116.164 178.831C116.16 179.655 115.913 180.459 115.452 181.142C114.991 181.824 114.338 182.355 113.576 182.665C112.561 183.078 111.424 183.074 110.413 182.652C109.402 182.23 108.598 181.425 108.176 180.413Z" fill="#D1D9E0"/>
<path d="M96.9019 179.902C99.8195 178.486 101.039 174.971 99.6252 172.051C98.2116 169.13 94.7005 167.909 91.7828 169.324C88.8652 170.74 87.6459 174.254 89.0595 177.175C90.4731 180.096 93.9842 181.317 96.9019 179.902Z" fill="#FF006C"/>
<path d="M110.067 169.089C109.197 169.858 108.12 170.351 106.97 170.507C105.821 170.662 104.651 170.474 103.609 169.965C102.567 169.456 101.698 168.649 101.113 167.646C100.529 166.644 100.254 165.49 100.323 164.331C100.393 163.172 100.803 162.06 101.504 161.134C102.204 160.209 103.163 159.512 104.258 159.131C105.354 158.751 106.538 158.704 107.66 158.996C108.783 159.288 109.794 159.907 110.565 160.774C111.081 161.351 111.477 162.025 111.731 162.756C111.985 163.488 112.092 164.262 112.045 165.035C111.999 165.808 111.8 166.564 111.461 167.26C111.121 167.956 110.647 168.578 110.067 169.089Z" fill="#8338EA"/>
<path d="M125.676 171.655C128.642 170.344 129.985 166.875 128.676 163.906C127.366 160.937 123.901 159.592 120.935 160.903C117.969 162.214 116.626 165.683 117.935 168.652C119.245 171.621 122.71 172.966 125.676 171.655Z" fill="#3887FE"/>
<path d="M139.099 181.327C142.051 179.987 143.36 176.504 142.021 173.549C140.682 170.593 137.203 169.283 134.251 170.623C131.298 171.963 129.99 175.446 131.328 178.402C132.667 181.358 136.146 182.668 139.099 181.327Z" fill="#FE9C0A"/>
<path d="M140.1 196.273C143.34 196.146 145.863 193.414 145.736 190.171C145.61 186.928 142.881 184.402 139.641 184.529C136.402 184.655 133.878 187.387 134.005 190.63C134.132 193.873 136.86 196.4 140.1 196.273Z" fill="#FFBF0B"/>
<path d="M134.086 205.451C133.217 206.219 132.139 206.712 130.99 206.868C129.841 207.024 128.671 206.835 127.629 206.326C126.586 205.817 125.718 205.01 125.133 204.008C124.548 203.005 124.273 201.852 124.343 200.693C124.412 199.534 124.823 198.421 125.523 197.496C126.224 196.57 127.182 195.873 128.278 195.493C129.374 195.112 130.557 195.065 131.68 195.357C132.802 195.649 133.813 196.268 134.585 197.135C135.099 197.713 135.495 198.387 135.748 199.118C136.002 199.849 136.108 200.624 136.062 201.396C136.016 202.169 135.817 202.925 135.478 203.621C135.139 204.317 134.666 204.939 134.086 205.451Z" fill="#FB5507"/>
<path d="M318.093 82.8194C318.093 83.7887 317.806 84.7362 317.268 85.5421C316.73 86.3479 315.965 86.9759 315.07 87.3465C314.175 87.7171 313.191 87.8138 312.241 87.6241C311.292 87.4345 310.42 86.9672 309.736 86.2813C309.052 85.5954 308.586 84.7218 308.398 83.7709C308.21 82.8201 308.308 81.8348 308.679 80.9396C309.051 80.0445 309.679 79.2798 310.485 78.7423C311.291 78.2047 312.237 77.9186 313.206 77.9199C313.848 77.9199 314.484 78.0467 315.078 78.293C315.671 78.5393 316.21 78.9003 316.664 79.3554C317.118 79.8104 317.478 80.3506 317.723 80.945C317.968 81.5393 318.094 82.1763 318.093 82.8194Z" fill="#E6E7E8"/>
<path d="M313.204 196.366C313.204 197.335 312.917 198.282 312.38 199.088C311.842 199.893 311.077 200.521 310.183 200.892C309.289 201.263 308.305 201.36 307.355 201.171C306.406 200.982 305.534 200.515 304.849 199.83C304.165 199.145 303.699 198.272 303.51 197.322C303.321 196.371 303.418 195.386 303.789 194.491C304.159 193.596 304.786 192.83 305.591 192.292C306.396 191.754 307.342 191.466 308.31 191.466C308.953 191.465 309.59 191.592 310.184 191.837C310.778 192.083 311.318 192.444 311.773 192.899C312.228 193.354 312.588 193.895 312.834 194.49C313.079 195.085 313.205 195.722 313.204 196.366Z" fill="#E6E7E8"/>
<path d="M24.9973 49.5972C24.9973 50.5665 24.7101 51.514 24.172 52.3199C23.6339 53.1258 22.8691 53.7537 21.9744 54.1244C21.0798 54.495 20.0953 54.5916 19.1458 54.402C18.1962 54.2124 17.3242 53.7451 16.64 53.0592C15.9558 52.3733 15.4902 51.4996 15.3022 50.5488C15.1141 49.5979 15.212 48.6126 15.5835 47.7175C15.955 46.8223 16.5834 46.0576 17.3891 45.5201C18.1949 44.9826 19.1418 44.6964 20.1101 44.6978C20.7524 44.6978 21.3885 44.8245 21.9819 45.0708C22.5753 45.3171 23.1144 45.6781 23.5683 46.1332C24.0222 46.5882 24.3821 47.1284 24.6273 47.7228C24.8725 48.3172 24.9982 48.9541 24.9973 49.5972Z" fill="#E6E7E8"/>
<path d="M50.16 8.21894C50.6961 8.21894 51.2102 8.00574 51.5893 7.62626C51.9684 7.24677 52.1814 6.73208 52.1814 6.19541C52.1814 5.65873 51.9684 5.14404 51.5893 4.76455C51.2102 4.38507 50.6961 4.17188 50.16 4.17188C49.8946 4.17187 49.6317 4.22422 49.3865 4.32591C49.1412 4.4276 48.9184 4.57665 48.7307 4.76455C48.543 4.95246 48.3941 5.17553 48.2925 5.42103C48.191 5.66654 48.1387 5.92967 48.1387 6.19541C48.1387 6.46114 48.191 6.72427 48.2925 6.96978C48.3941 7.21528 48.543 7.43836 48.7307 7.62626C48.9184 7.81416 49.1412 7.96321 49.3865 8.0649C49.6317 8.1666 49.8946 8.21894 50.16 8.21894Z" fill="#E6E7E8"/>
<path d="M78.2644 8.21894C78.5298 8.21894 78.7927 8.1666 79.0379 8.0649C79.2831 7.96321 79.506 7.81416 79.6937 7.62626C79.8814 7.43836 80.0303 7.21528 80.1318 6.96978C80.2334 6.72427 80.2857 6.46114 80.2857 6.19541C80.2857 5.92967 80.2334 5.66654 80.1318 5.42103C80.0303 5.17553 79.8814 4.95246 79.6937 4.76455C79.506 4.57665 79.2831 4.4276 79.0379 4.32591C78.7927 4.22422 78.5298 4.17187 78.2644 4.17188C77.7283 4.17188 77.2141 4.38507 76.8351 4.76455C76.456 5.14404 76.243 5.65873 76.243 6.19541C76.243 6.73208 76.456 7.24677 76.8351 7.62626C77.2141 8.00574 77.7283 8.21894 78.2644 8.21894ZM64.2049 8.21894C64.4704 8.21894 64.7332 8.1666 64.9785 8.0649C65.2237 7.96321 65.4465 7.81416 65.6342 7.62626C65.8219 7.43836 65.9708 7.21528 66.0724 6.96978C66.174 6.72427 66.2263 6.46114 66.2263 6.19541C66.2263 5.92967 66.174 5.66654 66.0724 5.42103C65.9708 5.17553 65.8219 4.95246 65.6342 4.76455C65.4465 4.57665 65.2237 4.4276 64.9785 4.32591C64.7332 4.22422 64.4704 4.17187 64.2049 4.17188C63.6688 4.17188 63.1547 4.38507 62.7756 4.76455C62.3966 5.14404 62.1836 5.65873 62.1836 6.19541C62.1836 6.73208 62.3966 7.24677 62.7756 7.62626C63.1547 8.00574 63.6688 8.21894 64.2049 8.21894Z" fill="#E6E7E8"/>
<path d="M92.3319 8.21894C92.868 8.21894 93.3821 8.00574 93.7612 7.62626C94.1403 7.24677 94.3532 6.73208 94.3532 6.19541C94.3532 5.65873 94.1403 5.14404 93.7612 4.76455C93.3821 4.38507 92.868 4.17188 92.3319 4.17188C92.0664 4.17187 91.8036 4.22422 91.5584 4.32591C91.3131 4.4276 91.0903 4.57665 90.9026 4.76455C90.7149 4.95246 90.566 5.17553 90.4644 5.42103C90.3628 5.66654 90.3105 5.92967 90.3105 6.19541C90.3105 6.46114 90.3628 6.72427 90.4644 6.96978C90.566 7.21528 90.7149 7.43836 90.9026 7.62626C91.0903 7.81416 91.3131 7.96321 91.5584 8.0649C91.8036 8.1666 92.0664 8.21894 92.3319 8.21894Z" fill="#E6E7E8"/>
<path d="M229.693 4.06785V0H227.443V4.06785H223.373V6.327H227.443V10.4018H229.693V6.327H233.764V4.06785H229.693Z" fill="#E6E7E8"/>
<path d="M305.826 177.579L307.813 175.59L306.712 174.481L304.725 176.47L302.732 174.481L301.631 175.59L303.618 177.579L301.631 179.568L302.732 180.669L304.725 178.68L306.712 180.669L307.813 179.568L305.826 177.579Z" fill="#E6E7E8"/>
<path d="M313.204 34.4971C312.494 34.4971 311.801 34.7075 311.21 35.1018C310.62 35.4961 310.159 36.0566 309.887 36.7126C309.614 37.3686 309.542 38.0906 309.679 38.7877C309.816 39.4848 310.156 40.1257 310.656 40.6295C311.157 41.1334 311.795 41.4775 312.49 41.6186C313.186 41.7598 313.908 41.6915 314.565 41.4225C315.221 41.1534 315.784 40.6957 316.181 40.107C316.578 39.5182 316.793 38.8249 316.797 38.1145C316.8 37.6404 316.709 37.1705 316.529 36.7317C316.35 36.293 316.086 35.894 315.752 35.5578C315.418 35.2217 315.021 34.9549 314.584 34.7728C314.146 34.5908 313.678 34.4971 313.204 34.4971ZM313.204 40.138C312.792 40.1449 312.387 40.0288 312.041 39.8046C311.695 39.5804 311.423 39.2582 311.261 38.8789C311.098 38.4997 311.052 38.0806 311.128 37.6751C311.205 37.2696 311.4 36.8959 311.689 36.6017C311.978 36.3075 312.348 36.106 312.751 36.0229C313.155 35.9399 313.574 35.9789 313.956 36.1352C314.337 36.2915 314.664 36.5579 314.894 36.9005C315.123 37.2431 315.246 37.6464 315.246 38.059C315.251 38.3304 315.201 38.6 315.101 38.852C315 39.1041 314.85 39.3335 314.66 39.527C314.47 39.7206 314.244 39.8743 313.994 39.9791C313.744 40.084 313.475 40.1381 313.204 40.138Z" fill="#E6E7E8"/>
<path d="M9.84274 115.404C9.13216 115.404 8.43754 115.615 7.84672 116.01C7.2559 116.405 6.79541 116.967 6.52348 117.624C6.25156 118.281 6.18041 119.004 6.31904 119.702C6.45766 120.4 6.79984 121.041 7.30229 121.544C7.80474 122.047 8.44491 122.389 9.14183 122.528C9.83875 122.667 10.5611 122.595 11.2176 122.323C11.8741 122.051 12.4352 121.59 12.83 120.999C13.2248 120.407 13.4355 119.712 13.4355 119C13.4355 118.047 13.057 117.132 12.3832 116.457C11.7094 115.783 10.7956 115.404 9.84274 115.404ZM9.84274 121.045C9.44039 121.038 9.04902 120.912 8.71778 120.684C8.38654 120.455 8.1302 120.133 7.98093 119.759C7.83166 119.385 7.79612 118.975 7.87878 118.581C7.96144 118.187 8.15862 117.826 8.44554 117.543C8.73247 117.261 9.09635 117.069 9.49151 116.993C9.88667 116.917 10.2955 116.96 10.6666 117.115C11.0378 117.271 11.3547 117.533 11.5776 117.868C11.8005 118.204 11.9194 118.598 11.9195 119C11.9195 119.272 11.8656 119.541 11.7608 119.791C11.656 120.041 11.5025 120.268 11.3092 120.458C11.1158 120.649 10.8866 120.799 10.6349 120.899C10.3831 121 10.1138 121.049 9.84274 121.045Z" fill="#E6E7E8"/>
</g>
<defs>
<clipPath id="clip0">
<rect width="323" height="225" fill="white"/>
</clipPath>
</defs>
</svg>
