<svg width="56" height="56" viewBox="0 0 56 56" fill="none" xmlns="http://www.w3.org/2000/svg">
<path d="M46.375 21.875C47.3401 21.875 48.125 21.0901 48.125 20.125V18.375C48.125 17.4099 47.3401 16.625 46.375 16.625H44.625V14.2467L42.3036 13.4645C41.9878 12.3392 41.5389 11.2586 40.9684 10.2401L42.0569 8.04475L37.4552 3.444L35.2599 4.5325C34.2414 3.96112 33.1608 3.51313 32.0355 3.19638L31.2541 0.875H24.7459L23.9636 3.19638C22.8392 3.51313 21.7577 3.96112 20.7393 4.5325L18.5439 3.444L13.9423 8.04475L15.0307 10.2401C14.4602 11.2586 14.0114 12.3384 13.6955 13.4645L11.375 14.2467V16.625H9.625C8.65987 16.625 7.875 17.4099 7.875 18.375V20.125C7.875 21.0901 8.65987 21.875 9.625 21.875V27.125H0.875V46.375H9.625V49.875C8.65987 49.875 7.875 50.6599 7.875 51.625V53.375C7.875 54.3401 8.65987 55.125 9.625 55.125H46.375C47.3401 55.125 48.125 54.3401 48.125 53.375V51.625C48.125 50.6599 47.3401 49.875 46.375 49.875V46.375H55.125V27.125H46.375V21.875ZM13.125 15.5033L15.1568 14.819L15.2714 14.3526C15.5872 13.0725 16.0921 11.8527 16.7746 10.7266L17.0231 10.3154L16.0694 8.39388L18.8939 5.57025L20.8154 6.524L21.2266 6.27462C22.3536 5.593 23.5742 5.08725 24.8535 4.77225L25.3199 4.65675L26.0041 2.625H29.9968L30.681 4.65675L31.1474 4.77225C32.4266 5.08725 33.6464 5.593 34.7743 6.27462L35.1855 6.524L37.107 5.57025L39.9315 8.39388L38.9778 10.3154L39.2262 10.7266C39.9079 11.8527 40.4128 13.0725 40.7295 14.3526L40.8441 14.819L42.875 15.5033V16.625H39.3304C38.8806 10.7616 33.9762 6.125 28 6.125C22.0238 6.125 17.1194 10.7616 16.6696 16.625H13.125V15.5033ZM35.8234 16.625C35.3868 12.6936 32.0469 9.625 28 9.625C23.9531 9.625 20.6133 12.6936 20.1766 16.625H18.4196C18.8633 11.7268 22.988 7.875 28 7.875C33.012 7.875 37.1367 11.7268 37.5804 16.625H35.8234ZM34.055 16.625H21.945C22.372 13.6614 24.9209 11.375 28 11.375C31.0791 11.375 33.628 13.6614 34.055 16.625ZM9.625 18.375H46.375L46.3759 20.125H9.625V18.375ZM11.375 21.875H44.625V27.125H41.125V35H35V27.125H21V35H14.875V27.125H11.375V21.875ZM33.25 28.875V44.625H22.75V28.875H33.25ZM2.625 28.875H9.625H11.375H13.125V44.625H2.625V28.875ZM46.375 53.375H9.625V51.625L46.375 51.6233V53.375ZM44.625 49.875H11.375V46.375H14.875V36.75H21V46.375H35V36.75H41.125V46.375H44.625V49.875ZM53.375 44.625H42.875V28.875H53.375V44.625ZM51.625 32.375H44.625V30.625H51.625V32.375ZM46.375 35.875H44.625V34.125H46.375V35.875ZM48.125 34.125H51.625V35.875H48.125V34.125ZM51.625 39.375H44.625V37.625H51.625V39.375ZM51.625 42.875H44.625V41.125H51.625V42.875ZM31.5 42.875H24.5V41.125H31.5V42.875ZM29.75 37.625H31.5V39.375H29.75V37.625ZM28 39.375H24.5V37.625H28V39.375ZM31.5 35.875H24.5V34.125H31.5V35.875ZM31.5 32.375H24.5V30.625H31.5V32.375ZM4.375 41.125H11.375V42.875H4.375V41.125ZM4.375 34.125H11.375V35.875H4.375V34.125ZM4.375 37.625H11.375V39.375H4.375V37.625ZM4.375 30.625H11.375V32.375H4.375V30.625Z" fill="url(#paint0_linear)"/>
<defs>
<linearGradient id="paint0_linear" x1="28" y1="55.125" x2="28" y2="0.875" gradientUnits="userSpaceOnUse">
<stop stop-color="#9F2FFF"/>
<stop offset="1" stop-color="#0BB1D3"/>
</linearGradient>
</defs>
</svg>
