<svg width="40" height="40" viewBox="0 0 40 40" fill="none" xmlns="http://www.w3.org/2000/svg">
<path d="M3.33398 9.99159C3.33398 9.07492 4.07732 8.33325 4.99232 8.33325H18.3423C18.7821 8.33325 19.2039 8.50797 19.5149 8.81897C19.8259 9.12996 20.0007 9.55177 20.0007 9.99159C20.0007 10.4314 19.8259 10.8532 19.5149 11.1642C19.2039 11.4752 18.7821 11.6499 18.3423 11.6499H4.99232C4.5525 11.6499 4.1307 11.4752 3.8197 11.1642C3.5087 10.8532 3.33398 10.4314 3.33398 9.99159Z" fill="black"/>
<path d="M3.33398 19.9999C3.33398 19.0832 4.07732 18.3416 4.99232 18.3416H35.009C35.4488 18.3416 35.8706 18.5163 36.1816 18.8273C36.4926 19.1383 36.6673 19.5601 36.6673 19.9999C36.6673 20.4397 36.4926 20.8615 36.1816 21.1725C35.8706 21.4835 35.4488 21.6582 35.009 21.6582H4.99232C4.5525 21.6582 4.1307 21.4835 3.8197 21.1725C3.5087 20.8615 3.33398 20.4397 3.33398 19.9999Z" fill="black"/>
<path d="M4.99232 28.3499C4.5525 28.3499 4.1307 28.5246 3.8197 28.8356C3.5087 29.1466 3.33398 29.5684 3.33398 30.0082C3.33398 30.448 3.5087 30.8698 3.8197 31.1808C4.1307 31.4918 4.5525 31.6665 4.99232 31.6665H25.009C25.4488 31.6665 25.8706 31.4918 26.1816 31.1808C26.4926 30.8698 26.6673 30.448 26.6673 30.0082C26.6673 29.5684 26.4926 29.1466 26.1816 28.8356C25.8706 28.5246 25.4488 28.3499 25.009 28.3499H4.99232Z" fill="black"/>
</svg>
