<svg width="40" height="40" viewBox="0 0 40 40" fill="none" xmlns="http://www.w3.org/2000/svg">
<path d="M3.33301 9.99159C3.33301 9.07492 4.07634 8.33325 4.99134 8.33325H18.3413C18.7812 8.33325 19.203 8.50797 19.514 8.81897C19.825 9.12996 19.9997 9.55177 19.9997 9.99159C19.9997 10.4314 19.825 10.8532 19.514 11.1642C19.203 11.4752 18.7812 11.6499 18.3413 11.6499H4.99134C4.55152 11.6499 4.12972 11.4752 3.81872 11.1642C3.50772 10.8532 3.33301 10.4314 3.33301 9.99159Z" fill="white"/>
<path d="M3.33301 19.9999C3.33301 19.0832 4.07634 18.3416 4.99134 18.3416H35.008C35.4478 18.3416 35.8696 18.5163 36.1806 18.8273C36.4916 19.1383 36.6663 19.5601 36.6663 19.9999C36.6663 20.4397 36.4916 20.8615 36.1806 21.1725C35.8696 21.4835 35.4478 21.6582 35.008 21.6582H4.99134C4.55152 21.6582 4.12972 21.4835 3.81872 21.1725C3.50772 20.8615 3.33301 20.4397 3.33301 19.9999Z" fill="white"/>
<path d="M4.99134 28.3499C4.55152 28.3499 4.12972 28.5246 3.81872 28.8356C3.50772 29.1466 3.33301 29.5684 3.33301 30.0082C3.33301 30.448 3.50772 30.8698 3.81872 31.1808C4.12972 31.4918 4.55152 31.6665 4.99134 31.6665H25.008C25.4478 31.6665 25.8696 31.4918 26.1806 31.1808C26.4916 30.8698 26.6663 30.448 26.6663 30.0082C26.6663 29.5684 26.4916 29.1466 26.1806 28.8356C25.8696 28.5246 25.4478 28.3499 25.008 28.3499H4.99134Z" fill="white"/>
</svg>
