<svg width="315" height="329" viewBox="0 0 315 329" fill="none" xmlns="http://www.w3.org/2000/svg">
<path d="M28.9227 149.742C27.4905 145.803 27.2318 141.518 28.1795 137.428C29.1271 133.338 31.2385 129.628 34.2466 126.767C37.2547 123.905 41.0243 122.021 45.0787 121.353C49.133 120.684 53.29 121.261 57.0239 123.011C60.7577 124.761 63.9006 127.605 66.0551 131.183C68.2097 134.761 69.279 138.913 69.1278 143.114C68.9767 147.314 67.6118 151.374 65.206 154.78C62.8001 158.187 59.4613 160.786 55.6118 162.25C50.452 164.213 44.742 163.997 39.7372 161.652C34.7324 159.306 30.8425 155.023 28.9227 149.742Z" fill="#EBEBEB"/>
<path d="M59.1977 143.719C56.8209 150.519 49.8479 155.223 49.8479 155.223C49.8479 155.223 41.9729 152.292 38.1571 146.233C34.9498 141.184 35.9306 135.19 39.8825 133.432C45.5453 130.918 48.2443 141.199 48.2443 141.199C48.2443 141.199 48.5593 130.559 54.6374 131.673C58.8755 132.442 61.1808 138.048 59.1977 143.719Z" fill="white"/>
<path d="M285.204 208.435C283.264 209.446 281.178 210.131 279.025 210.464C273.862 211.283 268.588 210.079 264.253 207.093C259.919 204.107 256.845 199.558 255.643 194.354C254.441 189.15 255.2 183.673 257.769 179.017C260.338 174.361 264.528 170.867 269.502 169.233C274.477 167.598 279.871 167.944 284.607 170.2C289.344 172.456 293.076 176.458 295.057 181.405C297.039 186.353 297.125 191.884 295.299 196.894C293.472 201.904 289.867 206.025 285.204 208.435Z" fill="#EBEBEB"/>
<path d="M282.334 187.61C282.227 188.885 281.753 190.098 280.972 191.097C280.19 192.095 279.137 192.834 277.945 193.219C276.754 193.605 275.477 193.62 274.277 193.262C273.077 192.904 272.008 192.19 271.205 191.21C270.401 190.229 269.901 189.027 269.766 187.756C269.63 186.484 269.867 185.2 270.446 184.066C271.024 182.932 271.918 181.999 273.015 181.386C274.112 180.772 275.362 180.506 276.607 180.62C278.27 180.775 279.806 181.597 280.879 182.906C281.952 184.216 282.475 185.907 282.334 187.61Z" fill="white"/>
<path d="M285.426 205.782L285.204 208.434C283.265 209.446 281.179 210.131 279.026 210.464C276.305 210.903 273.525 210.779 270.85 210.101C268.176 209.423 265.662 208.203 263.455 206.515L263.677 203.87C263.768 202.383 264.149 200.931 264.796 199.597C265.443 198.264 266.345 197.076 267.447 196.104C268.549 195.132 269.83 194.395 271.214 193.937C272.598 193.479 274.058 193.309 275.508 193.436C276.957 193.563 278.367 193.986 279.655 194.679C280.943 195.372 282.082 196.322 283.006 197.472C283.93 198.622 284.62 199.95 285.036 201.377C285.451 202.804 285.584 204.302 285.426 205.782Z" fill="white"/>
<path d="M275.161 61.6131C286.747 56.5625 292.139 42.855 287.204 30.9967C282.269 19.1384 268.877 13.6197 257.291 18.6704C245.705 23.7211 240.313 37.4285 245.247 49.2868C250.182 61.1451 263.575 66.6638 275.161 61.6131Z" fill="#EBEBEB"/>
<path fill-rule="evenodd" clip-rule="evenodd" d="M263.119 49.4082C262.518 49.0199 261.988 48.463 261.186 48.5363C260.871 48.5729 260.943 48.3091 260.943 48.1333C260.943 45.0264 260.943 41.9196 260.943 38.8128C260.943 38.5857 260.943 38.4025 261.193 38.2779C263.513 37.0762 264.522 34.7241 265.94 32.7091C266.667 31.7096 267.191 30.5705 267.48 29.3595C267.769 28.1486 267.818 26.8905 267.622 25.6601C267.529 24.9274 267.844 24.6416 268.46 24.5024C268.768 24.3917 269.104 24.386 269.416 24.4864C269.728 24.5868 270.001 24.7877 270.192 25.0593C270.864 26.327 271.313 27.7061 271.517 29.1333C271.653 30.313 271.237 31.4561 271.094 32.6285C270.987 33.4785 270.793 34.3211 270.636 35.1858C270.844 35.3396 271.08 35.259 271.295 35.259H278.991C280.072 35.259 280.601 35.5741 280.752 36.3069C280.835 36.7595 280.771 37.2275 280.569 37.6392C280.367 38.0509 280.039 38.3834 279.635 38.5857C279.442 38.6883 279.098 38.5857 279.077 38.9007C279.055 39.2158 279.406 39.1865 279.585 39.3111C280.515 39.9632 280.344 41.3115 279.27 42.0882C279.005 42.2713 278.504 42.1834 278.497 42.5718C278.489 42.9601 278.955 42.8795 279.17 43.0993C279.921 43.8321 279.549 45.2976 278.454 45.8398C278.299 45.8888 278.148 45.95 278.003 46.023C277.874 46.1109 277.752 46.2062 278.003 46.3893C279.112 47.1954 279.084 48.3311 278.003 49.1518L277.666 49.4009C277.262 49.6496 276.789 49.7552 276.32 49.7013H264.171C263.796 49.7496 263.418 49.6442 263.119 49.4082Z" fill="white"/>
<path fill-rule="evenodd" clip-rule="evenodd" d="M251.678 43.898C251.678 41.927 251.678 39.9486 251.678 37.9775C251.678 37.5745 251.678 37.3767 252.201 37.384C254.549 37.4133 256.902 37.4133 259.26 37.384C259.718 37.384 259.789 37.5452 259.789 37.9628C259.789 41.9343 259.789 45.9131 259.789 49.8845C259.789 50.3901 259.661 50.5293 259.159 50.522C256.883 50.522 254.599 50.522 252.315 50.522C251.75 50.522 251.671 50.3242 251.678 49.7893C251.7 47.8768 251.678 45.9057 251.678 43.898Z" fill="white"/>
<path d="M66.8299 259.323C68.0112 267.171 63.7157 275.444 63.7157 275.444C63.7157 275.444 54.6738 276.821 47.8798 273.04C42.1883 269.868 40.0907 263.573 42.9544 259.778C47.121 254.319 54.9673 262.775 54.9673 262.775C54.9673 262.775 49.8414 252.362 56.2631 250.186C60.759 248.669 65.8635 252.824 66.8299 259.323Z" fill="#EBEBEB"/>
<path d="M82.6231 240.096C79.201 244.749 72.7364 246.691 72.7364 246.691C72.7364 246.691 67.3742 242.47 65.8636 236.894C64.575 232.219 66.7299 227.845 70.1591 227.457C75.106 226.9 74.7839 235.48 74.7839 235.48C74.7839 235.48 77.5115 227.361 81.943 229.706C84.9999 231.34 85.4724 236.213 82.6231 240.096Z" fill="#EBEBEB"/>
<path d="M164.666 328.978C227.303 328.978 278.081 322.02 278.081 313.436C278.081 304.853 227.303 297.895 164.666 297.895C102.029 297.895 51.252 304.853 51.252 313.436C51.252 322.02 102.029 328.978 164.666 328.978Z" fill="#EBEBEB"/>
<path d="M19.3301 300.064L55.6625 299.888L92.002 299.822L164.667 299.705L237.339 299.822L273.678 299.888L310.011 300.064L273.678 300.247L237.339 300.313L164.667 300.43L92.002 300.313L55.6625 300.247L19.3301 300.064Z" fill="#263238"/>
<path d="M225.175 28.0415H104.186C102.563 28.0568 100.959 28.3992 99.4659 29.0489C97.9725 29.6987 96.6187 30.6432 95.4819 31.8285C94.3451 33.0138 93.4476 34.4167 92.8405 35.957C92.2335 37.4973 91.9288 39.145 91.9439 40.8058V295.799C91.9153 299.153 93.1886 302.381 95.484 304.774C97.7795 307.168 100.909 308.531 104.186 308.563H225.175C228.453 308.533 231.585 307.171 233.884 304.777C236.182 302.384 237.458 299.155 237.431 295.799V40.8058C237.445 39.144 237.139 37.4956 236.531 35.9548C235.923 34.4139 235.024 33.0108 233.886 31.8255C232.748 30.6402 231.393 29.696 229.898 29.0467C228.403 28.3974 226.798 28.0559 225.175 28.0415ZM229.807 287.9C229.807 294.612 224.895 300.042 218.839 300.042H110.536C104.465 300.042 99.554 294.612 99.554 287.9V50.4926C99.554 36.8197 104.465 36.1529 110.536 36.1529H132.221C133.481 36.1529 134.512 37.6184 134.512 39.4356V40.2343C134.512 44.4915 136.788 44.5062 139.588 44.5062H189.716C192.536 44.5062 194.791 44.5062 194.791 40.2343V39.4136C194.791 37.5964 195.808 36.1309 197.089 36.1309H218.782C224.867 36.1309 229.807 37.9481 229.807 50.4926V287.9Z" fill="#263238"/>
<path d="M171.51 39.157H157.829C157.605 39.157 157.39 39.0659 157.232 38.9038C157.073 38.7416 156.984 38.5217 156.984 38.2924C156.983 38.1786 157.005 38.0657 157.047 37.9604C157.089 37.855 157.151 37.7593 157.23 37.6788C157.308 37.5983 157.402 37.5347 157.505 37.4916C157.608 37.4485 157.718 37.4268 157.829 37.4278H171.51C171.734 37.4278 171.949 37.5189 172.108 37.681C172.266 37.8432 172.355 38.0631 172.355 38.2924C172.355 38.5217 172.266 38.7416 172.108 38.9038C171.949 39.0659 171.734 39.157 171.51 39.157Z" fill="white"/>
<path d="M229.807 50.4926V287.9C229.807 294.612 224.896 300.042 218.839 300.042H110.537C104.466 300.042 99.5547 294.612 99.5547 287.9V50.4926C99.5547 36.8196 104.466 36.1528 110.537 36.1528H132.222C133.482 36.1528 134.513 37.6183 134.513 39.4355V40.2342C134.513 44.4914 136.789 44.5061 139.588 44.5061H189.716C192.537 44.5061 194.792 44.5061 194.792 40.2342V39.4135C194.792 37.5963 195.809 36.1309 197.09 36.1309H218.782C224.867 36.1309 229.807 37.9481 229.807 50.4926Z" fill="white"/>
<path d="M229.807 50.4926V68.1882H99.5469V50.4926C99.5469 36.8196 104.458 36.1528 110.529 36.1528H132.221C133.481 36.1528 134.512 37.6183 134.512 39.4355V40.2342C134.512 44.4914 136.788 44.5061 139.581 44.5061H189.716C192.536 44.5061 194.799 44.5061 194.799 40.2342V39.4135C194.799 37.5963 195.815 36.1309 197.097 36.1309H218.782C224.86 36.1309 229.807 37.9481 229.807 50.4926Z" fill="#A0C6FF"/>
<path d="M111.889 59.5418L108.045 55.8488L111.889 52.1631L112.491 52.8152L109.319 55.8488L112.491 58.8896L111.889 59.5418Z" fill="white"/>
<path d="M217.959 59.7983H215.381V58.8824C215.381 58.8429 215.371 58.8041 215.35 58.7705C215.33 58.7368 215.301 58.7096 215.267 58.6919C215.165 58.6404 215.067 58.5816 214.973 58.516C214.939 58.4961 214.901 58.4856 214.862 58.4856C214.823 58.4856 214.785 58.4961 214.751 58.516L213.978 58.9703L212.689 56.6915L213.463 56.2372C213.496 56.214 213.523 56.1822 213.541 56.1448C213.558 56.1075 213.566 56.0661 213.563 56.0247V55.6877C213.565 55.6474 213.558 55.6072 213.54 55.5712C213.522 55.5351 213.496 55.5045 213.463 55.4825L212.689 55.0282L213.978 52.7421L214.751 53.2037C214.784 53.2252 214.823 53.2366 214.862 53.2366C214.902 53.2366 214.94 53.2252 214.973 53.2037L215.267 53.0352C215.302 53.0162 215.331 52.9877 215.351 52.9528C215.372 52.9179 215.382 52.8779 215.381 52.8373V51.9067H217.959V52.8153C217.959 52.8565 217.971 52.8967 217.993 52.9315C218.014 52.9664 218.044 52.9946 218.08 53.0132C218.18 53.0645 218.274 53.1231 218.367 53.1817C218.401 53.203 218.441 53.2143 218.481 53.2143C218.522 53.2143 218.561 53.203 218.596 53.1817L219.369 52.7201L220.658 55.0062L219.877 55.4605C219.844 55.482 219.817 55.5125 219.799 55.5487C219.781 55.5849 219.774 55.6254 219.777 55.6657C219.777 55.7243 219.777 55.7829 219.777 55.8342C219.777 55.8855 219.777 55.9441 219.777 56.0028C219.773 56.0432 219.78 56.084 219.798 56.1204C219.815 56.1567 219.843 56.1871 219.877 56.2079L220.658 56.6695L219.369 58.9484L218.596 58.4941C218.561 58.4742 218.521 58.4637 218.481 58.4637C218.441 58.4637 218.402 58.4742 218.367 58.4941C218.275 58.5596 218.18 58.6184 218.08 58.6699C218.045 58.6873 218.015 58.7142 217.993 58.7478C217.972 58.7814 217.96 58.8203 217.959 58.8604V59.7983ZM215.918 59.2854H217.422V58.9191C217.418 58.7764 217.456 58.636 217.53 58.5149C217.604 58.3939 217.71 58.2975 217.837 58.2376L218.073 58.0984C218.19 58.0196 218.327 57.9776 218.467 57.9776C218.607 57.9776 218.744 58.0196 218.861 58.0984L219.168 58.2816L219.92 56.948L219.612 56.7648C219.485 56.6951 219.382 56.5879 219.316 56.4572C219.249 56.3265 219.223 56.1783 219.24 56.0321V55.7536C219.228 55.608 219.257 55.462 219.323 55.3324C219.389 55.2028 219.489 55.0948 219.612 55.0209L219.92 54.8377L219.168 53.5114L218.861 53.6946C218.742 53.7684 218.606 53.8074 218.467 53.8074C218.328 53.8074 218.192 53.7684 218.073 53.6946C217.998 53.6423 217.919 53.5958 217.837 53.5554C217.709 53.495 217.602 53.3975 217.528 53.275C217.454 53.1525 217.417 53.0105 217.422 52.8666V52.5076H215.918V52.8666C215.919 53.0088 215.881 53.1485 215.809 53.27C215.737 53.3916 215.634 53.4904 215.51 53.5554L215.267 53.6946C215.148 53.7684 215.012 53.8074 214.873 53.8074C214.734 53.8074 214.598 53.7684 214.479 53.6946L214.171 53.5114L213.42 54.8377L213.728 55.0209C213.851 55.0948 213.951 55.2028 214.017 55.3324C214.083 55.462 214.111 55.608 214.1 55.7536V56.0321C214.111 56.1768 214.083 56.322 214.019 56.4514C213.954 56.5808 213.856 56.6893 213.735 56.7648L213.42 56.9407L214.171 58.2742L214.479 58.0911C214.596 58.0123 214.733 57.9703 214.873 57.9703C215.013 57.9703 215.15 58.0123 215.267 58.0911L215.51 58.2303C215.635 58.2912 215.741 58.3881 215.813 58.509C215.885 58.63 215.922 58.7699 215.918 58.9117V59.2854ZM216.634 57.8712C216.25 57.8712 215.875 57.7548 215.556 57.5366C215.237 57.3184 214.989 57.0083 214.842 56.6454C214.695 56.2826 214.656 55.8833 214.731 55.4981C214.806 55.1129 214.991 54.7591 215.262 54.4814C215.534 54.2037 215.879 54.0146 216.256 53.9379C216.632 53.8613 217.022 53.9006 217.377 54.0509C217.731 54.2012 218.034 54.4558 218.247 54.7823C218.46 55.1089 218.574 55.4928 218.574 55.8855C218.561 56.3969 218.356 56.8836 218.001 57.244C217.647 57.6043 217.17 57.8107 216.67 57.8199L216.634 57.8712ZM216.634 54.4567C216.351 54.4567 216.074 54.5426 215.839 54.7036C215.603 54.8647 215.42 55.0936 215.311 55.3613C215.203 55.6291 215.175 55.9238 215.23 56.2081C215.285 56.4923 215.421 56.7535 215.622 56.9584C215.822 57.1634 216.077 57.3029 216.355 57.3595C216.633 57.416 216.92 57.387 217.182 57.2761C217.444 57.1652 217.667 56.9773 217.825 56.7363C217.982 56.4953 218.066 56.212 218.066 55.9222C218.076 55.7284 218.047 55.5347 217.981 55.3528C217.915 55.1709 217.814 55.0046 217.683 54.8641C217.553 54.7236 217.395 54.6117 217.221 54.5354C217.047 54.459 216.859 54.4198 216.67 54.42L216.634 54.4567Z" fill="white"/>
<path d="M128.476 41.4653C128.411 41.5397 128.341 41.6106 128.269 41.6778L128.147 41.8023C127.61 41.2564 126.885 40.95 126.128 40.95C125.372 40.95 124.646 41.2564 124.109 41.8023L123.995 41.6997C123.929 41.6253 123.86 41.5544 123.787 41.4872C123.873 41.4066 123.959 41.3187 124.052 41.2454C124.238 41.0868 124.443 40.9515 124.661 40.8424C124.92 40.7159 125.195 40.6224 125.477 40.564L125.878 40.5127H126.236C126.329 40.5127 126.422 40.5127 126.515 40.5127C126.76 40.5439 127 40.6054 127.231 40.6959C127.404 40.7615 127.572 40.8424 127.732 40.9377C127.903 41.0347 128.064 41.1502 128.211 41.2821L128.433 41.4799L128.476 41.4653Z" fill="white"/>
<path d="M124.775 42.4766C124.66 42.3667 124.553 42.2568 124.445 42.1396C124.804 41.76 125.279 41.517 125.791 41.4508C126.157 41.3944 126.532 41.4267 126.883 41.5451C127.235 41.6634 127.555 41.8645 127.817 42.1322L127.488 42.4766C127.31 42.2934 127.099 42.148 126.866 42.0488C126.633 41.9495 126.383 41.8984 126.131 41.8984C125.879 41.8984 125.629 41.9495 125.397 42.0488C125.164 42.148 124.952 42.2934 124.775 42.4766Z" fill="white"/>
<path d="M127.151 42.8135L126.822 43.1506C126.729 43.0537 126.617 42.9776 126.494 42.9272C126.371 42.8767 126.238 42.853 126.106 42.8575C125.973 42.8534 125.841 42.8774 125.718 42.9278C125.595 42.9782 125.483 43.054 125.39 43.1506L125.061 42.8135C125.194 42.6671 125.356 42.5504 125.536 42.4706C125.716 42.3908 125.91 42.3496 126.106 42.3496C126.302 42.3496 126.496 42.3908 126.675 42.4706C126.855 42.5504 127.017 42.6671 127.151 42.8135Z" fill="white"/>
<path d="M126.428 43.4581C126.428 43.4982 126.42 43.5379 126.405 43.5748C126.39 43.6118 126.368 43.6452 126.34 43.6732C126.312 43.7012 126.279 43.7232 126.242 43.7378C126.206 43.7525 126.167 43.7595 126.128 43.7586C126.05 43.7586 125.975 43.7269 125.92 43.6706C125.865 43.6142 125.834 43.5378 125.834 43.4581C125.833 43.4181 125.84 43.3782 125.854 43.3409C125.869 43.3036 125.89 43.2696 125.917 43.241C125.945 43.2123 125.977 43.1895 126.014 43.1739C126.05 43.1584 126.088 43.1504 126.128 43.1504C126.207 43.1504 126.284 43.1828 126.34 43.2405C126.397 43.2982 126.428 43.3765 126.428 43.4581Z" fill="white"/>
<path d="M108.045 42.1175C108.044 41.9416 108.093 41.7692 108.188 41.6222C108.283 41.4753 108.418 41.3605 108.576 41.2925C108.735 41.2245 108.91 41.2063 109.078 41.2403C109.247 41.2743 109.402 41.3589 109.524 41.4833C109.645 41.6078 109.728 41.7664 109.761 41.9391C109.794 42.1117 109.777 42.2906 109.71 42.4529C109.644 42.6152 109.532 42.7536 109.388 42.8505C109.244 42.9473 109.076 42.9983 108.904 42.9968C108.677 42.9949 108.459 42.9017 108.299 42.7372C108.138 42.5727 108.047 42.3502 108.045 42.1175Z" fill="white"/>
<path d="M110.766 42.1175C110.764 41.9416 110.814 41.7692 110.909 41.6222C111.003 41.4753 111.139 41.3605 111.297 41.2925C111.456 41.2245 111.63 41.2063 111.799 41.2403C111.968 41.2743 112.123 41.3589 112.244 41.4833C112.366 41.6078 112.449 41.7664 112.482 41.9391C112.515 42.1117 112.497 42.2906 112.431 42.4529C112.364 42.6152 112.252 42.7536 112.109 42.8505C111.965 42.9473 111.797 42.9983 111.625 42.9968C111.397 42.9949 111.18 42.9017 111.019 42.7372C110.859 42.5727 110.768 42.3502 110.766 42.1175Z" fill="white"/>
<path d="M113.479 42.1176C113.477 41.9419 113.527 41.7698 113.621 41.623C113.715 41.4763 113.85 41.3615 114.008 41.2932C114.166 41.225 114.341 41.2064 114.509 41.2398C114.678 41.2732 114.833 41.357 114.955 41.4807C115.077 41.6044 115.16 41.7624 115.194 41.9346C115.228 42.1068 115.211 42.2854 115.146 42.4478C115.08 42.6103 114.969 42.7492 114.827 42.8469C114.684 42.9447 114.516 42.9969 114.345 42.9969C114.116 42.9969 113.897 42.9045 113.735 42.7398C113.573 42.5751 113.48 42.3514 113.479 42.1176Z" fill="white"/>
<path d="M116.199 42.1176C116.198 41.9419 116.247 41.7698 116.342 41.623C116.436 41.4763 116.571 41.3615 116.729 41.2932C116.887 41.225 117.062 41.2064 117.23 41.2398C117.399 41.2732 117.554 41.357 117.675 41.4807C117.797 41.6044 117.881 41.7624 117.915 41.9346C117.949 42.1068 117.932 42.2854 117.866 42.4478C117.801 42.6103 117.69 42.7492 117.548 42.8469C117.405 42.9447 117.237 42.9969 117.066 42.9969C116.837 42.9969 116.618 42.9045 116.455 42.7398C116.293 42.5751 116.201 42.3514 116.199 42.1176Z" fill="white"/>
<path d="M118.92 42.1175C118.919 41.9416 118.968 41.7692 119.063 41.6222C119.158 41.4753 119.293 41.3605 119.451 41.2925C119.61 41.2245 119.785 41.2063 119.953 41.2403C120.122 41.2743 120.277 41.3589 120.399 41.4833C120.52 41.6078 120.603 41.7664 120.636 41.9391C120.669 42.1117 120.652 42.2906 120.585 42.4529C120.519 42.6152 120.407 42.7536 120.263 42.8505C120.119 42.9473 119.951 42.9983 119.779 42.9968C119.552 42.9949 119.334 42.9017 119.174 42.7372C119.013 42.5727 118.922 42.3502 118.92 42.1175Z" fill="white"/>
<path d="M220.005 44.0444H212.982V40.7104H220.005V44.0444ZM213.34 43.678H219.648V41.0768H213.34V43.678Z" fill="white"/>
<path d="M218.094 41.2749H213.562V43.4731H218.094V41.2749Z" fill="white"/>
<path d="M220.637 41.4873H220.014V43.2679H220.637V41.4873Z" fill="white"/>
<path d="M119.341 285.548H118.346V290.201H116.499V287.834H113.227V290.201H111.373V285.548H110.385L114.859 280.814L119.341 285.548Z" fill="#EBEBEB"/>
<path d="M218.954 280.814H208.158V282.39H218.954V280.814Z" fill="#EBEBEB"/>
<path d="M218.954 284.72H208.158V286.296H218.954V284.72Z" fill="#EBEBEB"/>
<path d="M218.954 288.625H208.158V290.201H218.954V288.625Z" fill="#EBEBEB"/>
<path d="M119.127 91.5262C118.48 91.9332 117.775 92.2348 117.037 92.4201C115.262 92.8629 113.389 92.6044 111.792 91.6963C110.195 90.7881 108.991 89.297 108.421 87.5205C107.851 85.744 107.956 83.8128 108.716 82.1122C109.475 80.4116 110.834 79.0667 112.519 78.3458C114.205 77.6249 116.094 77.5811 117.81 78.2231C119.526 78.8651 120.942 80.1457 121.777 81.8094C122.611 83.473 122.801 85.3974 122.31 87.1985C121.819 88.9995 120.683 90.5449 119.127 91.5262Z" fill="#DBDBDB"/>
<path d="M117.524 84.3232C117.525 84.7714 117.397 85.2098 117.155 85.5831C116.912 85.9564 116.567 86.2478 116.163 86.4203C115.759 86.5928 115.314 86.6387 114.885 86.5521C114.455 86.4656 114.06 86.2505 113.75 85.9342C113.44 85.6178 113.229 85.2144 113.143 84.775C113.057 84.3356 113.1 83.88 113.267 83.4658C113.435 83.0517 113.718 82.6976 114.082 82.4485C114.446 82.1994 114.874 82.0664 115.312 82.0664C115.897 82.0664 116.459 82.3039 116.873 82.727C117.288 83.15 117.522 83.724 117.524 84.3232Z" fill="white"/>
<path d="M119.127 90.5663V91.5262C118.48 91.9332 117.774 92.2348 117.037 92.4201C116.1 92.6568 115.126 92.6989 114.173 92.5441C113.22 92.3893 112.307 92.0407 111.488 91.5188V90.5883C111.531 89.5808 111.952 88.629 112.664 87.9315C113.375 87.2341 114.322 86.8447 115.308 86.8447C116.293 86.8447 117.24 87.2341 117.952 87.9315C118.663 88.629 119.084 89.5808 119.127 90.5883V90.5663Z" fill="white"/>
<path d="M177.867 78.168H131.684V82.0661H177.867V78.168Z" fill="#EBEBEB"/>
<path d="M171.996 84.6675H131.684V87.2467H171.996V84.6675Z" fill="#EBEBEB"/>
<path d="M198.342 89.6357H131.684V92.215H198.342V89.6357Z" fill="#EBEBEB"/>
<path d="M99.5535 192.095L229.756 192.095V98.773L99.5535 98.773V192.095Z" fill="#EBEBEB"/>
<path d="M114.768 125.298C114.77 127.482 115.406 129.615 116.593 131.429C117.78 133.243 119.466 134.656 121.438 135.49C123.409 136.323 125.578 136.54 127.67 136.112C129.762 135.684 131.683 134.631 133.19 133.087C134.698 131.542 135.724 129.574 136.139 127.432C136.554 125.291 136.339 123.071 135.522 121.054C134.705 119.038 133.323 117.314 131.549 116.101C129.775 114.888 127.69 114.241 125.556 114.241C124.138 114.241 122.734 114.527 121.424 115.083C120.114 115.639 118.924 116.454 117.922 117.481C116.92 118.508 116.126 119.727 115.585 121.068C115.043 122.409 114.766 123.847 114.768 125.298Z" fill="#DBDBDB"/>
<path d="M157.371 171.79H229.771L193.567 121.568L157.371 171.79Z" fill="#C7C7C7"/>
<path d="M128.984 172.032H188.763L158.874 139.33L128.984 172.032Z" fill="#DBDBDB"/>
<path d="M229.757 171.988H99.5547V192.095H229.757V171.988Z" fill="#DBDBDB"/>
<path d="M119.127 241.305C118.482 241.718 117.776 242.02 117.036 242.199C115.165 242.666 113.19 242.354 111.543 241.332C109.896 240.31 108.713 238.661 108.252 236.748C107.933 235.415 107.98 234.018 108.388 232.711C108.797 231.404 109.55 230.239 110.566 229.343C111.581 228.447 112.819 227.856 114.142 227.636C115.466 227.416 116.822 227.574 118.063 228.094C119.304 228.614 120.379 229.475 121.172 230.582C121.964 231.689 122.441 232.999 122.551 234.366C122.661 235.734 122.4 237.106 121.795 238.33C121.191 239.555 120.267 240.585 119.127 241.305Z" fill="#DBDBDB"/>
<path d="M117.524 234.132C117.524 234.58 117.394 235.017 117.151 235.39C116.908 235.762 116.563 236.052 116.158 236.224C115.754 236.395 115.309 236.44 114.88 236.353C114.451 236.265 114.057 236.05 113.748 235.733C113.438 235.416 113.227 235.013 113.142 234.574C113.057 234.134 113.101 233.679 113.268 233.265C113.435 232.852 113.719 232.498 114.083 232.249C114.447 232 114.874 231.868 115.312 231.868C115.898 231.868 116.461 232.106 116.876 232.531C117.291 232.955 117.524 233.531 117.524 234.132Z" fill="white"/>
<path d="M119.127 240.368V241.305C118.483 241.718 117.776 242.02 117.037 242.199C116.1 242.438 115.126 242.481 114.173 242.326C113.22 242.171 112.307 241.822 111.488 241.298V240.368C111.531 239.36 111.952 238.408 112.664 237.711C113.375 237.013 114.322 236.624 115.308 236.624C116.293 236.624 117.24 237.013 117.952 237.711C118.663 238.408 119.084 239.36 119.127 240.368Z" fill="white"/>
<path d="M191.083 227.969H131.684V231.867H191.083V227.969Z" fill="#EBEBEB"/>
<path d="M207.506 234.469H131.684V237.048H207.506V234.469Z" fill="#EBEBEB"/>
<path d="M157.514 239.437H131.684V242.016H157.514V239.437Z" fill="#EBEBEB"/>
<path d="M229.757 248.574H99.5547V271.37H229.757V248.574Z" fill="#EBEBEB"/>
<path d="M135.707 271.37H115.404C116.156 269.231 117.535 267.382 119.351 266.075C121.168 264.767 123.335 264.066 125.556 264.066C127.777 264.066 129.943 264.767 131.76 266.075C133.577 267.382 134.956 269.231 135.707 271.37Z" fill="#DBDBDB"/>
<path d="M112.491 206.397C114.872 206.397 116.801 204.422 116.801 201.986C116.801 199.55 114.872 197.575 112.491 197.575C110.111 197.575 108.182 199.55 108.182 201.986C108.182 204.422 110.111 206.397 112.491 206.397Z" fill="#EBEBEB"/>
<path fill-rule="evenodd" clip-rule="evenodd" d="M111.905 203.738C111.79 203.665 111.69 203.562 111.54 203.577C111.39 203.591 111.49 203.533 111.49 203.496V201.737C111.49 201.694 111.49 201.657 111.54 201.635C111.977 201.408 112.163 200.961 112.435 200.58C112.573 200.391 112.672 200.175 112.726 199.946C112.781 199.717 112.789 199.479 112.75 199.246C112.75 199.114 112.793 199.056 112.914 199.034C112.972 199.012 113.034 199.011 113.092 199.03C113.151 199.048 113.201 199.086 113.237 199.136C113.362 199.363 113.447 199.611 113.487 199.869C113.49 200.091 113.463 200.313 113.408 200.528C113.408 200.69 113.351 200.851 113.322 201.012C113.358 201.012 113.408 201.012 113.444 201.012H114.876C115.076 201.012 115.177 201.078 115.205 201.217C115.222 201.302 115.21 201.389 115.172 201.466C115.135 201.543 115.073 201.605 114.998 201.642C114.998 201.642 114.89 201.642 114.89 201.701C114.89 201.759 114.955 201.759 114.983 201.781C115.162 201.906 115.127 202.155 114.926 202.309C114.876 202.309 114.783 202.309 114.776 202.397C114.769 202.485 114.869 202.456 114.905 202.5C114.936 202.54 114.958 202.588 114.968 202.638C114.978 202.689 114.977 202.741 114.963 202.791C114.95 202.841 114.926 202.887 114.892 202.926C114.858 202.964 114.816 202.994 114.769 203.012L114.683 203.049C114.683 203.049 114.633 203.049 114.683 203.115C114.729 203.141 114.768 203.179 114.795 203.225C114.822 203.272 114.836 203.325 114.836 203.379C114.836 203.433 114.822 203.486 114.795 203.532C114.768 203.579 114.729 203.617 114.683 203.643L114.618 203.687C114.541 203.735 114.45 203.755 114.361 203.745H112.084C112.025 203.765 111.962 203.762 111.905 203.738Z" fill="white"/>
<path fill-rule="evenodd" clip-rule="evenodd" d="M109.742 202.705C109.742 202.331 109.742 201.972 109.742 201.584C109.742 201.51 109.742 201.474 109.842 201.474H111.181C111.267 201.474 111.281 201.474 111.281 201.584C111.281 202.316 111.281 203.086 111.281 203.833C111.281 203.928 111.281 203.958 111.16 203.958H109.864C109.757 203.958 109.742 203.921 109.742 203.826C109.742 203.452 109.742 203.078 109.742 202.705Z" fill="white"/>
<path d="M117.352 203.034C117.153 202.19 117.203 201.305 117.496 200.49C117.788 199.675 118.31 198.967 118.995 198.455C119.68 197.944 120.498 197.651 121.346 197.614C122.193 197.577 123.032 197.798 123.757 198.248C124.482 198.699 125.061 199.359 125.42 200.146C125.779 200.932 125.902 201.81 125.774 202.668C125.647 203.526 125.274 204.327 124.702 204.968C124.131 205.61 123.387 206.064 122.563 206.273C122.013 206.413 121.442 206.44 120.881 206.353C120.321 206.265 119.783 206.065 119.299 205.764C118.814 205.463 118.393 205.067 118.059 204.599C117.724 204.13 117.484 203.598 117.352 203.034Z" fill="#A0C6FF"/>
<path d="M123.738 202.536C123.214 203.445 122.453 204.186 121.54 204.676C120.627 204.186 119.866 203.445 119.342 202.536C118.798 201.415 119.142 200.206 120.001 199.942C121.225 199.561 121.54 201.745 121.54 201.745C121.54 201.745 121.855 199.547 123.086 199.942C123.938 200.206 124.282 201.437 123.738 202.536Z" fill="white"/>
<path d="M193.575 201.408H132.4V203.958H193.575V201.408Z" fill="#EBEBEB"/>
<path d="M99.5547 216.612L115.827 216.48L132.107 216.436L164.659 216.341L197.205 216.436L213.484 216.48L229.757 216.612L213.484 216.751L197.205 216.795L164.659 216.89L132.107 216.795L115.827 216.751L99.5547 216.612Z" fill="#EBEBEB"/>
<path d="M74.2009 170.543L30.2754 182.531L41.9877 227.489L85.9133 215.501L74.2009 170.543Z" fill="#455A64"/>
<path d="M55.254 204.888L49.3978 206.5C48.7893 204.141 48.2094 201.921 47.5938 199.576L53.3711 198C53.2638 197.466 53.185 197.048 53.0848 196.638C52.6552 194.813 52.104 192.974 51.8033 191.149C51.1303 187.083 52.7841 183.624 56.4782 182.034C58.7834 181.045 61.3321 180.642 63.8377 179.96L65.4772 186.262C64.5823 186.504 63.6946 186.724 62.814 186.995C62.0148 187.186 61.2356 187.456 60.4873 187.801C59.9919 188.02 59.5886 188.412 59.3487 188.907C59.1089 189.402 59.0481 189.968 59.1772 190.505C59.5709 192.285 60.0792 194.044 60.609 195.963L67.2956 194.11C67.6034 196.447 67.9113 198.616 68.1332 200.8C68.1332 201.005 67.7108 201.408 67.4173 201.532C65.8065 202.016 64.1814 202.434 62.4059 202.917C63.9594 208.867 65.4843 214.722 67.0307 220.671L59.8716 222.628L55.254 204.888Z" fill="white"/>
<path d="M291.141 223.765L245.781 219.164L241.286 265.59L286.645 270.191L291.141 223.765Z" fill="#A0C6FF"/>
<path d="M283.822 236.916C284.252 232.271 281.711 228.973 277.215 228.475C271.01 227.781 264.779 227.151 258.522 226.585C254.119 226.182 250.969 228.878 250.468 233.37C250.117 236.55 249.845 239.737 249.538 242.895C249.23 246.053 248.915 249.124 248.636 252.238C248.22 256.993 250.783 260.298 255.344 260.833C261.5 261.531 267.664 262.157 273.836 262.709C278.346 263.112 281.524 260.371 281.99 255.784C282.634 249.507 283.245 243.218 283.822 236.916ZM279.012 255.557C278.697 258.488 276.993 259.954 274.115 259.69C267.963 259.108 261.801 258.498 255.63 257.858C252.766 257.543 251.335 255.762 251.614 252.839C252.201 246.488 252.816 240.126 253.461 233.751C253.754 230.82 255.508 229.354 258.35 229.596C264.517 230.177 270.678 230.803 276.835 231.472C279.699 231.78 281.131 233.604 280.859 236.513C280.587 239.701 280.25 242.881 279.942 246.039C279.634 249.197 279.355 252.384 279.012 255.557Z" fill="white"/>
<path d="M267.114 235.7C265.394 235.516 263.659 235.857 262.128 236.681C260.597 237.504 259.338 238.773 258.51 240.327C257.683 241.882 257.323 243.652 257.476 245.415C257.629 247.178 258.289 248.856 259.372 250.236C260.455 251.616 261.913 252.638 263.562 253.171C265.211 253.705 266.977 253.728 268.639 253.236C270.3 252.744 271.783 251.76 272.899 250.407C274.015 249.055 274.715 247.395 274.91 245.636C275.043 244.458 274.945 243.266 274.624 242.127C274.303 240.988 273.764 239.926 273.039 239.002C272.314 238.078 271.417 237.31 270.4 236.744C269.383 236.177 268.266 235.822 267.114 235.7ZM265.604 250.531C264.101 250.334 262.73 249.555 261.772 248.354C260.814 247.153 260.343 245.621 260.456 244.075C260.627 242.512 261.392 241.081 262.586 240.092C263.779 239.102 265.306 238.634 266.835 238.788C268.364 238.942 269.772 239.707 270.754 240.916C271.736 242.125 272.213 243.681 272.083 245.247C271.89 246.82 271.105 248.252 269.894 249.24C268.684 250.227 267.144 250.69 265.604 250.531Z" fill="white"/>
<path d="M278.446 236.609C278.422 236.876 278.341 237.135 278.21 237.368C278.079 237.601 277.9 237.802 277.686 237.957C277.471 238.112 277.227 238.218 276.969 238.267C276.711 238.317 276.445 238.308 276.191 238.243C275.911 238.231 275.637 238.155 275.391 238.018C275.145 237.882 274.932 237.69 274.77 237.456C274.607 237.223 274.499 236.954 274.454 236.672C274.409 236.389 274.427 236.099 274.508 235.825C274.716 234.586 275.568 234.088 276.792 234.139C278.009 234.513 278.675 235.304 278.446 236.609Z" fill="white"/>
<path d="M285.092 122.345L253.156 110.712L241.791 143.399L273.727 155.032L285.092 122.345Z" fill="#455A64"/>
<path d="M248.479 136.524C250.985 137.569 253.769 137.691 256.354 136.868C253.733 134.89 252.881 133.549 253.053 131.68L255.058 132.303C253.053 130.545 252.244 128.456 252.974 125.789L254.807 127.079C253.633 123.562 253.941 121.283 255.903 119.751C256.642 121.793 257.783 123.658 259.254 125.231C260.726 126.804 262.497 128.051 264.458 128.896C264.558 128.544 264.629 128.288 264.708 128.024C264.967 126.973 265.54 126.031 266.347 125.329C267.155 124.628 268.156 124.202 269.211 124.111C270.258 123.95 271.328 124.123 272.274 124.607C273.221 125.09 273.999 125.862 274.502 126.815C274.594 127.015 274.741 127.182 274.926 127.295C275.111 127.409 275.325 127.463 275.54 127.453H278.318C277.593 128.353 276.608 128.994 275.504 129.284V129.453L278.167 129.702C278.183 129.747 278.203 129.791 278.225 129.834C277.373 130.252 276.535 130.713 275.662 131.072C275.446 131.137 275.25 131.255 275.09 131.416C274.93 131.577 274.812 131.776 274.745 131.996C273.496 135.659 270.947 138.709 267.605 140.541C264.262 142.373 260.369 142.854 256.697 141.888C253.663 141.125 250.928 139.433 248.858 137.037C248.729 136.846 248.607 136.685 248.479 136.524Z" fill="white"/>
<path d="M269.371 55.6847L241.424 65.2222L250.742 93.8262L278.689 84.2888L269.371 55.6847Z" fill="#A0C6FF"/>
<path d="M253.081 88.8884C252.995 87.0932 252.894 85.4299 252.837 83.7593C252.839 83.5121 252.79 83.2673 252.692 83.0412C252.595 82.8151 252.451 82.6128 252.272 82.4476C251.13 81.2363 250.27 79.7763 249.758 78.1769C249.245 76.5775 249.093 74.8801 249.312 73.2119C249.531 71.5437 250.116 69.9478 251.023 68.5438C251.931 67.1398 253.136 65.964 254.55 65.1044C255.964 64.2448 257.55 63.7238 259.188 63.5802C260.827 63.4367 262.476 63.6743 264.012 64.2755C265.548 64.8766 266.932 65.8256 268.059 67.0514C269.186 68.2773 270.027 69.7481 270.52 71.354C271.27 74.026 271.027 76.8877 269.837 79.3869C268.647 81.8861 266.595 83.8457 264.077 84.8877C262.344 85.5717 260.476 85.8229 258.629 85.6204C258.276 85.6013 257.926 85.6934 257.627 85.8842C256.123 86.8514 254.67 87.8626 253.081 88.8884ZM254.777 85.5471C255.715 84.9243 256.488 84.3748 257.304 83.8911C257.593 83.7242 257.927 83.6574 258.257 83.7006C259.77 83.967 261.324 83.8589 262.788 83.3856C268.136 81.6636 270.778 75.1422 268.036 70.1962C267.241 68.5837 265.974 67.2648 264.413 66.423C262.851 65.5813 261.072 65.2584 259.323 65.4994C257.51 65.5968 255.774 66.2765 254.36 67.442C252.946 68.6075 251.927 70.1994 251.448 71.9915C250.274 75.7431 251.276 79.0184 254.111 81.7076C254.366 81.9777 254.529 82.3245 254.577 82.6968C254.713 83.5834 254.72 84.5066 254.777 85.5471Z" fill="white"/>
<path d="M254.148 71.9403C254.534 70.7312 255.537 70.6067 256.381 71.5079C256.704 71.8597 256.797 71.9842 257.14 72.3946C257.385 72.607 257.546 72.9032 257.593 73.2279C257.641 73.5527 257.571 73.8841 257.398 74.1605C257.14 74.6221 257.269 74.8932 257.656 75.2156C258.808 76.1566 260.204 76.7322 261.672 76.8716C261.764 76.8968 261.86 76.9029 261.955 76.8896C262.049 76.8762 262.14 76.8437 262.222 76.7938C262.304 76.744 262.376 76.6779 262.433 76.5994C262.489 76.5209 262.53 76.4316 262.553 76.3367C263.097 74.9152 263.111 74.9225 264.593 75.1057L265.108 75.1643C265.346 75.1602 265.581 75.2243 265.785 75.3494C265.989 75.4744 266.155 75.6555 266.263 75.8721C266.372 76.0886 266.42 76.332 266.4 76.5747C266.381 76.8174 266.295 77.0497 266.154 77.2453C265.904 77.749 265.524 78.1735 265.056 78.473C264.588 78.7726 264.049 78.9358 263.498 78.9453C260.626 79.1118 257.803 78.1321 255.623 76.2121C254.898 75.6867 254.35 74.9443 254.055 74.0872C253.879 73.3777 253.912 72.6311 254.148 71.9403Z" fill="white"/>
<path d="M150.463 118.128C147.528 142.074 142.402 182.235 134.104 185.489C132.672 186.046 126.559 187.291 122.385 182.477C115.34 174.366 103.17 147.027 99.7693 138.234C98.2587 134.336 123.101 121.609 125.227 125.529C128.205 131.017 131.334 139.282 131.928 139.004C132.916 138.549 134.605 128.35 141.235 114.032C149.489 96.2484 151.551 109.225 150.463 118.128Z" fill="#AD6359"/>
<path d="M92.5889 128.782C95.0373 134.153 104.237 143.151 107.272 144.441C110.308 145.73 125.764 130.233 125.37 126.804C124.977 123.374 115.348 105.921 110.079 103.239C104.809 100.557 90.0259 123.206 92.5889 128.782Z" fill="#AD6359"/>
<path d="M124.217 123.536C124.217 123.536 123.709 115.842 125.499 109.291C127.002 103.788 129.844 95.7942 126.981 94.8563C121.103 92.9292 114.03 112.874 114.03 112.874C114.03 112.874 112.29 122.187 117.946 124.598C118.985 125.029 120.121 125.158 121.228 124.97C122.334 124.783 123.369 124.286 124.217 123.536Z" fill="#AD6359"/>
<path d="M108.482 129.903L99.7695 128.328L104.215 102.499L115.247 104.484L108.482 129.903Z" fill="#A0C6FF"/>
<path d="M115.247 104.484L112.67 114.178L108.482 129.903L99.7695 128.328L104.215 102.499L115.247 104.484Z" fill="#A0C6FF"/>
<path opacity="0.1" d="M115.246 104.484L112.669 114.178L102.518 112.354L104.214 102.499L115.246 104.484Z" fill="black"/>
<path d="M117.441 97.8208L103.721 95.3447L101.883 106.01L115.603 108.486L117.441 97.8208Z" fill="#A0C6FF"/>
<path d="M127.309 95.5742L116.463 94.7463L119.434 77.4829L129.908 80.4945L127.309 95.5742Z" fill="#A0C6FF"/>
<path d="M114.546 73.0715L110.157 98.5488L91.8942 97.5157L47.6152 105.671L58.1534 44.4946L97.0344 67.6565L114.546 73.0715Z" fill="#A0C6FF"/>
<path d="M61.5743 76.6569C64.4991 59.6794 62.5488 45.1365 57.2183 44.1745C51.8877 43.2125 45.1953 56.1956 42.2705 73.1731C39.3457 90.1506 41.2959 104.693 46.6265 105.655C51.9571 106.617 58.6494 93.6344 61.5743 76.6569Z" fill="#A0C6FF"/>
<path opacity="0.2" d="M59.4128 75.7212C62.0094 60.6487 60.5759 47.7914 56.211 47.0036C51.8461 46.2159 46.2026 57.796 43.6059 72.8685C41.0093 87.941 42.4428 100.798 46.8077 101.586C51.1727 102.374 56.8161 90.7937 59.4128 75.7212Z" fill="black"/>
<path d="M58.1245 75.4822C57.7809 77.4899 57.4086 79.439 56.9289 81.2929C55.9288 81.8614 54.7918 82.1284 53.6495 82.0629C52.5073 81.9974 51.4065 81.6021 50.4747 80.9229C49.5428 80.2436 48.818 79.308 48.3841 78.2246C47.9502 77.1411 47.825 75.954 48.023 74.8008L48.5242 71.9138C48.7184 70.7635 49.2268 69.693 49.9904 68.826C50.7541 67.959 51.7419 67.331 52.8397 67.0144C53.9375 66.6979 55.1004 66.7058 56.1939 67.0373C57.2875 67.3688 58.2671 68.0102 59.0194 68.8876C58.8118 71.0125 58.5111 73.2254 58.1245 75.4822Z" fill="#A0C6FF"/>
<path d="M119.564 101.7L98.5879 100.088L104.337 66.7041L124.583 72.5367L119.564 101.7Z" fill="#A0C6FF"/>
<path opacity="0.2" d="M119.564 101.7L98.5879 100.088L104.337 66.7041L124.583 72.5367L119.564 101.7Z" fill="black"/>
<path opacity="0.2" d="M60.2299 49.1846C61.3331 51.2485 62.0608 53.5004 62.3776 55.8305C62.7391 58.1446 62.9187 60.4847 62.9145 62.8282C62.9145 64.0006 62.8716 65.1729 62.8429 66.3453C62.8143 67.5177 62.6854 68.6828 62.5637 69.8478C62.442 71.0129 62.3203 72.1706 62.1485 73.3283C61.9767 74.4861 61.8192 75.6438 61.6116 76.7942C60.8253 81.4152 59.6271 85.9527 58.032 90.3499C57.2186 92.5437 56.2222 94.6618 55.0538 96.6808C53.9116 98.7199 52.3626 100.49 50.5078 101.876C52.2788 100.403 53.74 98.5786 54.8033 96.5122C55.9095 94.4837 56.8413 92.3605 57.5881 90.1667C59.0901 85.7775 60.2206 81.2643 60.9672 76.677C61.8226 72.1099 62.3015 67.4773 62.3991 62.8282C62.4576 60.5045 62.3403 58.1796 62.0483 55.8745C61.8226 53.554 61.2075 51.2909 60.2299 49.1846Z" fill="black"/>
<path d="M38.4219 43.8721C39.6676 44.8833 40.856 45.9457 42.0014 47.0155C43.1469 48.0853 44.3353 49.2137 45.4879 50.2982C46.6405 51.3826 47.7573 52.5404 48.8527 53.7054L50.4993 55.4494C51.029 56.0575 51.5731 56.6364 52.0886 57.2519C51.4586 56.761 50.8644 56.2261 50.2558 55.7131L48.4732 54.1158C47.2848 53.046 46.1394 51.9175 44.9939 50.8331C43.8485 49.7486 42.7173 48.5836 41.622 47.4259C40.5266 46.2681 39.4599 45.0884 38.4219 43.8721Z" fill="#263238"/>
<path d="M47.2281 91.1484C45.5027 91.6101 43.7631 91.9911 42.0162 92.3648C40.2694 92.7385 38.5226 93.0975 36.7686 93.3833C35.0147 93.6691 33.2607 93.9842 31.4995 94.2333L28.8507 94.5997C27.963 94.6949 27.0824 94.8122 26.1875 94.8928C27.0537 94.6509 27.92 94.4604 28.7934 94.2479L31.4065 93.6764C33.1461 93.3027 34.9001 92.9437 36.6469 92.6579C38.3938 92.3721 40.162 92.057 41.9232 91.8079C43.6843 91.5588 45.4526 91.317 47.2281 91.1484Z" fill="#263238"/>
<path d="M14.4473 84.803C17.0603 84.5905 19.6734 84.4586 22.3223 84.3414C24.9711 84.2242 27.5556 84.1436 30.1973 84.0776C32.839 84.0117 35.4306 83.975 38.0723 83.9824H42.0026C43.3056 83.9824 44.6157 84.019 45.9258 84.0703C44.6228 84.1802 43.3127 84.2462 42.0098 84.3414L38.0866 84.5319C35.4735 84.6565 32.8533 84.7298 30.2116 84.7957C27.5699 84.8617 24.9783 84.8983 22.3366 84.891C19.6949 84.8836 17.0675 84.891 14.4473 84.803Z" fill="#263238"/>
<path d="M23.8105 44.4067C26.0513 45.8722 28.242 47.411 30.4255 48.957C32.6091 50.5031 34.764 52.0785 36.9188 53.6612C39.0737 55.244 41.2143 56.8633 43.3191 58.5046L46.4834 60.9813C47.5286 61.824 48.581 62.6739 49.6334 63.5093C48.5166 62.7765 47.4212 62.0438 46.3116 61.2671L43.0255 58.9663C40.8778 57.4275 38.6871 55.8448 36.5323 54.2548C34.3774 52.6647 32.2368 51.06 30.132 49.4113C28.0272 47.7627 25.8795 46.1213 23.8105 44.4067Z" fill="#263238"/>
<path d="M46.8845 73.7603C43.8419 73.328 40.8208 72.8224 37.7996 72.2948C34.7785 71.7673 31.7359 71.2031 28.7434 70.6608C25.7509 70.1186 22.7298 69.4811 19.7229 68.851L15.227 67.8838C13.7308 67.532 12.2345 67.2096 10.7383 66.8433C12.2632 67.0484 13.7737 67.3049 15.2915 67.532L19.8303 68.2648C22.8515 68.785 25.8583 69.3639 28.8794 69.9134C31.9006 70.463 34.8931 71.0858 37.8999 71.7233C40.9067 72.3608 43.9063 73.0349 46.8845 73.7603Z" fill="#263238"/>
<path d="M117.388 109.042C117.058 112.163 113.651 109.98 113.651 109.98C113.651 109.98 117.81 114.339 116.256 117.424C114.746 120.392 110.715 117.6 110.429 117.424C110.644 117.659 114.366 121.769 112.491 124.7C110.536 127.749 106.964 124.239 106.763 124.012C106.907 124.297 108.675 128.108 106.763 130.005C103.456 133.266 98.6594 123.653 95.0798 122.627C95.0798 122.627 92.703 128.642 92.5956 128.804C92.5956 128.804 87.8492 119.747 89.4671 114.882C89.692 114.17 90.1474 113.559 90.758 113.149C91.3685 112.738 92.0976 112.553 92.8247 112.625C92.8247 112.625 90.9777 109.877 92.388 107.496C93.1039 106.287 95.6454 106.397 95.6454 106.397C95.6454 106.397 94.2565 104.14 95.6454 102.117C96.7408 100.505 99.1104 100.872 99.1104 100.872C99.1104 100.872 98.7668 98.0653 100.406 96.7903C103.678 94.1817 118.089 102.352 117.388 109.042Z" fill="#AD6359"/>
<path d="M99.4546 100.865C99.4481 100.867 99.441 100.869 99.4339 100.868C99.4268 100.867 99.4199 100.865 99.4139 100.861C99.408 100.857 99.4031 100.852 99.3997 100.845C99.3963 100.839 99.3945 100.832 99.3945 100.824C99.3945 100.817 99.3963 100.81 99.3997 100.803C99.4031 100.797 99.408 100.791 99.4139 100.787C99.4199 100.783 99.4268 100.781 99.4339 100.78C99.441 100.78 99.4481 100.781 99.4546 100.784C105.05 102.323 110.057 105.562 113.816 110.075C113.93 110.222 113.751 110.478 113.594 110.346C109.355 106.501 104.592 103.307 99.4546 100.865Z" fill="#263238"/>
<path d="M95.5512 106.331C95.494 106.331 95.5513 106.206 95.6014 106.221C101.135 107.796 107.192 111.716 110.635 117.359C110.757 117.549 110.635 117.842 110.521 117.637C107.958 114.061 100.412 108.544 95.5512 106.331Z" fill="#263238"/>
<path d="M106.843 124.466C103.32 119.19 98.495 115.607 93.0183 112.654C92.9467 112.61 93.0183 112.515 93.0756 112.53C96.1397 113.263 99.4329 115.461 101.86 117.461C104.14 119.253 105.922 121.626 107.029 124.342C107.072 124.452 106.907 124.583 106.843 124.466Z" fill="#263238"/>
<path d="M113.75 109.973C113.893 110.149 113.485 110.163 113.621 110.346C114.18 111.079 117.201 115.966 115.862 117.52C114.81 118.766 112.455 118.187 111.631 117.6L109.569 116.135L111.001 118.253C111.635 119.192 112.118 120.228 112.433 121.323C112.61 121.823 112.682 122.355 112.643 122.886C112.605 123.416 112.458 123.932 112.211 124.4C111.977 124.831 111.605 125.166 111.158 125.35C110.711 125.534 110.216 125.556 109.756 125.411C108.729 125.068 107.805 124.463 107.071 123.653L104.966 121.455L106.255 124.195C106.615 124.956 106.877 125.761 107.035 126.591C107.22 127.372 107.172 128.191 106.899 128.943C106.766 129.278 106.542 129.567 106.254 129.778C105.967 129.988 105.627 130.11 105.274 130.13C104.479 130.064 103.719 129.766 103.083 129.273C101.691 128.227 100.384 127.068 99.1744 125.807C98.5372 125.199 97.9001 124.583 97.2343 123.997C96.5997 123.368 95.8404 122.886 95.0078 122.583C95.7905 122.973 96.491 123.515 97.0696 124.18C97.6853 124.803 98.2724 125.47 98.8594 126.13C100.013 127.5 101.291 128.756 102.675 129.881C103.415 130.503 104.315 130.89 105.267 130.995C105.795 131.004 106.314 130.853 106.759 130.561C107.203 130.269 107.554 129.849 107.765 129.354C108.133 128.424 108.22 127.403 108.016 126.423C107.851 125.495 107.57 124.594 107.178 123.741L106.369 124.312C107.221 125.286 108.307 126.013 109.519 126.423C110.198 126.631 110.927 126.592 111.581 126.313C112.215 126.016 112.745 125.528 113.099 124.913C113.413 124.322 113.6 123.67 113.65 122.999C113.699 122.329 113.609 121.655 113.385 121.022C113.015 119.82 112.454 118.689 111.724 117.674L111.101 118.319C112.168 119.051 114.738 119.967 116.6 118.253C118.697 115.659 114.566 110.808 113.75 109.973Z" fill="#263238"/>
<path d="M113.65 109.98C114.24 110.209 114.861 110.345 115.49 110.383C115.743 110.404 115.997 110.356 116.226 110.244C116.455 110.132 116.651 109.96 116.793 109.745C117.036 109.228 117.13 108.652 117.065 108.082C117.022 107.452 116.944 106.792 116.836 106.111C117.257 106.663 117.559 107.3 117.724 107.979C117.94 108.711 117.868 109.5 117.523 110.178C117.301 110.558 116.968 110.857 116.571 111.035C116.197 111.163 115.796 111.183 115.412 111.093C114.722 110.927 114.105 110.536 113.65 109.98Z" fill="#263238"/>
<path d="M97.8223 146.866L124.977 124.51C124.977 124.51 131.563 138.432 131.95 138.373C132.336 138.315 136.646 119.85 143.784 108.331C150.921 96.8123 152.654 109.313 151.136 118.816C149.618 128.32 142.474 180.945 136.045 185.774C129.616 190.603 123.588 184.565 121.011 182.001C117.41 178.447 97.8223 146.866 97.8223 146.866Z" fill="#A0C6FF"/>
<path d="M103.047 149.372C103.899 148.478 112.432 141.671 114.322 140.227L119.985 135.926C121.94 134.461 123.858 132.834 125.92 131.53C125.938 131.515 125.961 131.509 125.984 131.511C126.007 131.514 126.028 131.526 126.042 131.544C126.056 131.563 126.063 131.586 126.06 131.61C126.057 131.633 126.046 131.654 126.027 131.669C124.245 133.354 122.219 134.82 120.3 136.359C118.382 137.897 116.527 139.385 114.63 140.894C112.733 142.404 104.156 148.954 103.118 149.526C103.047 149.563 102.99 149.431 103.047 149.372Z" fill="#263238"/>
<path d="M131.963 138.374C132.715 140.015 133.395 141.7 133.996 143.393C134.597 145.085 135.192 146.793 135.736 148.522C136.28 150.251 136.759 151.988 137.168 153.746C137.594 155.506 137.922 157.29 138.148 159.088C137.891 158.223 137.669 157.351 137.397 156.487C137.125 155.622 136.896 154.758 136.638 153.9L135.056 148.771L133.481 143.605L132.679 140.982C132.443 140.11 132.178 139.253 131.963 138.374Z" fill="#263238"/>
<path d="M132.078 195.703C133.252 196.897 205.444 192.992 205.817 192.508C206.762 191.204 180.946 112.567 164.015 100.125C160.378 97.4428 150.606 101.026 148.093 103.605C146.518 105.224 143.082 115.446 140.848 123.902C136.331 140.821 131.054 194.655 132.078 195.703Z" fill="white"/>
<path d="M149.559 100.286C146.696 102.484 144.498 113.702 151.041 115.226C157.585 116.75 163.663 106.162 164.558 102.77C165.452 99.3771 155.745 95.5815 149.559 100.286Z" fill="#A0C6FF"/>
<path d="M151.515 113.688C155.574 114.223 161.745 107.291 163.914 101.964C164.057 101.597 163.198 98.0217 162.296 93.6252C161.774 90.9581 161.251 87.9758 160.972 85.2207L144.506 91.2365C144.506 91.2365 146.761 96.8346 147.219 101.649C147.255 102.029 147.255 102.412 147.219 102.792C147.216 102.855 147.216 102.919 147.219 102.982C147.09 105.173 147.591 113.167 151.515 113.688Z" fill="#AD6359"/>
<path d="M160.191 85.5283C160.012 89.0235 158.717 101.649 148.952 102.916C148.375 102.989 147.793 103.021 147.212 103.011C147.204 102.946 147.204 102.879 147.212 102.814C147.248 102.433 147.248 102.051 147.212 101.671C146.739 96.8638 144.484 91.2583 144.484 91.2583L160.191 85.5283Z" fill="#263238"/>
<path d="M161.244 64.5644C163.649 70.5289 162.131 88.5762 158.23 92.9434C152.581 99.2815 142.48 100.82 137.039 93.6761C131.734 86.7517 134.118 63.2674 138.549 59.2373C145.078 53.2289 157.693 55.7642 161.244 64.5644Z" fill="#AD6359"/>
<path d="M145.68 77.0357C145.68 76.9844 145.766 77.1016 145.759 77.1456C145.63 78.362 145.673 79.7761 146.718 80.2671C146.718 80.2671 146.718 80.3403 146.718 80.333C145.408 80.0326 145.365 78.1568 145.68 77.0357Z" fill="#263238"/>
<path d="M146.839 75.8633C148.765 75.8633 148.6 79.8127 146.839 79.7981C145.078 79.7834 145.229 75.8633 146.839 75.8633Z" fill="#263238"/>
<path d="M139.015 76.7864C139.015 76.7351 138.914 76.8377 138.914 76.889C138.914 78.1054 138.685 79.5049 137.597 79.8639C137.561 79.8639 137.561 79.9372 137.597 79.9299C138.922 79.798 139.194 77.9442 139.015 76.7864Z" fill="#263238"/>
<path d="M137.999 75.4677C136.094 75.2332 135.779 79.1314 137.547 79.3732C139.316 79.615 139.602 75.6582 137.999 75.4677Z" fill="#263238"/>
<path d="M148.429 74.1195C147.914 73.9583 147.462 73.7238 146.961 73.5186C146.412 73.3795 145.922 73.0605 145.565 72.61C145.484 72.4476 145.456 72.2621 145.487 72.0821C145.518 71.9021 145.606 71.7375 145.737 71.6135C146.036 71.4077 146.384 71.2871 146.743 71.2639C147.103 71.2407 147.463 71.3158 147.785 71.4816C148.481 71.7208 149.067 72.2137 149.431 72.8665C149.503 73.0198 149.531 73.1908 149.511 73.3595C149.491 73.5283 149.425 73.6878 149.319 73.8193C149.214 73.9508 149.075 74.0489 148.917 74.102C148.759 74.1552 148.59 74.1613 148.429 74.1195Z" fill="#263238"/>
<path d="M136.595 73.4158C137.116 73.3331 137.632 73.2206 138.141 73.0788C138.7 73.0344 139.23 72.8056 139.652 72.4266C139.759 72.2796 139.817 72.101 139.817 71.9174C139.817 71.7338 139.759 71.5551 139.652 71.4081C139.391 71.1553 139.069 70.978 138.719 70.8943C138.37 70.8106 138.005 70.8236 137.661 70.9319C136.933 71.0443 136.272 71.431 135.807 72.0163C135.71 72.1547 135.654 72.3188 135.646 72.489C135.637 72.6592 135.677 72.8282 135.76 72.9759C135.843 73.1235 135.966 73.2435 136.114 73.3216C136.262 73.3996 136.429 73.4323 136.595 73.4158Z" fill="#263238"/>
<path d="M147.205 88.4445C146.905 88.7156 146.604 89.0966 146.174 89.1186C145.732 89.0883 145.3 88.9635 144.907 88.7522C144.899 88.7505 144.89 88.7512 144.882 88.754C144.873 88.7569 144.866 88.7619 144.86 88.7685C144.855 88.7752 144.851 88.7832 144.849 88.792C144.847 88.8007 144.847 88.8097 144.85 88.8182C145.012 89.0654 145.235 89.2638 145.497 89.3927C145.759 89.5216 146.05 89.5762 146.339 89.5509C146.584 89.4941 146.807 89.3653 146.981 89.1805C147.155 88.9956 147.273 88.7628 147.32 88.5104C147.334 88.4372 147.248 88.4078 147.205 88.4445Z" fill="#263238"/>
<path d="M146.102 84.7441C145.778 85.2123 145.364 85.6074 144.885 85.9049C144.406 86.2024 143.872 86.3959 143.317 86.4734C142.842 86.5403 142.36 86.5403 141.885 86.4734C141.79 86.4676 141.697 86.4504 141.606 86.4221C141.519 86.4114 141.433 86.3942 141.348 86.3708C141.286 86.3553 141.23 86.32 141.189 86.2699C141.148 86.2199 141.123 86.1577 141.119 86.0923C141.115 86.0509 141.115 86.0092 141.119 85.9678V85.8652C141.119 84.92 141.276 83.4984 141.276 83.4984C140.933 83.6596 139.193 84.3704 139.243 83.8795C139.644 79.8347 140.095 75.3284 141.334 71.4229C141.334 71.291 141.563 71.335 141.548 71.4669C141.312 75.3724 140.403 79.2119 140.117 83.1321C140.737 82.8689 141.39 82.6962 142.057 82.6192C142.186 82.6631 141.72 85.3669 141.749 85.7846C141.747 85.7992 141.747 85.814 141.749 85.8286C143.281 86.0997 144.462 85.6747 146.001 84.6782C146.087 84.5609 146.173 84.6562 146.102 84.7441Z" fill="#263238"/>
<path d="M142.537 86.2463C143.069 86.8852 143.752 87.3745 144.52 87.6678C144.944 87.8059 145.399 87.8059 145.823 87.6678C146.754 87.3747 146.739 86.4881 146.539 85.7334C146.428 85.3365 146.269 84.955 146.067 84.5977C145.092 85.5178 143.855 86.0954 142.537 86.2463Z" fill="#263238"/>
<path d="M144.52 87.6678C144.943 87.8059 145.399 87.8059 145.822 87.6678C146.753 87.3747 146.739 86.4881 146.538 85.7334C146.037 85.7731 145.564 85.9863 145.197 86.3379C144.83 86.6895 144.591 87.1586 144.52 87.6678Z" fill="#F392B9"/>
<path d="M161.624 79.5269C162.054 77.9515 166.034 60.9666 165.59 59.1201C165.197 57.4275 163.392 58.1236 163.364 58.021C163.335 57.9184 163.285 56.3943 162.354 55.8228C162.037 55.6814 161.695 55.6084 161.349 55.6084C161.002 55.6084 160.66 55.6814 160.343 55.8228C160.343 55.8228 160.056 54.2034 159.061 53.7638C158.728 53.6566 158.373 53.64 158.032 53.7158C157.69 53.7916 157.374 53.9572 157.114 54.1961C157.022 53.7658 156.83 53.3648 156.553 53.0277C156.276 52.6907 155.923 52.4277 155.525 52.2617C155.17 52.1557 154.792 52.1698 154.446 52.3018C154.101 52.4339 153.806 52.6768 153.606 52.9944C153.606 52.9944 153.184 51.4483 152.174 51.1552C151.165 50.8621 150.234 51.9979 150.234 51.9979C150.085 51.608 149.836 51.2663 149.514 51.0085C149.191 50.7507 148.807 50.5862 148.401 50.5324C148.008 50.5623 147.633 50.7104 147.322 50.9581C147.011 51.2058 146.779 51.5421 146.655 51.9246C146.655 51.9246 145.939 50.569 144.722 50.5324C143.505 50.4958 143.125 51.9979 143.125 51.9979C143.125 51.9979 142.645 50.6496 141.529 50.7376C140.412 50.8255 140.147 52.4229 140.147 52.4229C140.147 52.4229 139.524 50.9574 138.214 51.375C136.202 52.0492 135.945 61.8972 135.486 66.1764C135.486 66.1764 136.052 64.1247 136.918 64.0514C137.784 63.9782 138.414 65.3704 140.004 65.7294C142.273 66.2423 146.053 63.5312 149.182 64.198C152.31 64.8648 154.472 68.1328 155.575 72.9909C156.763 78.6183 160.6 83.2712 161.624 79.5269Z" fill="#263238"/>
<path d="M146.417 83.0589C145.78 82.9407 145.173 82.6952 144.63 82.3365C144.086 81.9777 143.617 81.5128 143.249 80.9683C142.882 80.4238 142.623 79.8105 142.487 79.1634C142.351 78.5162 142.341 77.848 142.458 77.197C142.614 76.2695 143.023 75.4059 143.636 74.7046C144.249 74.0032 145.043 73.4925 145.926 73.2308C146.809 72.969 147.747 72.9667 148.631 73.2241C149.516 73.4815 150.312 73.9883 150.928 74.6866C151.545 75.3848 151.957 76.2465 152.118 77.1731C152.279 78.0998 152.183 79.0541 151.839 79.9272C151.495 80.8002 150.919 81.5568 150.175 82.1106C149.432 82.6643 148.551 82.9929 147.634 83.0589C147.23 83.1095 146.821 83.1095 146.417 83.0589ZM143.109 77.3289C142.961 78.1746 143.061 79.0462 143.397 79.8336C143.733 80.621 144.29 81.2888 144.996 81.7527C145.703 82.2165 146.528 82.4555 147.367 82.4396C148.206 82.4236 149.022 82.1533 149.711 81.6629C150.401 81.1724 150.932 80.4839 151.239 79.6842C151.546 78.8846 151.615 78.0097 151.436 77.1703C151.257 76.3308 150.84 75.5644 150.235 74.9679C149.631 74.3714 148.868 73.9716 148.042 73.8191C147.695 73.756 147.341 73.7363 146.989 73.7604C146.047 73.8297 145.155 74.218 144.452 74.8642C143.749 75.5103 143.277 76.3775 143.109 77.3289Z" fill="#A0C6FF"/>
<path d="M136.065 82.5388C134.053 82.4435 132.521 80.1134 132.65 77.3436C132.685 76.0922 133.1 74.8831 133.839 73.8851C134.131 73.4378 134.532 73.0754 135.002 72.833C135.472 72.5906 135.995 72.4764 136.52 72.5014C137.046 72.5265 137.556 72.6899 138.002 72.976C138.448 73.262 138.814 73.661 139.065 74.1342C139.715 75.1977 140.023 76.4432 139.945 77.6954C139.824 80.3112 138.263 82.3995 136.366 82.5314L136.065 82.5388ZM134.354 74.3101C133.701 75.1973 133.333 76.27 133.302 77.3803C133.194 79.7763 134.447 81.7767 136.101 81.8646C137.755 81.9526 139.179 80.0548 139.287 77.6587C139.362 76.5521 139.094 75.4493 138.521 74.5079C138.311 74.1364 138.018 73.8215 137.666 73.5895C137.313 73.3575 136.912 73.2152 136.495 73.1744C136.409 73.1744 136.323 73.1744 136.244 73.1744C135.869 73.2178 135.507 73.3414 135.181 73.537C134.856 73.7327 134.574 73.996 134.354 74.3101Z" fill="#A0C6FF"/>
<path d="M142.602 77.8124L143.046 77.3215C142.33 76.6474 140.647 75.7021 139.395 76.9551L139.853 77.4387C140.977 76.3103 142.53 77.7538 142.602 77.8124Z" fill="#A0C6FF"/>
<path d="M164.38 80.1354L164.974 79.857C164.845 79.5712 163.685 77.0726 162.232 76.7575C160.779 76.4424 152.052 76.8967 151.68 76.9114V77.5855C154.214 77.4609 160.987 77.1898 162.068 77.4169C163.149 77.6441 164.072 79.454 164.38 80.1354Z" fill="#A0C6FF"/>
<path d="M157.737 78.9042C157.737 78.9042 161.238 72.8591 163.886 74.0974C166.535 75.3357 164.18 83.9234 161.316 85.257C160.956 85.4596 160.559 85.5854 160.15 85.6266C159.741 85.6679 159.328 85.6239 158.936 85.4972C158.543 85.3705 158.181 85.1638 157.869 84.8895C157.557 84.6152 157.303 84.2791 157.121 83.9015L157.737 78.9042Z" fill="#AD6359"/>
<path d="M163.142 76.5303C163.149 76.5337 163.156 76.5393 163.16 76.5465C163.165 76.5536 163.167 76.562 163.167 76.5706C163.167 76.5791 163.165 76.5875 163.16 76.5947C163.156 76.6018 163.149 76.6074 163.142 76.6109C161.108 77.644 160.156 79.7177 159.562 81.8426C160.128 81 160.944 80.5017 162.039 81.1758C162.096 81.1758 162.039 81.3077 161.989 81.3004C161.612 81.2075 161.216 81.2366 160.856 81.3836C160.495 81.5305 160.189 81.7882 159.977 82.1211C159.631 82.6825 159.343 83.2792 159.118 83.9016C159.032 84.1068 158.689 84.0262 158.746 83.799C158.744 83.782 158.744 83.7648 158.746 83.7477C158.495 80.9927 160.292 77.0285 163.142 76.5303Z" fill="#263238"/>
<path d="M174.202 105.261C197.562 121.704 214.429 147.489 216.047 152.933C219.977 166.122 225.848 189.35 226.75 199.785C227.079 203.639 198.035 202.921 197.548 198.81C196.03 185.936 190.618 157.916 190.482 157.432C189.515 154.047 181.275 139.363 172.792 123.396C164.308 107.43 164.358 98.3441 174.202 105.261Z" fill="#AD6359"/>
<path d="M199.853 239.477C202.824 240.51 204.743 237.835 204.743 237.835C205.735 239.073 207.117 239.918 208.652 240.224C211.38 240.627 213.191 236.428 213.191 236.428C214.48 237.492 216.051 238.135 217.701 238.275C220.35 238.392 222.777 234.428 222.777 234.428C224.487 234.729 226.246 234.396 227.738 233.49C230.251 231.834 231.489 223.635 231.446 219.026C231.404 214.417 227.065 201.36 226.478 198.788H197.541C197.541 198.788 191.978 219.539 192.78 224.954C193.453 229.541 196.524 238.312 199.853 239.477Z" fill="#AD6359"/>
<path d="M204.269 237.63C202.415 232.955 202.014 227.965 201.334 223.019C201.339 223.001 201.35 222.985 201.365 222.974C201.38 222.963 201.398 222.957 201.416 222.957C201.435 222.957 201.453 222.963 201.468 222.974C201.483 222.985 201.493 223.001 201.499 223.019C202.121 227.951 203.689 232.691 204.498 237.586C204.496 237.613 204.484 237.638 204.467 237.657C204.449 237.677 204.425 237.69 204.4 237.695C204.374 237.7 204.347 237.697 204.324 237.685C204.3 237.673 204.281 237.654 204.269 237.63Z" fill="#263238"/>
<path d="M212.819 236.333C212.493 235.229 212.312 234.086 212.282 232.933C212.182 231.722 212.096 230.501 212.024 229.27C211.886 226.827 211.809 224.385 211.795 221.942C211.795 221.84 211.96 221.81 211.967 221.942C212.103 224.375 212.282 226.8 212.518 229.226C212.637 230.432 212.766 231.641 212.905 232.853C213.104 233.986 213.184 235.138 213.141 236.289C213.134 236.325 213.116 236.358 213.09 236.383C213.064 236.408 213.031 236.424 212.995 236.429C212.96 236.434 212.924 236.427 212.892 236.41C212.86 236.393 212.835 236.366 212.819 236.333Z" fill="#263238"/>
<path d="M222.769 234.326C222.489 233.324 222.38 232.28 222.447 231.241C222.411 230.127 222.361 229.042 222.311 227.907C222.211 225.709 222.111 223.459 221.932 221.239C221.932 221.129 222.089 221.107 222.096 221.239C222.29 223.496 222.512 225.745 222.683 227.995C222.769 229.101 222.848 230.193 222.92 231.321C223.081 232.325 223.066 233.349 222.877 234.348C222.871 234.359 222.862 234.367 222.851 234.373C222.839 234.378 222.827 234.38 222.815 234.377C222.803 234.375 222.792 234.368 222.784 234.359C222.776 234.35 222.77 234.338 222.769 234.326Z" fill="#263238"/>
<path d="M196.158 199.132L227.894 196.509C227.894 196.509 220.914 161.506 217.155 152.068C213.397 142.631 194.468 119.271 174.766 105.444C161.365 96.0357 162.188 104.081 168.381 116.545C174.573 129.009 189.142 157.505 189.858 159.777C190.574 162.048 196.158 199.132 196.158 199.132Z" fill="#A0C6FF"/>
<path d="M196.716 192.427C197.905 192.149 208.679 191.13 211.035 190.962L218.079 190.464C220.506 190.302 222.969 190.009 225.403 190.039C225.426 190.039 225.447 190.048 225.464 190.064C225.48 190.081 225.489 190.103 225.489 190.127C225.489 190.15 225.48 190.172 225.464 190.189C225.447 190.205 225.426 190.215 225.403 190.215C223.012 190.647 220.535 190.764 218.115 190.999C215.695 191.233 213.347 191.468 210.956 191.687C208.565 191.907 197.89 192.677 196.709 192.596C196.609 192.589 196.63 192.449 196.716 192.427Z" fill="#263238"/>
</svg>
