<svg width="326" height="250" viewBox="0 0 326 250" fill="none" xmlns="http://www.w3.org/2000/svg">
<path d="M326 220.488H0V220.652H326V220.488Z" fill="#EBEBEB"/>
<path d="M282.83 227.441H261.236V227.605H282.83V227.441Z" fill="#EBEBEB"/>
<path d="M204.121 227.363H198.455V227.527H204.121V227.363Z" fill="#EBEBEB"/>
<path d="M293.334 231.003H280.822V231.166H293.334V231.003Z" fill="#EBEBEB"/>
<path d="M74.7185 233.172H46.5586V233.336H74.7185V233.172Z" fill="#EBEBEB"/>
<path d="M72.301 226.037H68.1738V226.2H72.301V226.037Z" fill="#EBEBEB"/>
<path d="M161.99 226.736H122.283V226.899H161.99V226.736Z" fill="#EBEBEB"/>
<path d="M154.523 191.343H28.6285C27.6423 191.341 26.697 190.947 26.0002 190.248C25.3034 189.548 24.9121 188.6 24.9121 187.611V10.2339C24.9207 9.25109 25.3158 8.31134 26.0117 7.61879C26.7075 6.92625 27.6479 6.53684 28.6285 6.53516H154.523C155.511 6.53516 156.458 6.92829 157.156 7.62807C157.854 8.32785 158.246 9.27696 158.246 10.2666V187.611C158.246 188.601 157.854 189.55 157.156 190.25C156.458 190.95 155.511 191.343 154.523 191.343ZM28.6285 6.66585C27.6855 6.66759 26.7817 7.04427 26.1155 7.71323C25.4493 8.38218 25.0751 9.28874 25.0751 10.2339V187.611C25.0751 188.557 25.4493 189.463 26.1155 190.132C26.7817 190.801 27.6855 191.178 28.6285 191.179H154.523C155.467 191.178 156.371 190.801 157.039 190.132C157.706 189.464 158.081 188.557 158.083 187.611V10.2339C158.081 9.28814 157.706 8.38159 157.039 7.71283C156.371 7.04406 155.467 6.66758 154.523 6.66585H28.6285Z" fill="#EBEBEB"/>
<path d="M295.558 191.343H169.657C168.67 191.341 167.724 190.947 167.026 190.248C166.328 189.549 165.935 188.6 165.934 187.611V10.2339C165.944 9.25049 166.34 8.31075 167.037 7.61838C167.734 6.92602 168.675 6.53682 169.657 6.53516H295.558C296.537 6.53856 297.476 6.92872 298.17 7.62108C298.865 8.31344 299.259 9.25222 299.268 10.2339V187.611C299.268 188.599 298.877 189.546 298.182 190.245C297.486 190.945 296.543 191.339 295.558 191.343ZM169.657 6.66585C168.713 6.66758 167.808 7.04406 167.141 7.71283C166.474 8.38159 166.098 9.28814 166.097 10.2339V187.611C166.098 188.557 166.474 189.464 167.141 190.132C167.808 190.801 168.713 191.178 169.657 191.179H295.558C296.501 191.178 297.406 190.801 298.073 190.132C298.74 189.464 299.116 188.557 299.118 187.611V10.2339C299.116 9.28814 298.74 8.38159 298.073 7.71283C297.406 7.04406 296.501 6.66758 295.558 6.66585H169.657Z" fill="#EBEBEB"/>
<path d="M228.559 15.2461H91.5801V18.4417H228.559V15.2461Z" fill="#E0E0E0"/>
<path d="M128.496 17.3631C128.307 17.3631 128.111 17.3631 127.922 17.3631C125.575 17.2193 123.443 16.1737 121.402 15.1608C120.398 14.6707 119.368 14.1675 118.331 13.7754C112.013 11.3836 105.135 12.769 97.467 14.6772L97.3105 14.0237C103.655 12.4488 111.557 10.4883 118.579 13.1415C119.648 13.5467 120.691 14.063 121.702 14.5531C123.808 15.5856 125.79 16.5528 128.007 16.69C130.615 16.8534 132.975 15.8535 135.505 14.7949C136.766 14.2361 138.06 13.7517 139.378 13.3441C145.135 11.6777 151.146 13.0762 156.982 14.4289C162.282 15.664 167.766 16.9449 173.027 15.8862C174.49 15.5496 175.931 15.1263 177.344 14.6184C179.407 13.8423 181.557 13.3221 183.746 13.0696C185.808 13.0053 187.87 13.1719 189.895 13.5663C192.3 13.9453 194.785 14.3374 197.164 13.88C199.229 13.3639 201.207 12.5447 203.032 11.449C203.789 11.0438 204.565 10.6256 205.347 10.2531C210.338 7.89273 215.92 7.08471 221.373 7.93319L221.275 8.58669C215.951 7.75655 210.501 8.54409 205.627 10.8478C204.864 11.2203 204.095 11.632 203.352 12.0306C201.471 13.1611 199.431 14.0025 197.301 14.5269C194.811 15.004 192.268 14.6053 189.803 14.2198C187.829 13.829 185.816 13.6645 183.805 13.7297C181.668 13.9788 179.571 14.4902 177.559 15.2523C176.099 15.7758 174.61 16.2122 173.099 16.5593C167.694 17.6441 162.145 16.3502 156.799 15.102C151.074 13.795 145.148 12.3835 139.554 14.0041C138.261 14.408 136.992 14.8836 135.752 15.4288C133.399 16.3371 131.052 17.3631 128.496 17.3631Z" fill="#E0E0E0"/>
<path d="M123.163 0H39.1262L33.8516 49.1557H117.888L123.163 0Z" fill="#E0E0E0"/>
<path d="M37.4766 45.8883L42.0536 3.26758H119.531L114.954 45.8883H37.4766Z" fill="#F5F5F5"/>
<path d="M202.838 0H286.874L292.149 49.1557H208.113L202.838 0Z" fill="#E0E0E0"/>
<path d="M288.523 45.8883L283.946 3.26758H206.469L211.046 45.8883H288.523Z" fill="#F5F5F5"/>
<path d="M91.2024 62.4478H93.8887C95.0507 62.4478 96.1651 62.9104 96.9868 63.734C97.8085 64.5576 98.2701 65.6745 98.2701 66.8392V220.488H86.8145V66.8392C86.8145 66.262 86.928 65.6904 87.1486 65.1572C87.3692 64.624 87.6925 64.1396 88.1001 63.7317C88.5076 63.3238 88.9914 63.0005 89.5237 62.7802C90.056 62.5599 90.6265 62.4469 91.2024 62.4478Z" fill="#EBEBEB"/>
<path d="M269.375 66.4404H98.2637V197.649H269.375V66.4404Z" fill="#F5F5F5"/>
<path d="M210.453 126.581L174.228 90.2734H98.2637V94.7564H172.377L208.602 131.064H275.099V126.581H210.453Z" fill="#EBEBEB"/>
<path d="M210.453 186.86L174.228 150.552H98.2637V155.035H172.377L208.602 191.343H269.375V186.86H210.453Z" fill="#FAFAFA"/>
<path d="M205.72 139.07L169.495 102.762H98.2637V107.245H167.643L203.868 143.553H275.099V139.07H205.72Z" fill="#EBEBEB"/>
<path d="M52.7657 76.7852H55.2041C56.2607 76.7852 57.274 77.2058 58.0211 77.9546C58.7681 78.7034 59.1879 79.719 59.1879 80.778V220.488H48.7559V80.778C48.7559 79.719 49.1756 78.7034 49.9227 77.9546C50.6698 77.2058 51.683 76.7852 52.7396 76.7852H52.7657Z" fill="#EBEBEB"/>
<path d="M86.8147 80.4121H59.1895V194.884H86.8147V80.4121Z" fill="#F5F5F5"/>
<path d="M86.8138 80.4121H82.3672V194.884H86.8138V80.4121Z" fill="#F0F0F0"/>
<path d="M273.761 62.4478H276.447C277.023 62.4478 277.592 62.5614 278.124 62.782C278.656 63.0027 279.139 63.3262 279.545 63.734C279.952 64.1418 280.275 64.6259 280.495 65.1587C280.715 65.6915 280.829 66.2625 280.829 66.8392V220.488H269.373V66.8392C269.373 66.262 269.487 65.6904 269.707 65.1572C269.928 64.624 270.251 64.1396 270.659 63.7317C271.066 63.3238 271.55 63.0005 272.082 62.7802C272.615 62.5599 273.185 62.4469 273.761 62.4478Z" fill="#EBEBEB"/>
<path d="M163 250C232.818 250 289.417 246.688 289.417 242.603C289.417 238.517 232.818 235.205 163 235.205C93.1825 235.205 36.584 238.517 36.584 242.603C36.584 246.688 93.1825 250 163 250Z" fill="#F5F5F5"/>
<path d="M145.48 27.8716C147.755 28.146 147.482 30.3418 145.662 30.9169C143.843 31.4919 137.004 31.1325 137.004 31.1325L145.48 27.8716Z" fill="#407BFF"/>
<path opacity="0.2" d="M145.48 27.8716C147.755 28.146 147.482 30.3418 145.662 30.9169C143.843 31.4919 137.004 31.1325 137.004 31.1325L145.48 27.8716Z" fill="black"/>
<path d="M122.028 33.5635C119.89 35.8834 119.674 42.3465 121.194 46.2347C122.713 50.123 128.913 51.6391 134.234 49.9008C139.554 48.1625 142.638 43.0326 142.638 43.0326C142.638 43.0326 143.29 44.4899 146.146 45.1042C145.82 43.0718 143.942 32.91 141.151 29.7145C138.361 26.5189 124.493 23.0684 122.028 33.5635Z" fill="#263238"/>
<path d="M123.476 47.705C119.056 49.6654 118.54 54.168 122.296 56.0239C126.052 57.8798 130.12 53.8086 129.344 50.0314C128.568 46.2542 123.476 47.705 123.476 47.705Z" fill="#263238"/>
<path d="M149.517 69.27L150.339 71.5572C150.625 72.3414 150.932 73.1126 151.238 73.8837C151.845 75.4324 152.497 76.9551 153.194 78.4581C153.892 79.9611 154.59 81.4184 155.398 82.7777C155.587 83.1306 155.802 83.4312 156.004 83.7906C156.205 84.1263 156.422 84.4513 156.656 84.7643L156.976 85.2414L157.061 85.359V85.3982L156.969 85.2936C156.801 85.1276 156.61 84.9867 156.402 84.8754C156.143 84.7385 155.859 84.6541 155.568 84.6271C155.446 84.6176 155.324 84.6176 155.203 84.6271C155.108 84.6321 155.014 84.6474 154.922 84.6728C154.635 84.7382 154.577 84.797 154.564 84.8101C154.726 84.7343 154.876 84.6328 155.007 84.5095C155.257 84.2908 155.497 84.0596 155.724 83.8167C156.254 83.2508 156.755 82.6575 157.224 82.0393C158.234 80.7715 159.18 79.3861 160.145 77.9876C162.035 75.1776 163.907 72.263 165.732 69.368L168.895 70.9037C167.662 74.2294 166.243 77.4825 164.643 80.6473C163.842 82.2418 162.968 83.8102 161.983 85.3917C161.481 86.1759 160.953 86.9535 160.327 87.7508C160.014 88.1494 159.675 88.5546 159.278 88.9728C158.802 89.4741 158.265 89.9132 157.68 90.2798C157.195 90.5696 156.667 90.7793 156.115 90.9006C155.92 90.9333 155.711 90.9594 155.515 90.979C155.285 90.9951 155.054 90.9951 154.824 90.979C154.318 90.922 153.827 90.769 153.377 90.5281C152.976 90.3164 152.613 90.0405 152.301 89.7112L152.099 89.4891L152.027 89.3976L151.91 89.2603L151.454 88.6918C151.134 88.3128 150.841 87.9338 150.567 87.5482C150.293 87.1626 149.993 86.7771 149.745 86.3784C148.713 84.8343 147.773 83.2304 146.929 81.5753C146.081 79.9481 145.325 78.3078 144.634 76.6218C144.301 75.7788 143.982 74.9358 143.662 74.0797C143.343 73.2236 143.062 72.3937 142.775 71.4658L149.517 69.27Z" fill="#CF7A64"/>
<path d="M146.087 62.5522C153.259 65.9307 153.37 75.6743 153.37 75.6743L144.529 79.9547C144.529 79.9547 139.189 71.7337 139.847 68.1526C140.532 64.4146 142.038 60.644 146.087 62.5522Z" fill="#407BFF"/>
<path opacity="0.2" d="M143.819 69.9234C145.377 70.8841 147.731 74.4979 148.885 77.8764L144.523 79.9937C144.523 79.9937 141.178 74.8246 140.115 70.8971C140.552 69.7208 141.85 68.7994 143.819 69.9234Z" fill="black"/>
<path d="M165.282 67.0679L168.105 64.186L171.476 69.1395C171.476 69.1395 168.665 72.6684 165.001 71.6489L164.623 69.0349C164.574 68.6784 164.609 68.3154 164.723 67.9743C164.837 67.6331 165.028 67.323 165.282 67.0679Z" fill="#CE7A63"/>
<path d="M171.111 61.2256L173.211 63.2449L171.489 69.1459L168.105 64.1859L171.111 61.2256Z" fill="#CE7A63"/>
<path d="M118.084 236.035L124.578 236.656L127.544 221.514L121.044 220.894L118.084 236.035Z" fill="#CE7A63"/>
<path d="M79.2559 218.796L84.7653 222.338L92.824 209.307L87.3211 205.765L79.2559 218.796Z" fill="#CE7A63"/>
<path d="M85.8875 220.599L81.1931 214.888C81.1134 214.798 81.0058 214.737 80.8875 214.716C80.7692 214.694 80.6472 214.713 80.5411 214.77L75.5012 217.848C75.3771 217.93 75.2718 218.038 75.1921 218.163C75.1124 218.289 75.06 218.43 75.0385 218.578C75.017 218.725 75.0267 218.876 75.0671 219.019C75.1075 219.162 75.1776 219.296 75.2729 219.41C76.9421 221.37 77.8483 222.233 79.9152 224.742C81.2192 226.285 83.775 229.885 85.5289 232.022C87.2828 234.159 89.48 232.525 88.9454 231.48C86.5199 226.794 86.2917 223.978 86.3374 221.678C86.3188 221.276 86.1595 220.894 85.8875 220.599Z" fill="#263238"/>
<path d="M125.393 234.688H117.569C117.429 234.692 117.294 234.74 117.184 234.826C117.073 234.912 116.993 235.031 116.956 235.166L115.261 241.348C115.218 241.494 115.211 241.648 115.24 241.797C115.268 241.946 115.331 242.087 115.424 242.207C115.517 242.327 115.636 242.424 115.773 242.489C115.91 242.555 116.061 242.587 116.212 242.583C118.957 242.583 120.261 242.583 123.691 242.583H134.169C137.018 242.583 137.611 239.701 136.431 239.439C131.15 238.263 128.105 236.649 126.468 235.107C126.175 234.836 125.791 234.687 125.393 234.688Z" fill="#263238"/>
<path opacity="0.2" d="M127.538 221.514L126.012 229.324H119.395L121.038 220.894L127.538 221.514Z" fill="black"/>
<path opacity="0.2" d="M87.316 205.765L92.8254 209.307L88.6657 216.025L83.1562 212.483L87.316 205.765Z" fill="black"/>
<path d="M148.167 66.4536C147.959 70.8059 146.537 80.5233 141.08 102.16L114.491 99.8601C115.874 89.0514 116.447 82.3596 113.188 59.6507C116.976 59.2029 120.791 59.0326 124.604 59.141C128.649 59.2006 132.684 59.55 136.679 60.1866C139.613 60.7159 142.814 61.5328 145.018 62.1471C145.955 62.3967 146.778 62.9601 147.351 63.7435C147.924 64.5269 148.212 65.4833 148.167 66.4536Z" fill="#407BFF"/>
<path opacity="0.2" d="M117.601 69.7017C118.749 72.1327 118.318 80.2817 115.567 83.1309C115.482 79.8635 115.221 76.0667 114.713 71.4007C115.033 70.9153 115.46 70.5097 115.96 70.2152C116.461 69.9207 117.022 69.745 117.601 69.7017Z" fill="black"/>
<path d="M128.952 71.995C128.683 71.994 128.423 71.8941 128.222 71.714C123.899 67.8519 119.746 62.526 120.828 59.9512C121.311 58.8141 122.784 58.3305 125.118 58.5201C125.146 58.5134 125.175 58.5134 125.203 58.5201L133.959 64.8262C133.979 64.839 133.995 64.8564 134.007 64.8769C134.018 64.8974 134.024 64.9204 134.025 64.9439C134.028 64.9677 134.025 64.9919 134.017 65.0145C134.009 65.0372 133.996 65.0577 133.979 65.0746C132.323 66.898 130.981 68.985 130.008 71.2501C129.934 71.4137 129.823 71.5579 129.684 71.6712C129.545 71.7846 129.381 71.8641 129.206 71.9036C129.126 71.9442 129.04 71.9749 128.952 71.995ZM124.173 58.8141C122.51 58.8141 121.487 59.2389 121.128 60.1211C120.144 62.4345 124.062 67.597 128.437 71.5049C128.53 71.5886 128.643 71.6484 128.764 71.6791C128.886 71.7098 129.013 71.7106 129.135 71.6814C129.262 71.6516 129.38 71.5915 129.478 71.5061C129.577 71.4208 129.654 71.3127 129.702 71.1913C130.665 68.9446 131.986 66.8699 133.614 65.0484L125.04 58.8795C124.74 58.8141 124.447 58.8141 124.173 58.8141Z" fill="white"/>
<path d="M138.972 72.1849H138.875C138.664 72.1658 138.463 72.0885 138.294 71.9615C138.125 71.8346 137.994 71.6631 137.916 71.466C137.034 69.254 135.818 67.191 134.311 65.3493C134.292 65.3285 134.279 65.303 134.273 65.2754C134.267 65.2478 134.269 65.2192 134.278 65.1925L136.045 59.677C136.059 59.641 136.084 59.6106 136.117 59.5906C136.15 59.5705 136.189 59.5618 136.227 59.5659C138.744 59.9711 140.433 61.0755 141.254 62.8334C142.526 65.5977 141.333 69.2834 139.95 71.5967C139.855 71.7735 139.714 71.9213 139.542 72.0247C139.37 72.1282 139.173 72.1835 138.972 72.1849ZM134.617 65.2252C136.118 67.0717 137.333 69.1336 138.223 71.3419C138.274 71.4786 138.362 71.5984 138.477 71.6883C138.592 71.7782 138.73 71.8347 138.875 71.8516C139.021 71.8682 139.169 71.8418 139.301 71.7757C139.433 71.7096 139.543 71.6066 139.618 71.4791C140.987 69.2311 142.154 65.6696 140.922 63.0229C140.159 61.3696 138.601 60.3371 136.273 59.9319L134.617 65.2252Z" fill="white"/>
<path d="M127.002 45.6138C127.426 49.5739 127.569 56.7754 124.629 59.1411C124.629 59.1411 127.772 62.3562 134.129 65.9047C138.751 62.7026 136.704 60.1866 136.704 60.1866C132.459 58.7751 132.851 55.5599 133.868 52.5996L127.002 45.6138Z" fill="#CE7A63"/>
<path opacity="0.2" d="M129.799 48.4697L133.867 52.5998C133.616 53.2868 133.428 53.9956 133.307 54.7171C131.67 54.3316 129.303 52.6325 129.277 50.8746C129.307 50.0482 129.484 49.2338 129.799 48.4697Z" fill="black"/>
<path d="M123.526 39.4316C125.176 45.7574 125.737 48.4694 129.61 51.116C135.432 55.1023 142.819 51.6911 143.093 44.9993C143.334 38.9807 140.602 29.6488 133.848 28.3288C132.36 28.032 130.821 28.1214 129.378 28.5883C127.934 29.0552 126.633 29.8842 125.599 30.9966C124.565 32.109 123.832 33.4678 123.469 34.9441C123.106 36.4204 123.126 37.9651 123.526 39.4316Z" fill="#CE7A63"/>
<path d="M124.628 43.1827C131.918 40.3858 136.045 31.7858 136.045 31.7858L140.707 32.8379C140.707 32.8379 138.998 27.7864 133.867 27.61C128.736 27.4336 125.391 27.9694 122.718 33.8901C120.045 39.8107 124.628 43.1827 124.628 43.1827Z" fill="#263238"/>
<path d="M120.823 38.556C126.447 34.6913 132.548 31.5763 138.974 29.2895C139.146 29.2327 139.288 29.1101 139.37 28.9485C139.452 28.7869 139.467 28.5994 139.411 28.4269C138.87 26.767 137.312 23.8525 136.242 23.3493C135.01 22.7938 127.929 22.2776 124.663 23.6564C121.396 25.0353 118.143 30.2763 117.686 31.4983C117.308 32.4524 118.951 36.7263 119.819 38.3469C119.867 38.4313 119.932 38.5044 120.011 38.5615C120.089 38.6186 120.179 38.6584 120.274 38.6782C120.368 38.6979 120.467 38.6973 120.561 38.6762C120.656 38.6552 120.745 38.6142 120.823 38.556Z" fill="#407BFF"/>
<path d="M137.252 27.8193L133.458 28.8453C133.34 28.8453 133.197 28.7865 133.112 28.6166L132.186 26.8914C132.056 26.6365 132.102 26.3359 132.278 26.2901L136.079 25.2642C136.196 25.2642 136.333 25.323 136.424 25.4929L137.344 27.2181C137.481 27.4468 137.435 27.7736 137.252 27.8193Z" fill="white"/>
<path d="M126.344 35.0861C131.56 33.4458 137.48 33.3021 139.631 31.8513C141.783 30.4006 141.014 29.5379 145.499 27.8715C143.447 27.6761 141.378 27.8018 139.364 28.244C139.364 28.244 128.391 32.4721 126.344 35.0861Z" fill="#407BFF"/>
<path d="M123.007 44.797C123.597 45.9137 124.605 46.7503 125.81 47.1235C127.408 47.607 128.242 46.1824 127.825 44.6467C127.453 43.2679 126.162 41.3793 124.565 41.5426C124.21 41.5881 123.871 41.7219 123.581 41.932C123.291 42.142 123.058 42.4215 122.903 42.7451C122.748 43.0686 122.676 43.4259 122.694 43.7843C122.712 44.1427 122.82 44.4909 123.007 44.797Z" fill="#CE7A63"/>
<path d="M141.079 102.16C141.079 102.16 150.076 142.023 144.071 170.176C140.048 189.009 128.743 227.03 128.743 227.03L118.598 226.762C118.598 226.762 125.183 186.833 127.452 171.13C131.364 144.265 121.584 100.468 121.584 100.468L141.079 102.16Z" fill="#263238"/>
<path opacity="0.2" d="M130.706 110.218L125.033 119.184C126.75 129.814 127.839 140.537 128.293 151.296C136.267 136.985 132.479 117.792 130.706 110.218Z" fill="black"/>
<path d="M129.455 227.651L117.354 227.291L118.162 222.978L130.55 223.658L129.455 227.651Z" fill="#407BFF"/>
<path d="M135.271 101.736C135.271 101.736 129.351 143.474 118.58 166.895C109.889 185.807 92.0433 213.947 92.0433 213.947L83.8477 210.026C83.8477 210.026 94.6187 181.926 102.756 164.392C117.367 132.875 104.966 111.041 114.492 99.8862L135.271 101.736Z" fill="#263238"/>
<path d="M92.4717 215.653L82.4961 210.203L84.1 205.929L94.7341 211.902L92.4717 215.653Z" fill="#407BFF"/>
<path d="M114.224 98.2591L112.796 100.54C112.686 100.716 112.888 100.925 113.194 100.951L141.087 103.369C141.321 103.369 141.53 103.291 141.563 103.141L142.006 100.775C142.006 100.612 141.843 100.455 141.582 100.429L114.655 98.0957C114.575 98.0871 114.495 98.0974 114.42 98.1258C114.345 98.1542 114.278 98.1999 114.224 98.2591Z" fill="#407BFF"/>
<path d="M117.581 101.592L116.863 101.527C116.72 101.527 116.616 101.435 116.635 101.344L117.235 98.2722C117.235 98.1807 117.385 98.1219 117.528 98.1284L118.252 98.1938C118.396 98.1938 118.5 98.2918 118.48 98.3767L117.874 101.448C117.854 101.54 117.724 101.605 117.581 101.592Z" fill="#263238"/>
<path d="M139.057 103.454L138.34 103.389C138.196 103.389 138.092 103.291 138.112 103.206L138.718 100.135C138.718 100.043 138.862 99.9779 139.005 99.9909L139.729 100.056C139.872 100.056 139.976 100.154 139.957 100.239L139.351 103.311C139.337 103.402 139.201 103.468 139.057 103.454Z" fill="#263238"/>
<path d="M128.319 102.52L127.602 102.461C127.458 102.461 127.354 102.363 127.373 102.271L127.973 99.1999C127.973 99.115 128.123 99.0496 128.267 99.0627L128.99 99.1215C129.134 99.1215 129.238 99.2195 129.219 99.311L128.612 102.382C128.599 102.474 128.443 102.533 128.319 102.52Z" fill="#263238"/>
<path d="M134.207 39.2095C134.311 39.7323 134.67 40.1047 135.009 40.0329C135.348 39.961 135.543 39.4905 135.439 38.9677C135.335 38.4449 134.983 38.0789 134.644 38.1443C134.305 38.2096 134.109 38.6932 134.207 39.2095Z" fill="#263238"/>
<path d="M140.089 38.0527C140.193 38.5755 140.552 38.9415 140.891 38.8761C141.23 38.8108 141.425 38.3337 141.321 37.8109C141.217 37.2881 140.858 36.9222 140.519 36.9875C140.18 37.0529 139.984 37.5299 140.089 38.0527Z" fill="#263238"/>
<path d="M140.375 37.0467L141.555 36.439C141.555 36.439 141.105 37.5434 140.375 37.0467Z" fill="#263238"/>
<path d="M138.066 39.3535C138.763 40.4517 139.608 41.4479 140.577 42.3138C140.349 42.5562 140.071 42.746 139.762 42.8701C139.454 42.9942 139.122 43.0497 138.79 43.0327L138.066 39.3535Z" fill="#BA4D3C"/>
<path d="M136.385 45.5158C135.288 45.5303 134.228 45.1261 133.418 44.3853C133.394 44.3609 133.381 44.328 133.381 44.2938C133.381 44.2596 133.394 44.2268 133.418 44.2023C133.43 44.1897 133.444 44.1795 133.46 44.1726C133.475 44.1657 133.492 44.1621 133.509 44.1621C133.527 44.1621 133.544 44.1657 133.559 44.1726C133.575 44.1795 133.589 44.1897 133.601 44.2023C134.099 44.6417 134.693 44.9576 135.335 45.1244C135.977 45.2913 136.649 45.3045 137.298 45.163C137.332 45.1571 137.367 45.1646 137.397 45.1841C137.426 45.2035 137.446 45.2334 137.454 45.2675C137.46 45.3013 137.452 45.3359 137.432 45.364C137.413 45.3921 137.383 45.4115 137.35 45.4178C137.032 45.4801 136.709 45.5129 136.385 45.5158Z" fill="#263238"/>
<path d="M130.679 37.1902C130.631 37.1895 130.584 37.176 130.543 37.151C130.486 37.1147 130.445 37.0575 130.429 36.9917C130.413 36.9259 130.424 36.8565 130.458 36.7981C130.701 36.3788 131.04 36.0234 131.447 35.761C131.854 35.4985 132.317 35.3366 132.798 35.2886C132.868 35.2886 132.934 35.3161 132.983 35.3651C133.032 35.4142 133.059 35.4806 133.059 35.55C133.059 35.6193 133.032 35.6858 132.983 35.7348C132.934 35.7838 132.868 35.8114 132.798 35.8114C132.401 35.8546 132.02 35.9922 131.687 36.2126C131.354 36.4331 131.077 36.7302 130.882 37.0791C130.858 37.1113 130.828 37.1379 130.793 37.157C130.758 37.1762 130.719 37.1876 130.679 37.1902Z" fill="#263238"/>
<path d="M141.717 35.1055C141.677 35.1143 141.634 35.1143 141.594 35.1055C141.249 34.9023 140.863 34.7824 140.465 34.7552C140.066 34.728 139.667 34.7942 139.298 34.9486C139.269 34.9656 139.237 34.9763 139.203 34.9802C139.17 34.9841 139.136 34.981 139.103 34.9712C139.071 34.9614 139.041 34.9451 139.015 34.9232C138.989 34.9014 138.968 34.8744 138.953 34.8441C138.92 34.7833 138.913 34.7122 138.933 34.6461C138.952 34.58 138.997 34.5243 139.057 34.4912C139.501 34.2916 139.986 34.2016 140.472 34.2289C140.957 34.2562 141.429 34.3999 141.848 34.648C141.907 34.6823 141.95 34.7384 141.969 34.8044C141.987 34.8704 141.979 34.941 141.946 35.0009C141.919 35.0362 141.885 35.0642 141.845 35.0825C141.805 35.1008 141.761 35.1087 141.717 35.1055Z" fill="#263238"/>
<path d="M115.899 70.4987C114.901 73.4983 113.904 76.6285 113.049 79.6476C112.632 81.1703 112.241 82.6864 111.974 84.1175C111.855 84.7657 111.774 85.4203 111.732 86.078C111.732 86.3328 111.732 86.5485 111.732 86.5485C111.682 86.4428 111.626 86.3402 111.563 86.2414L111.504 86.1629V86.2022C111.518 86.2327 111.535 86.2613 111.556 86.2871C111.772 86.5668 112.052 86.7909 112.371 86.9406C112.876 87.1777 113.412 87.3427 113.962 87.4307C115.36 87.6505 116.779 87.6966 118.187 87.5679C119.734 87.4525 121.273 87.2496 122.797 86.9602C124.349 86.6988 125.946 86.3067 127.439 85.9538L128.743 89.2213C125.658 90.8558 122.369 92.0711 118.963 92.8351C117.109 93.2475 115.208 93.4101 113.31 93.3187C112.214 93.2486 111.133 93.0287 110.096 92.6652C108.859 92.232 107.741 91.5109 106.836 90.5609C106.714 90.4387 106.599 90.31 106.49 90.1754L106.327 89.9663C106.293 89.9302 106.262 89.8908 106.236 89.8486L106.099 89.6395C105.811 89.1934 105.591 88.7066 105.447 88.1953C105.274 87.5552 105.173 86.8975 105.147 86.2348C105.11 85.2286 105.156 84.2209 105.284 83.2222C105.499 81.4624 105.817 79.7168 106.236 77.9943C107.026 74.6697 108.017 71.3963 109.203 68.1919L115.899 70.4987Z" fill="#CF7A64"/>
<path d="M126.143 87.2541L128.594 81.915L132.258 86.398C132.258 86.398 130.172 89.6655 127.44 89.6197L126.143 87.2541Z" fill="#CE7A63"/>
<path d="M131.358 80.3208L134.82 83.9542L132.258 86.4048L128.594 81.9153L131.358 80.3208Z" fill="#CE7A63"/>
<path d="M113.213 59.6507C105.949 60.827 105.949 73.1388 105.949 73.1388L115.892 78.9483C115.892 78.9483 120.137 69.904 119.804 65.6497C119.491 62.0359 117.359 58.9776 113.213 59.6507Z" fill="#407BFF"/>
<path d="M87.7595 223.788C87.673 223.801 87.5851 223.801 87.4986 223.788C86.6902 223.671 85.9208 222.338 85.5426 221.56C85.5301 221.538 85.5234 221.513 85.5234 221.488C85.5234 221.463 85.5301 221.438 85.5426 221.416C85.5592 221.397 85.581 221.383 85.6053 221.376C85.6296 221.369 85.6554 221.369 85.6796 221.377C85.9339 221.455 88.1832 222.174 88.4049 222.971C88.4275 223.059 88.4267 223.151 88.4027 223.238C88.3787 223.325 88.3322 223.405 88.268 223.468C88.1368 223.626 87.9586 223.739 87.7595 223.788ZM85.9143 221.73C86.475 222.802 87.0748 223.468 87.5378 223.533C87.6426 223.547 87.7491 223.532 87.8464 223.491C87.9438 223.449 88.0285 223.383 88.092 223.298C88.1268 223.268 88.1522 223.229 88.1649 223.185C88.1777 223.141 88.1772 223.094 88.1637 223.05C88.0202 222.56 86.7163 221.998 85.9143 221.73Z" fill="#407BFF"/>
<path d="M87.7068 221.73C87.0084 221.853 86.2915 221.819 85.6074 221.632C85.5861 221.622 85.5674 221.608 85.5527 221.59C85.538 221.572 85.5277 221.55 85.5226 221.527C85.5197 221.506 85.5224 221.483 85.5304 221.463C85.5383 221.442 85.5514 221.424 85.5683 221.41C85.6335 221.357 87.0874 220.162 88.0198 220.312C88.1342 220.328 88.2436 220.37 88.3404 220.433C88.4372 220.496 88.5192 220.58 88.5805 220.678C88.6557 220.77 88.6968 220.885 88.6968 221.005C88.6968 221.124 88.6557 221.239 88.5805 221.331C88.3416 221.558 88.0342 221.698 87.7068 221.73ZM85.9334 221.456C86.6832 221.625 88.0589 221.554 88.3784 221.161C88.4371 221.096 88.4827 220.998 88.3784 220.815C88.3363 220.748 88.28 220.691 88.2135 220.648C88.1471 220.605 88.072 220.577 87.9937 220.567C87.3678 220.462 86.3507 221.142 85.9334 221.456Z" fill="#407BFF"/>
<path d="M128.854 235.957C128.135 235.942 127.42 235.85 126.722 235.682C126.695 235.678 126.671 235.664 126.653 235.644C126.635 235.624 126.625 235.598 126.624 235.571C126.621 235.545 126.626 235.518 126.639 235.494C126.652 235.471 126.672 235.452 126.695 235.44C127.015 235.29 129.845 233.983 130.555 234.46C130.62 234.505 130.671 234.566 130.703 234.637C130.735 234.709 130.747 234.788 130.738 234.865C130.734 235.009 130.697 235.149 130.631 235.276C130.564 235.403 130.469 235.513 130.353 235.597C129.902 235.869 129.378 235.995 128.854 235.957ZM127.165 235.512C128.006 235.669 129.558 235.872 130.197 235.388C130.284 235.329 130.356 235.249 130.406 235.156C130.456 235.062 130.483 234.958 130.484 234.852C130.491 234.819 130.488 234.784 130.475 234.753C130.462 234.722 130.44 234.695 130.412 234.676C130.014 234.408 128.339 234.996 127.139 235.512H127.165Z" fill="#407BFF"/>
<path d="M126.749 235.689C126.72 235.688 126.692 235.676 126.671 235.656C126.653 235.641 126.639 235.622 126.631 235.6C126.623 235.578 126.621 235.555 126.625 235.532C126.625 235.408 127.277 232.617 128.829 232.794C129.214 232.839 129.318 233.029 129.337 233.179C129.435 233.892 127.655 235.329 126.801 235.676L126.749 235.689ZM128.705 233.042C127.72 233.042 127.153 234.669 126.964 235.323C127.883 234.839 129.155 233.669 129.096 233.218C129.096 233.186 129.096 233.081 128.809 233.049L128.705 233.042Z" fill="#407BFF"/>
<path d="M134.494 38.2033L135.674 37.6021C135.674 37.6021 135.224 38.7064 134.494 38.2033Z" fill="#263238"/>
<path d="M183.976 83.9216H186.173C186.322 83.9298 186.472 83.8983 186.605 83.8304C186.739 83.7625 186.853 83.6605 186.935 83.5347C187.016 83.4089 187.064 83.2636 187.072 83.1136C187.08 82.9636 187.049 82.814 186.981 82.68L185.619 78.759C185.485 78.4167 185.259 78.1188 184.965 77.8992C184.671 77.6797 184.321 77.5474 183.956 77.5174H181.752C181.603 77.5092 181.453 77.5406 181.32 77.6086C181.186 77.6765 181.072 77.7785 180.99 77.9043C180.908 78.0301 180.861 78.1754 180.853 78.3254C180.845 78.4754 180.876 78.625 180.944 78.759L182.306 82.68C182.44 83.0232 182.668 83.3218 182.963 83.5414C183.258 83.761 183.609 83.8928 183.976 83.9216Z" fill="black"/>
<path d="M184.979 83.9216H187.177C187.326 83.9298 187.476 83.8983 187.609 83.8304C187.743 83.7625 187.857 83.6605 187.938 83.5347C188.02 83.4089 188.068 83.2636 188.076 83.1136C188.084 82.9636 188.053 82.814 187.985 82.68L186.622 78.759C186.489 78.4167 186.263 78.1188 185.969 77.8992C185.675 77.6797 185.325 77.5474 184.96 77.5174H182.756C182.606 77.5092 182.457 77.5406 182.323 77.6086C182.19 77.6765 182.076 77.7785 181.994 77.9043C181.912 78.0301 181.865 78.1754 181.857 78.3254C181.849 78.4754 181.88 78.625 181.948 78.759L183.317 82.68C183.45 83.0223 183.677 83.3202 183.97 83.5398C184.264 83.7593 184.614 83.8916 184.979 83.9216Z" fill="#263238"/>
<path d="M190.032 83.9216H187.828C187.679 83.9298 187.529 83.8983 187.396 83.8304C187.262 83.7625 187.149 83.6605 187.067 83.5347C186.985 83.4089 186.937 83.2636 186.929 83.1136C186.921 82.9636 186.952 82.814 187.02 82.68L188.389 78.759C188.522 78.4167 188.749 78.1188 189.043 77.8992C189.337 77.6797 189.686 77.5474 190.052 77.5174H192.249C192.399 77.5092 192.548 77.5406 192.682 77.6086C192.815 77.6765 192.929 77.7785 193.011 77.9043C193.093 78.0301 193.14 78.1754 193.148 78.3254C193.157 78.4754 193.125 78.625 193.057 78.759L191.695 82.68C191.562 83.0223 191.335 83.3202 191.041 83.5398C190.747 83.7593 190.398 83.8916 190.032 83.9216Z" fill="black"/>
<path d="M191.037 83.9216H188.84C188.69 83.9298 188.541 83.8983 188.408 83.8304C188.274 83.7625 188.16 83.6605 188.078 83.5347C187.996 83.4089 187.949 83.2636 187.941 83.1136C187.933 82.9636 187.964 82.814 188.032 82.68L189.394 78.759C189.528 78.4167 189.754 78.1188 190.048 77.8992C190.342 77.6797 190.692 77.5474 191.057 77.5174H193.261C193.41 77.5092 193.56 77.5406 193.693 77.6086C193.827 77.6765 193.941 77.7785 194.022 77.9043C194.104 78.0301 194.152 78.1754 194.16 78.3254C194.168 78.4754 194.137 78.625 194.069 78.759L192.7 82.68C192.567 83.0223 192.34 83.3202 192.046 83.5398C191.752 83.7593 191.403 83.8916 191.037 83.9216Z" fill="#263238"/>
<path d="M192.027 80.0921H189.263L179.776 79.0139C179.133 78.9394 178.539 78.6332 178.105 78.1522C177.671 77.6713 177.426 77.0485 177.416 76.3999V70.1656C177.416 69.6092 177.637 69.0757 178.029 68.6823C178.422 68.2889 178.954 68.0679 179.509 68.0679H192.027C192.266 68.0679 192.495 68.1629 192.664 68.332C192.832 68.5011 192.927 68.7305 192.927 68.9697V79.223C192.919 79.4565 192.82 79.6775 192.652 79.8396C192.484 80.0018 192.26 80.0923 192.027 80.0921Z" fill="black"/>
<path d="M195.64 68.0352H190.163C189.667 68.0352 189.264 68.4389 189.264 68.937V79.1903C189.264 79.6883 189.667 80.0921 190.163 80.0921H195.64C196.137 80.0921 196.54 79.6883 196.54 79.1903V68.937C196.54 68.4389 196.137 68.0352 195.64 68.0352Z" fill="#263238"/>
<path d="M196.539 73.7923L185.168 75.0993V68.9434H196.539V73.7923Z" fill="black"/>
<path d="M198.144 72.6811H192.028L171.06 70.2959C169.625 70.1351 168.299 69.4495 167.337 68.3704C166.374 67.2914 165.843 65.8945 165.844 64.4471V50.6715C165.843 50.0625 165.962 49.4593 166.194 48.8965C166.426 48.3336 166.766 47.822 167.195 47.3911C167.625 46.9602 168.135 46.6183 168.696 46.385C169.257 46.1518 169.859 46.0317 170.466 46.0317H198.144C198.663 46.0317 199.16 46.2383 199.527 46.6059C199.894 46.9736 200.1 47.4723 200.1 47.9922V70.6619C200.108 70.9242 200.063 71.1855 199.968 71.4302C199.873 71.6749 199.731 71.898 199.548 72.0863C199.366 72.2746 199.147 72.4243 198.906 72.5265C198.665 72.6287 198.406 72.6813 198.144 72.6811Z" fill="black"/>
<path d="M157.002 46.032H151.134L147.092 31.6943H157.002V46.032Z" fill="black"/>
<path d="M175.617 38.8633H169.684V40.3336H175.617V38.8633Z" fill="black"/>
<path d="M155.041 46.0317H172.645V31.6941H155.041V46.0317Z" fill="#263238"/>
<path d="M166.998 54.7497H164.064L155.047 38.8633H157.981L166.998 54.7497Z" fill="black"/>
<path d="M184.602 54.7497H181.668L172.65 38.8633H175.584L184.602 54.7497Z" fill="black"/>
<path d="M157.98 38.8633H152.047V40.3336H157.98V38.8633Z" fill="black"/>
<path d="M206.124 46.0317H194.009C192.915 46.0317 192.027 46.9212 192.027 48.0184V70.6945C192.027 71.7917 192.915 72.6811 194.009 72.6811H206.124C207.218 72.6811 208.106 71.7917 208.106 70.6945V48.0184C208.106 46.9212 207.218 46.0317 206.124 46.0317Z" fill="#263238"/>
<path d="M200.817 54.0244H231.95V64.6959H200.817C199.568 64.6959 198.371 64.1988 197.488 63.314C196.605 62.4292 196.109 61.2291 196.109 59.9777V58.7426C196.109 57.4913 196.605 56.2912 197.488 55.4063C198.371 54.5215 199.568 54.0244 200.817 54.0244Z" fill="black"/>
<path d="M221.57 59.3569C221.57 61.7833 220.608 64.1104 218.897 65.8261C217.185 67.5419 214.863 68.5058 212.442 68.5058C207.402 68.5058 205.322 64.4149 205.322 59.3569C205.322 54.2989 207.402 50.208 212.442 50.208C214.863 50.208 217.185 51.1719 218.897 52.8877C220.608 54.6034 221.57 56.9305 221.57 59.3569Z" fill="#263238"/>
<path d="M216.634 70.6162L211.972 67.486C211.464 67.1439 211.048 66.6818 210.76 66.1405C210.472 65.5992 210.322 64.9952 210.322 64.3819V54.3312C210.322 53.7178 210.472 53.1139 210.76 52.5725C211.048 52.0312 211.464 51.5691 211.972 51.2271L216.634 48.1034C216.806 47.9847 217.011 47.921 217.22 47.9204H238.508C238.79 47.922 239.059 48.0347 239.258 48.2341L243.046 52.0243C243.243 52.2273 243.353 52.4993 243.353 52.7824V65.9372C243.353 66.2183 243.243 66.4882 243.046 66.6887L239.258 70.479C239.16 70.5789 239.044 70.6581 238.915 70.712C238.786 70.7658 238.648 70.7933 238.508 70.7926H217.22C217.012 70.7944 216.807 70.7329 216.634 70.6162Z" fill="black"/>
<path d="M219.901 70.479L216.12 66.6887C215.921 66.4892 215.808 66.2192 215.807 65.9372V52.7824C215.809 52.4985 215.921 52.2266 216.12 52.0243L219.901 48.2341C220.103 48.0349 220.374 47.9224 220.658 47.9204H241.821C242.105 47.9224 242.376 48.0349 242.578 48.2341L246.359 52.0243C246.459 52.1237 246.538 52.2418 246.592 52.372C246.645 52.5021 246.673 52.6416 246.672 52.7824V65.9372C246.673 66.0771 246.646 66.2156 246.592 66.3447C246.538 66.4738 246.459 66.5908 246.359 66.6887L242.578 70.479C242.479 70.5787 242.361 70.6579 242.231 70.7117C242.101 70.7655 241.962 70.793 241.821 70.7926H220.658C220.517 70.793 220.378 70.7655 220.248 70.7117C220.118 70.6579 220 70.5787 219.901 70.479Z" fill="#263238"/>
<path opacity="0.5" d="M241.457 68.8321H221.03L217.77 65.5647V53.1483C219.074 51.8413 219.758 51.1878 221.03 49.8809H241.463C242.735 51.1878 243.419 51.8413 244.723 53.1483V65.5647L241.457 68.8321Z" fill="#407BFF"/>
<path d="M231.239 67.3621C235.65 67.3621 239.226 63.778 239.226 59.3568C239.226 54.9356 235.65 51.3516 231.239 51.3516C226.828 51.3516 223.252 54.9356 223.252 59.3568C223.252 63.778 226.828 67.3621 231.239 67.3621Z" fill="#263238"/>
<path opacity="0.7" d="M228.721 53.4619C228.092 53.4608 227.467 53.5623 226.87 53.7625C225.996 54.4089 225.286 55.2518 224.797 56.2234C224.308 57.195 224.053 58.2681 224.053 59.3564C224.053 60.4447 224.308 61.5179 224.797 62.4894C225.286 63.461 225.996 64.3039 226.87 64.9503C227.467 65.1505 228.092 65.252 228.721 65.2509C230.278 65.2509 231.77 64.6313 232.871 63.5283C233.971 62.4253 234.589 60.9293 234.589 59.3695C234.589 57.8096 233.971 56.3137 232.871 55.2107C231.77 54.1077 230.278 53.4881 228.721 53.4881V53.4619Z" fill="#407BFF"/>
<path d="M233.079 57.4616C233.079 57.9282 232.94 58.3843 232.682 58.7723C232.423 59.1603 232.056 59.4626 231.626 59.6412C231.195 59.8197 230.722 59.8665 230.266 59.7754C229.809 59.6844 229.39 59.4597 229.06 59.1298C228.731 58.7999 228.507 58.3795 228.416 57.9219C228.326 57.4643 228.372 56.9899 228.55 56.5589C228.728 56.1278 229.03 55.7593 229.417 55.5001C229.804 55.2409 230.259 55.1025 230.725 55.1025C231.349 55.1025 231.948 55.3511 232.389 55.7935C232.831 56.2359 233.079 56.836 233.079 57.4616Z" fill="#407BFF"/>
<path d="M186.655 63.9247L164.781 57.3506C164.368 57.233 164.005 56.9824 163.748 56.6375C163.491 56.2927 163.355 55.8727 163.36 55.4424V51.1554C163.36 50.6251 163.57 50.1165 163.944 49.7415C164.318 49.3664 164.825 49.1558 165.355 49.1558H187.229C187.758 49.1558 188.266 49.3664 188.64 49.7415C189.014 50.1165 189.224 50.6251 189.224 51.1554V62.01C189.224 62.3217 189.151 62.6291 189.012 62.9076C188.872 63.1861 188.669 63.4281 188.42 63.6141C188.17 63.8001 187.881 63.9251 187.574 63.979C187.268 64.0329 186.953 64.0143 186.655 63.9247Z" fill="#407BFF"/>
<path d="M185.495 63.9247L163.614 57.3506C163.202 57.2318 162.841 56.9807 162.585 56.6359C162.33 56.2912 162.194 55.8718 162.199 55.4424V51.1554C162.198 50.6313 162.402 50.1276 162.768 49.7533C163.134 49.379 163.632 49.1644 164.155 49.1558H186.036C186.564 49.1575 187.07 49.3689 187.443 49.7438C187.816 50.1186 188.025 50.6262 188.025 51.1554V62.01C188.025 62.3177 187.953 62.6212 187.816 62.8966C187.679 63.172 187.48 63.4119 187.235 63.5973C186.99 63.7828 186.705 63.9089 186.403 63.9657C186.102 64.0225 185.791 64.0084 185.495 63.9247Z" fill="#263238"/>
<path d="M163.359 60.5527V62.1406C163.357 62.396 163.438 62.645 163.59 62.8502C163.742 63.0553 163.956 63.2054 164.2 63.2777L187.673 70.3354C187.849 70.3881 188.035 70.399 188.216 70.3672C188.398 70.3354 188.569 70.2617 188.717 70.152C188.865 70.0424 188.986 69.8997 189.069 69.7353C189.153 69.571 189.197 69.3894 189.198 69.2049V67.6104C189.198 67.3547 189.115 67.106 188.962 66.9012C188.81 66.6964 188.595 66.5463 188.351 66.4733L164.879 59.4156C164.702 59.3625 164.516 59.3516 164.334 59.3838C164.153 59.416 163.981 59.4903 163.833 59.6008C163.686 59.7114 163.566 59.855 163.484 60.0203C163.401 60.1856 163.359 60.3679 163.359 60.5527Z" fill="#407BFF"/>
<path d="M193.547 81.2881H180.357V94.2142H193.547C195.947 94.2142 197.831 91.3715 197.831 87.7511C197.831 84.1308 195.947 81.2881 193.547 81.2881Z" fill="#263238"/>
<path d="M180.356 94.2142C177.957 94.2142 176.072 91.3715 176.072 87.7511C176.072 84.1308 177.957 81.2881 180.356 81.2881C182.755 81.2881 184.633 84.1242 184.633 87.7511C184.633 91.378 182.749 94.2142 180.356 94.2142Z" fill="#407BFF"/>
<path d="M180.356 92.9068C181.998 92.9068 183.329 90.5984 183.329 87.7508C183.329 84.9032 181.998 82.5947 180.356 82.5947C178.714 82.5947 177.383 84.9032 177.383 87.7508C177.383 90.5984 178.714 92.9068 180.356 92.9068Z" fill="#263238"/>
<path d="M187.249 95.9062C183.565 95.9062 180.442 97.6576 179.366 100.082C179.271 100.286 179.229 100.511 179.246 100.735C179.262 100.96 179.337 101.176 179.461 101.364C179.586 101.551 179.757 101.703 179.957 101.805C180.158 101.907 180.381 101.955 180.605 101.945H193.9C194.123 101.954 194.346 101.905 194.545 101.802C194.745 101.7 194.915 101.548 195.039 101.361C195.163 101.174 195.236 100.958 195.252 100.734C195.269 100.51 195.227 100.285 195.132 100.082C194.049 97.6576 190.926 95.9062 187.249 95.9062Z" fill="#263238"/>
<path d="M192.661 94.2139H181.837C181.02 94.2139 180.357 94.878 180.357 95.6973V96.867C180.357 97.6863 181.02 98.3505 181.837 98.3505H192.661C193.478 98.3505 194.141 97.6863 194.141 96.867V95.6973C194.141 94.878 193.478 94.2139 192.661 94.2139Z" fill="black"/>
<path d="M164.2 242.602H162.113L180.597 101.945H182.684L164.2 242.602Z" fill="#263238"/>
<path d="M177.768 242.602H175.682L184.92 101.945H187.007L177.768 242.602Z" fill="#263238"/>
<path d="M210.29 242.602H212.377L193.892 101.945H191.812L210.29 242.602Z" fill="#263238"/>
<path d="M196.919 242.602H198.809L189.57 101.945H187.68L196.919 242.602Z" fill="#263238"/>
<path d="M160.217 99.5595L159.062 98.9517L173.23 72.0278H178.186V73.3348H174.013L160.217 99.5595Z" fill="black"/>
<path d="M163.132 89.7871L157.898 99.728L160.205 100.948L165.439 91.007L163.132 89.7871Z" fill="#407BFF"/>
</svg>
