<svg width="1439" height="846" viewBox="0 0 1439 846" fill="none" xmlns="http://www.w3.org/2000/svg">
<path d="M253.834 2.59622L378.115 203.72M378.115 203.72L757.949 109.942L1243.42 723.288L1142.06 834.226L1 268.366M378.115 203.72L380.057 556.484L928.448 741.645L1438 79.2147M1 115.928L170.333 75.6232L729.986 275.948L1114.87 32.9244L1438 237.639M1223.62 1L86.4432 741.645L1 598.783M165.284 845L778.534 795.916M778.534 795.916L1122.64 187.757L1436.06 525.357M778.534 795.916L789.02 843.803M1436.06 431.979L1287.7 522.963L1435.67 809.883" stroke="black" stroke-opacity="0.1"/>
</svg>
