<svg width="259" height="46" viewBox="0 0 259 46" fill="none" xmlns="http://www.w3.org/2000/svg">
<path d="M13.9954 15.3733C15.1176 15.4443 16.0984 15.675 16.9378 16.0655C17.7772 16.447 18.4222 16.9705 18.8729 17.636C19.3323 18.2927 19.5621 19.0647 19.5621 19.952C19.5621 21.8332 18.917 23.2396 17.627 24.1713C16.3458 25.0942 14.4019 25.5556 11.7953 25.5556H1.90781C1.77527 25.5556 1.66482 25.4758 1.57646 25.316C1.49694 25.1563 1.45717 25.0099 1.45717 24.8768C1.45717 24.726 1.4881 24.6106 1.54995 24.5307C1.6118 24.4509 1.72667 24.4021 1.89455 24.3843C2.53958 24.34 3.08741 24.2556 3.53804 24.1314C3.98868 23.9983 4.214 23.7986 4.214 23.5325L4.22725 9.13082C4.22725 8.77588 4.10355 8.50971 3.85614 8.33224C3.60873 8.15477 3.32598 8.03937 3.00789 7.98616C2.68979 7.92403 2.29218 7.87525 1.81503 7.83975C1.62064 7.82198 1.49252 7.78648 1.43067 7.73327C1.36882 7.67114 1.33789 7.54251 1.33789 7.34727C1.33789 7.21415 1.37765 7.06775 1.45717 6.90805C1.54554 6.7483 1.65599 6.66846 1.78852 6.66846H10.9868C13.3813 6.66846 15.1927 7.00119 16.4209 7.66671C17.658 8.32332 18.2764 9.36156 18.2764 10.7813C18.2764 11.6687 18.0865 12.4451 17.7065 13.1106C17.3354 13.7672 16.8273 14.2863 16.1823 14.6679C15.5373 15.0494 14.8083 15.2846 13.9954 15.3733ZM8.6806 14.8808H9.82043C10.9868 14.8808 11.9631 14.5969 12.7496 14.029C13.5448 13.4522 13.9424 12.5338 13.9424 11.2738C13.9424 9.06426 12.6877 7.95952 10.1783 7.95952H8.6806V14.8808ZM10.7482 24.2113C11.9145 24.2113 12.8688 23.9229 13.611 23.3461C14.3621 22.7694 14.7376 21.6513 14.7376 19.9919C14.7376 18.7851 14.4858 17.9022 13.9822 17.3432C13.4785 16.7842 12.9042 16.447 12.2592 16.3316C11.623 16.2163 10.8233 16.1586 9.86018 16.1586H8.6806V23.7188C8.71595 23.8519 8.90149 23.9672 9.23723 24.0649C9.57302 24.1625 10.0767 24.2113 10.7482 24.2113ZM20.6701 24.8768C20.6701 24.726 20.701 24.6106 20.7629 24.5307C20.8248 24.4509 20.9396 24.4021 21.1075 24.3843C21.6377 24.34 22.0927 24.2556 22.4726 24.1314C22.8526 23.9983 23.0425 23.7986 23.0425 23.5325V9.13082C23.0425 8.7848 22.9409 8.523 22.7377 8.34553C22.5345 8.16806 22.3092 8.05272 22.0618 7.99945C21.8232 7.94624 21.4786 7.89297 21.0279 7.83975C20.8336 7.82198 20.7054 7.78648 20.6436 7.73327C20.5818 7.67114 20.5508 7.54251 20.5508 7.34727C20.5508 7.21415 20.5906 7.06775 20.6701 6.90805C20.7585 6.7483 20.8689 6.66846 21.0015 6.66846H36.3628L36.8267 10.9943C36.8355 11.1274 36.7693 11.2383 36.6279 11.327C36.4865 11.4069 36.3496 11.4468 36.217 11.4468C35.7399 11.4468 35.4218 11.3004 35.2627 11.0076C35.1479 10.7857 34.9623 10.413 34.706 9.88954C34.4586 9.37485 34.2554 8.99776 34.0964 8.75816C33.9462 8.50971 33.7562 8.31889 33.5264 8.18583C33.3056 8.05272 33.0139 7.98616 32.6517 7.98616H27.4694V15.2003H31.0082C31.2203 15.1737 31.4235 15.0184 31.6179 14.7344C31.8122 14.4505 31.9757 14.131 32.1083 13.7761C32.2408 13.4123 32.3203 13.1283 32.3469 12.9242C32.3822 12.6403 32.5854 12.4983 32.9565 12.4983C33.0891 12.4983 33.2437 12.5427 33.4204 12.6314C33.5971 12.7113 33.6855 12.8177 33.6855 12.9509V18.8473C33.6855 18.9804 33.5971 19.0913 33.4204 19.18C33.2437 19.2599 33.0891 19.2998 32.9565 19.2998C32.7886 19.2998 32.6429 19.2688 32.5191 19.2066C32.3954 19.1357 32.3248 19.0203 32.3071 18.8606C32.2894 18.6387 32.2143 18.3371 32.0818 17.9555C31.9492 17.5651 31.7814 17.2234 31.5781 16.9306C31.3749 16.6289 31.1584 16.478 30.9286 16.478H27.4694V22.9335C27.4694 23.7144 27.8714 24.1403 28.6755 24.2113H32.5059C33.036 24.2113 33.4955 24.0959 33.8843 23.8652C34.2819 23.6345 34.653 23.2618 34.9977 22.7472C35.3511 22.2325 35.7399 21.5137 36.164 20.5909C36.2258 20.4489 36.3496 20.3424 36.5351 20.2715C36.7206 20.1916 36.8974 20.1517 37.0652 20.1517C37.2508 20.1517 37.4275 20.1916 37.5954 20.2715C37.7721 20.3513 37.8693 20.4622 37.887 20.6042L37.3568 25.5556H21.1207C20.9882 25.5556 20.8777 25.4758 20.7894 25.316C20.7099 25.1563 20.6701 25.0099 20.6701 24.8768ZM39.5517 9.51682C39.4015 9.11753 39.2424 8.81138 39.0745 8.59841C38.9155 8.37659 38.7123 8.21241 38.4649 8.10593C38.2263 7.99059 37.895 7.90188 37.4708 7.83975C37.2676 7.81312 37.135 7.7732 37.0732 7.71998C37.0114 7.65785 36.9804 7.5336 36.9804 7.34727C36.9804 7.21415 37.0246 7.06775 37.113 6.90805C37.1925 6.7483 37.2985 6.66846 37.4311 6.66846H46.0594C46.1919 6.66846 46.298 6.7483 46.3775 6.90805C46.4658 7.06775 46.51 7.21415 46.51 7.34727C46.51 7.4981 46.4791 7.61344 46.4172 7.69335C46.3554 7.7732 46.2405 7.82198 46.0726 7.83975C45.3746 7.83975 44.8753 7.92846 44.5749 8.10593C44.2834 8.2834 44.1376 8.51414 44.1376 8.79809C44.1376 8.92229 44.1596 9.05097 44.2038 9.18409L48.3789 19.9919L52.6863 7.06775H54.9926L60.0952 19.5926L63.9655 9.14417C64.0096 9.01105 64.0316 8.88679 64.0316 8.77145C64.0316 8.15034 63.219 7.83975 61.5932 7.83975C61.4252 7.82198 61.3104 7.7732 61.2482 7.69335C61.1866 7.61344 61.1555 7.4981 61.1555 7.34727C61.1555 7.21415 61.1956 7.06775 61.2748 6.90805C61.363 6.7483 61.4739 6.66846 61.6062 6.66846H68.0342C68.1671 6.66846 68.2729 6.7483 68.3526 6.90805C68.4408 7.06775 68.4849 7.21415 68.4849 7.34727C68.4849 7.54251 68.4499 7.67557 68.3792 7.74656C68.317 7.80869 68.1937 7.83975 68.0077 7.83975C67.4161 7.83975 66.9519 7.9196 66.6165 8.07935C66.2891 8.23904 66.0465 8.45201 65.887 8.71824C65.7281 8.98442 65.5602 9.36156 65.3837 9.84961L59.4194 25.7952H57.789L52.3285 12.4185L47.8354 25.7952H46.2052L39.5517 9.51682ZM68.1355 24.8768C68.1355 24.726 68.166 24.6106 68.2282 24.5307C68.2898 24.4509 68.4046 24.4021 68.5726 24.3843C69.1025 24.34 69.5577 24.2556 69.9377 24.1314C70.3177 23.9983 70.5077 23.7986 70.5077 23.5325V9.13082C70.5077 8.7848 70.406 8.523 70.2029 8.34553C69.9994 8.16806 69.7743 8.05272 69.5266 7.99945C69.2885 7.94624 68.9436 7.89297 68.4929 7.83975C68.2989 7.82198 68.1705 7.78648 68.1089 7.73327C68.0467 7.67114 68.0161 7.54251 68.0161 7.34727C68.0161 7.21415 68.0557 7.06775 68.1355 6.90805C68.2237 6.7483 68.334 6.66846 68.4663 6.66846H83.8282L84.2919 10.9943C84.3003 11.1274 84.2342 11.2383 84.0928 11.327C83.9514 11.4069 83.8146 11.4468 83.6822 11.4468C83.205 11.4468 82.8866 11.3004 82.7277 11.0076C82.6129 10.7857 82.4274 10.413 82.1712 9.88954C81.9235 9.37485 81.7205 8.99776 81.5616 8.75816C81.4112 8.50971 81.2212 8.31889 80.9916 8.18583C80.7705 8.05272 80.4792 7.98616 80.1168 7.98616H74.9345V15.2003H78.4734C78.6855 15.1737 78.8885 15.0184 79.083 14.7344C79.2776 14.4505 79.441 14.131 79.5733 13.7761C79.7056 13.4123 79.7854 13.1283 79.812 12.9242C79.847 12.6403 80.0506 12.4983 80.4216 12.4983C80.5539 12.4983 80.7088 12.5427 80.8853 12.6314C81.0623 12.7113 81.1505 12.8177 81.1505 12.9509V18.8473C81.1505 18.9804 81.0623 19.0913 80.8853 19.18C80.7088 19.2599 80.5539 19.2998 80.4216 19.2998C80.2536 19.2998 80.1077 19.2688 79.9844 19.2066C79.8606 19.1357 79.7899 19.0203 79.7724 18.8606C79.7543 18.6387 79.6796 18.3371 79.5467 17.9555C79.4144 17.5651 79.2464 17.2234 79.0434 16.9306C78.8399 16.6289 78.6233 16.478 78.3937 16.478H74.9345V22.9335C74.9345 23.7144 75.3366 24.1403 76.1407 24.2113H79.9709C80.5013 24.2113 80.9605 24.0959 81.3496 23.8652C81.7471 23.6345 82.1181 23.2618 82.4625 22.7472C82.8159 22.2325 83.205 21.5137 83.6291 20.5909C83.6907 20.4489 83.8146 20.3424 84.0001 20.2715C84.1856 20.1916 84.3625 20.1517 84.5305 20.1517C84.716 20.1517 84.8924 20.1916 85.0604 20.2715C85.2374 20.3513 85.3346 20.4622 85.3522 20.6042L84.8217 25.5556H68.5856C68.4533 25.5556 68.343 25.4758 68.2542 25.316C68.1751 25.1563 68.1355 25.0099 68.1355 24.8768ZM86.831 25.5556C86.6986 25.5556 86.5884 25.4758 86.4996 25.316C86.4204 25.1563 86.3808 25.0099 86.3808 24.8768C86.3808 24.726 86.4114 24.6106 86.4736 24.5307C86.5352 24.4509 86.65 24.4021 86.818 24.3843C87.3037 24.3488 87.746 24.2423 88.1435 24.0649C88.541 23.8874 88.7395 23.6656 88.7395 23.3993V9.13082C88.7395 8.77588 88.6428 8.50971 88.4483 8.33224C88.2628 8.14591 88.0327 8.02608 87.759 7.97287C87.4937 7.91074 87.1493 7.86639 86.7252 7.83975C86.5307 7.82198 86.4029 7.78648 86.3407 7.73327C86.279 7.67114 86.2479 7.54251 86.2479 7.34727C86.2479 7.21415 86.2875 7.06775 86.3673 6.90805C86.4555 6.7483 86.5663 6.66846 86.6986 6.66846H95.7778C95.9101 6.66846 96.0164 6.7483 96.0956 6.90805C96.1838 7.06775 96.2285 7.21415 96.2285 7.34727C96.2285 7.67557 96.0826 7.83975 95.7908 7.83975C94.9691 7.83975 94.3374 7.93295 93.8958 8.11927C93.4626 8.3056 93.246 8.62948 93.246 9.0909V23.1997C93.246 23.599 93.3478 23.8696 93.5508 24.0116C93.7544 24.1447 94.0456 24.2113 94.4257 24.2113H98.0573C98.4458 24.2113 98.8439 23.9806 99.25 23.5192C99.6656 23.0577 100.05 22.4809 100.403 21.7888C100.756 21.0967 101.048 20.4001 101.278 19.6991C101.322 19.5571 101.459 19.4507 101.689 19.3797C101.928 19.2998 102.14 19.2599 102.325 19.2599C102.52 19.2599 102.696 19.2998 102.855 19.3797C103.023 19.4595 103.098 19.5704 103.081 19.7124L102.299 25.5556H86.831ZM104.083 25.5556C103.95 25.5556 103.84 25.4758 103.751 25.316C103.672 25.1563 103.632 25.0099 103.632 24.8768C103.632 24.726 103.663 24.6106 103.725 24.5307C103.786 24.4509 103.901 24.4021 104.069 24.3843C104.556 24.3488 104.997 24.2423 105.395 24.0649C105.792 23.8874 105.991 23.6656 105.991 23.3993V9.13082C105.991 8.77588 105.894 8.50971 105.7 8.33224C105.514 8.14591 105.284 8.02608 105.01 7.97287C104.746 7.91074 104.401 7.86639 103.976 7.83975C103.782 7.82198 103.654 7.78648 103.592 7.73327C103.53 7.67114 103.499 7.54251 103.499 7.34727C103.499 7.21415 103.539 7.06775 103.618 6.90805C103.707 6.7483 103.818 6.66846 103.95 6.66846H113.029C113.161 6.66846 113.268 6.7483 113.347 6.90805C113.436 7.06775 113.48 7.21415 113.48 7.34727C113.48 7.67557 113.334 7.83975 113.042 7.83975C112.22 7.83975 111.589 7.93295 111.147 8.11927C110.714 8.3056 110.497 8.62948 110.497 9.0909V23.1997C110.497 23.599 110.599 23.8696 110.803 24.0116C111.006 24.1447 111.297 24.2113 111.677 24.2113H115.309C115.698 24.2113 116.095 23.9806 116.502 23.5192C116.917 23.0577 117.301 22.4809 117.655 21.7888C118.008 21.0967 118.299 20.4001 118.53 19.6991C118.574 19.5571 118.711 19.4507 118.94 19.3797C119.179 19.2998 119.391 19.2599 119.576 19.2599C119.771 19.2599 119.947 19.2998 120.107 19.3797C120.275 19.4595 120.349 19.5704 120.332 19.7124L119.55 25.5556H104.083Z" fill="#C85D67"/>
<path d="M129.373 25.5555C129.241 25.5555 129.13 25.4756 129.042 25.3159C128.963 25.1562 128.923 25.0098 128.923 24.8767C128.923 24.7258 128.954 24.6104 129.016 24.5306C129.078 24.4507 129.193 24.402 129.36 24.3842C130.165 24.3398 130.818 24.2333 131.322 24.0647C131.835 23.8873 132.091 23.5767 132.091 23.133V7.98604H128.777C128.318 7.98604 127.938 8.2567 127.637 8.79796C127.346 9.33037 127.129 9.92491 126.988 10.5815C126.855 11.2382 126.772 11.7972 126.736 12.2586C126.718 12.4095 126.63 12.5204 126.471 12.5914C126.321 12.6624 126.157 12.6979 125.98 12.6979C125.848 12.6979 125.702 12.6579 125.543 12.578C125.384 12.4893 125.305 12.3784 125.305 12.2453C125.349 10.9143 125.402 9.65425 125.464 8.46517C125.534 7.2673 125.614 6.66833 125.702 6.66833H142.76C142.848 6.66833 142.923 7.2673 142.985 8.46517C143.056 9.65425 143.113 10.9143 143.158 12.2453C143.158 12.3784 143.078 12.4893 142.919 12.578C142.76 12.6579 142.614 12.6979 142.482 12.6979C142.305 12.6979 142.137 12.6624 141.978 12.5914C141.828 12.5204 141.744 12.4095 141.726 12.2586C141.62 11.3002 141.417 10.3508 141.117 9.41022C140.816 8.46074 140.339 7.98604 139.685 7.98604H136.544V23.0931C136.544 23.4481 136.681 23.7142 136.955 23.8917C137.229 24.0692 137.542 24.189 137.896 24.2511C138.249 24.3043 138.691 24.3487 139.221 24.3842C139.416 24.402 139.543 24.4419 139.606 24.504C139.667 24.5572 139.698 24.6814 139.698 24.8767C139.698 25.0098 139.654 25.1562 139.566 25.3159C139.486 25.4756 139.38 25.5555 139.248 25.5555H129.373ZM144.08 25.5555C143.948 25.5555 143.837 25.4756 143.749 25.3159C143.669 25.1562 143.63 25.0098 143.63 24.8767C143.63 24.7258 143.66 24.6104 143.723 24.5306C143.784 24.4507 143.899 24.402 144.067 24.3842C145.269 24.2866 145.869 24.0026 145.869 23.5323L145.883 9.1307C145.883 8.77576 145.79 8.50958 145.605 8.33211C145.419 8.15465 145.207 8.04373 144.968 7.99932C144.738 7.94611 144.411 7.89284 143.987 7.83963C143.793 7.82186 143.665 7.78636 143.603 7.73315C143.541 7.67102 143.51 7.54239 143.51 7.34715C143.51 7.21403 143.55 7.06763 143.63 6.90793C143.718 6.74818 143.828 6.66833 143.961 6.66833L145.405 6.65505C145.644 6.64613 146.007 6.6417 146.492 6.6417C146.97 6.6417 147.853 6.62398 149.143 6.58849C150.645 6.55299 151.856 6.53522 152.775 6.53522C155.214 6.53522 157.078 6.94786 158.368 7.77307C159.667 8.59829 160.316 9.86721 160.316 11.5798C160.316 12.6979 160.096 13.6073 159.653 14.3084C159.212 15.0094 158.642 15.5462 157.944 15.9189C157.254 16.2916 156.428 16.6022 155.465 16.8506C156.26 16.9305 156.906 17.1479 157.4 17.5028C157.904 17.8577 158.297 18.2748 158.58 18.754C158.863 19.2331 159.177 19.8809 159.521 20.6973C159.751 21.2208 159.932 21.6334 160.064 21.9351C160.206 22.2279 160.369 22.5207 160.555 22.8136C160.837 23.3549 161.125 23.7409 161.417 23.9715C161.717 24.2023 162.048 24.3354 162.41 24.3709C162.596 24.3886 162.719 24.4374 162.782 24.5173C162.852 24.5971 162.887 24.7391 162.887 24.9432C162.887 25.0674 162.843 25.2005 162.755 25.3425C162.675 25.4845 162.57 25.5555 162.437 25.5555H157.917C157.449 25.5555 157.051 25.3824 156.725 25.0364C156.398 24.6903 156.128 24.2644 155.916 23.7586C155.713 23.2528 155.474 22.5607 155.2 21.6822C154.9 20.7061 154.626 19.9252 154.378 19.3396C154.131 18.754 153.795 18.257 153.371 17.8489C152.956 17.4407 152.439 17.2366 151.821 17.2366H150.243V23.0931C150.243 23.4481 150.354 23.7187 150.575 23.905C150.795 24.0825 151.056 24.1979 151.357 24.2511C151.657 24.3043 152.037 24.3487 152.496 24.3842C152.691 24.402 152.819 24.4419 152.881 24.504C152.942 24.5572 152.974 24.6814 152.974 24.8767C152.974 25.0098 152.929 25.1562 152.841 25.3159C152.762 25.4756 152.655 25.5555 152.523 25.5555H144.08ZM152.152 16.0919C153.327 16.0919 154.228 15.7814 154.856 15.1602C155.492 14.5302 155.81 13.4743 155.81 11.9924C155.81 10.617 155.505 9.57883 154.895 8.87781C154.295 8.17679 153.367 7.82629 152.112 7.82629H150.243V16.0919H152.152ZM182.724 24.3842C182.917 24.402 183.046 24.4419 183.107 24.504C183.17 24.5572 183.2 24.6814 183.2 24.8767C183.2 25.0098 183.156 25.1562 183.068 25.3159C182.988 25.4756 182.882 25.5555 182.75 25.5555H174.506C174.373 25.5555 174.263 25.4756 174.175 25.3159C174.095 25.1562 174.055 25.0098 174.055 24.8767C174.055 24.7258 174.086 24.6104 174.148 24.5306C174.21 24.4507 174.325 24.402 174.493 24.3842L175.023 24.3575C175.456 24.3487 175.756 24.3265 175.924 24.291C176.092 24.2466 176.176 24.1534 176.176 24.0115C176.176 23.9494 176.163 23.8784 176.136 23.7985L174.48 19.2065L168.131 19.1932L166.487 23.7985C166.461 23.8606 166.447 23.9183 166.447 23.9715C166.447 24.1313 166.558 24.2333 166.779 24.2777C167 24.3221 167.353 24.3487 167.839 24.3575L168.396 24.3842C168.564 24.402 168.679 24.4507 168.74 24.5306C168.803 24.6104 168.833 24.7258 168.833 24.8767C168.833 25.0098 168.789 25.1562 168.701 25.3159C168.621 25.4756 168.515 25.5555 168.382 25.5555H162.776C162.635 25.5555 162.524 25.4889 162.445 25.3558C162.365 25.2227 162.325 25.063 162.325 24.8767C162.325 24.6814 162.356 24.5572 162.418 24.504C162.48 24.4419 162.608 24.402 162.803 24.3842C162.873 24.3753 162.988 24.3709 163.148 24.3709C163.421 24.362 163.651 24.3398 163.836 24.3043C164.031 24.26 164.216 24.1668 164.393 24.0248C164.57 23.874 164.716 23.6521 164.83 23.3593L171.192 6.37552H174.294L180.589 23.3593C180.704 23.661 180.855 23.8873 181.04 24.0381C181.226 24.1801 181.416 24.2688 181.61 24.3043C181.805 24.3398 182.047 24.362 182.339 24.3709C182.516 24.3709 182.644 24.3753 182.724 24.3842ZM171.59 9.71637L168.502 18.0619H174.082L171.59 9.71637ZM183.633 25.5555C183.5 25.5555 183.39 25.4756 183.301 25.3159C183.222 25.1562 183.182 25.0098 183.182 24.8767C183.182 24.7258 183.213 24.6104 183.275 24.5306C183.337 24.4507 183.451 24.402 183.619 24.3842C184.15 24.3398 184.6 24.2555 184.971 24.1313C185.351 23.9982 185.541 23.7985 185.541 23.5323V9.1307C185.541 8.78468 185.44 8.52287 185.236 8.3454C185.033 8.16793 184.808 8.05259 184.56 7.99932C184.322 7.94611 183.977 7.89284 183.527 7.83963C183.332 7.82186 183.204 7.78636 183.142 7.73315C183.08 7.67102 183.049 7.54239 183.049 7.34715C183.049 7.21403 183.089 7.06763 183.169 6.90793C183.257 6.74818 183.368 6.66833 183.5 6.66833H192.725C195.022 6.67719 196.979 7.10755 198.597 7.9594C200.213 8.80239 201.428 9.91156 202.241 11.287C203.054 12.6624 203.46 14.1442 203.46 15.7325C203.46 17.8977 202.948 19.7212 201.923 21.203C200.898 22.676 199.63 23.7719 198.119 24.4907C196.608 25.2005 195.128 25.5555 193.679 25.5555H183.633ZM190.008 23.3194C190.008 23.559 190.207 23.7675 190.604 23.945C191.01 24.1224 191.731 24.2111 192.765 24.2111C194.01 24.2111 195.018 24.0248 195.787 23.6521C196.555 23.2706 197.165 22.4719 197.615 21.2563C198.066 20.0317 198.291 18.2083 198.291 15.7858C198.291 13.7005 198.044 12.0855 197.549 10.9409C197.064 9.78736 196.409 9.00207 195.588 8.585C194.775 8.16793 193.79 7.9594 192.632 7.9594H190.021L190.008 23.3194ZM204.9 25.5555C204.767 25.5555 204.657 25.4756 204.568 25.3159C204.489 25.1562 204.45 25.0098 204.45 24.8767C204.45 24.7258 204.48 24.6104 204.542 24.5306C204.604 24.4507 204.719 24.402 204.887 24.3842C205.417 24.3398 205.867 24.2555 206.239 24.1313C206.618 23.9982 206.808 23.7985 206.808 23.5323L206.822 9.1307C206.822 8.77576 206.716 8.50958 206.503 8.33211C206.3 8.15465 206.066 8.03925 205.801 7.98604C205.536 7.92391 205.205 7.87512 204.807 7.83963C204.613 7.82186 204.485 7.78636 204.423 7.73315C204.361 7.67102 204.33 7.54239 204.33 7.34715C204.33 7.21403 204.37 7.06763 204.45 6.90793C204.538 6.74818 204.648 6.66833 204.78 6.66833H213.197C213.33 6.66833 213.435 6.74818 213.515 6.90793C213.603 7.06763 213.647 7.21403 213.647 7.34715C213.647 7.49798 213.616 7.61332 213.555 7.69323C213.493 7.77307 213.378 7.82186 213.21 7.83963C211.929 7.93725 211.288 8.2212 211.288 8.69148L211.275 23.0931C211.275 23.4481 211.377 23.7142 211.58 23.8917C211.792 24.0692 212.031 24.189 212.296 24.2511C212.561 24.3043 212.892 24.3487 213.289 24.3842C213.484 24.402 213.612 24.4419 213.674 24.504C213.736 24.5572 213.767 24.6814 213.767 24.8767C213.767 25.0098 213.723 25.1562 213.634 25.3159C213.555 25.4756 213.449 25.5555 213.316 25.5555H204.9ZM214.849 25.5555C214.716 25.5555 214.605 25.4756 214.517 25.3159C214.437 25.1562 214.398 25.0098 214.398 24.8767C214.398 24.7258 214.428 24.6104 214.491 24.5306C214.552 24.4507 214.667 24.402 214.835 24.3842C216.47 24.26 217.287 23.8873 217.287 23.2662V9.84949C217.287 9.49455 217.141 9.17062 216.85 8.87781C216.558 8.585 216.209 8.34983 215.803 8.17236C215.405 7.98604 215.056 7.87512 214.756 7.83963C214.561 7.82186 214.433 7.78636 214.371 7.73315C214.309 7.67102 214.279 7.54239 214.279 7.34715C214.279 7.21403 214.318 7.06763 214.398 6.90793C214.486 6.74818 214.596 6.66833 214.729 6.66833H221.197L231.933 19.3396H232.092V9.1307C232.092 8.78468 231.959 8.52287 231.694 8.3454C231.429 8.16793 231.168 8.05702 230.912 8.01267C230.665 7.9594 230.254 7.90176 229.679 7.83963C229.485 7.82186 229.357 7.78636 229.295 7.73315C229.233 7.67102 229.202 7.54239 229.202 7.34715C229.202 7.21403 229.242 7.06763 229.321 6.90793C229.41 6.74818 229.521 6.66833 229.653 6.66833H235.949C236.081 6.66833 236.187 6.74818 236.267 6.90793C236.355 7.06763 236.399 7.21403 236.399 7.34715C236.399 7.49798 236.368 7.61332 236.307 7.69323C236.245 7.77307 236.13 7.82186 235.962 7.83963C234.416 8.0171 233.642 8.42525 233.642 9.06414V24.0514C233.642 24.2111 233.655 24.3798 233.682 24.5572L233.722 25.0231C233.748 25.3337 233.598 25.5643 233.271 25.7152C232.953 25.8749 232.617 25.9548 232.264 25.9548C232.131 25.9548 231.995 25.9237 231.853 25.8616C231.721 25.8084 231.619 25.7418 231.548 25.662L219.196 11.0474H218.971V23.0931C218.971 23.4036 219.094 23.6477 219.341 23.8251C219.598 24.0026 219.885 24.1269 220.203 24.1979C220.53 24.26 220.919 24.3132 221.369 24.3575L221.648 24.3842C221.842 24.402 221.97 24.4419 222.032 24.504C222.094 24.5572 222.125 24.6814 222.125 24.8767C222.125 25.0098 222.081 25.1562 221.992 25.3159C221.913 25.4756 221.807 25.5555 221.674 25.5555H214.849ZM246.931 25.9548C245.349 25.9548 243.732 25.6265 242.08 24.9699C240.436 24.3132 239.045 23.2528 237.905 21.7887C236.774 20.3157 236.208 18.439 236.208 16.1585C236.208 13.878 236.765 11.9968 237.879 10.515C238.992 9.03313 240.379 7.95497 242.04 7.28059C243.701 6.60621 245.376 6.26904 247.064 6.26904C248.583 6.26904 249.922 6.39324 251.079 6.6417C252.246 6.8813 253.151 7.14747 253.796 7.44034L254.088 11.5665C254.097 11.7085 254.008 11.8327 253.823 11.9391C253.646 12.0456 253.487 12.0989 253.346 12.0989L253.16 12.1122C252.948 12.1122 252.741 12.0811 252.537 12.019C252.343 11.9569 252.232 11.8593 252.206 11.7262C251.861 10.4484 251.287 9.43242 250.483 8.67814C249.679 7.92391 248.53 7.54682 247.037 7.54682C246.215 7.54682 245.367 7.78193 244.492 8.25221C243.617 8.71369 242.853 9.58326 242.199 10.861C241.554 12.1388 241.232 13.9046 241.232 16.1585C241.232 18.1728 241.55 19.8188 242.186 21.0965C242.831 22.3743 243.608 23.2927 244.519 23.8518C245.429 24.4108 246.308 24.6903 247.156 24.6903C248.27 24.6903 249.029 24.5306 249.436 24.2111C249.851 23.8917 250.059 23.4791 250.059 22.9733V19.486C250.059 19.1311 249.935 18.8649 249.687 18.6874C249.44 18.51 249.158 18.3946 248.839 18.3414C248.53 18.2881 248.115 18.2393 247.593 18.195C247.399 18.1772 247.271 18.1417 247.209 18.0885C247.147 18.0264 247.116 17.8977 247.116 17.7025C247.116 17.5694 247.156 17.423 247.235 17.2632C247.324 17.1035 247.434 17.0237 247.567 17.0237H255.851C255.983 17.0237 256.09 17.1035 256.169 17.2632C256.257 17.423 256.302 17.5694 256.302 17.7025C256.302 17.8533 256.27 17.9687 256.209 18.0485C256.147 18.1284 256.032 18.1772 255.864 18.195C255.405 18.2482 255.047 18.3369 254.791 18.4611C254.543 18.5854 254.42 18.7806 254.42 19.0468L254.433 23.9183C254.282 24.1402 253.858 24.4152 253.16 24.7436C252.462 25.0719 251.565 25.3558 250.47 25.5954C249.383 25.835 248.203 25.9548 246.931 25.9548Z" fill="#3C3A3F"/>
<path d="M135.225 43.1604C135.181 43.1604 135.144 43.1337 135.115 43.0805C135.088 43.0273 135.075 42.9785 135.075 42.9341C135.075 42.8838 135.085 42.8454 135.106 42.8187C135.127 42.7922 135.165 42.7759 135.221 42.77C135.398 42.7552 135.548 42.7271 135.671 42.6857C135.798 42.6413 135.861 42.5748 135.861 42.486L135.866 37.6855C135.866 37.5671 135.83 37.4784 135.76 37.4192C135.692 37.3601 135.614 37.3217 135.525 37.3039C135.437 37.2832 135.327 37.2669 135.194 37.2551C135.13 37.2492 135.087 37.2373 135.066 37.2196C135.045 37.1989 135.035 37.156 135.035 37.0909C135.035 37.0466 135.048 36.9978 135.075 36.9445C135.104 36.8913 135.141 36.8647 135.186 36.8647H137.991C138.035 36.8647 138.07 36.8913 138.097 36.9445C138.126 36.9978 138.141 37.0466 138.141 37.0909C138.141 37.1412 138.131 37.1797 138.11 37.2063C138.089 37.2329 138.051 37.2492 137.995 37.2551C137.568 37.2877 137.355 37.3823 137.355 37.5391L137.35 42.3396C137.35 42.4579 137.384 42.5467 137.452 42.6058C137.523 42.6649 137.602 42.7049 137.69 42.7256C137.779 42.7433 137.889 42.7581 138.022 42.77C138.087 42.7759 138.129 42.7892 138.15 42.8099C138.17 42.8276 138.181 42.8691 138.181 42.9341C138.181 42.9785 138.166 43.0273 138.136 43.0805C138.11 43.1337 138.075 43.1604 138.031 43.1604H135.225ZM138.652 43.1604C138.607 43.1604 138.571 43.1337 138.541 43.0805C138.515 43.0273 138.502 42.9785 138.502 42.9341C138.502 42.8838 138.512 42.8454 138.532 42.8187C138.553 42.7922 138.592 42.7759 138.648 42.77C138.806 42.7611 138.938 42.7463 139.041 42.7256C139.144 42.7049 139.232 42.6649 139.306 42.6058C139.382 42.5467 139.421 42.4594 139.421 42.344V37.6855C139.421 37.5671 139.379 37.4784 139.297 37.4192C139.217 37.3601 139.124 37.3217 139.019 37.3039C138.912 37.2832 138.78 37.2669 138.621 37.2551C138.556 37.2492 138.514 37.2373 138.493 37.2196C138.472 37.1989 138.462 37.156 138.462 37.0909C138.462 37.0466 138.475 36.9992 138.502 36.949C138.531 36.8958 138.568 36.8676 138.612 36.8647H141.439V36.8868L142.919 41.0219L144.333 37.2551C144.351 37.2107 144.367 37.1457 144.382 37.0599C144.399 36.9741 144.408 36.909 144.408 36.8647H146.958C147.002 36.8647 147.037 36.8913 147.063 36.9445C147.093 36.9978 147.107 37.0466 147.107 37.0909C147.107 37.1412 147.097 37.1797 147.077 37.2063C147.056 37.2329 147.018 37.2492 146.962 37.2551C146.535 37.2877 146.321 37.3823 146.321 37.5391V42.3396C146.321 42.4579 146.355 42.5467 146.423 42.6058C146.491 42.662 146.565 42.699 146.644 42.7167C146.724 42.7345 146.838 42.7522 146.989 42.77C147.053 42.7759 147.096 42.7892 147.117 42.8099C147.137 42.8276 147.148 42.8691 147.148 42.9341C147.148 42.9785 147.133 43.0273 147.104 43.0805C147.077 43.1337 147.041 43.1604 146.997 43.1604H144.148C144.104 43.1604 144.067 43.1337 144.037 43.0805C144.011 43.0273 143.997 42.9785 143.997 42.9341C143.997 42.8838 144.008 42.8454 144.028 42.8187C144.049 42.7922 144.087 42.7759 144.143 42.77C144.329 42.7552 144.489 42.7256 144.625 42.6812C144.76 42.6368 144.828 42.5718 144.828 42.486V37.4769H144.704L142.583 43.1604H142.332L140.017 37.4769H139.849V42.3396C139.849 42.4549 139.893 42.5437 139.982 42.6058C140.07 42.6649 140.17 42.7049 140.282 42.7256C140.394 42.7433 140.532 42.7581 140.698 42.77C140.762 42.7759 140.805 42.7892 140.825 42.8099C140.846 42.8276 140.856 42.8691 140.856 42.9341C140.856 42.9785 140.842 43.0273 140.812 43.0805C140.786 43.1337 140.75 43.1604 140.706 43.1604H138.652ZM147.663 43.1604C147.619 43.1604 147.582 43.1337 147.552 43.0805C147.526 43.0273 147.512 42.9785 147.512 42.9341C147.512 42.8838 147.523 42.8454 147.543 42.8187C147.564 42.7922 147.602 42.7759 147.658 42.77C148.032 42.7404 148.219 42.6458 148.219 42.486V37.6855C148.219 37.5671 148.188 37.4784 148.127 37.4192C148.065 37.3601 147.994 37.3232 147.914 37.3083C147.838 37.2906 147.729 37.2728 147.588 37.2551C147.523 37.2492 147.48 37.2373 147.459 37.2196C147.439 37.1989 147.429 37.156 147.429 37.0909C147.429 37.0466 147.442 36.9978 147.468 36.9445C147.498 36.8913 147.534 36.8647 147.579 36.8647H148.882C149.129 36.8647 149.465 36.8558 149.889 36.8381C150.255 36.8262 150.505 36.8203 150.64 36.8203C152.269 36.8203 153.084 37.44 153.084 38.6793C153.084 39.0875 152.992 39.4424 152.809 39.7441C152.627 40.0428 152.343 40.2765 151.957 40.4451C151.574 40.6137 151.091 40.698 150.508 40.698H149.699V42.3396C149.699 42.4549 149.755 42.5437 149.867 42.6058C149.982 42.6649 150.104 42.7049 150.234 42.7256C150.366 42.7433 150.53 42.7581 150.724 42.77C150.789 42.7759 150.832 42.7892 150.852 42.8099C150.873 42.8276 150.883 42.8691 150.883 42.9341C150.883 42.9785 150.869 43.0273 150.839 43.0805C150.813 43.1337 150.778 43.1604 150.733 43.1604H147.663ZM150.186 40.2721C150.554 40.2721 150.857 40.1582 151.095 39.9304C151.337 39.7027 151.458 39.3167 151.458 38.7724C151.458 38.3731 151.41 38.064 151.317 37.8452C151.225 37.6234 151.088 37.4696 150.905 37.3838C150.723 37.295 150.483 37.2507 150.186 37.2507H149.699V40.2721H150.186ZM156.581 43.2891C155.918 43.2891 155.338 43.1427 154.84 42.8498C154.343 42.554 153.96 42.1547 153.692 41.6519C153.426 41.1491 153.294 40.593 153.294 39.9837C153.294 39.3744 153.426 38.8228 153.692 38.3288C153.956 37.8348 154.338 37.4459 154.836 37.1619C155.333 36.875 155.915 36.7316 156.581 36.7316C157.246 36.7316 157.828 36.875 158.326 37.1619C158.824 37.4459 159.205 37.8348 159.47 38.3288C159.738 38.8228 159.872 39.3744 159.872 39.9837C159.872 40.593 159.738 41.1491 159.47 41.6519C159.202 42.1547 158.819 42.554 158.321 42.8498C157.824 43.1427 157.244 43.2891 156.581 43.2891ZM156.598 42.872C157.141 42.872 157.539 42.6235 157.795 42.1266C158.052 41.6268 158.18 40.9154 158.18 39.9926C158.18 39.0756 158.048 38.3717 157.782 37.8807C157.521 37.3897 157.117 37.1442 156.572 37.1442C156.027 37.1442 155.625 37.3897 155.366 37.8807C155.109 38.3687 154.982 39.0727 154.982 39.9926C154.982 40.9095 155.114 41.6194 155.379 42.1222C155.647 42.6221 156.054 42.872 156.598 42.872ZM160.48 43.1604C160.436 43.1604 160.399 43.1337 160.37 43.0805C160.343 43.0273 160.33 42.9785 160.33 42.9341C160.33 42.8838 160.34 42.8454 160.361 42.8187C160.382 42.7922 160.42 42.7759 160.476 42.77C160.876 42.7374 161.077 42.6427 161.077 42.486L161.081 37.6855C161.081 37.5671 161.05 37.4784 160.988 37.4192C160.926 37.3601 160.855 37.3232 160.776 37.3083C160.699 37.2906 160.591 37.2728 160.449 37.2551C160.384 37.2492 160.342 37.2373 160.321 37.2196C160.301 37.1989 160.29 37.156 160.29 37.0909C160.29 37.0466 160.303 36.9978 160.33 36.9445C160.359 36.8913 160.396 36.8647 160.44 36.8647L160.922 36.8602C161.001 36.8572 161.122 36.8558 161.284 36.8558C161.443 36.8558 161.738 36.8499 162.168 36.8381C162.668 36.8262 163.072 36.8203 163.378 36.8203C164.191 36.8203 164.813 36.9578 165.243 37.2329C165.676 37.508 165.892 37.931 165.892 38.5018C165.892 38.8745 165.818 39.1777 165.671 39.4113C165.524 39.645 165.334 39.824 165.101 39.9482C164.872 40.0724 164.596 40.176 164.275 40.2588C164.54 40.2854 164.755 40.3578 164.92 40.4761C165.088 40.5945 165.219 40.7335 165.313 40.8932C165.408 41.053 165.512 41.2689 165.627 41.541C165.703 41.7155 165.764 41.853 165.808 41.9536C165.856 42.0512 165.91 42.1488 165.972 42.2464C166.066 42.4268 166.162 42.5555 166.259 42.6324C166.359 42.7093 166.47 42.7537 166.59 42.7655C166.652 42.7714 166.693 42.7877 166.714 42.8143C166.737 42.8409 166.749 42.8882 166.749 42.9563C166.749 42.9977 166.734 43.0421 166.705 43.0894C166.678 43.1367 166.643 43.1604 166.599 43.1604H165.093C164.937 43.1604 164.804 43.1027 164.695 42.9873C164.586 42.872 164.496 42.73 164.425 42.5614C164.358 42.3928 164.278 42.1621 164.187 41.8693C164.087 41.5439 163.996 41.2836 163.913 41.0885C163.831 40.8932 163.719 40.7276 163.577 40.5915C163.439 40.4555 163.266 40.3874 163.06 40.3874H162.534V42.3396C162.534 42.4579 162.571 42.5481 162.645 42.6102C162.719 42.6694 162.805 42.7078 162.905 42.7256C163.006 42.7433 163.132 42.7581 163.285 42.77C163.35 42.7759 163.393 42.7892 163.414 42.8099C163.434 42.8276 163.445 42.8691 163.445 42.9341C163.445 42.9785 163.43 43.0273 163.4 43.0805C163.374 43.1337 163.339 43.1604 163.294 43.1604H160.48ZM163.171 40.0059C163.562 40.0059 163.863 39.9023 164.072 39.6953C164.284 39.4853 164.39 39.1333 164.39 38.6394C164.39 38.1809 164.289 37.8348 164.085 37.6011C163.885 37.3675 163.575 37.2507 163.158 37.2507H162.534V40.0059H163.171ZM168.086 43.1604C168.042 43.1604 168.005 43.1337 167.976 43.0805C167.949 43.0273 167.936 42.9785 167.936 42.9341C167.936 42.8838 167.946 42.8454 167.967 42.8187C167.988 42.7922 168.026 42.7759 168.082 42.77C168.35 42.7552 168.568 42.7197 168.736 42.6635C168.906 42.6043 168.992 42.5008 168.992 42.3529V37.3039H167.887C167.734 37.3039 167.608 37.3941 167.507 37.5746C167.41 37.752 167.338 37.9502 167.291 38.169C167.247 38.388 167.219 38.5743 167.207 38.7281C167.201 38.7784 167.172 38.8154 167.118 38.839C167.069 38.8627 167.014 38.8745 166.955 38.8745C166.911 38.8745 166.862 38.8612 166.81 38.8346C166.756 38.805 166.73 38.768 166.73 38.7237C166.745 38.28 166.762 37.86 166.783 37.4637C166.806 37.0643 166.833 36.8647 166.862 36.8647H172.548C172.578 36.8647 172.603 37.0643 172.624 37.4637C172.647 37.86 172.666 38.28 172.681 38.7237C172.681 38.768 172.654 38.805 172.601 38.8346C172.548 38.8612 172.5 38.8745 172.456 38.8745C172.397 38.8745 172.341 38.8627 172.288 38.839C172.238 38.8154 172.21 38.7784 172.204 38.7281C172.168 38.4086 172.1 38.0922 172 37.7786C171.9 37.4621 171.741 37.3039 171.523 37.3039H170.476V42.3396C170.476 42.4579 170.522 42.5467 170.613 42.6058C170.705 42.6649 170.809 42.7049 170.927 42.7256C171.045 42.7433 171.192 42.7581 171.369 42.77C171.434 42.7759 171.476 42.7892 171.497 42.8099C171.517 42.8276 171.528 42.8691 171.528 42.9341C171.528 42.9785 171.513 43.0273 171.483 43.0805C171.457 43.1337 171.422 43.1604 171.378 43.1604H168.086ZM174.683 42.9341C174.683 42.8838 174.693 42.8454 174.714 42.8187C174.735 42.7922 174.773 42.7759 174.829 42.77C175.005 42.7552 175.158 42.7271 175.284 42.6857C175.41 42.6413 175.474 42.5748 175.474 42.486V37.6855C175.474 37.5701 175.44 37.4829 175.372 37.4237C175.305 37.3646 175.229 37.3261 175.147 37.3083C175.068 37.2906 174.953 37.2728 174.802 37.2551C174.737 37.2492 174.695 37.2373 174.674 37.2196C174.654 37.1989 174.643 37.156 174.643 37.0909C174.643 37.0466 174.656 36.9978 174.683 36.9445C174.712 36.8913 174.749 36.8647 174.793 36.8647H179.914L180.068 38.3066C180.072 38.3509 180.05 38.388 180.002 38.4175C179.955 38.4441 179.909 38.4575 179.865 38.4575C179.706 38.4575 179.6 38.4086 179.548 38.311C179.509 38.2371 179.447 38.1129 179.361 37.9384C179.279 37.7668 179.212 37.6411 179.158 37.5612C179.109 37.4784 179.045 37.4148 178.968 37.3705C178.895 37.3261 178.798 37.3039 178.677 37.3039H176.95V39.7086H178.129C178.2 39.6997 178.268 39.648 178.332 39.5533C178.397 39.4587 178.452 39.3522 178.496 39.2339C178.54 39.1126 178.566 39.0179 178.575 38.9499C178.587 38.8553 178.655 38.8079 178.778 38.8079C178.823 38.8079 178.874 38.8228 178.933 38.8523C178.992 38.8789 179.022 38.9144 179.022 38.9588V40.9243C179.022 40.9686 178.992 41.0056 178.933 41.0352C178.874 41.0618 178.823 41.0751 178.778 41.0751C178.722 41.0751 178.674 41.0648 178.633 41.044C178.591 41.0204 178.568 40.982 178.562 40.9287C178.556 40.8548 178.531 40.7542 178.487 40.627C178.443 40.4969 178.387 40.383 178.319 40.2854C178.251 40.1848 178.179 40.1345 178.103 40.1345H176.95V42.2863C176.95 42.5467 177.084 42.6886 177.352 42.7123H178.629C178.805 42.7123 178.958 42.6738 179.088 42.5969C179.22 42.52 179.344 42.3958 179.459 42.2243C179.577 42.0527 179.706 41.8131 179.848 41.5055C179.868 41.4582 179.909 41.4227 179.972 41.399C180.033 41.3724 180.092 41.3591 180.148 41.3591C180.21 41.3591 180.269 41.3724 180.325 41.399C180.384 41.4256 180.416 41.4626 180.422 41.51L180.245 43.1604H174.833C174.789 43.1604 174.752 43.1337 174.723 43.0805C174.696 43.0273 174.683 42.9785 174.683 42.9341ZM180.58 43.1604C180.535 43.1604 180.498 43.1337 180.469 43.0805C180.442 43.0273 180.429 42.9785 180.429 42.9341C180.429 42.8691 180.439 42.8276 180.46 42.8099C180.481 42.7892 180.524 42.7759 180.588 42.77C180.759 42.7522 180.908 42.7226 181.034 42.6812C181.161 42.6398 181.279 42.5555 181.388 42.4283L183.248 40.2455L181.322 37.5967C181.236 37.4637 181.134 37.3778 181.017 37.3394C180.899 37.298 180.759 37.2728 180.597 37.264L180.5 37.2551C180.435 37.2492 180.392 37.2373 180.371 37.2196C180.351 37.1989 180.341 37.156 180.341 37.0909C180.341 37.0466 180.354 36.9978 180.381 36.9445C180.41 36.8913 180.447 36.8647 180.491 36.8647H183.561C183.606 36.8647 183.641 36.8913 183.667 36.9445C183.697 36.9978 183.712 37.0466 183.712 37.0909C183.712 37.1412 183.701 37.1797 183.681 37.2063C183.66 37.2329 183.622 37.2492 183.566 37.2551C183.383 37.264 183.246 37.2743 183.155 37.2861C183.067 37.298 183.005 37.3157 182.969 37.3394C182.934 37.3631 182.916 37.3956 182.916 37.437C182.916 37.4518 182.924 37.471 182.938 37.4947L184.237 39.296L185.532 37.5834C185.553 37.5538 185.563 37.5243 185.563 37.4947C185.563 37.4296 185.511 37.3764 185.408 37.335C185.305 37.2906 185.173 37.264 185.01 37.2551C184.955 37.2492 184.916 37.2329 184.895 37.2063C184.875 37.1797 184.865 37.1412 184.865 37.0909C184.865 37.0466 184.878 36.9978 184.905 36.9445C184.934 36.8913 184.971 36.8647 185.015 36.8647H187.025C187.069 36.8647 187.105 36.8913 187.131 36.9445C187.161 36.9978 187.176 37.0466 187.176 37.0909C187.176 37.156 187.165 37.1989 187.144 37.2196C187.124 37.2373 187.081 37.2492 187.016 37.2551C186.99 37.2581 186.921 37.264 186.809 37.2728C186.699 37.2817 186.592 37.3128 186.486 37.366C186.383 37.4163 186.293 37.4932 186.217 37.5967L184.502 39.6731L186.57 42.4283C186.655 42.5614 186.754 42.6487 186.866 42.6901C186.981 42.7286 187.116 42.7522 187.272 42.7611L187.37 42.77C187.435 42.7759 187.477 42.7892 187.498 42.8099C187.518 42.8276 187.529 42.8691 187.529 42.9341C187.529 42.9785 187.514 43.0273 187.484 43.0805C187.458 43.1337 187.423 43.1604 187.379 43.1604H184.264C184.22 43.1604 184.183 43.1337 184.154 43.0805C184.127 43.0273 184.114 42.9785 184.114 42.9341C184.114 42.8838 184.124 42.8454 184.145 42.8187C184.165 42.7922 184.203 42.7759 184.259 42.77C184.463 42.7759 184.627 42.767 184.754 42.7433C184.884 42.7167 184.949 42.6797 184.949 42.6324C184.949 42.6028 184.94 42.5718 184.922 42.5392C184.907 42.5067 184.881 42.4623 184.843 42.4062L183.5 40.5871L182.082 42.4416C182.064 42.4682 182.055 42.4934 182.055 42.5171C182.055 42.5851 182.115 42.6427 182.236 42.6901C182.36 42.7345 182.511 42.7611 182.691 42.77C182.747 42.7759 182.786 42.7922 182.806 42.8187C182.827 42.8454 182.837 42.8838 182.837 42.9341C182.837 42.9785 182.822 43.0273 182.793 43.0805C182.766 43.1337 182.731 43.1604 182.687 43.1604H180.58ZM187.819 43.1604C187.774 43.1604 187.738 43.1337 187.708 43.0805C187.682 43.0273 187.669 42.9785 187.669 42.9341C187.669 42.8838 187.679 42.8454 187.699 42.8187C187.72 42.7922 187.758 42.7759 187.814 42.77C188.188 42.7404 188.376 42.6458 188.376 42.486V37.6855C188.376 37.5671 188.344 37.4784 188.282 37.4192C188.221 37.3601 188.15 37.3232 188.07 37.3083C187.994 37.2906 187.885 37.2728 187.743 37.2551C187.679 37.2492 187.636 37.2373 187.616 37.2196C187.595 37.1989 187.584 37.156 187.584 37.0909C187.584 37.0466 187.598 36.9978 187.624 36.9445C187.653 36.8913 187.691 36.8647 187.735 36.8647H189.038C189.285 36.8647 189.621 36.8558 190.046 36.8381C190.41 36.8262 190.661 36.8203 190.797 36.8203C192.425 36.8203 193.239 37.44 193.239 38.6793C193.239 39.0875 193.148 39.4424 192.966 39.7441C192.783 40.0428 192.499 40.2765 192.113 40.4451C191.73 40.6137 191.247 40.698 190.664 40.698H189.856V42.3396C189.856 42.4549 189.911 42.5437 190.023 42.6058C190.138 42.6649 190.26 42.7049 190.39 42.7256C190.522 42.7433 190.686 42.7581 190.88 42.77C190.945 42.7759 190.988 42.7892 191.009 42.8099C191.029 42.8276 191.039 42.8691 191.039 42.9341C191.039 42.9785 191.024 43.0273 190.995 43.0805C190.968 43.1337 190.933 43.1604 190.889 43.1604H187.819ZM190.341 40.2721C190.709 40.2721 191.013 40.1582 191.251 39.9304C191.493 39.7027 191.614 39.3167 191.614 38.7724C191.614 38.3731 191.567 38.064 191.472 37.8452C191.381 37.6234 191.244 37.4696 191.062 37.3838C190.879 37.295 190.639 37.2507 190.341 37.2507H189.856V40.2721H190.341ZM196.737 43.2891C196.074 43.2891 195.494 43.1427 194.996 42.8498C194.498 42.554 194.115 42.1547 193.847 41.6519C193.582 41.1491 193.45 40.593 193.45 39.9837C193.45 39.3744 193.582 38.8228 193.847 38.3288C194.113 37.8348 194.494 37.4459 194.991 37.1619C195.49 36.875 196.071 36.7316 196.737 36.7316C197.403 36.7316 197.984 36.875 198.482 37.1619C198.98 37.4459 199.361 37.8348 199.626 38.3288C199.894 38.8228 200.028 39.3744 200.028 39.9837C200.028 40.593 199.894 41.1491 199.626 41.6519C199.358 42.1547 198.975 42.554 198.478 42.8498C197.98 43.1427 197.399 43.2891 196.737 43.2891ZM196.755 42.872C197.296 42.872 197.696 42.6235 197.952 42.1266C198.208 41.6268 198.336 40.9154 198.336 39.9926C198.336 39.0756 198.203 38.3717 197.938 37.8807C197.676 37.3897 197.273 37.1442 196.728 37.1442C196.183 37.1442 195.781 37.3897 195.522 37.8807C195.266 38.3687 195.137 39.0727 195.137 39.9926C195.137 40.9095 195.27 41.6194 195.535 42.1222C195.803 42.6221 196.209 42.872 196.755 42.872ZM200.636 43.1604C200.592 43.1604 200.555 43.1337 200.525 43.0805C200.499 43.0273 200.486 42.9785 200.486 42.9341C200.486 42.8838 200.496 42.8454 200.517 42.8187C200.537 42.7922 200.576 42.7759 200.632 42.77C201.032 42.7374 201.232 42.6427 201.232 42.486L201.237 37.6855C201.237 37.5671 201.206 37.4784 201.144 37.4192C201.082 37.3601 201.012 37.3232 200.932 37.3083C200.856 37.2906 200.747 37.2728 200.605 37.2551C200.54 37.2492 200.498 37.2373 200.477 37.2196C200.456 37.1989 200.446 37.156 200.446 37.0909C200.446 37.0466 200.459 36.9978 200.486 36.9445C200.515 36.8913 200.552 36.8647 200.596 36.8647L201.078 36.8602C201.158 36.8572 201.278 36.8558 201.44 36.8558C201.599 36.8558 201.894 36.8499 202.324 36.8381C202.825 36.8262 203.228 36.8203 203.534 36.8203C204.347 36.8203 204.969 36.9578 205.399 37.2329C205.832 37.508 206.048 37.931 206.048 38.5018C206.048 38.8745 205.975 39.1777 205.827 39.4113C205.68 39.645 205.49 39.824 205.258 39.9482C205.027 40.0724 204.752 40.176 204.431 40.2588C204.696 40.2854 204.911 40.3578 205.076 40.4761C205.244 40.5945 205.375 40.7335 205.47 40.8932C205.563 41.053 205.668 41.2689 205.783 41.541C205.86 41.7155 205.92 41.853 205.964 41.9536C206.011 42.0512 206.066 42.1488 206.128 42.2464C206.222 42.4268 206.318 42.5555 206.415 42.6324C206.515 42.7093 206.625 42.7537 206.746 42.7655C206.808 42.7714 206.849 42.7877 206.87 42.8143C206.894 42.8409 206.905 42.8882 206.905 42.9563C206.905 42.9977 206.891 43.0421 206.861 43.0894C206.835 43.1367 206.799 43.1604 206.755 43.1604H205.248C205.092 43.1604 204.96 43.1027 204.851 42.9873C204.742 42.872 204.652 42.73 204.581 42.5614C204.514 42.3928 204.434 42.1621 204.343 41.8693C204.242 41.5439 204.151 41.2836 204.069 41.0885C203.986 40.8932 203.874 40.7276 203.733 40.5915C203.595 40.4555 203.422 40.3874 203.216 40.3874H202.691V42.3396C202.691 42.4579 202.727 42.5481 202.801 42.6102C202.875 42.6694 202.962 42.7078 203.062 42.7256C203.162 42.7433 203.288 42.7581 203.442 42.77C203.506 42.7759 203.549 42.7892 203.569 42.8099C203.59 42.8276 203.601 42.8691 203.601 42.9341C203.601 42.9785 203.586 43.0273 203.556 43.0805C203.53 43.1337 203.494 43.1604 203.45 43.1604H200.636ZM203.327 40.0059C203.718 40.0059 204.019 39.9023 204.228 39.6953C204.44 39.4853 204.546 39.1333 204.546 38.6394C204.546 38.1809 204.444 37.8348 204.241 37.6011C204.041 37.3675 203.732 37.2507 203.313 37.2507H202.691V40.0059H203.327ZM208.242 43.1604C208.198 43.1604 208.161 43.1337 208.131 43.0805C208.105 43.0273 208.092 42.9785 208.092 42.9341C208.092 42.8838 208.102 42.8454 208.123 42.8187C208.143 42.7922 208.182 42.7759 208.238 42.77C208.506 42.7552 208.723 42.7197 208.891 42.6635C209.062 42.6043 209.148 42.5008 209.148 42.3529V37.3039H208.043C207.89 37.3039 207.763 37.3941 207.663 37.5746C207.566 37.752 207.494 37.9502 207.447 38.169C207.402 38.388 207.375 38.5743 207.363 38.7281C207.357 38.7784 207.328 38.8154 207.275 38.839C207.224 38.8627 207.17 38.8745 207.111 38.8745C207.067 38.8745 207.018 38.8612 206.965 38.8346C206.912 38.805 206.886 38.768 206.886 38.7237C206.9 38.28 206.918 37.86 206.939 37.4637C206.963 37.0643 206.989 36.8647 207.018 36.8647H212.704C212.733 36.8647 212.759 37.0643 212.779 37.4637C212.803 37.86 212.822 38.28 212.837 38.7237C212.837 38.768 212.81 38.805 212.757 38.8346C212.704 38.8612 212.655 38.8745 212.611 38.8745C212.553 38.8745 212.497 38.8627 212.443 38.839C212.394 38.8154 212.365 38.7784 212.36 38.7281C212.325 38.4086 212.257 38.0922 212.157 37.7786C212.057 37.4621 211.897 37.3039 211.679 37.3039H210.632V42.3396C210.632 42.4579 210.678 42.5467 210.769 42.6058C210.861 42.6649 210.965 42.7049 211.083 42.7256C211.201 42.7433 211.348 42.7581 211.524 42.77C211.589 42.7759 211.632 42.7892 211.653 42.8099C211.673 42.8276 211.684 42.8691 211.684 42.9341C211.684 42.9785 211.669 43.0273 211.64 43.0805C211.613 43.1337 211.578 43.1604 211.533 43.1604H208.242ZM216.849 43.2935C216.396 43.2935 215.994 43.2269 215.643 43.0938C215.292 42.9578 215.019 42.7596 214.821 42.4993C214.624 42.2361 214.526 41.9225 214.526 41.5587C214.526 41.2807 214.596 41.0263 214.738 40.7956C214.879 40.562 215.07 40.3608 215.312 40.1922C215.556 40.0236 215.832 39.892 216.138 39.7973C215.896 39.5282 215.708 39.2634 215.572 39.0032C215.44 38.7399 215.374 38.4634 215.374 38.1735C215.374 37.854 215.467 37.5834 215.652 37.3616C215.837 37.1368 216.081 36.9697 216.381 36.8602C216.681 36.7478 217.005 36.6917 217.353 36.6917C217.942 36.6917 218.382 36.7981 218.674 37.0111C218.968 37.2241 219.116 37.5316 219.116 37.9339C219.116 38.1646 219.048 38.3791 218.913 38.5773C218.777 38.7724 218.612 38.9455 218.418 39.0964C218.223 39.2443 217.992 39.3995 217.724 39.5622L219.398 41.3324C219.646 40.9035 219.776 40.5723 219.787 40.3386C219.802 40.105 219.809 39.9837 219.809 39.9748C219.815 39.7293 219.59 39.5814 219.133 39.5312C219.077 39.5252 219.041 39.509 219.023 39.4823C219.008 39.4528 219.001 39.4084 219.001 39.3493C219.001 39.3048 219.014 39.2664 219.041 39.2339C219.067 39.2013 219.102 39.1851 219.147 39.1851H221.148C221.195 39.1851 221.232 39.2028 221.258 39.2383C221.285 39.2738 221.3 39.3167 221.303 39.367C221.297 39.4764 221.247 39.5312 221.152 39.5312C221.023 39.5312 220.9 39.574 220.786 39.6598C220.674 39.7426 220.593 39.858 220.542 40.0059C220.463 40.2484 220.393 40.4496 220.33 40.6093C220.272 40.769 220.186 40.9435 220.074 41.1328C219.965 41.3191 219.832 41.4818 219.672 41.6209L220.256 42.2198C220.403 42.3677 220.566 42.5008 220.746 42.6191C220.929 42.7345 221.11 42.7995 221.29 42.8143C221.354 42.8202 221.397 42.8336 221.417 42.8542C221.438 42.872 221.448 42.9134 221.448 42.9785C221.448 43.0258 221.435 43.0687 221.409 43.1071C221.382 43.1427 221.345 43.1604 221.298 43.1604H219.235L218.687 42.5881C218.443 42.7922 218.156 42.9607 217.826 43.0938C217.499 43.2269 217.173 43.2935 216.849 43.2935ZM217.393 39.2028C217.69 39.049 217.89 38.8597 217.994 38.6349C218.1 38.4072 218.153 38.1809 218.153 37.9561C218.153 37.8437 218.124 37.7195 218.068 37.5834C218.016 37.4474 217.936 37.3305 217.83 37.2329C217.727 37.1353 217.602 37.0865 217.454 37.0865C217.207 37.0865 217.023 37.1457 216.902 37.264C216.781 37.3823 216.721 37.5612 216.721 37.8008C216.721 37.999 216.746 38.1735 216.796 38.3244C216.849 38.4722 216.918 38.6054 217.004 38.7237C217.09 38.842 217.219 39.0017 217.393 39.2028ZM217.3 42.5392C217.506 42.5392 217.709 42.5171 217.91 42.4727C218.113 42.4254 218.28 42.3573 218.413 42.2686L216.522 40.2188C216.372 40.3401 216.256 40.4851 216.173 40.6536C216.091 40.8222 216.05 41.0293 216.05 41.2748C216.05 41.538 216.101 41.7643 216.204 41.9536C216.31 42.1429 216.456 42.2878 216.642 42.3884C216.83 42.489 217.049 42.5392 217.3 42.5392ZM226.114 43.2935C225.832 43.2935 225.58 43.2654 225.359 43.2092C225.138 43.153 224.97 43.1027 224.856 43.0583C224.744 43.014 224.676 42.9873 224.652 42.9785C224.605 42.9607 224.549 42.9356 224.485 42.9031C224.476 42.9001 224.456 42.8912 224.427 42.8764C224.398 42.8617 224.371 42.8542 224.347 42.8542C224.315 42.8542 224.287 42.8631 224.263 42.8809C224.243 42.8986 224.218 42.9237 224.188 42.9563C224.129 43.0243 224.073 43.0717 224.02 43.0983C223.971 43.1249 223.917 43.1382 223.861 43.1382C223.785 43.1382 223.725 43.119 223.68 43.0805C223.636 43.0391 223.615 42.9873 223.618 42.9252C223.624 42.8602 223.627 42.7936 223.627 42.7256V42.5481C223.627 42.3499 223.62 42.1503 223.605 41.9492C223.593 41.748 223.586 41.6312 223.583 41.5987C223.568 41.4153 223.561 41.2895 223.561 41.2215C223.561 41.0145 223.647 40.911 223.817 40.911C223.959 40.911 224.047 40.9731 224.083 41.0973C224.115 41.2215 224.153 41.3443 224.197 41.4655C224.241 41.5868 224.303 41.717 224.383 41.856C224.563 42.1666 224.81 42.4165 225.125 42.6058C225.44 42.7951 225.782 42.8897 226.15 42.8897C226.321 42.8897 226.48 42.8602 226.627 42.801C226.774 42.7418 226.892 42.6531 226.981 42.5348C227.072 42.4135 227.118 42.2671 227.118 42.0956C227.118 41.8589 227.053 41.6534 226.923 41.4789C226.794 41.3014 226.636 41.152 226.45 41.0308C226.268 40.9065 226.021 40.763 225.708 40.6004L225.43 40.454C225.053 40.2528 224.753 40.0783 224.529 39.9304C224.308 39.7796 224.113 39.5844 223.945 39.3448C223.781 39.1052 223.698 38.8198 223.698 38.4885C223.698 38.1425 223.792 37.8363 223.981 37.5701C224.172 37.3039 224.437 37.0983 224.776 36.9534C225.117 36.8085 225.506 36.736 225.942 36.736C226.169 36.736 226.359 36.7508 226.512 36.7804C226.669 36.8099 226.82 36.8499 226.967 36.9002C226.982 36.9061 227.023 36.9194 227.091 36.9401C227.162 36.9578 227.223 36.9667 227.276 36.9667C227.321 36.9667 227.353 36.9608 227.374 36.949C227.398 36.9372 227.421 36.9194 227.444 36.8958C227.471 36.8691 227.493 36.8499 227.511 36.8381C227.543 36.8173 227.584 36.807 227.634 36.807C227.711 36.807 227.781 36.8248 227.847 36.8602C227.914 36.8927 227.948 36.9312 227.948 36.9756C227.951 37.1264 227.963 37.3128 227.983 37.5346C228.004 37.7565 228.017 37.8999 228.023 37.965C228.047 38.1602 228.059 38.2859 228.059 38.3421C228.059 38.4338 228.032 38.5004 227.979 38.5418C227.929 38.5802 227.863 38.5995 227.78 38.5995C227.674 38.5995 227.601 38.5654 227.559 38.4974C227.671 38.7222 227.655 38.6512 227.511 38.2844C227.369 37.9176 227.184 37.6337 226.954 37.4326C226.727 37.2285 226.412 37.1264 226.009 37.1264C225.705 37.1264 225.449 37.1886 225.24 37.3128C225.034 37.4341 224.931 37.6278 224.931 37.894C224.931 38.1188 225.005 38.3229 225.156 38.5063C225.306 38.6867 225.489 38.8434 225.704 38.9765C225.922 39.1097 226.199 39.2605 226.535 39.4291C226.929 39.6243 227.256 39.8092 227.515 39.9837C227.778 40.1552 227.997 40.3638 228.173 40.6093C228.353 40.8548 228.443 41.1402 228.443 41.4655C228.443 41.8323 228.337 42.1547 228.125 42.4328C227.916 42.7078 227.633 42.9208 227.276 43.0717C226.923 43.2196 226.536 43.2935 226.114 43.2935ZM235.156 42.77C235.221 42.7759 235.264 42.7892 235.285 42.8099C235.305 42.8276 235.316 42.8691 235.316 42.9341C235.316 42.9785 235.301 43.0273 235.272 43.0805C235.245 43.1337 235.209 43.1604 235.165 43.1604H232.417C232.373 43.1604 232.337 43.1337 232.307 43.0805C232.281 43.0273 232.267 42.9785 232.267 42.9341C232.267 42.8838 232.277 42.8454 232.298 42.8187C232.318 42.7922 232.357 42.7759 232.413 42.77L232.589 42.7611C232.734 42.7581 232.834 42.7507 232.89 42.7389C232.946 42.7241 232.974 42.6931 232.974 42.6458C232.974 42.625 232.969 42.6013 232.961 42.5748L232.408 41.044L230.292 41.0396L229.744 42.5748C229.736 42.5954 229.731 42.6147 229.731 42.6324C229.731 42.6857 229.768 42.7197 229.842 42.7345C229.915 42.7492 230.033 42.7581 230.195 42.7611L230.381 42.77C230.437 42.7759 230.475 42.7922 230.495 42.8187C230.516 42.8454 230.526 42.8838 230.526 42.9341C230.526 42.9785 230.512 43.0273 230.482 43.0805C230.456 43.1337 230.42 43.1604 230.376 43.1604H228.508C228.46 43.1604 228.423 43.1382 228.397 43.0938C228.37 43.0495 228.357 42.9962 228.357 42.9341C228.357 42.8691 228.367 42.8276 228.388 42.8099C228.409 42.7892 228.452 42.7759 228.516 42.77C228.54 42.767 228.578 42.7655 228.631 42.7655C228.722 42.7626 228.799 42.7552 228.861 42.7433C228.925 42.7286 228.988 42.6975 229.047 42.6502C229.105 42.5999 229.154 42.5259 229.192 42.4283L231.313 36.7671H232.347L234.445 42.4283C234.483 42.5289 234.534 42.6043 234.595 42.6546C234.657 42.7019 234.721 42.7315 234.785 42.7433C234.85 42.7552 234.931 42.7626 235.028 42.7655C235.087 42.7655 235.13 42.767 235.156 42.77ZM231.445 37.8807L230.416 40.6625H232.276L231.445 37.8807ZM235.459 43.1604C235.415 43.1604 235.378 43.1337 235.349 43.0805C235.322 43.0273 235.309 42.9785 235.309 42.9341C235.309 42.8838 235.32 42.8454 235.341 42.8187C235.361 42.7922 235.399 42.7759 235.455 42.77C235.617 42.7581 235.765 42.7226 235.897 42.6635C236.029 42.6043 236.095 42.5304 236.095 42.4416V37.6855C236.095 37.5671 236.063 37.4784 235.999 37.4192C235.937 37.3571 235.86 37.3172 235.769 37.2995C235.68 37.2787 235.566 37.264 235.424 37.2551C235.359 37.2492 235.317 37.2373 235.296 37.2196C235.276 37.1989 235.265 37.156 235.265 37.0909C235.265 37.0466 235.278 36.9978 235.305 36.9445C235.334 36.8913 235.371 36.8647 235.415 36.8647H238.442C238.486 36.8647 238.522 36.8913 238.548 36.9445C238.577 36.9978 238.592 37.0466 238.592 37.0909C238.592 37.2004 238.544 37.2551 238.446 37.2551C238.172 37.2551 237.962 37.2861 237.815 37.3483C237.67 37.4104 237.598 37.5183 237.598 37.6721V42.3751C237.598 42.5082 237.632 42.5984 237.699 42.6458C237.767 42.6901 237.864 42.7123 237.991 42.7123H239.202C239.331 42.7123 239.464 42.6354 239.599 42.4816C239.738 42.3278 239.866 42.1355 239.983 41.9048C240.102 41.6741 240.199 41.4419 240.275 41.2082C240.29 41.1609 240.336 41.1254 240.412 41.1017C240.492 41.0751 240.562 41.0618 240.624 41.0618C240.689 41.0618 240.748 41.0751 240.801 41.1017C240.857 41.1284 240.882 41.1653 240.876 41.2127L240.616 43.1604H235.459ZM241.056 42.9341C241.056 42.8838 241.066 42.8454 241.086 42.8187C241.107 42.7922 241.145 42.7759 241.201 42.77C241.378 42.7552 241.529 42.7271 241.656 42.6857C241.783 42.6413 241.846 42.5748 241.846 42.486V37.6855C241.846 37.5701 241.812 37.4829 241.745 37.4237C241.677 37.3646 241.602 37.3261 241.519 37.3083C241.439 37.2906 241.325 37.2728 241.175 37.2551C241.11 37.2492 241.067 37.2373 241.046 37.2196C241.026 37.1989 241.015 37.156 241.015 37.0909C241.015 37.0466 241.029 36.9978 241.056 36.9445C241.085 36.8913 241.122 36.8647 241.166 36.8647H246.286L246.441 38.3066C246.444 38.3509 246.422 38.388 246.375 38.4175C246.328 38.4441 246.282 38.4575 246.238 38.4575C246.079 38.4575 245.973 38.4086 245.919 38.311C245.882 38.2371 245.819 38.1129 245.734 37.9384C245.651 37.7668 245.584 37.6411 245.531 37.5612C245.481 37.4784 245.417 37.4148 245.341 37.3705C245.267 37.3261 245.17 37.3039 245.049 37.3039H243.322V39.7086H244.502C244.572 39.6997 244.64 39.648 244.705 39.5533C244.769 39.4587 244.824 39.3522 244.868 39.2339C244.912 39.1126 244.939 39.0179 244.948 38.9499C244.959 38.8553 245.027 38.8079 245.151 38.8079C245.195 38.8079 245.246 38.8228 245.305 38.8523C245.365 38.8789 245.394 38.9144 245.394 38.9588V40.9243C245.394 40.9686 245.365 41.0056 245.305 41.0352C245.246 41.0618 245.195 41.0751 245.151 41.0751C245.095 41.0751 245.046 41.0648 245.005 41.044C244.964 41.0204 244.941 40.982 244.934 40.9287C244.929 40.8548 244.903 40.7542 244.859 40.627C244.815 40.4969 244.759 40.383 244.691 40.2854C244.624 40.1848 244.551 40.1345 244.475 40.1345H243.322V42.2863C243.322 42.5467 243.456 42.6886 243.724 42.7123H245C245.177 42.7123 245.331 42.6738 245.46 42.5969C245.593 42.52 245.716 42.3958 245.831 42.2243C245.949 42.0527 246.079 41.8131 246.22 41.5055C246.241 41.4582 246.282 41.4227 246.344 41.399C246.406 41.3724 246.465 41.3591 246.521 41.3591C246.582 41.3591 246.641 41.3724 246.697 41.399C246.756 41.4256 246.789 41.4626 246.794 41.51L246.618 43.1604H241.205C241.161 43.1604 241.124 43.1337 241.095 43.0805C241.069 43.0273 241.056 42.9785 241.056 42.9341ZM249.779 43.2935C249.496 43.2935 249.245 43.2654 249.023 43.2092C248.803 43.153 248.635 43.1027 248.52 43.0583C248.408 43.014 248.34 42.9873 248.317 42.9785C248.27 42.9607 248.214 42.9356 248.149 42.9031C248.14 42.9001 248.121 42.8912 248.091 42.8764C248.062 42.8617 248.036 42.8542 248.012 42.8542C247.98 42.8542 247.952 42.8631 247.928 42.8809C247.907 42.8986 247.882 42.9237 247.853 42.9563C247.794 43.0243 247.738 43.0717 247.685 43.0983C247.635 43.1249 247.582 43.1382 247.526 43.1382C247.45 43.1382 247.389 43.119 247.345 43.0805C247.3 43.0391 247.28 42.9873 247.283 42.9252C247.289 42.8602 247.292 42.7936 247.292 42.7256V42.5481C247.292 42.3499 247.285 42.1503 247.27 41.9492C247.258 41.748 247.251 41.6312 247.248 41.5987C247.233 41.4153 247.226 41.2895 247.226 41.2215C247.226 41.0145 247.311 40.911 247.482 40.911C247.623 40.911 247.711 40.9731 247.747 41.0973C247.779 41.2215 247.818 41.3443 247.862 41.4655C247.906 41.5868 247.968 41.717 248.047 41.856C248.227 42.1666 248.474 42.4165 248.789 42.6058C249.105 42.7951 249.446 42.8897 249.815 42.8897C249.985 42.8897 250.144 42.8602 250.292 42.801C250.439 42.7418 250.557 42.6531 250.645 42.5348C250.736 42.4135 250.782 42.2671 250.782 42.0956C250.782 41.8589 250.717 41.6534 250.588 41.4789C250.458 41.3014 250.3 41.152 250.115 41.0308C249.932 40.9065 249.685 40.763 249.373 40.6004L249.094 40.454C248.718 40.2528 248.417 40.0783 248.193 39.9304C247.972 39.7796 247.778 39.5844 247.61 39.3448C247.445 39.1052 247.363 38.8198 247.363 38.4885C247.363 38.1425 247.457 37.8363 247.645 37.5701C247.836 37.3039 248.102 37.0983 248.44 36.9534C248.782 36.8085 249.171 36.736 249.607 36.736C249.834 36.736 250.024 36.7508 250.177 36.7804C250.333 36.8099 250.485 36.8499 250.632 36.9002C250.646 36.9061 250.688 36.9194 250.756 36.9401C250.826 36.9578 250.888 36.9667 250.941 36.9667C250.985 36.9667 251.017 36.9608 251.038 36.949C251.062 36.9372 251.085 36.9194 251.109 36.8958C251.136 36.8691 251.158 36.8499 251.175 36.8381C251.207 36.8173 251.249 36.807 251.299 36.807C251.375 36.807 251.446 36.8248 251.511 36.8602C251.579 36.8927 251.613 36.9312 251.613 36.9756C251.616 37.1264 251.628 37.3128 251.648 37.5346C251.668 37.7565 251.682 37.8999 251.688 37.965C251.711 38.1602 251.723 38.2859 251.723 38.3421C251.723 38.4338 251.697 38.5004 251.643 38.5418C251.594 38.5802 251.527 38.5995 251.445 38.5995C251.339 38.5995 251.265 38.5654 251.224 38.4974C251.336 38.7222 251.319 38.6512 251.175 38.2844C251.034 37.9176 250.848 37.6337 250.619 37.4326C250.392 37.2285 250.076 37.1264 249.673 37.1264C249.37 37.1264 249.113 37.1886 248.904 37.3128C248.698 37.4341 248.595 37.6278 248.595 37.894C248.595 38.1188 248.67 38.3229 248.82 38.5063C248.971 38.6867 249.154 38.8434 249.368 38.9765C249.586 39.1097 249.863 39.2605 250.199 39.4291C250.593 39.6243 250.921 39.8092 251.18 39.9837C251.442 40.1552 251.661 40.3638 251.838 40.6093C252.018 40.8548 252.107 41.1402 252.107 41.4655C252.107 41.8323 252.001 42.1547 251.789 42.4328C251.58 42.7078 251.297 42.9208 250.941 43.0717C250.588 43.2196 250.2 43.2935 249.779 43.2935Z" fill="black"/>
</svg>
