<svg width="324" height="27" viewBox="0 0 324 27" fill="none" xmlns="http://www.w3.org/2000/svg">
<path d="M17.5625 12.5527C19.0508 12.6465 20.3516 12.9512 21.4648 13.4668C22.5781 13.9707 23.4336 14.6621 24.0312 15.541C24.6406 16.4082 24.9453 17.4277 24.9453 18.5996C24.9453 21.084 24.0898 22.9414 22.3789 24.1719C20.6797 25.3906 18.1016 26 14.6445 26H1.53125C1.35547 26 1.20898 25.8945 1.0918 25.6836C0.986328 25.4727 0.933594 25.2793 0.933594 25.1035C0.933594 24.9043 0.974609 24.752 1.05664 24.6465C1.13867 24.541 1.29102 24.4766 1.51367 24.4531C2.36914 24.3945 3.0957 24.2832 3.69336 24.1191C4.29102 23.9434 4.58984 23.6797 4.58984 23.3281L4.60742 4.30859C4.60742 3.83984 4.44336 3.48828 4.11523 3.25391C3.78711 3.01953 3.41211 2.86719 2.99023 2.79688C2.56836 2.71484 2.04102 2.65039 1.4082 2.60352C1.15039 2.58008 0.980469 2.5332 0.898438 2.46289C0.816406 2.38086 0.775391 2.21094 0.775391 1.95312C0.775391 1.77734 0.828125 1.58398 0.933594 1.37305C1.05078 1.16211 1.19727 1.05664 1.37305 1.05664H13.5723C16.748 1.05664 19.1504 1.49609 20.7793 2.375C22.4199 3.24219 23.2402 4.61328 23.2402 6.48828C23.2402 7.66016 22.9883 8.68555 22.4844 9.56445C21.9922 10.4316 21.3184 11.1172 20.4629 11.6211C19.6074 12.125 18.6406 12.4355 17.5625 12.5527ZM10.5137 11.9023H12.0254C13.5723 11.9023 14.8672 11.5273 15.9102 10.7773C16.9648 10.0156 17.4922 8.80273 17.4922 7.13867C17.4922 4.2207 15.8281 2.76172 12.5 2.76172H10.5137V11.9023ZM13.2559 24.2246C14.8027 24.2246 16.0684 23.8438 17.0527 23.082C18.0488 22.3203 18.5469 20.8438 18.5469 18.6523C18.5469 17.0586 18.2129 15.8926 17.5449 15.1543C16.877 14.416 16.1152 13.9707 15.2598 13.8184C14.416 13.666 13.3555 13.5898 12.0781 13.5898H10.5137V23.5742C10.5605 23.75 10.8066 23.9023 11.252 24.0312C11.6973 24.1602 12.3652 24.2246 13.2559 24.2246ZM51.3406 24.4531C51.5984 24.4766 51.7684 24.5293 51.8504 24.6113C51.9324 24.6816 51.9734 24.8457 51.9734 25.1035C51.9734 25.2793 51.9148 25.4727 51.7977 25.6836C51.6922 25.8945 51.5516 26 51.3758 26H40.4422C40.2664 26 40.1199 25.8945 40.0027 25.6836C39.8973 25.4727 39.8445 25.2793 39.8445 25.1035C39.8445 24.9043 39.8855 24.752 39.9676 24.6465C40.0496 24.541 40.202 24.4766 40.4246 24.4531L41.1277 24.418C41.702 24.4062 42.1004 24.377 42.323 24.3301C42.5457 24.2715 42.657 24.1484 42.657 23.9609C42.657 23.8789 42.6395 23.7852 42.6043 23.6797L40.407 17.6152L31.9871 17.5977L29.8074 23.6797C29.7723 23.7617 29.7547 23.8379 29.7547 23.9082C29.7547 24.1191 29.9012 24.2539 30.1941 24.3125C30.4871 24.3711 30.9559 24.4062 31.6004 24.418L32.3387 24.4531C32.5613 24.4766 32.7137 24.541 32.7957 24.6465C32.8777 24.752 32.9188 24.9043 32.9188 25.1035C32.9188 25.2793 32.8602 25.4727 32.743 25.6836C32.6375 25.8945 32.4969 26 32.3211 26H24.8855C24.698 26 24.5516 25.9121 24.4461 25.7363C24.3406 25.5605 24.2879 25.3496 24.2879 25.1035C24.2879 24.8457 24.3289 24.6816 24.4109 24.6113C24.493 24.5293 24.6629 24.4766 24.9207 24.4531C25.0145 24.4414 25.1668 24.4355 25.3777 24.4355C25.741 24.4238 26.0457 24.3945 26.2918 24.3477C26.5496 24.2891 26.7957 24.166 27.0301 23.9785C27.2645 23.7793 27.4578 23.4863 27.6102 23.0996L36.0477 0.669922H40.1609L48.5105 23.0996C48.6629 23.498 48.8621 23.7969 49.1082 23.9961C49.3543 24.1836 49.6063 24.3008 49.8641 24.3477C50.1219 24.3945 50.4441 24.4238 50.8309 24.4355C51.0652 24.4355 51.2352 24.4414 51.3406 24.4531ZM36.575 5.08203L32.4793 16.1035H39.8797L36.575 5.08203ZM55.8688 26C55.693 26 55.5465 25.8945 55.4293 25.6836C55.3238 25.4727 55.2711 25.2793 55.2711 25.1035C55.2711 24.9043 55.3121 24.752 55.3941 24.6465C55.4762 24.541 55.6285 24.4766 55.8512 24.4531C56.9176 24.3945 57.7848 24.2539 58.4527 24.0312C59.1324 23.7969 59.4723 23.3867 59.4723 22.8008V2.79688H55.0777C54.4684 2.79688 53.9645 3.1543 53.566 3.86914C53.1793 4.57227 52.8922 5.35742 52.7047 6.22461C52.5289 7.0918 52.4176 7.83008 52.3707 8.43945C52.3473 8.63867 52.2301 8.78516 52.0191 8.87891C51.8199 8.97266 51.6031 9.01953 51.3688 9.01953C51.193 9.01953 50.9996 8.9668 50.7887 8.86133C50.5777 8.74414 50.4723 8.59766 50.4723 8.42188C50.5309 6.66406 50.6012 5 50.6832 3.42969C50.777 1.84766 50.8824 1.05664 50.9996 1.05664H73.6227C73.7398 1.05664 73.8395 1.84766 73.9215 3.42969C74.0152 5 74.0914 6.66406 74.15 8.42188C74.15 8.59766 74.0445 8.74414 73.8336 8.86133C73.6227 8.9668 73.4293 9.01953 73.2535 9.01953C73.0191 9.01953 72.7965 8.97266 72.5855 8.87891C72.3863 8.78516 72.275 8.63867 72.2516 8.43945C72.1109 7.17383 71.8414 5.91992 71.443 4.67773C71.0445 3.42383 70.4117 2.79688 69.5445 2.79688H65.3785V22.748C65.3785 23.2168 65.5602 23.5684 65.9234 23.8027C66.2867 24.0371 66.7027 24.1953 67.1715 24.2773C67.6402 24.3477 68.2262 24.4062 68.9293 24.4531C69.1871 24.4766 69.357 24.5293 69.4391 24.6113C69.5211 24.6816 69.5621 24.8457 69.5621 25.1035C69.5621 25.2793 69.5035 25.4727 69.3863 25.6836C69.2809 25.8945 69.1402 26 68.9645 26H55.8688ZM78.7133 26C78.5375 26 78.391 25.8945 78.2738 25.6836C78.1684 25.4727 78.1156 25.2793 78.1156 25.1035C78.1156 24.9043 78.1566 24.752 78.2387 24.6465C78.3207 24.541 78.473 24.4766 78.6957 24.4531C79.7621 24.3945 80.6293 24.2539 81.2973 24.0312C81.977 23.7969 82.3168 23.3867 82.3168 22.8008V2.79688H77.9223C77.3129 2.79688 76.809 3.1543 76.4105 3.86914C76.0238 4.57227 75.7367 5.35742 75.5492 6.22461C75.3734 7.0918 75.2621 7.83008 75.2152 8.43945C75.1918 8.63867 75.0746 8.78516 74.8637 8.87891C74.6645 8.97266 74.4477 9.01953 74.2133 9.01953C74.0375 9.01953 73.8441 8.9668 73.6332 8.86133C73.4223 8.74414 73.3168 8.59766 73.3168 8.42188C73.3754 6.66406 73.4457 5 73.5277 3.42969C73.6215 1.84766 73.727 1.05664 73.8441 1.05664H96.4672C96.5844 1.05664 96.684 1.84766 96.766 3.42969C96.8598 5 96.9359 6.66406 96.9945 8.42188C96.9945 8.59766 96.8891 8.74414 96.6781 8.86133C96.4672 8.9668 96.2738 9.01953 96.098 9.01953C95.8637 9.01953 95.641 8.97266 95.4301 8.87891C95.2309 8.78516 95.1195 8.63867 95.0961 8.43945C94.9555 7.17383 94.6859 5.91992 94.2875 4.67773C93.8891 3.42383 93.2562 2.79688 92.3891 2.79688H88.223V22.748C88.223 23.2168 88.4047 23.5684 88.768 23.8027C89.1312 24.0371 89.5473 24.1953 90.016 24.2773C90.4848 24.3477 91.0707 24.4062 91.7738 24.4531C92.0316 24.4766 92.2016 24.5293 92.2836 24.6113C92.3656 24.6816 92.4066 24.8457 92.4066 25.1035C92.4066 25.2793 92.348 25.4727 92.2309 25.6836C92.1254 25.8945 91.9848 26 91.809 26H78.7133ZM97.6203 25.1035C97.6203 24.9043 97.6613 24.752 97.7434 24.6465C97.8254 24.541 97.9777 24.4766 98.2004 24.4531C98.9035 24.3945 99.507 24.2832 100.011 24.1191C100.515 23.9434 100.767 23.6797 100.767 23.3281V4.30859C100.767 3.85156 100.632 3.50586 100.363 3.27148C100.093 3.03711 99.7941 2.88477 99.466 2.81445C99.1496 2.74414 98.6926 2.67383 98.0949 2.60352C97.8371 2.58008 97.6672 2.5332 97.5852 2.46289C97.5031 2.38086 97.4621 2.21094 97.4621 1.95312C97.4621 1.77734 97.5148 1.58398 97.6203 1.37305C97.7375 1.16211 97.884 1.05664 98.0598 1.05664H118.433L119.048 6.76953C119.06 6.94531 118.972 7.0918 118.784 7.20898C118.597 7.31445 118.415 7.36719 118.239 7.36719C117.607 7.36719 117.185 7.17383 116.974 6.78711C116.821 6.49414 116.575 6.00195 116.236 5.31055C115.907 4.63086 115.638 4.13281 115.427 3.81641C115.228 3.48828 114.976 3.23633 114.671 3.06055C114.378 2.88477 113.991 2.79688 113.511 2.79688H106.638V12.3242H111.331C111.613 12.2891 111.882 12.084 112.14 11.709C112.398 11.334 112.614 10.9121 112.79 10.4434C112.966 9.96289 113.071 9.58789 113.107 9.31836C113.154 8.94336 113.423 8.75586 113.915 8.75586C114.091 8.75586 114.296 8.81445 114.53 8.93164C114.765 9.03711 114.882 9.17773 114.882 9.35352V17.1406C114.882 17.3164 114.765 17.4629 114.53 17.5801C114.296 17.6855 114.091 17.7383 113.915 17.7383C113.693 17.7383 113.499 17.6973 113.335 17.6152C113.171 17.5215 113.077 17.3691 113.054 17.1582C113.03 16.8652 112.931 16.4668 112.755 15.9629C112.579 15.4473 112.357 14.9961 112.087 14.6094C111.818 14.2109 111.53 14.0117 111.226 14.0117H106.638V22.5371C106.638 23.5684 107.171 24.1309 108.238 24.2246H113.318C114.021 24.2246 114.63 24.0723 115.146 23.7676C115.673 23.4629 116.165 22.9707 116.622 22.291C117.091 21.6113 117.607 20.6621 118.169 19.4434C118.251 19.2559 118.415 19.1152 118.661 19.0215C118.907 18.916 119.142 18.8633 119.364 18.8633C119.611 18.8633 119.845 18.916 120.068 19.0215C120.302 19.127 120.431 19.2734 120.454 19.4609L119.751 26H98.218C98.0422 26 97.8957 25.8945 97.7785 25.6836C97.673 25.4727 97.6203 25.2793 97.6203 25.1035ZM122.398 26C122.223 26 122.076 25.8945 121.959 25.6836C121.854 25.4727 121.801 25.2793 121.801 25.1035C121.801 24.9043 121.842 24.752 121.924 24.6465C122.006 24.541 122.158 24.4766 122.381 24.4531C123.975 24.3242 124.771 23.9492 124.771 23.3281L124.789 4.30859C124.789 3.83984 124.666 3.48828 124.42 3.25391C124.174 3.01953 123.893 2.87305 123.576 2.81445C123.271 2.74414 122.838 2.67383 122.275 2.60352C122.018 2.58008 121.848 2.5332 121.766 2.46289C121.684 2.38086 121.643 2.21094 121.643 1.95312C121.643 1.77734 121.695 1.58398 121.801 1.37305C121.918 1.16211 122.064 1.05664 122.24 1.05664L124.156 1.03906C124.473 1.02734 124.953 1.02148 125.598 1.02148C126.23 1.02148 127.402 0.998047 129.113 0.951172C131.105 0.904297 132.711 0.880859 133.93 0.880859C137.164 0.880859 139.637 1.42578 141.348 2.51562C143.07 3.60547 143.932 5.28125 143.932 7.54297C143.932 9.01953 143.639 10.2207 143.053 11.1465C142.467 12.0723 141.711 12.7812 140.785 13.2734C139.871 13.7656 138.775 14.1758 137.498 14.5039C138.553 14.6094 139.408 14.8965 140.064 15.3652C140.732 15.834 141.254 16.3848 141.629 17.0176C142.004 17.6504 142.42 18.5059 142.877 19.584C143.182 20.2754 143.422 20.8203 143.598 21.2188C143.785 21.6055 144.002 21.9922 144.248 22.3789C144.623 23.0938 145.004 23.6035 145.391 23.9082C145.789 24.2129 146.229 24.3887 146.709 24.4355C146.955 24.459 147.119 24.5234 147.201 24.6289C147.295 24.7344 147.342 24.9219 147.342 25.1914C147.342 25.3555 147.283 25.5312 147.166 25.7188C147.061 25.9062 146.92 26 146.744 26H140.75C140.129 26 139.602 25.7715 139.168 25.3145C138.734 24.8574 138.377 24.2949 138.096 23.627C137.826 22.959 137.51 22.0449 137.146 20.8848C136.748 19.5957 136.385 18.5645 136.057 17.791C135.729 17.0176 135.283 16.3613 134.721 15.8223C134.17 15.2832 133.484 15.0137 132.664 15.0137H130.572V22.748C130.572 23.2168 130.719 23.5742 131.012 23.8203C131.305 24.0547 131.65 24.207 132.049 24.2773C132.447 24.3477 132.951 24.4062 133.561 24.4531C133.818 24.4766 133.988 24.5293 134.07 24.6113C134.152 24.6816 134.193 24.8457 134.193 25.1035C134.193 25.2793 134.135 25.4727 134.018 25.6836C133.912 25.8945 133.771 26 133.596 26H122.398ZM133.104 13.502C134.662 13.502 135.857 13.0918 136.689 12.2715C137.533 11.4395 137.955 10.0449 137.955 8.08789C137.955 6.27148 137.551 4.90039 136.742 3.97461C135.945 3.04883 134.715 2.58594 133.051 2.58594H130.572V13.502H133.104ZM173.139 1.05664C173.315 1.05664 173.456 1.13867 173.561 1.30273C173.679 1.4668 173.737 1.625 173.737 1.77734C173.737 2.03516 173.696 2.20508 173.614 2.28711C173.532 2.35742 173.362 2.4043 173.104 2.42773C172.659 2.47461 172.307 2.52734 172.05 2.58594C171.804 2.63281 171.534 2.76758 171.241 2.99023C170.96 3.20117 170.696 3.52344 170.45 3.95703L163.331 16.5957V23.0996C163.331 23.4863 163.442 23.7793 163.665 23.9785C163.899 24.166 164.175 24.2891 164.491 24.3477C164.807 24.3945 165.223 24.4238 165.739 24.4355C166.02 24.4355 166.225 24.4414 166.354 24.4531C166.647 24.4883 166.852 24.5469 166.97 24.6289C167.098 24.6992 167.163 24.8574 167.163 25.1035C167.163 25.2793 167.104 25.4727 166.987 25.6836C166.882 25.8945 166.741 26 166.565 26H154.348C154.173 26 154.026 25.8945 153.909 25.6836C153.804 25.4727 153.751 25.2793 153.751 25.1035C153.751 24.9277 153.821 24.7812 153.962 24.6641C154.102 24.5469 154.284 24.4766 154.507 24.4531L155.157 24.418C155.884 24.4062 156.44 24.3359 156.827 24.207C157.214 24.0781 157.407 23.7852 157.407 23.3281V16.7715L149.62 3.95703C149.35 3.52344 149.057 3.20117 148.741 2.99023C148.436 2.7793 148.149 2.64453 147.88 2.58594C147.622 2.52734 147.27 2.47461 146.825 2.42773C146.567 2.4043 146.397 2.35742 146.315 2.28711C146.233 2.20508 146.192 2.03516 146.192 1.77734C146.192 1.625 146.251 1.4668 146.368 1.30273C146.473 1.13867 146.614 1.05664 146.79 1.05664H159.182C159.37 1.05664 159.516 1.13867 159.622 1.30273C159.727 1.45508 159.78 1.61328 159.78 1.77734C159.78 1.97656 159.739 2.12891 159.657 2.23438C159.575 2.33984 159.423 2.4043 159.2 2.42773C159.095 2.43945 158.936 2.44531 158.725 2.44531C157.952 2.49219 157.395 2.5332 157.055 2.56836C156.727 2.5918 156.475 2.65039 156.3 2.74414C156.136 2.82617 156.054 2.95508 156.054 3.13086C156.054 3.21289 156.106 3.3418 156.212 3.51758C156.317 3.69336 156.376 3.79297 156.387 3.81641L162.223 14.5918L168.341 3.55273C168.434 3.37695 168.481 3.24805 168.481 3.16602C168.481 2.95508 168.264 2.80273 167.831 2.70898C167.409 2.60352 166.741 2.50977 165.827 2.42773C165.616 2.41602 165.464 2.35742 165.37 2.25195C165.288 2.13477 165.247 1.97656 165.247 1.77734C165.247 1.61328 165.3 1.45508 165.405 1.30273C165.511 1.13867 165.657 1.05664 165.845 1.05664H173.139ZM181.493 4.81836C181.293 4.29102 181.082 3.88672 180.86 3.60547C180.649 3.3125 180.379 3.0957 180.051 2.95508C179.735 2.80273 179.295 2.68555 178.733 2.60352C178.463 2.56836 178.288 2.51562 178.205 2.44531C178.123 2.36328 178.082 2.19922 178.082 1.95312C178.082 1.77734 178.141 1.58398 178.258 1.37305C178.364 1.16211 178.504 1.05664 178.68 1.05664H190.123C190.299 1.05664 190.44 1.16211 190.545 1.37305C190.663 1.58398 190.721 1.77734 190.721 1.95312C190.721 2.15234 190.68 2.30469 190.598 2.41016C190.516 2.51562 190.364 2.58008 190.141 2.60352C189.215 2.60352 188.553 2.7207 188.155 2.95508C187.768 3.18945 187.575 3.49414 187.575 3.86914C187.575 4.0332 187.604 4.20312 187.663 4.37891L193.2 18.6523L198.913 1.58398H201.971L208.739 18.125L213.871 4.32617C213.93 4.15039 213.959 3.98633 213.959 3.83398C213.959 3.01367 212.881 2.60352 210.725 2.60352C210.502 2.58008 210.35 2.51562 210.268 2.41016C210.186 2.30469 210.145 2.15234 210.145 1.95312C210.145 1.77734 210.198 1.58398 210.303 1.37305C210.42 1.16211 210.567 1.05664 210.743 1.05664H219.268C219.444 1.05664 219.584 1.16211 219.69 1.37305C219.807 1.58398 219.866 1.77734 219.866 1.95312C219.866 2.21094 219.819 2.38672 219.725 2.48047C219.643 2.5625 219.479 2.60352 219.233 2.60352C218.448 2.60352 217.832 2.70898 217.387 2.91992C216.954 3.13086 216.631 3.41211 216.42 3.76367C216.209 4.11523 215.987 4.61328 215.752 5.25781L207.842 26.3164H205.68L198.438 8.65039L192.479 26.3164H190.317L181.493 4.81836ZM232.216 26.5098C229.579 26.5098 227.271 25.9297 225.29 24.7695C223.31 23.5977 221.786 22.0156 220.72 20.0234C219.665 18.0312 219.138 15.8281 219.138 13.4141C219.138 11 219.665 8.81445 220.72 6.85742C221.775 4.90039 223.292 3.35938 225.273 2.23438C227.253 1.09766 229.568 0.529297 232.216 0.529297C234.864 0.529297 237.179 1.09766 239.159 2.23438C241.14 3.35938 242.657 4.90039 243.712 6.85742C244.779 8.81445 245.312 11 245.312 13.4141C245.312 15.8281 244.779 18.0312 243.712 20.0234C242.646 22.0156 241.122 23.5977 239.142 24.7695C237.161 25.9297 234.853 26.5098 232.216 26.5098ZM232.286 24.8574C234.443 24.8574 236.03 23.873 237.05 21.9043C238.07 19.9238 238.579 17.1055 238.579 13.4492C238.579 9.81641 238.052 7.02734 236.997 5.08203C235.954 3.13672 234.349 2.16406 232.181 2.16406C230.013 2.16406 228.413 3.13672 227.382 5.08203C226.363 7.01562 225.853 9.80469 225.853 13.4492C225.853 17.082 226.38 19.8945 227.435 21.8867C228.501 23.8672 230.118 24.8574 232.286 24.8574ZM247.73 26C247.555 26 247.408 25.8945 247.291 25.6836C247.186 25.4727 247.133 25.2793 247.133 25.1035C247.133 24.9043 247.174 24.752 247.256 24.6465C247.338 24.541 247.49 24.4766 247.713 24.4531C249.307 24.3242 250.104 23.9492 250.104 23.3281L250.121 4.30859C250.121 3.83984 249.998 3.48828 249.752 3.25391C249.506 3.01953 249.225 2.87305 248.908 2.81445C248.604 2.74414 248.17 2.67383 247.607 2.60352C247.35 2.58008 247.18 2.5332 247.098 2.46289C247.016 2.38086 246.975 2.21094 246.975 1.95312C246.975 1.77734 247.027 1.58398 247.133 1.37305C247.25 1.16211 247.396 1.05664 247.572 1.05664L249.488 1.03906C249.805 1.02734 250.285 1.02148 250.93 1.02148C251.562 1.02148 252.734 0.998047 254.445 0.951172C256.438 0.904297 258.043 0.880859 259.262 0.880859C262.496 0.880859 264.969 1.42578 266.68 2.51562C268.402 3.60547 269.264 5.28125 269.264 7.54297C269.264 9.01953 268.971 10.2207 268.385 11.1465C267.799 12.0723 267.043 12.7812 266.117 13.2734C265.203 13.7656 264.107 14.1758 262.83 14.5039C263.885 14.6094 264.74 14.8965 265.396 15.3652C266.064 15.834 266.586 16.3848 266.961 17.0176C267.336 17.6504 267.752 18.5059 268.209 19.584C268.514 20.2754 268.754 20.8203 268.93 21.2188C269.117 21.6055 269.334 21.9922 269.58 22.3789C269.955 23.0938 270.336 23.6035 270.723 23.9082C271.121 24.2129 271.561 24.3887 272.041 24.4355C272.287 24.459 272.451 24.5234 272.533 24.6289C272.627 24.7344 272.674 24.9219 272.674 25.1914C272.674 25.3555 272.615 25.5312 272.498 25.7188C272.393 25.9062 272.252 26 272.076 26H266.082C265.461 26 264.934 25.7715 264.5 25.3145C264.066 24.8574 263.709 24.2949 263.428 23.627C263.158 22.959 262.842 22.0449 262.479 20.8848C262.08 19.5957 261.717 18.5645 261.389 17.791C261.061 17.0176 260.615 16.3613 260.053 15.8223C259.502 15.2832 258.816 15.0137 257.996 15.0137H255.904V22.748C255.904 23.2168 256.051 23.5742 256.344 23.8203C256.637 24.0547 256.982 24.207 257.381 24.2773C257.779 24.3477 258.283 24.4062 258.893 24.4531C259.15 24.4766 259.32 24.5293 259.402 24.6113C259.484 24.6816 259.525 24.8457 259.525 25.1035C259.525 25.2793 259.467 25.4727 259.35 25.6836C259.244 25.8945 259.104 26 258.928 26H247.73ZM258.436 13.502C259.994 13.502 261.189 13.0918 262.021 12.2715C262.865 11.4395 263.287 10.0449 263.287 8.08789C263.287 6.27148 262.883 4.90039 262.074 3.97461C261.277 3.04883 260.047 2.58594 258.383 2.58594H255.904V13.502H258.436ZM274.671 26C274.495 26 274.348 25.8945 274.231 25.6836C274.126 25.4727 274.073 25.2793 274.073 25.1035C274.073 24.9043 274.114 24.752 274.196 24.6465C274.278 24.541 274.43 24.4766 274.653 24.4531C275.298 24.4062 275.884 24.2656 276.411 24.0312C276.938 23.7969 277.202 23.5039 277.202 23.1523V4.30859C277.202 3.83984 277.073 3.48828 276.815 3.25391C276.569 3.00781 276.264 2.84961 275.901 2.7793C275.55 2.69727 275.093 2.63867 274.53 2.60352C274.272 2.58008 274.102 2.5332 274.02 2.46289C273.938 2.38086 273.897 2.21094 273.897 1.95312C273.897 1.77734 273.95 1.58398 274.055 1.37305C274.173 1.16211 274.319 1.05664 274.495 1.05664H286.536C286.712 1.05664 286.852 1.16211 286.958 1.37305C287.075 1.58398 287.134 1.77734 287.134 1.95312C287.134 2.38672 286.94 2.60352 286.554 2.60352C285.464 2.60352 284.626 2.72656 284.04 2.97266C283.466 3.21875 283.179 3.64648 283.179 4.25586V22.8887C283.179 23.416 283.313 23.7734 283.583 23.9609C283.852 24.1367 284.239 24.2246 284.743 24.2246H289.559C290.075 24.2246 290.602 23.9199 291.141 23.3105C291.692 22.7012 292.202 21.9395 292.671 21.0254C293.139 20.1113 293.526 19.1914 293.831 18.2656C293.889 18.0781 294.071 17.9375 294.376 17.8438C294.692 17.7383 294.973 17.6855 295.22 17.6855C295.477 17.6855 295.712 17.7383 295.923 17.8438C296.145 17.9492 296.245 18.0957 296.221 18.2832L295.184 26H274.671ZM297.55 26C297.375 26 297.228 25.8945 297.111 25.6836C297.005 25.4727 296.953 25.2793 296.953 25.1035C296.953 24.9043 296.994 24.752 297.076 24.6465C297.158 24.541 297.31 24.4766 297.533 24.4531C298.236 24.3945 298.834 24.2832 299.326 24.1191C299.83 23.9434 300.082 23.6797 300.082 23.3281V4.30859C300.082 3.85156 299.947 3.50586 299.677 3.27148C299.408 3.03711 299.109 2.88477 298.781 2.81445C298.464 2.74414 298.007 2.67383 297.41 2.60352C297.152 2.58008 296.982 2.5332 296.9 2.46289C296.818 2.38086 296.777 2.21094 296.777 1.95312C296.777 1.77734 296.83 1.58398 296.935 1.37305C297.052 1.16211 297.199 1.05664 297.375 1.05664H309.609C312.656 1.06836 315.252 1.63672 317.396 2.76172C319.541 3.875 321.152 5.33984 322.23 7.15625C323.308 8.97266 323.847 10.9297 323.847 13.0273C323.847 15.8867 323.168 18.2949 321.808 20.252C320.449 22.1973 318.767 23.6445 316.763 24.5938C314.759 25.5312 312.796 26 310.875 26H297.55ZM306.005 23.0469C306.005 23.3633 306.269 23.6387 306.796 23.873C307.336 24.1074 308.291 24.2246 309.662 24.2246C311.314 24.2246 312.65 23.9785 313.67 23.4863C314.689 22.9824 315.498 21.9277 316.095 20.3223C316.693 18.7051 316.992 16.2969 316.992 13.0977C316.992 10.3438 316.664 8.21094 316.007 6.69922C315.363 5.17578 314.496 4.13867 313.406 3.58789C312.328 3.03711 311.021 2.76172 309.486 2.76172H306.023L306.005 23.0469Z" fill="#8B8B8B"/>
</svg>
