<svg width="73" height="85" viewBox="0 0 73 85" fill="none" xmlns="http://www.w3.org/2000/svg">
<path fill-rule="evenodd" clip-rule="evenodd" d="M37.5438 2.3445C35.7987 -0.732813 31.3261 -0.792953 29.4964 2.23628L19.1295 19.3995C18.2716 20.8198 18.2576 22.5856 19.0929 24.019L21.6414 28.3924L0.652713 63.402C-1.17643 66.453 1.05592 70.3068 4.65253 70.3068H24.0323C25.7819 70.3068 27.3831 69.3378 28.1749 67.8012L35.8843 52.8335L44.7276 68.0085C45.556 69.43 47.0926 70.3068 48.7563 70.3068H67.969C71.4259 70.3068 73.6716 66.7198 72.1207 63.6763L66.3058 52.2634L66.2977 52.2674C66.1666 52.0193 66.0136 51.7863 65.8455 51.5789C65.6555 51.3446 65.45 51.1476 65.2405 50.9993C65.0311 50.8509 64.8218 50.754 64.6247 50.7141C64.4276 50.6743 64.2466 50.6922 64.0918 50.7669C63.9371 50.8416 63.8118 50.9716 63.723 51.1495C63.6342 51.3274 63.5837 51.5497 63.5744 51.8037C63.5651 52.0577 63.5971 52.3384 63.6686 52.6299C63.7339 52.8955 63.8307 53.1652 63.9544 53.4264L63.9333 53.4368L69.7482 64.8496C70.4132 66.1542 69.4502 67.6914 67.969 67.6914H48.7563C48.0433 67.6914 47.3847 67.3154 47.0297 66.7061L37.3672 50.1254L51.1885 29.1517L51.1895 29.1522L51.2055 29.1259L51.2135 29.1138L51.213 29.1135C51.3381 28.9039 51.4357 28.6812 51.5007 28.457C51.5698 28.2187 51.6008 27.9832 51.5919 27.7639C51.5831 27.5446 51.5346 27.3457 51.4491 27.1787C51.3637 27.0116 51.2431 26.8796 51.0941 26.7903C50.9452 26.7009 50.7708 26.6559 50.5809 26.6579C50.3911 26.6599 50.1895 26.7087 49.9877 26.8017C49.7859 26.8946 49.5878 27.0299 49.4047 27.1997C49.2275 27.3641 49.0678 27.5577 48.9339 27.7702L35.8819 47.5766L24.3284 27.7505L21.395 22.7168C21.0369 22.1025 21.043 21.3457 21.4106 20.737L31.7776 3.5738C32.5617 2.27555 34.4785 2.30133 35.2264 3.62018L43.9134 18.9385L43.9149 18.9377C44.0443 19.1613 44.202 19.3661 44.3792 19.5405C44.557 19.7156 44.7509 19.8566 44.9498 19.9555C45.1486 20.0543 45.3486 20.109 45.5383 20.1166C45.7279 20.1241 45.9035 20.0843 46.055 19.9994C46.2066 19.9145 46.331 19.7862 46.4214 19.6217C46.5118 19.4573 46.5662 19.26 46.5816 19.041C46.597 18.8221 46.5731 18.5858 46.5112 18.3457C46.4494 18.1055 46.3508 17.8663 46.221 17.6416L46.2193 17.6426L37.5438 2.3445ZM2.93832 64.7321L23.161 31.0001L34.3042 50.1219L25.8077 66.6171C25.4684 67.2762 24.7822 67.6914 24.0323 67.6914H4.65253C3.11113 67.6914 2.1544 66.0398 2.93832 64.7321Z" fill="#0A4B5E"/>
<path d="M2.36482 83.6877C2.28695 83.6877 2.21971 83.6602 2.16307 83.604C2.10644 83.5484 2.07812 83.4824 2.07812 83.4052V76.6471C2.07812 76.5706 2.10644 76.5045 2.16307 76.4483C2.21971 76.3927 2.28695 76.3646 2.36482 76.3646H7.81192C7.88983 76.3646 7.95706 76.3927 8.01366 76.4483C8.07034 76.5045 8.09861 76.5706 8.09861 76.6471V78.1222C8.09861 78.1993 8.07034 78.2654 8.01366 78.3209C7.95706 78.3772 7.88983 78.4046 7.81192 78.4046H4.62649V79.0637H7.57832C7.65623 79.0637 7.72346 79.0918 7.78006 79.1474C7.83674 79.2036 7.86501 79.2697 7.86501 79.3462V80.7062C7.86501 80.7833 7.83674 80.8493 7.78006 80.9049C7.72346 80.9612 7.65623 80.9886 7.57832 80.9886H4.62649V81.6477H7.89686C7.97477 81.6477 8.042 81.6758 8.09861 81.7314C8.15528 81.7876 8.18356 81.8537 8.18356 81.9302V83.4052C8.18356 83.4824 8.15528 83.5484 8.09861 83.604C8.042 83.6602 7.97477 83.6877 7.89686 83.6877H2.36482ZM10.1903 83.6877C10.1125 83.6877 10.0453 83.6602 9.98858 83.604C9.93197 83.5484 9.90363 83.4824 9.90363 83.4052V76.6471C9.90363 76.5706 9.93197 76.5045 9.98858 76.4483C10.0453 76.3927 10.1125 76.3646 10.1903 76.3646H12.314C12.3919 76.3646 12.4591 76.3927 12.5157 76.4483C12.5724 76.5045 12.6007 76.5706 12.6007 76.6471V81.5431H15.5419C15.6198 81.5431 15.687 81.5712 15.7436 81.6268C15.8003 81.683 15.8286 81.749 15.8286 81.8255V83.4052C15.8286 83.4824 15.8003 83.5484 15.7436 83.604C15.687 83.6602 15.6198 83.6877 15.5419 83.6877H10.1903ZM17.5803 83.6877C17.5025 83.6877 17.4352 83.6602 17.3786 83.604C17.322 83.5484 17.2936 83.4824 17.2936 83.4052V76.6471C17.2936 76.5706 17.322 76.5045 17.3786 76.4483C17.4352 76.3927 17.5025 76.3646 17.5803 76.3646H19.258C19.4562 76.3646 19.6014 76.445 19.6933 76.6052L21.4878 79.5031V76.6471C21.4878 76.5706 21.5161 76.5045 21.5728 76.4483C21.6294 76.3927 21.6967 76.3646 21.7745 76.3646H23.6964C23.7743 76.3646 23.8415 76.3927 23.8981 76.4483C23.9548 76.5045 23.9831 76.5706 23.9831 76.6471V83.4052C23.9831 83.4824 23.9548 83.5484 23.8981 83.604C23.8415 83.6602 23.7743 83.6877 23.6964 83.6877H22.0187C21.8984 83.6877 21.8064 83.6635 21.7426 83.6145C21.6789 83.5661 21.6258 83.5098 21.5834 83.4471L19.7889 80.7794V83.4052C19.7889 83.4824 19.7606 83.5484 19.704 83.604C19.6473 83.6602 19.5801 83.6877 19.5022 83.6877H17.5803ZM26.1836 83.6877C26.1057 83.6877 26.0384 83.6602 25.9818 83.604C25.9252 83.5484 25.8969 83.4824 25.8969 83.4052V76.6471C25.8969 76.5706 25.9252 76.5045 25.9818 76.4483C26.0384 76.3927 26.1057 76.3646 26.1836 76.3646H31.6307C31.7085 76.3646 31.7758 76.3927 31.8324 76.4483C31.8891 76.5045 31.9174 76.5706 31.9174 76.6471V78.1222C31.9174 78.1993 31.8891 78.2654 31.8324 78.3209C31.7758 78.3772 31.7085 78.4046 31.6307 78.4046H28.4452V79.0637H31.3971C31.4749 79.0637 31.5422 79.0918 31.5988 79.1474C31.6554 79.2036 31.6838 79.2697 31.6838 79.3462V80.7062C31.6838 80.7833 31.6554 80.8493 31.5988 80.9049C31.5422 80.9612 31.4749 80.9886 31.3971 80.9886H28.4452V81.6477H31.7156C31.7935 81.6477 31.8608 81.6758 31.9174 81.7314C31.974 81.7876 32.0023 81.8537 32.0023 81.9302V83.4052C32.0023 83.4824 31.974 83.5484 31.9174 83.604C31.8608 83.6602 31.7935 83.6877 31.7156 83.6877H26.1836ZM36.8229 83.7923C36.0725 83.7923 35.4355 83.6916 34.9116 83.4889C34.3949 83.2869 34.0055 83.0182 33.7437 82.6834C33.4817 82.3421 33.3437 81.9687 33.3295 81.564C33.3295 81.5012 33.3508 81.4489 33.3933 81.4071C33.4428 81.3587 33.4994 81.3338 33.5631 81.3338H35.5806C35.6797 81.3338 35.7575 81.3482 35.8142 81.3757C35.8779 81.3966 35.9522 81.4424 36.0372 81.5117C36.2424 81.6725 36.5044 81.7523 36.8229 81.7523C37.0636 81.7523 37.2547 81.7281 37.3963 81.6791C37.545 81.6235 37.6193 81.5503 37.6193 81.4594C37.6193 81.3338 37.5237 81.2397 37.3326 81.1769C37.1415 81.1076 36.7804 81.0377 36.2495 80.9677C34.4232 80.731 33.51 79.9634 33.51 78.6662C33.51 78.1993 33.6445 77.7841 33.9135 77.4212C34.1896 77.0518 34.5719 76.7661 35.0603 76.5634C35.5487 76.3614 36.1115 76.26 36.7486 76.26C37.414 76.26 37.998 76.3718 38.5006 76.5948C39.0032 76.8184 39.3889 77.1009 39.658 77.4422C39.927 77.7769 40.0685 78.1052 40.0827 78.4255C40.0827 78.4883 40.0579 78.5445 40.0084 78.5929C39.9659 78.6348 39.9163 78.6557 39.8597 78.6557H37.7361C37.6369 78.6557 37.5591 78.6452 37.5025 78.6243C37.4458 78.5969 37.3821 78.5511 37.3114 78.4883C37.1627 78.3628 36.9751 78.3 36.7486 78.3C36.4088 78.3 36.2389 78.3981 36.2389 78.5929C36.2389 78.6975 36.3203 78.7852 36.4831 78.8545C36.653 78.9244 36.9645 78.9872 37.4175 79.0428C38.1254 79.1337 38.6917 79.2697 39.1164 79.4508C39.5482 79.6325 39.8597 79.8764 40.0509 80.1831C40.249 80.4832 40.3482 80.8631 40.3482 81.3234C40.3482 81.819 40.1959 82.2545 39.8916 82.6311C39.5872 83.0012 39.166 83.2869 38.628 83.4889C38.0971 83.6916 37.4954 83.7923 36.8229 83.7923Z" fill="#0A4B5E"/>
<path d="M44.8687 83.6877C44.7908 83.6877 44.7236 83.6602 44.667 83.604C44.6103 83.5484 44.582 83.4824 44.582 83.4052V76.6471C44.582 76.5706 44.6103 76.5045 44.667 76.4483C44.7236 76.3927 44.7908 76.3646 44.8687 76.3646H47.9268C48.5992 76.3646 49.1974 76.4764 49.7212 76.6994C50.245 76.923 50.6627 77.2506 50.9742 77.6828C51.2856 78.1156 51.452 78.6348 51.4732 79.2415C51.4874 79.6325 51.4945 79.8973 51.4945 80.0366C51.4945 80.1693 51.4874 80.4237 51.4732 80.8003C51.4308 81.7628 51.098 82.4846 50.4751 82.9658C49.8593 83.4471 49.0275 83.6877 47.9799 83.6877H44.8687ZM47.9268 81.6477C48.1745 81.6477 48.3727 81.5784 48.5214 81.4385C48.6771 81.292 48.762 81.0795 48.7762 80.8003C48.7903 80.5983 48.7975 80.3367 48.7975 80.0157C48.7975 79.6881 48.7903 79.4298 48.7762 79.2415C48.762 78.963 48.67 78.7538 48.5001 78.6139C48.3373 78.4746 48.1285 78.4046 47.8737 78.4046H47.2366V81.6477H47.9268ZM56.5512 83.7923C55.4823 83.7923 54.6328 83.5622 54.0028 83.1018C53.3728 82.635 53.0366 81.9197 52.9941 80.9572C52.987 80.7689 52.9835 80.4623 52.9835 80.0366C52.9835 79.6044 52.987 79.2906 52.9941 79.0951C53.0366 78.1607 53.3799 77.4565 54.024 76.9819C54.6682 76.5006 55.5106 76.26 56.5512 76.26C57.1883 76.26 57.7723 76.3542 58.3032 76.5425C58.8412 76.7308 59.2765 77.0276 59.6092 77.4317C59.949 77.8292 60.1224 78.3314 60.1295 78.9382C60.1295 79.0009 60.1048 79.0572 60.0552 79.1055C60.0127 79.1474 59.9596 79.1683 59.8959 79.1683H57.7298C57.6165 79.1683 57.5316 79.1474 57.475 79.1055C57.4254 79.0637 57.3794 78.9839 57.3369 78.8649C57.2591 78.6557 57.1564 78.5092 57.029 78.4255C56.9016 78.3419 56.7388 78.3 56.5406 78.3C56.2928 78.3 56.1017 78.3667 55.9672 78.4988C55.8327 78.6243 55.7619 78.8407 55.7548 79.1474C55.7477 79.3357 55.7442 79.6253 55.7442 80.0157C55.7442 80.4067 55.7477 80.7029 55.7548 80.9049C55.7619 81.2122 55.8327 81.4319 55.9672 81.564C56.1017 81.6895 56.2928 81.7523 56.5406 81.7523C56.944 81.7523 57.2095 81.564 57.3369 81.1874C57.3723 81.069 57.4148 80.9886 57.4643 80.9468C57.521 80.9049 57.6095 80.884 57.7298 80.884H59.8959C59.9596 80.884 60.0127 80.9088 60.0552 80.9572C60.1048 80.9991 60.1295 81.0514 60.1295 81.1142C60.1224 81.7209 59.949 82.227 59.6092 82.6311C59.2765 83.0286 58.8412 83.3215 58.3032 83.5098C57.7723 83.6982 57.1883 83.7923 56.5512 83.7923ZM62.0026 83.6877C61.9247 83.6877 61.8574 83.6602 61.8008 83.604C61.7442 83.5484 61.7159 83.4824 61.7159 83.4052V76.6471C61.7159 76.5706 61.7442 76.5045 61.8008 76.4483C61.8574 76.3927 61.9247 76.3646 62.0026 76.3646H63.6802C63.8785 76.3646 64.0306 76.4588 64.1368 76.6471L65.6764 79.1579L67.2157 76.6471C67.3219 76.4588 67.4746 76.3646 67.6723 76.3646H69.35C69.4283 76.3646 69.4953 76.3927 69.5517 76.4483C69.6088 76.5045 69.6367 76.5706 69.6367 76.6471V83.4052C69.6367 83.4824 69.6088 83.5484 69.5517 83.604C69.4953 83.6602 69.4283 83.6877 69.35 83.6877H67.4281C67.3505 83.6877 67.2834 83.6602 67.2264 83.604C67.17 83.5484 67.1414 83.4824 67.1414 83.4052V80.5388L66.4406 81.6686C66.3915 81.7458 66.3348 81.8085 66.2711 81.8569C66.2145 81.906 66.1401 81.9302 66.0481 81.9302H65.3048C65.2128 81.9302 65.1349 81.906 65.0712 81.8569C65.0146 81.8085 64.9615 81.7458 64.9119 81.6686L64.2111 80.5388V83.4052C64.2111 83.4824 64.1828 83.5484 64.1262 83.604C64.0696 83.6602 64.0023 83.6877 63.9244 83.6877H62.0026Z" fill="#FFC52D"/>
</svg>
