<svg width="110" height="130" viewBox="0 0 110 130" fill="none" xmlns="http://www.w3.org/2000/svg">
<path fill-rule="evenodd" clip-rule="evenodd" d="M56.5728 3.5857C53.9432 -1.12077 47.2037 -1.21275 44.4466 3.4202L28.8253 29.6698C27.5325 31.8421 27.5114 34.5427 28.7701 36.735L32.6103 43.4236L0.983541 96.9677C-1.7727 101.634 1.59111 107.528 7.01066 107.528H36.2131C38.8494 107.528 41.2622 106.046 42.4553 103.696L54.0723 80.8041L67.3978 104.013C68.646 106.187 70.9615 107.528 73.4684 107.528H102.419C107.628 107.528 111.012 102.042 108.675 97.3872L99.9128 79.9323L99.9006 79.9384C99.7031 79.5589 99.4726 79.2025 99.2192 78.8853C98.933 78.527 98.6232 78.2258 98.3076 77.9989C97.992 77.772 97.6767 77.6238 97.3797 77.5628C97.0827 77.5018 96.8099 77.5293 96.5767 77.6435C96.3436 77.7577 96.1548 77.9566 96.021 78.2286C95.8872 78.5007 95.8111 78.8407 95.7971 79.2292C95.783 79.6176 95.8312 80.047 95.939 80.4928C96.0373 80.899 96.1832 81.3115 96.3697 81.7109L96.3379 81.7268L105.1 99.1818C106.102 101.177 104.651 103.528 102.419 103.528H73.4684C72.394 103.528 71.4016 102.953 70.8667 102.021L56.3068 76.6624L77.1334 44.5849L77.1348 44.5857L77.159 44.5455L77.171 44.527L77.1702 44.5265C77.3588 44.2059 77.5058 43.8654 77.6038 43.5224C77.7079 43.158 77.7546 42.7979 77.7412 42.4625C77.7279 42.127 77.6548 41.8229 77.5261 41.5674C77.3974 41.3119 77.2156 41.11 76.9911 40.9734C76.7667 40.8367 76.5039 40.7679 76.2178 40.7709C75.9318 40.7739 75.628 40.8486 75.3239 40.9908C75.0198 41.1329 74.7213 41.3398 74.4454 41.5995C74.1784 41.8509 73.9377 42.147 73.736 42.4721L54.0686 72.7642L36.6592 42.442L32.239 34.7433C31.6995 33.8038 31.7086 32.6464 32.2626 31.7154L47.884 5.46581C49.0656 3.48026 51.9539 3.51968 53.0809 5.53674L66.1709 28.9647L66.1731 28.9635C66.3681 29.3055 66.6058 29.6187 66.8727 29.8854C67.1406 30.1532 67.4328 30.3689 67.7325 30.5201C68.0322 30.6713 68.3335 30.755 68.6193 30.7666C68.905 30.7781 69.1696 30.7172 69.3979 30.5873C69.6263 30.4575 69.8139 30.2612 69.95 30.0097C70.0862 29.7582 70.1682 29.4564 70.1914 29.1215C70.2147 28.7867 70.1786 28.4253 70.0854 28.0581C69.9922 27.6908 69.8436 27.3249 69.6481 26.9813L69.6455 26.9828L56.5728 3.5857ZM4.42761 99.002L34.9002 47.4119L51.6913 76.657L38.8883 101.885C38.377 102.893 37.343 103.528 36.2131 103.528H7.01066C4.688 103.528 3.24636 101.002 4.42761 99.002Z" fill="#0A4B5E"/>
<path d="M3.56224 127.993C3.44491 127.993 3.34358 127.951 3.25824 127.865C3.17291 127.78 3.13024 127.679 3.13024 127.561V117.225C3.13024 117.108 3.17291 117.007 3.25824 116.921C3.34358 116.836 3.44491 116.793 3.56224 116.793H11.7702C11.8876 116.793 11.9889 116.836 12.0742 116.921C12.1596 117.007 12.2022 117.108 12.2022 117.225V119.481C12.2022 119.599 12.1596 119.7 12.0742 119.785C11.9889 119.871 11.8876 119.913 11.7702 119.913H6.97024V120.921H11.4182C11.5356 120.921 11.6369 120.964 11.7222 121.049C11.8076 121.135 11.8502 121.236 11.8502 121.353V123.433C11.8502 123.551 11.8076 123.652 11.7222 123.737C11.6369 123.823 11.5356 123.865 11.4182 123.865H6.97024V124.873H11.8982C12.0156 124.873 12.1169 124.916 12.2022 125.001C12.2876 125.087 12.3302 125.188 12.3302 125.305V127.561C12.3302 127.679 12.2876 127.78 12.2022 127.865C12.1169 127.951 12.0156 127.993 11.8982 127.993H3.56224ZM15.3541 127.993C15.2368 127.993 15.1355 127.951 15.0501 127.865C14.9648 127.78 14.9221 127.679 14.9221 127.561V117.225C14.9221 117.108 14.9648 117.007 15.0501 116.921C15.1355 116.836 15.2368 116.793 15.3541 116.793H18.5541C18.6715 116.793 18.7728 116.836 18.8581 116.921C18.9435 117.007 18.9861 117.108 18.9861 117.225V124.713H23.4181C23.5355 124.713 23.6368 124.756 23.7221 124.841C23.8075 124.927 23.8501 125.028 23.8501 125.145V127.561C23.8501 127.679 23.8075 127.78 23.7221 127.865C23.6368 127.951 23.5355 127.993 23.4181 127.993H15.3541ZM26.4897 127.993C26.3724 127.993 26.2711 127.951 26.1857 127.865C26.1004 127.78 26.0577 127.679 26.0577 127.561V117.225C26.0577 117.108 26.1004 117.007 26.1857 116.921C26.2711 116.836 26.3724 116.793 26.4897 116.793H29.0177C29.3164 116.793 29.5351 116.916 29.6737 117.161L32.3777 121.593V117.225C32.3777 117.108 32.4204 117.007 32.5057 116.921C32.5911 116.836 32.6924 116.793 32.8097 116.793H35.7057C35.8231 116.793 35.9244 116.836 36.0097 116.921C36.0951 117.007 36.1377 117.108 36.1377 117.225V127.561C36.1377 127.679 36.0951 127.78 36.0097 127.865C35.9244 127.951 35.8231 127.993 35.7057 127.993H33.1777C32.9964 127.993 32.8577 127.956 32.7617 127.881C32.6657 127.807 32.5857 127.721 32.5217 127.625L29.8177 123.545V127.561C29.8177 127.679 29.7751 127.78 29.6897 127.865C29.6044 127.951 29.5031 127.993 29.3857 127.993H26.4897ZM39.4535 127.993C39.3362 127.993 39.2348 127.951 39.1495 127.865C39.0642 127.78 39.0215 127.679 39.0215 127.561V117.225C39.0215 117.108 39.0642 117.007 39.1495 116.921C39.2348 116.836 39.3362 116.793 39.4535 116.793H47.6615C47.7788 116.793 47.8802 116.836 47.9655 116.921C48.0508 117.007 48.0935 117.108 48.0935 117.225V119.481C48.0935 119.599 48.0508 119.7 47.9655 119.785C47.8802 119.871 47.7788 119.913 47.6615 119.913H42.8615V120.921H47.3095C47.4268 120.921 47.5282 120.964 47.6135 121.049C47.6988 121.135 47.7415 121.236 47.7415 121.353V123.433C47.7415 123.551 47.6988 123.652 47.6135 123.737C47.5282 123.823 47.4268 123.865 47.3095 123.865H42.8615V124.873H47.7895C47.9068 124.873 48.0082 124.916 48.0935 125.001C48.1788 125.087 48.2215 125.188 48.2215 125.305V127.561C48.2215 127.679 48.1788 127.78 48.0935 127.865C48.0082 127.951 47.9068 127.993 47.7895 127.993H39.4535ZM55.4854 128.153C54.3547 128.153 53.3947 127.999 52.6054 127.689C51.8267 127.38 51.24 126.969 50.8454 126.457C50.4507 125.935 50.2427 125.364 50.2214 124.745C50.2214 124.649 50.2534 124.569 50.3174 124.505C50.392 124.431 50.4774 124.393 50.5734 124.393H53.6134C53.7627 124.393 53.88 124.415 53.9654 124.457C54.0614 124.489 54.1734 124.559 54.3014 124.665C54.6107 124.911 55.0054 125.033 55.4854 125.033C55.848 125.033 56.136 124.996 56.3494 124.921C56.5734 124.836 56.6854 124.724 56.6854 124.585C56.6854 124.393 56.5414 124.249 56.2534 124.153C55.9654 124.047 55.4214 123.94 54.6214 123.833C51.8694 123.471 50.4934 122.297 50.4934 120.313C50.4934 119.599 50.696 118.964 51.1014 118.409C51.5174 117.844 52.0934 117.407 52.8294 117.097C53.5654 116.788 54.4134 116.633 55.3734 116.633C56.376 116.633 57.256 116.804 58.0134 117.145C58.7707 117.487 59.352 117.919 59.7574 118.441C60.1627 118.953 60.376 119.455 60.3974 119.945C60.3974 120.041 60.36 120.127 60.2854 120.201C60.2214 120.265 60.1467 120.297 60.0614 120.297H56.8614C56.712 120.297 56.5947 120.281 56.5094 120.249C56.424 120.207 56.328 120.137 56.2214 120.041C55.9974 119.849 55.7147 119.753 55.3734 119.753C54.8614 119.753 54.6054 119.903 54.6054 120.201C54.6054 120.361 54.728 120.495 54.9734 120.601C55.2294 120.708 55.6987 120.804 56.3814 120.889C57.448 121.028 58.3014 121.236 58.9414 121.513C59.592 121.791 60.0614 122.164 60.3494 122.633C60.648 123.092 60.7974 123.673 60.7974 124.377C60.7974 125.135 60.568 125.801 60.1094 126.377C59.6507 126.943 59.016 127.38 58.2054 127.689C57.4054 127.999 56.4987 128.153 55.4854 128.153Z" fill="#0A4B5E"/>
<path d="M67.6104 127.993C67.493 127.993 67.3917 127.951 67.3064 127.865C67.221 127.78 67.1784 127.679 67.1784 127.561V117.225C67.1784 117.108 67.221 117.007 67.3064 116.921C67.3917 116.836 67.493 116.793 67.6104 116.793H72.2184C73.2317 116.793 74.133 116.964 74.9224 117.305C75.7117 117.647 76.341 118.148 76.8104 118.809C77.2797 119.471 77.5304 120.265 77.5624 121.193C77.5837 121.791 77.5944 122.196 77.5944 122.409C77.5944 122.612 77.5837 123.001 77.5624 123.577C77.4984 125.049 76.997 126.153 76.0584 126.889C75.1304 127.625 73.877 127.993 72.2984 127.993H67.6104ZM72.2184 124.873C72.5917 124.873 72.8904 124.767 73.1144 124.553C73.349 124.329 73.477 124.004 73.4984 123.577C73.5197 123.268 73.5304 122.868 73.5304 122.377C73.5304 121.876 73.5197 121.481 73.4984 121.193C73.477 120.767 73.3384 120.447 73.0824 120.233C72.837 120.02 72.5224 119.913 72.1384 119.913H71.1784V124.873H72.2184ZM85.2141 128.153C83.6034 128.153 82.3234 127.801 81.3741 127.097C80.4248 126.383 79.9181 125.289 79.8541 123.817C79.8434 123.529 79.8381 123.06 79.8381 122.409C79.8381 121.748 79.8434 121.268 79.8541 120.969C79.9181 119.54 80.4354 118.463 81.4061 117.737C82.3768 117.001 83.6461 116.633 85.2141 116.633C86.1741 116.633 87.0541 116.777 87.8541 117.065C88.6648 117.353 89.3208 117.807 89.8221 118.425C90.3341 119.033 90.5954 119.801 90.6061 120.729C90.6061 120.825 90.5688 120.911 90.4941 120.985C90.4301 121.049 90.3501 121.081 90.2541 121.081H86.9901C86.8194 121.081 86.6914 121.049 86.6061 120.985C86.5314 120.921 86.4621 120.799 86.3981 120.617C86.2808 120.297 86.1261 120.073 85.9341 119.945C85.7421 119.817 85.4968 119.753 85.1981 119.753C84.8248 119.753 84.5368 119.855 84.3341 120.057C84.1314 120.249 84.0248 120.58 84.0141 121.049C84.0034 121.337 83.9981 121.78 83.9981 122.377C83.9981 122.975 84.0034 123.428 84.0141 123.737C84.0248 124.207 84.1314 124.543 84.3341 124.745C84.5368 124.937 84.8248 125.033 85.1981 125.033C85.8061 125.033 86.2061 124.745 86.3981 124.169C86.4514 123.988 86.5154 123.865 86.5901 123.801C86.6754 123.737 86.8088 123.705 86.9901 123.705H90.2541C90.3501 123.705 90.4301 123.743 90.4941 123.817C90.5688 123.881 90.6061 123.961 90.6061 124.057C90.5954 124.985 90.3341 125.759 89.8221 126.377C89.3208 126.985 88.6648 127.433 87.8541 127.721C87.0541 128.009 86.1741 128.153 85.2141 128.153ZM93.4285 127.993C93.3112 127.993 93.2098 127.951 93.1245 127.865C93.0392 127.78 92.9965 127.679 92.9965 127.561V117.225C92.9965 117.108 93.0392 117.007 93.1245 116.921C93.2098 116.836 93.3112 116.793 93.4285 116.793H95.9565C96.2552 116.793 96.4845 116.937 96.6445 117.225L98.9645 121.065L101.284 117.225C101.444 116.937 101.674 116.793 101.972 116.793H104.5C104.618 116.793 104.719 116.836 104.804 116.921C104.89 117.007 104.932 117.108 104.932 117.225V127.561C104.932 127.679 104.89 127.78 104.804 127.865C104.719 127.951 104.618 127.993 104.5 127.993H101.604C101.487 127.993 101.386 127.951 101.3 127.865C101.215 127.78 101.172 127.679 101.172 127.561V123.177L100.116 124.905C100.042 125.023 99.9565 125.119 99.8605 125.193C99.7752 125.268 99.6632 125.305 99.5245 125.305H98.4045C98.2658 125.305 98.1485 125.268 98.0525 125.193C97.9672 125.119 97.8872 125.023 97.8125 124.905L96.7565 123.177V127.561C96.7565 127.679 96.7138 127.78 96.6285 127.865C96.5432 127.951 96.4418 127.993 96.3245 127.993H93.4285Z" fill="#FFC52D"/>
</svg>
