<svg width="110" height="130" viewBox="0 0 110 130" fill="none" xmlns="http://www.w3.org/2000/svg">
<path fill-rule="evenodd" clip-rule="evenodd" d="M56.5728 3.59229C53.9432 -1.11418 47.2037 -1.20616 44.4466 3.42679L28.8253 29.6764C27.5325 31.8487 27.5114 34.5493 28.7701 36.7416L32.6103 43.4302L0.983541 96.9743C-1.7727 101.641 1.59111 107.534 7.01066 107.534H36.2131C38.8494 107.534 41.2622 106.053 42.4553 103.702L54.0723 80.8107L67.3978 104.02C68.646 106.194 70.9615 107.534 73.4684 107.534H102.419C107.628 107.534 111.012 102.049 108.675 97.3938L99.9128 79.9389L99.9006 79.945C99.7031 79.5655 99.4726 79.2091 99.2192 78.8919C98.933 78.5336 98.6232 78.2324 98.3076 78.0055C97.992 77.7786 97.6767 77.6304 97.3797 77.5694C97.0827 77.5084 96.8099 77.5359 96.5767 77.6501C96.3436 77.7643 96.1548 77.9632 96.021 78.2352C95.8872 78.5073 95.8111 78.8473 95.7971 79.2358C95.783 79.6242 95.8312 80.0536 95.939 80.4994C96.0373 80.9056 96.1832 81.3181 96.3697 81.7174L96.3379 81.7334L105.1 99.1884C106.102 101.183 104.651 103.534 102.419 103.534H73.4684C72.394 103.534 71.4016 102.96 70.8667 102.028L56.3068 76.669L77.1334 44.5915L77.1348 44.5923L77.159 44.552L77.171 44.5336L77.1702 44.5331C77.3588 44.2125 77.5058 43.872 77.6038 43.529C77.7079 43.1646 77.7546 42.8045 77.7412 42.469C77.7279 42.1336 77.6548 41.8295 77.5261 41.574C77.3974 41.3185 77.2156 41.1166 76.9911 40.98C76.7667 40.8433 76.5039 40.7745 76.2178 40.7775C75.9318 40.7805 75.628 40.8552 75.3239 40.9973C75.0198 41.1395 74.7213 41.3464 74.4454 41.6061C74.1784 41.8575 73.9377 42.1536 73.736 42.4786L54.0686 72.7708L36.6592 42.4486L32.239 34.7499C31.6995 33.8104 31.7086 32.653 32.2626 31.722L47.884 5.4724C49.0656 3.48685 51.9539 3.52627 53.0809 5.54333L66.1709 28.9713L66.1731 28.97C66.3681 29.312 66.6058 29.6253 66.8727 29.892C67.1406 30.1598 67.4328 30.3755 67.7325 30.5267C68.0322 30.6779 68.3335 30.7616 68.6193 30.7732C68.905 30.7847 69.1696 30.7238 69.3979 30.5939C69.6263 30.4641 69.8139 30.2678 69.95 30.0163C70.0862 29.7647 70.1682 29.463 70.1914 29.1281C70.2147 28.7932 70.1786 28.4319 70.0854 28.0647C69.9922 27.6974 69.8436 27.3315 69.6481 26.9879L69.6455 26.9894L56.5728 3.59229ZM4.42761 99.0086L34.9002 47.4185L51.6913 76.6636L38.8883 101.892C38.377 102.899 37.343 103.534 36.2131 103.534H7.01066C4.688 103.534 3.24636 101.008 4.42761 99.0086Z" fill="#8B8B8B"/>
<path d="M3.562 128C3.44467 128 3.34333 127.957 3.258 127.872C3.17267 127.787 3.13 127.685 3.13 127.568V117.232C3.13 117.115 3.17267 117.013 3.258 116.928C3.34333 116.843 3.44467 116.8 3.562 116.8H11.77C11.8873 116.8 11.9887 116.843 12.074 116.928C12.1593 117.013 12.202 117.115 12.202 117.232V119.488C12.202 119.605 12.1593 119.707 12.074 119.792C11.9887 119.877 11.8873 119.92 11.77 119.92H6.97V120.928H11.418C11.5353 120.928 11.6367 120.971 11.722 121.056C11.8073 121.141 11.85 121.243 11.85 121.36V123.44C11.85 123.557 11.8073 123.659 11.722 123.744C11.6367 123.829 11.5353 123.872 11.418 123.872H6.97V124.88H11.898C12.0153 124.88 12.1167 124.923 12.202 125.008C12.2873 125.093 12.33 125.195 12.33 125.312V127.568C12.33 127.685 12.2873 127.787 12.202 127.872C12.1167 127.957 12.0153 128 11.898 128H3.562ZM15.3539 128C15.2365 128 15.1352 127.957 15.0499 127.872C14.9645 127.787 14.9219 127.685 14.9219 127.568V117.232C14.9219 117.115 14.9645 117.013 15.0499 116.928C15.1352 116.843 15.2365 116.8 15.3539 116.8H18.5539C18.6712 116.8 18.7725 116.843 18.8579 116.928C18.9432 117.013 18.9859 117.115 18.9859 117.232V124.72H23.4179C23.5352 124.72 23.6365 124.763 23.7219 124.848C23.8072 124.933 23.8499 125.035 23.8499 125.152V127.568C23.8499 127.685 23.8072 127.787 23.7219 127.872C23.6365 127.957 23.5352 128 23.4179 128H15.3539ZM26.4895 128C26.3722 128 26.2708 127.957 26.1855 127.872C26.1002 127.787 26.0575 127.685 26.0575 127.568V117.232C26.0575 117.115 26.1002 117.013 26.1855 116.928C26.2708 116.843 26.3722 116.8 26.4895 116.8H29.0175C29.3162 116.8 29.5348 116.923 29.6735 117.168L32.3775 121.6V117.232C32.3775 117.115 32.4202 117.013 32.5055 116.928C32.5908 116.843 32.6922 116.8 32.8095 116.8H35.7055C35.8228 116.8 35.9242 116.843 36.0095 116.928C36.0948 117.013 36.1375 117.115 36.1375 117.232V127.568C36.1375 127.685 36.0948 127.787 36.0095 127.872C35.9242 127.957 35.8228 128 35.7055 128H33.1775C32.9962 128 32.8575 127.963 32.7615 127.888C32.6655 127.813 32.5855 127.728 32.5215 127.632L29.8175 123.552V127.568C29.8175 127.685 29.7748 127.787 29.6895 127.872C29.6042 127.957 29.5028 128 29.3855 128H26.4895ZM39.4533 128C39.3359 128 39.2346 127.957 39.1493 127.872C39.0639 127.787 39.0213 127.685 39.0213 127.568V117.232C39.0213 117.115 39.0639 117.013 39.1493 116.928C39.2346 116.843 39.3359 116.8 39.4533 116.8H47.6613C47.7786 116.8 47.8799 116.843 47.9653 116.928C48.0506 117.013 48.0933 117.115 48.0933 117.232V119.488C48.0933 119.605 48.0506 119.707 47.9653 119.792C47.8799 119.877 47.7786 119.92 47.6613 119.92H42.8613V120.928H47.3093C47.4266 120.928 47.5279 120.971 47.6133 121.056C47.6986 121.141 47.7413 121.243 47.7413 121.36V123.44C47.7413 123.557 47.6986 123.659 47.6133 123.744C47.5279 123.829 47.4266 123.872 47.3093 123.872H42.8613V124.88H47.7893C47.9066 124.88 48.0079 124.923 48.0933 125.008C48.1786 125.093 48.2213 125.195 48.2213 125.312V127.568C48.2213 127.685 48.1786 127.787 48.0933 127.872C48.0079 127.957 47.9066 128 47.7893 128H39.4533ZM55.4851 128.16C54.3545 128.16 53.3945 128.005 52.6051 127.696C51.8265 127.387 51.2398 126.976 50.8451 126.464C50.4505 125.941 50.2425 125.371 50.2211 124.752C50.2211 124.656 50.2531 124.576 50.3171 124.512C50.3918 124.437 50.4771 124.4 50.5731 124.4H53.6131C53.7625 124.4 53.8798 124.421 53.9651 124.464C54.0611 124.496 54.1731 124.565 54.3011 124.672C54.6105 124.917 55.0051 125.04 55.4851 125.04C55.8478 125.04 56.1358 125.003 56.3491 124.928C56.5731 124.843 56.6851 124.731 56.6851 124.592C56.6851 124.4 56.5411 124.256 56.2531 124.16C55.9651 124.053 55.4211 123.947 54.6211 123.84C51.8691 123.477 50.4931 122.304 50.4931 120.32C50.4931 119.605 50.6958 118.971 51.1011 118.416C51.5171 117.851 52.0931 117.413 52.8291 117.104C53.5651 116.795 54.4131 116.64 55.3731 116.64C56.3758 116.64 57.2558 116.811 58.0131 117.152C58.7705 117.493 59.3518 117.925 59.7571 118.448C60.1625 118.96 60.3758 119.461 60.3971 119.952C60.3971 120.048 60.3598 120.133 60.2851 120.208C60.2211 120.272 60.1465 120.304 60.0611 120.304H56.8611C56.7118 120.304 56.5945 120.288 56.5091 120.256C56.4238 120.213 56.3278 120.144 56.2211 120.048C55.9971 119.856 55.7145 119.76 55.3731 119.76C54.8611 119.76 54.6051 119.909 54.6051 120.208C54.6051 120.368 54.7278 120.501 54.9731 120.608C55.2291 120.715 55.6985 120.811 56.3811 120.896C57.4478 121.035 58.3011 121.243 58.9411 121.52C59.5918 121.797 60.0611 122.171 60.3491 122.64C60.6478 123.099 60.7971 123.68 60.7971 124.384C60.7971 125.141 60.5678 125.808 60.1091 126.384C59.6505 126.949 59.0158 127.387 58.2051 127.696C57.4051 128.005 56.4985 128.16 55.4851 128.16ZM67.6101 128C67.4928 128 67.3915 127.957 67.3061 127.872C67.2208 127.787 67.1781 127.685 67.1781 127.568V117.232C67.1781 117.115 67.2208 117.013 67.3061 116.928C67.3915 116.843 67.4928 116.8 67.6101 116.8H72.2181C73.2315 116.8 74.1328 116.971 74.9221 117.312C75.7115 117.653 76.3408 118.155 76.8101 118.816C77.2795 119.477 77.5301 120.272 77.5621 121.2C77.5835 121.797 77.5941 122.203 77.5941 122.416C77.5941 122.619 77.5835 123.008 77.5621 123.584C77.4981 125.056 76.9968 126.16 76.0581 126.896C75.1301 127.632 73.8768 128 72.2981 128H67.6101ZM72.2181 124.88C72.5915 124.88 72.8901 124.773 73.1141 124.56C73.3488 124.336 73.4768 124.011 73.4981 123.584C73.5195 123.275 73.5301 122.875 73.5301 122.384C73.5301 121.883 73.5195 121.488 73.4981 121.2C73.4768 120.773 73.3381 120.453 73.0821 120.24C72.8368 120.027 72.5221 119.92 72.1381 119.92H71.1781V124.88H72.2181ZM85.2139 128.16C83.6032 128.16 82.3232 127.808 81.3739 127.104C80.4245 126.389 79.9179 125.296 79.8539 123.824C79.8432 123.536 79.8379 123.067 79.8379 122.416C79.8379 121.755 79.8432 121.275 79.8539 120.976C79.9179 119.547 80.4352 118.469 81.4059 117.744C82.3765 117.008 83.6459 116.64 85.2139 116.64C86.1739 116.64 87.0539 116.784 87.8539 117.072C88.6645 117.36 89.3205 117.813 89.8219 118.432C90.3339 119.04 90.5952 119.808 90.6059 120.736C90.6059 120.832 90.5685 120.917 90.4939 120.992C90.4299 121.056 90.3499 121.088 90.2539 121.088H86.9899C86.8192 121.088 86.6912 121.056 86.6059 120.992C86.5312 120.928 86.4619 120.805 86.3979 120.624C86.2805 120.304 86.1259 120.08 85.9339 119.952C85.7419 119.824 85.4965 119.76 85.1979 119.76C84.8245 119.76 84.5365 119.861 84.3339 120.064C84.1312 120.256 84.0245 120.587 84.0139 121.056C84.0032 121.344 83.9979 121.787 83.9979 122.384C83.9979 122.981 84.0032 123.435 84.0139 123.744C84.0245 124.213 84.1312 124.549 84.3339 124.752C84.5365 124.944 84.8245 125.04 85.1979 125.04C85.8059 125.04 86.2059 124.752 86.3979 124.176C86.4512 123.995 86.5152 123.872 86.5899 123.808C86.6752 123.744 86.8085 123.712 86.9899 123.712H90.2539C90.3499 123.712 90.4299 123.749 90.4939 123.824C90.5685 123.888 90.6059 123.968 90.6059 124.064C90.5952 124.992 90.3339 125.765 89.8219 126.384C89.3205 126.992 88.6645 127.44 87.8539 127.728C87.0539 128.016 86.1739 128.16 85.2139 128.16ZM93.4282 128C93.3109 128 93.2096 127.957 93.1242 127.872C93.0389 127.787 92.9962 127.685 92.9962 127.568V117.232C92.9962 117.115 93.0389 117.013 93.1242 116.928C93.2096 116.843 93.3109 116.8 93.4282 116.8H95.9562C96.2549 116.8 96.4842 116.944 96.6442 117.232L98.9642 121.072L101.284 117.232C101.444 116.944 101.674 116.8 101.972 116.8H104.5C104.618 116.8 104.719 116.843 104.804 116.928C104.89 117.013 104.932 117.115 104.932 117.232V127.568C104.932 127.685 104.89 127.787 104.804 127.872C104.719 127.957 104.618 128 104.5 128H101.604C101.487 128 101.386 127.957 101.3 127.872C101.215 127.787 101.172 127.685 101.172 127.568V123.184L100.116 124.912C100.042 125.029 99.9562 125.125 99.8602 125.2C99.7749 125.275 99.6629 125.312 99.5242 125.312H98.4042C98.2656 125.312 98.1482 125.275 98.0522 125.2C97.9669 125.125 97.8869 125.029 97.8122 124.912L96.7562 123.184V127.568C96.7562 127.685 96.7136 127.787 96.6282 127.872C96.5429 127.957 96.4416 128 96.3242 128H93.4282Z" fill="#8B8B8B"/>
</svg>
