<svg width="116" height="128" viewBox="0 0 116 128" fill="none" xmlns="http://www.w3.org/2000/svg">
<path d="M1.20312 123C1.125 123 1.0599 122.953 1.00781 122.859C0.960938 122.766 0.9375 122.68 0.9375 122.602C0.9375 122.513 0.955729 122.445 0.992188 122.398C1.02865 122.352 1.09635 122.323 1.19531 122.312C1.85677 122.26 2.1875 122.094 2.1875 121.812V113.359C2.1875 113.151 2.13281 112.995 2.02344 112.891C1.91406 112.786 1.78906 112.721 1.64844 112.695C1.51302 112.664 1.32031 112.633 1.07031 112.602C0.955729 112.591 0.880208 112.57 0.84375 112.539C0.807292 112.503 0.789062 112.427 0.789062 112.312C0.789062 112.234 0.8125 112.148 0.859375 112.055C0.911458 111.961 0.976562 111.914 1.05469 111.914H3.35938C3.79688 111.914 4.39062 111.898 5.14062 111.867C5.78646 111.846 6.22917 111.836 6.46875 111.836C9.34896 111.836 10.7891 112.927 10.7891 115.109C10.7891 115.828 10.6276 116.453 10.3047 116.984C9.98177 117.51 9.47917 117.922 8.79688 118.219C8.11979 118.516 7.26562 118.664 6.23438 118.664H4.80469V121.555C4.80469 121.758 4.90365 121.914 5.10156 122.023C5.30469 122.128 5.52083 122.198 5.75 122.234C5.98438 122.266 6.27344 122.292 6.61719 122.312C6.73177 122.323 6.80729 122.346 6.84375 122.383C6.88021 122.414 6.89844 122.487 6.89844 122.602C6.89844 122.68 6.8724 122.766 6.82031 122.859C6.77344 122.953 6.71094 123 6.63281 123H1.20312ZM5.66406 117.914C6.3151 117.914 6.85156 117.714 7.27344 117.312C7.70052 116.911 7.91406 116.232 7.91406 115.273C7.91406 114.57 7.83073 114.026 7.66406 113.641C7.5026 113.25 7.26042 112.979 6.9375 112.828C6.61458 112.672 6.1901 112.594 5.66406 112.594H4.80469V117.914H5.66406ZM11.5437 123C11.4656 123 11.4005 122.953 11.3484 122.859C11.3016 122.766 11.2781 122.68 11.2781 122.602C11.2781 122.513 11.2964 122.445 11.3328 122.398C11.3693 122.352 11.437 122.323 11.5359 122.312C12.2443 122.255 12.5984 122.089 12.5984 121.812L12.6062 113.359C12.6062 113.151 12.5516 112.995 12.4422 112.891C12.3328 112.786 12.2078 112.721 12.0672 112.695C11.9318 112.664 11.7391 112.633 11.4891 112.602C11.3745 112.591 11.299 112.57 11.2625 112.539C11.226 112.503 11.2078 112.427 11.2078 112.312C11.2078 112.234 11.2312 112.148 11.2781 112.055C11.3302 111.961 11.3953 111.914 11.4734 111.914L12.325 111.906C12.4656 111.901 12.6792 111.898 12.9656 111.898C13.2469 111.898 13.7677 111.888 14.5281 111.867C15.4135 111.846 16.1271 111.836 16.6687 111.836C18.1062 111.836 19.2052 112.078 19.9656 112.562C20.7312 113.047 21.1141 113.792 21.1141 114.797C21.1141 115.453 20.9839 115.987 20.7234 116.398C20.463 116.81 20.1271 117.125 19.7156 117.344C19.3094 117.562 18.8224 117.745 18.2547 117.891C18.7234 117.938 19.1036 118.065 19.3953 118.273C19.6922 118.482 19.924 118.727 20.0906 119.008C20.2573 119.289 20.4422 119.669 20.6453 120.148C20.7807 120.456 20.8875 120.698 20.9656 120.875C21.049 121.047 21.1453 121.219 21.2547 121.391C21.4214 121.708 21.5906 121.935 21.7625 122.07C21.9396 122.206 22.1349 122.284 22.3484 122.305C22.4578 122.315 22.5307 122.344 22.5672 122.391C22.6089 122.438 22.6297 122.521 22.6297 122.641C22.6297 122.714 22.6036 122.792 22.5516 122.875C22.5047 122.958 22.4422 123 22.3641 123H19.7C19.424 123 19.1896 122.898 18.9969 122.695C18.8042 122.492 18.6453 122.242 18.5203 121.945C18.4005 121.648 18.2599 121.242 18.0984 120.727C17.9214 120.154 17.7599 119.695 17.6141 119.352C17.4682 119.008 17.2703 118.716 17.0203 118.477C16.7755 118.237 16.4708 118.117 16.1062 118.117H15.1766V121.555C15.1766 121.763 15.2417 121.922 15.3719 122.031C15.5021 122.135 15.6557 122.203 15.8328 122.234C16.0099 122.266 16.2339 122.292 16.5047 122.312C16.6193 122.323 16.6948 122.346 16.7312 122.383C16.7677 122.414 16.7859 122.487 16.7859 122.602C16.7859 122.68 16.7599 122.766 16.7078 122.859C16.6609 122.953 16.5984 123 16.5203 123H11.5437ZM16.3016 117.445C16.9943 117.445 17.5255 117.263 17.8953 116.898C18.2703 116.529 18.4578 115.909 18.4578 115.039C18.4578 114.232 18.2781 113.622 17.9187 113.211C17.5646 112.799 17.0177 112.594 16.2781 112.594H15.1766V117.445H16.3016ZM23.5094 123C23.4312 123 23.3661 122.953 23.3141 122.859C23.2672 122.766 23.2437 122.68 23.2437 122.602C23.2437 122.513 23.262 122.445 23.2984 122.398C23.3349 122.352 23.4026 122.323 23.5016 122.312C23.8141 122.286 24.0797 122.237 24.2984 122.164C24.5224 122.086 24.6344 121.969 24.6344 121.812L24.6422 113.359C24.6422 113.151 24.5797 112.995 24.4547 112.891C24.3349 112.786 24.1969 112.719 24.0406 112.688C23.8844 112.651 23.6891 112.622 23.4547 112.602C23.3401 112.591 23.2646 112.57 23.2281 112.539C23.1917 112.503 23.1734 112.427 23.1734 112.312C23.1734 112.234 23.1969 112.148 23.2437 112.055C23.2958 111.961 23.3609 111.914 23.4391 111.914H28.4C28.4781 111.914 28.5406 111.961 28.5875 112.055C28.6396 112.148 28.6656 112.234 28.6656 112.312C28.6656 112.401 28.6474 112.469 28.6109 112.516C28.5745 112.562 28.5068 112.591 28.4078 112.602C27.6526 112.659 27.275 112.826 27.275 113.102L27.2672 121.555C27.2672 121.763 27.3271 121.919 27.4469 122.023C27.5719 122.128 27.7125 122.198 27.8687 122.234C28.025 122.266 28.2203 122.292 28.4547 122.312C28.5693 122.323 28.6448 122.346 28.6812 122.383C28.7177 122.414 28.7359 122.487 28.7359 122.602C28.7359 122.68 28.7099 122.766 28.6578 122.859C28.6109 122.953 28.5484 123 28.4703 123H23.5094ZM29.5688 123C29.4906 123 29.4255 122.953 29.3734 122.859C29.3266 122.766 29.3031 122.68 29.3031 122.602C29.3031 122.513 29.3214 122.445 29.3578 122.398C29.3943 122.352 29.462 122.323 29.5609 122.312C29.8422 122.297 30.074 122.271 30.2563 122.234C30.4385 122.198 30.5948 122.128 30.725 122.023C30.8604 121.919 30.9281 121.766 30.9281 121.562V113.359C30.9281 113.151 30.8552 112.995 30.7094 112.891C30.5688 112.786 30.4047 112.719 30.2172 112.688C30.0297 112.651 29.7953 112.622 29.5141 112.602C29.3995 112.591 29.324 112.57 29.2875 112.539C29.251 112.503 29.2328 112.427 29.2328 112.312C29.2328 112.234 29.2563 112.151 29.3031 112.062C29.3552 111.969 29.4203 111.919 29.4984 111.914H34.4984V111.953L37.1156 119.234L39.6156 112.602C39.6469 112.523 39.6755 112.409 39.7016 112.258C39.7328 112.107 39.7484 111.992 39.7484 111.914H44.2563C44.3344 111.914 44.3969 111.961 44.4438 112.055C44.4958 112.148 44.5219 112.234 44.5219 112.312C44.5219 112.401 44.5036 112.469 44.4672 112.516C44.4307 112.562 44.363 112.591 44.2641 112.602C43.5089 112.659 43.1313 112.826 43.1313 113.102V121.555C43.1313 121.763 43.1911 121.919 43.3109 122.023C43.4307 122.122 43.5609 122.188 43.7016 122.219C43.8422 122.25 44.0453 122.281 44.3109 122.312C44.4255 122.323 44.501 122.346 44.5375 122.383C44.574 122.414 44.5922 122.487 44.5922 122.602C44.5922 122.68 44.5661 122.766 44.5141 122.859C44.4672 122.953 44.4047 123 44.3266 123H39.2875C39.2094 123 39.1443 122.953 39.0922 122.859C39.0453 122.766 39.0219 122.68 39.0219 122.602C39.0219 122.513 39.0401 122.445 39.0766 122.398C39.113 122.352 39.1807 122.323 39.2797 122.312C39.6078 122.286 39.8917 122.234 40.1313 122.156C40.3708 122.078 40.4906 121.964 40.4906 121.812V112.992H40.2719L36.5219 123H36.0766L31.9828 112.992H31.6859V121.555C31.6859 121.758 31.7641 121.914 31.9203 122.023C32.0766 122.128 32.2536 122.198 32.4516 122.234C32.6495 122.266 32.8943 122.292 33.1859 122.312C33.3005 122.323 33.376 122.346 33.4125 122.383C33.449 122.414 33.4672 122.487 33.4672 122.602C33.4672 122.68 33.4411 122.766 33.3891 122.859C33.3422 122.953 33.2797 123 33.2016 123H29.5688ZM45.1594 122.602C45.1594 122.513 45.1776 122.445 45.2141 122.398C45.2505 122.352 45.3182 122.323 45.4172 122.312C45.7297 122.286 45.9979 122.237 46.2219 122.164C46.4458 122.086 46.5578 121.969 46.5578 121.812V113.359C46.5578 113.156 46.4979 113.003 46.3781 112.898C46.2583 112.794 46.1255 112.727 45.9797 112.695C45.8391 112.664 45.6359 112.633 45.3703 112.602C45.2557 112.591 45.1802 112.57 45.1437 112.539C45.1073 112.503 45.0891 112.427 45.0891 112.312C45.0891 112.234 45.1125 112.148 45.1594 112.055C45.2115 111.961 45.2766 111.914 45.3547 111.914H54.4094L54.6828 114.453C54.688 114.531 54.649 114.596 54.5656 114.648C54.4823 114.695 54.4016 114.719 54.3234 114.719C54.0422 114.719 53.8547 114.633 53.7609 114.461C53.6932 114.331 53.5839 114.112 53.4328 113.805C53.287 113.503 53.1672 113.281 53.0734 113.141C52.9849 112.995 52.8729 112.883 52.7375 112.805C52.6073 112.727 52.4354 112.688 52.2219 112.688H49.1672V116.922H51.2531C51.3781 116.906 51.4979 116.815 51.6125 116.648C51.7271 116.482 51.8234 116.294 51.9016 116.086C51.9797 115.872 52.0266 115.706 52.0422 115.586C52.063 115.419 52.1828 115.336 52.4016 115.336C52.4797 115.336 52.5708 115.362 52.675 115.414C52.7792 115.461 52.8312 115.523 52.8312 115.602V119.062C52.8312 119.141 52.7792 119.206 52.675 119.258C52.5708 119.305 52.4797 119.328 52.4016 119.328C52.3026 119.328 52.2167 119.31 52.1437 119.273C52.0708 119.232 52.0292 119.164 52.0187 119.07C52.0083 118.94 51.9641 118.763 51.8859 118.539C51.8078 118.31 51.7089 118.109 51.5891 117.938C51.4693 117.76 51.3417 117.672 51.2062 117.672H49.1672V121.461C49.1672 121.919 49.4042 122.169 49.8781 122.211H52.1359C52.4484 122.211 52.7193 122.143 52.9484 122.008C53.1828 121.872 53.4016 121.654 53.6047 121.352C53.813 121.049 54.0422 120.628 54.2922 120.086C54.3286 120.003 54.4016 119.94 54.5109 119.898C54.6203 119.852 54.7245 119.828 54.8234 119.828C54.9328 119.828 55.037 119.852 55.1359 119.898C55.2401 119.945 55.2974 120.01 55.3078 120.094L54.9953 123H45.425C45.3469 123 45.2818 122.953 45.2297 122.859C45.1828 122.766 45.1594 122.68 45.1594 122.602ZM59.1531 123C59.075 123 59.0099 122.953 58.9578 122.859C58.9109 122.766 58.8875 122.68 58.8875 122.602C58.8875 122.513 58.9057 122.445 58.9422 122.398C58.9786 122.352 59.0464 122.323 59.1453 122.312C59.4266 122.297 59.6583 122.271 59.8406 122.234C60.0229 122.198 60.1792 122.128 60.3094 122.023C60.4448 121.919 60.5125 121.766 60.5125 121.562V113.359C60.5125 113.151 60.4396 112.995 60.2938 112.891C60.1531 112.786 59.9891 112.719 59.8016 112.688C59.6141 112.651 59.3797 112.622 59.0984 112.602C58.9839 112.591 58.9083 112.57 58.8719 112.539C58.8354 112.503 58.8172 112.427 58.8172 112.312C58.8172 112.234 58.8406 112.151 58.8875 112.062C58.9396 111.969 59.0047 111.919 59.0828 111.914H64.0828V111.953L66.7 119.234L69.2 112.602C69.2313 112.523 69.2599 112.409 69.2859 112.258C69.3172 112.107 69.3328 111.992 69.3328 111.914H73.8406C73.9188 111.914 73.9813 111.961 74.0281 112.055C74.0802 112.148 74.1063 112.234 74.1063 112.312C74.1063 112.401 74.088 112.469 74.0516 112.516C74.0151 112.562 73.9474 112.591 73.8484 112.602C73.0932 112.659 72.7156 112.826 72.7156 113.102V121.555C72.7156 121.763 72.7755 121.919 72.8953 122.023C73.0151 122.122 73.1453 122.188 73.2859 122.219C73.4266 122.25 73.6297 122.281 73.8953 122.312C74.0099 122.323 74.0854 122.346 74.1219 122.383C74.1583 122.414 74.1766 122.487 74.1766 122.602C74.1766 122.68 74.1505 122.766 74.0984 122.859C74.0516 122.953 73.9891 123 73.9109 123H68.8719C68.7938 123 68.7286 122.953 68.6766 122.859C68.6297 122.766 68.6063 122.68 68.6063 122.602C68.6063 122.513 68.6245 122.445 68.6609 122.398C68.6974 122.352 68.7651 122.323 68.8641 122.312C69.1922 122.286 69.476 122.234 69.7156 122.156C69.9552 122.078 70.075 121.964 70.075 121.812V112.992H69.8563L66.1063 123H65.6609L61.5672 112.992H61.2703V121.555C61.2703 121.758 61.3484 121.914 61.5047 122.023C61.6609 122.128 61.838 122.198 62.0359 122.234C62.2339 122.266 62.4786 122.292 62.7703 122.312C62.8849 122.323 62.9604 122.346 62.9969 122.383C63.0333 122.414 63.0516 122.487 63.0516 122.602C63.0516 122.68 63.0255 122.766 62.9734 122.859C62.9266 122.953 62.8641 123 62.7859 123H59.1531ZM74.7438 122.602C74.7438 122.513 74.762 122.445 74.7984 122.398C74.8349 122.352 74.9026 122.323 75.0016 122.312C75.3141 122.286 75.5823 122.237 75.8063 122.164C76.0302 122.086 76.1422 121.969 76.1422 121.812V113.359C76.1422 113.156 76.0823 113.003 75.9625 112.898C75.8427 112.794 75.7099 112.727 75.5641 112.695C75.4234 112.664 75.2203 112.633 74.9547 112.602C74.8401 112.591 74.7646 112.57 74.7281 112.539C74.6917 112.503 74.6734 112.427 74.6734 112.312C74.6734 112.234 74.6969 112.148 74.7438 112.055C74.7958 111.961 74.8609 111.914 74.9391 111.914H83.9938L84.2672 114.453C84.2724 114.531 84.2333 114.596 84.15 114.648C84.0667 114.695 83.9859 114.719 83.9078 114.719C83.6266 114.719 83.4391 114.633 83.3453 114.461C83.2776 114.331 83.1682 114.112 83.0172 113.805C82.8714 113.503 82.7516 113.281 82.6578 113.141C82.5693 112.995 82.4573 112.883 82.3219 112.805C82.1917 112.727 82.0198 112.688 81.8063 112.688H78.7516V116.922H80.8375C80.9625 116.906 81.0823 116.815 81.1969 116.648C81.3115 116.482 81.4078 116.294 81.4859 116.086C81.5641 115.872 81.6109 115.706 81.6266 115.586C81.6474 115.419 81.7672 115.336 81.9859 115.336C82.0641 115.336 82.1552 115.362 82.2594 115.414C82.3635 115.461 82.4156 115.523 82.4156 115.602V119.062C82.4156 119.141 82.3635 119.206 82.2594 119.258C82.1552 119.305 82.0641 119.328 81.9859 119.328C81.887 119.328 81.801 119.31 81.7281 119.273C81.6552 119.232 81.6135 119.164 81.6031 119.07C81.5927 118.94 81.5484 118.763 81.4703 118.539C81.3922 118.31 81.2932 118.109 81.1734 117.938C81.0536 117.76 80.926 117.672 80.7906 117.672H78.7516V121.461C78.7516 121.919 78.9885 122.169 79.4625 122.211H81.7203C82.0328 122.211 82.3036 122.143 82.5328 122.008C82.7672 121.872 82.9859 121.654 83.1891 121.352C83.3974 121.049 83.6266 120.628 83.8766 120.086C83.913 120.003 83.9859 119.94 84.0953 119.898C84.2047 119.852 84.3089 119.828 84.4078 119.828C84.5172 119.828 84.6214 119.852 84.7203 119.898C84.8245 119.945 84.8818 120.01 84.8922 120.094L84.5797 123H75.0094C74.9313 123 74.8661 122.953 74.8141 122.859C74.7672 122.766 74.7438 122.68 74.7438 122.602ZM85.7641 123C85.6859 123 85.6208 122.953 85.5687 122.859C85.5219 122.766 85.4984 122.68 85.4984 122.602C85.4984 122.513 85.5167 122.445 85.5531 122.398C85.5896 122.352 85.6573 122.323 85.7562 122.312C86.0687 122.286 86.3344 122.237 86.5531 122.164C86.7771 122.086 86.8891 121.969 86.8891 121.812V113.359C86.8891 113.156 86.8292 113.003 86.7094 112.898C86.5896 112.794 86.4568 112.727 86.3109 112.695C86.1703 112.664 85.9672 112.633 85.7016 112.602C85.587 112.591 85.5115 112.57 85.475 112.539C85.4385 112.503 85.4203 112.427 85.4203 112.312C85.4203 112.234 85.4437 112.148 85.4906 112.055C85.5427 111.961 85.6078 111.914 85.6859 111.914H91.1234C92.4776 111.919 93.6312 112.172 94.5844 112.672C95.5375 113.167 96.2536 113.818 96.7328 114.625C97.212 115.432 97.4516 116.302 97.4516 117.234C97.4516 118.505 97.1495 119.576 96.5453 120.445C95.9411 121.31 95.1937 121.953 94.3031 122.375C93.4125 122.792 92.5401 123 91.6859 123H85.7641ZM89.5219 121.688C89.5219 121.828 89.6391 121.951 89.8734 122.055C90.113 122.159 90.5375 122.211 91.1469 122.211C91.8812 122.211 92.475 122.102 92.9281 121.883C93.3812 121.659 93.7406 121.19 94.0062 120.477C94.2719 119.758 94.4047 118.688 94.4047 117.266C94.4047 116.042 94.2589 115.094 93.9672 114.422C93.6807 113.745 93.2953 113.284 92.8109 113.039C92.3318 112.794 91.751 112.672 91.0687 112.672H89.5297L89.5219 121.688ZM98.3 123C98.2219 123 98.1568 122.953 98.1047 122.859C98.0578 122.766 98.0344 122.68 98.0344 122.602C98.0344 122.513 98.0526 122.445 98.0891 122.398C98.1255 122.352 98.1932 122.323 98.2922 122.312C98.6047 122.286 98.8703 122.237 99.0891 122.164C99.313 122.086 99.425 121.969 99.425 121.812L99.4328 113.359C99.4328 113.151 99.3703 112.995 99.2453 112.891C99.1255 112.786 98.9875 112.719 98.8313 112.688C98.675 112.651 98.4797 112.622 98.2453 112.602C98.1307 112.591 98.0552 112.57 98.0188 112.539C97.9823 112.503 97.9641 112.427 97.9641 112.312C97.9641 112.234 97.9875 112.148 98.0344 112.055C98.0865 111.961 98.1516 111.914 98.2297 111.914H103.191C103.269 111.914 103.331 111.961 103.378 112.055C103.43 112.148 103.456 112.234 103.456 112.312C103.456 112.401 103.438 112.469 103.402 112.516C103.365 112.562 103.297 112.591 103.198 112.602C102.443 112.659 102.066 112.826 102.066 113.102L102.058 121.555C102.058 121.763 102.118 121.919 102.238 122.023C102.363 122.128 102.503 122.198 102.659 122.234C102.816 122.266 103.011 122.292 103.245 122.312C103.36 122.323 103.435 122.346 103.472 122.383C103.508 122.414 103.527 122.487 103.527 122.602C103.527 122.68 103.501 122.766 103.448 122.859C103.402 122.953 103.339 123 103.261 123H98.3ZM115.453 122.312C115.568 122.323 115.643 122.346 115.68 122.383C115.716 122.414 115.734 122.487 115.734 122.602C115.734 122.68 115.708 122.766 115.656 122.859C115.609 122.953 115.547 123 115.469 123H110.609C110.531 123 110.466 122.953 110.414 122.859C110.367 122.766 110.344 122.68 110.344 122.602C110.344 122.513 110.362 122.445 110.398 122.398C110.435 122.352 110.503 122.323 110.602 122.312L110.914 122.297C111.169 122.292 111.346 122.279 111.445 122.258C111.544 122.232 111.594 122.177 111.594 122.094C111.594 122.057 111.586 122.016 111.57 121.969L110.594 119.273L106.852 119.266L105.883 121.969C105.867 122.005 105.859 122.039 105.859 122.07C105.859 122.164 105.924 122.224 106.055 122.25C106.185 122.276 106.393 122.292 106.68 122.297L107.008 122.312C107.107 122.323 107.174 122.352 107.211 122.398C107.247 122.445 107.266 122.513 107.266 122.602C107.266 122.68 107.24 122.766 107.188 122.859C107.141 122.953 107.078 123 107 123H103.695C103.612 123 103.547 122.961 103.5 122.883C103.453 122.805 103.43 122.711 103.43 122.602C103.43 122.487 103.448 122.414 103.484 122.383C103.521 122.346 103.596 122.323 103.711 122.312C103.753 122.307 103.82 122.305 103.914 122.305C104.076 122.299 104.211 122.286 104.32 122.266C104.435 122.24 104.544 122.185 104.648 122.102C104.753 122.013 104.839 121.883 104.906 121.711L108.656 111.742H110.484L114.195 121.711C114.263 121.888 114.352 122.021 114.461 122.109C114.57 122.193 114.682 122.245 114.797 122.266C114.911 122.286 115.055 122.299 115.227 122.305C115.331 122.305 115.406 122.307 115.453 122.312ZM108.891 113.703L107.07 118.602H110.359L108.891 113.703Z" fill="#8B8B8B"/>
<path d="M18.1387 51.4182L33.4597 66.7946V36.0417L18.1387 51.4182Z" fill="#8B8B8B"/>
<path d="M32.4018 34.979H0.708984V67.8573H32.4018L16.03 51.4181L32.4018 34.979Z" fill="#8B8B8B"/>
<path d="M36.0098 67.8573H67.7107V34.979H36.0098L52.3897 51.4181L36.0098 67.8573Z" fill="#8B8B8B"/>
<path d="M100.104 34.2352C100.104 16.3573 86.1839 1.61034 68.4112 0.662085L67.7025 0.613037H34.959V33.4831H36.0179H69.2094V67.7429C86.5993 66.4023 100.104 51.8433 100.104 34.2352Z" fill="#8B8B8B"/>
<path d="M67.7107 69.3533H34.959V102.223H67.7107V69.3533Z" fill="#8B8B8B"/>
</svg>
