<svg width="59" height="64" viewBox="0 0 59 64" fill="none" xmlns="http://www.w3.org/2000/svg">
<path d="M0.610989 61.5001C0.571256 61.5001 0.538144 61.4766 0.51165 61.4296C0.48781 61.3831 0.475889 61.3401 0.475889 61.3011C0.475889 61.2566 0.485161 61.2226 0.503705 61.1991C0.52225 61.1761 0.556684 61.1616 0.607017 61.1561C0.943449 61.1301 1.11167 61.0471 1.11167 60.9061V56.6796C1.11167 56.5756 1.08385 56.4976 1.02822 56.4456C0.972588 56.3931 0.90901 56.3606 0.837488 56.3476C0.768611 56.3321 0.670594 56.3166 0.543439 56.3011C0.485161 56.2956 0.446749 56.2851 0.428206 56.2696C0.409663 56.2516 0.400391 56.2136 0.400391 56.1561C0.400391 56.1171 0.412312 56.0741 0.436153 56.0276C0.462644 55.9806 0.495757 55.9571 0.535495 55.9571H1.70771C1.93023 55.9571 2.23222 55.9491 2.61368 55.9336C2.94217 55.9231 3.16734 55.9181 3.2892 55.9181C4.75413 55.9181 5.48662 56.4636 5.48662 57.5546C5.48662 57.9141 5.40447 58.2266 5.24024 58.4921C5.07599 58.7551 4.82036 58.9611 4.47333 59.1096C4.12895 59.2581 3.6945 59.3321 3.16999 59.3321H2.44282V60.7776C2.44282 60.8791 2.49316 60.9571 2.59382 61.0116C2.69713 61.0641 2.80707 61.0991 2.92363 61.1171C3.04284 61.1331 3.18986 61.1461 3.3647 61.1561C3.42297 61.1616 3.46139 61.1731 3.47993 61.1916C3.49847 61.2071 3.50775 61.2436 3.50775 61.3011C3.50775 61.3401 3.4945 61.3831 3.46801 61.4296C3.44417 61.4766 3.41238 61.5001 3.37264 61.5001H0.610989ZM2.87992 58.9571C3.21105 58.9571 3.4839 58.8571 3.69848 58.6561C3.9157 58.4556 4.02431 58.1161 4.02431 57.6366C4.02431 57.2851 3.98193 57.0131 3.89716 56.8206C3.81503 56.6251 3.69186 56.4896 3.52761 56.4141C3.36337 56.3361 3.14747 56.2971 2.87992 56.2971H2.44282V58.9571H2.87992ZM5.87042 61.5001C5.8307 61.5001 5.79759 61.4766 5.77109 61.4296C5.74728 61.3831 5.73533 61.3401 5.73533 61.3011C5.73533 61.2566 5.74464 61.2226 5.76315 61.1991C5.78172 61.1761 5.81615 61.1616 5.86645 61.1561C6.22676 61.1276 6.40686 61.0446 6.40686 60.9061L6.41083 56.6796C6.41083 56.5756 6.38306 56.4976 6.32742 56.4456C6.27177 56.3931 6.2082 56.3606 6.13668 56.3476C6.06782 56.3321 5.96981 56.3166 5.84265 56.3011C5.78436 56.2956 5.74596 56.2851 5.7274 56.2696C5.70883 56.2516 5.69958 56.2136 5.69958 56.1561C5.69958 56.1171 5.71148 56.0741 5.73533 56.0276C5.76183 55.9806 5.79494 55.9571 5.83467 55.9571L6.26781 55.9531C6.33932 55.9506 6.44796 55.9491 6.59363 55.9491C6.7367 55.9491 7.00159 55.9441 7.38835 55.9336C7.83868 55.9231 8.20163 55.9181 8.4771 55.9181C9.20824 55.9181 9.76722 56.0391 10.154 56.2811C10.5434 56.5236 10.7381 56.8961 10.7381 57.3986C10.7381 57.7266 10.6719 57.9936 10.5394 58.1991C10.407 58.4051 10.2361 58.5626 10.0268 58.6721C9.82022 58.7811 9.57252 58.8726 9.28377 58.9456C9.52217 58.9691 9.71554 59.0326 9.86391 59.1366C10.0149 59.2411 10.1328 59.3636 10.2176 59.5041C10.3023 59.6446 10.3964 59.8346 10.4997 60.0741C10.5686 60.2281 10.6229 60.3491 10.6626 60.4376C10.705 60.5236 10.754 60.6096 10.8096 60.6956C10.8944 60.8541 10.9805 60.9676 11.0679 61.0351C11.158 61.1031 11.2573 61.1421 11.3659 61.1526C11.4216 61.1576 11.4586 61.1721 11.4772 61.1956C11.4984 61.2191 11.509 61.2606 11.509 61.3206C11.509 61.3571 11.4957 61.3961 11.4693 61.4376C11.4454 61.4791 11.4136 61.5001 11.3739 61.5001H10.0189C9.87851 61.5001 9.75928 61.4491 9.66127 61.3476C9.56326 61.2461 9.48244 61.1211 9.41886 60.9726C9.35793 60.8241 9.28642 60.6211 9.20428 60.3636C9.11425 60.0771 9.03211 59.8476 8.95795 59.6761C8.88374 59.5041 8.78309 59.3581 8.65593 59.2386C8.53142 59.1186 8.37645 59.0586 8.191 59.0586H7.71819V60.7776C7.71819 60.8816 7.7513 60.9611 7.81752 61.0156C7.88375 61.0676 7.96187 61.1016 8.05195 61.1171C8.14202 61.1331 8.25595 61.1461 8.39369 61.1561C8.45198 61.1616 8.49038 61.1731 8.50889 61.1916C8.52746 61.2071 8.53671 61.2436 8.53671 61.3011C8.53671 61.3401 8.52349 61.3831 8.49699 61.4296C8.47314 61.4766 8.44135 61.5001 8.40162 61.5001H5.87042ZM8.29039 58.7226C8.64271 58.7226 8.91289 58.6316 9.10098 58.4491C9.29171 58.2646 9.38708 57.9546 9.38708 57.5196C9.38708 57.1161 9.29568 56.8111 9.11288 56.6056C8.93278 56.3996 8.65461 56.2971 8.27843 56.2971H7.71819V58.7226H8.29039ZM11.9564 61.5001C11.9166 61.5001 11.8835 61.4766 11.8571 61.4296C11.8332 61.3831 11.8213 61.3401 11.8213 61.3011C11.8213 61.2566 11.8306 61.2226 11.8491 61.1991C11.8677 61.1761 11.9021 61.1616 11.9525 61.1561C12.1114 61.1431 12.2465 61.1186 12.3577 61.0821C12.4717 61.0431 12.5286 60.9846 12.5286 60.9061L12.5326 56.6796C12.5326 56.5756 12.5008 56.4976 12.4372 56.4456C12.3763 56.3931 12.3061 56.3596 12.2266 56.3441C12.1472 56.3256 12.0478 56.3111 11.9286 56.3011C11.8703 56.2956 11.8319 56.2851 11.8133 56.2696C11.7948 56.2516 11.7855 56.2136 11.7855 56.1561C11.7855 56.1171 11.7975 56.0741 11.8213 56.0276C11.8478 55.9806 11.8809 55.9571 11.9207 55.9571H14.4439C14.4836 55.9571 14.5154 55.9806 14.5393 56.0276C14.5657 56.0741 14.579 56.1171 14.579 56.1561C14.579 56.2006 14.5697 56.2346 14.5512 56.2581C14.5326 56.2811 14.4982 56.2956 14.4479 56.3011C14.0637 56.3296 13.8717 56.4131 13.8717 56.5511L13.8677 60.7776C13.8677 60.8816 13.8982 60.9596 13.9591 61.0116C14.0227 61.0641 14.0942 61.0991 14.1737 61.1171C14.2532 61.1331 14.3525 61.1461 14.4717 61.1561C14.53 61.1616 14.5684 61.1731 14.5869 61.1916C14.6055 61.2071 14.6147 61.2436 14.6147 61.3011C14.6147 61.3401 14.6015 61.3831 14.575 61.4296C14.5512 61.4766 14.5194 61.5001 14.4796 61.5001H11.9564ZM15.0384 61.5001C14.9986 61.5001 14.9655 61.4766 14.939 61.4296C14.9152 61.3831 14.9032 61.3401 14.9032 61.3011C14.9032 61.2566 14.9125 61.2226 14.931 61.1991C14.9496 61.1761 14.984 61.1616 15.0343 61.1561C15.1774 61.1486 15.2953 61.1356 15.388 61.1171C15.4807 61.0991 15.5602 61.0641 15.6264 61.0116C15.6953 60.9596 15.7297 60.8831 15.7297 60.7811V56.6796C15.7297 56.5756 15.6926 56.4976 15.6185 56.4456C15.547 56.3931 15.4635 56.3596 15.3681 56.3441C15.2728 56.3256 15.1536 56.3111 15.0105 56.3011C14.9523 56.2956 14.9139 56.2851 14.8953 56.2696C14.8767 56.2516 14.8675 56.2136 14.8675 56.1561C14.8675 56.1171 14.8794 56.0756 14.9032 56.0311C14.9297 55.9846 14.9628 55.9596 15.0026 55.9571H17.5457V55.9766L18.8768 59.6171L20.1484 56.3011C20.1643 56.2616 20.1788 56.2046 20.1921 56.1291C20.208 56.0536 20.2159 55.9961 20.2159 55.9571H22.5087C22.5485 55.9571 22.5802 55.9806 22.6041 56.0276C22.6305 56.0741 22.6438 56.1171 22.6438 56.1561C22.6438 56.2006 22.6345 56.2346 22.616 56.2581C22.5974 56.2811 22.563 56.2956 22.5127 56.3011C22.1286 56.3296 21.9365 56.4131 21.9365 56.5511V60.7776C21.9365 60.8816 21.9669 60.9596 22.0279 61.0116C22.0888 61.0611 22.155 61.0941 22.2266 61.1096C22.2981 61.1251 22.4014 61.1406 22.5365 61.1561C22.5948 61.1616 22.6332 61.1731 22.6517 61.1916C22.6703 61.2071 22.6796 61.2436 22.6796 61.3011C22.6796 61.3401 22.6663 61.3831 22.6398 61.4296C22.616 61.4766 22.5842 61.5001 22.5445 61.5001H19.9815C19.9418 61.5001 19.9087 61.4766 19.8822 61.4296C19.8583 61.3831 19.8464 61.3401 19.8464 61.3011C19.8464 61.2566 19.8557 61.2226 19.8742 61.1991C19.8927 61.1761 19.9272 61.1616 19.9775 61.1561C20.1444 61.1431 20.2888 61.1171 20.4107 61.0781C20.5325 61.0391 20.5934 60.9821 20.5934 60.9061V56.4961H20.4822L18.5749 61.5001H18.3484L16.2662 56.4961H16.1152V60.7776C16.1152 60.8791 16.1549 60.9571 16.2344 61.0116C16.3139 61.0641 16.4039 61.0991 16.5046 61.1171C16.6053 61.1331 16.7298 61.1461 16.8781 61.1561C16.9364 61.1616 16.9748 61.1731 16.9933 61.1916C17.0119 61.2071 17.0212 61.2436 17.0212 61.3011C17.0212 61.3401 17.0079 61.3831 16.9814 61.4296C16.9576 61.4766 16.9258 61.5001 16.8861 61.5001H15.0384ZM22.9681 61.3011C22.9681 61.2566 22.9773 61.2226 22.9959 61.1991C23.0144 61.1761 23.0488 61.1616 23.0992 61.1561C23.2581 61.1431 23.3945 61.1186 23.5085 61.0821C23.6224 61.0431 23.6793 60.9846 23.6793 60.9061V56.6796C23.6793 56.5781 23.6489 56.5016 23.5879 56.4491C23.527 56.3971 23.4594 56.3636 23.3853 56.3476C23.3138 56.3321 23.2104 56.3166 23.0753 56.3011C23.017 56.2956 22.9786 56.2851 22.9601 56.2696C22.9416 56.2516 22.9323 56.2136 22.9323 56.1561C22.9323 56.1171 22.9442 56.0741 22.9681 56.0276C22.9946 55.9806 23.0277 55.9571 23.0674 55.9571H27.6728L27.8119 57.2266C27.8145 57.2656 27.7947 57.2981 27.7523 57.3241C27.7099 57.3476 27.6688 57.3596 27.6291 57.3596C27.486 57.3596 27.3907 57.3166 27.343 57.2306C27.3085 57.1656 27.2529 57.0561 27.1761 56.9026C27.1019 56.7516 27.041 56.6406 26.9933 56.5706C26.9483 56.4976 26.8913 56.4416 26.8224 56.4026C26.7562 56.3636 26.6688 56.3441 26.5602 56.3441H25.0065V58.4611H26.0674C26.131 58.4531 26.192 58.4076 26.2502 58.3241C26.3085 58.2411 26.3575 58.1471 26.3973 58.0431C26.437 57.9361 26.4609 57.8531 26.4688 57.7931C26.4794 57.7096 26.5403 57.6681 26.6516 57.6681C26.6913 57.6681 26.7377 57.6811 26.7907 57.7071C26.8436 57.7306 26.8701 57.7616 26.8701 57.8011V59.5311C26.8701 59.5706 26.8436 59.6031 26.7907 59.6291C26.7377 59.6526 26.6913 59.6641 26.6516 59.6641C26.6012 59.6641 26.5576 59.6551 26.5204 59.6366C26.4833 59.6161 26.4622 59.5821 26.4568 59.5351C26.4516 59.4701 26.4291 59.3816 26.3893 59.2696C26.3496 59.1551 26.2993 59.0546 26.2383 58.9691C26.1774 58.8801 26.1125 58.8361 26.0436 58.8361H25.0065V60.7306C25.0065 60.9596 25.1271 61.0846 25.3681 61.1056H26.5165C26.6754 61.1056 26.8132 61.0716 26.9297 61.0041C27.0489 60.9361 27.1602 60.8271 27.2635 60.6761C27.3695 60.5246 27.486 60.3141 27.6132 60.0431C27.6317 60.0016 27.6688 59.9701 27.7244 59.9491C27.7801 59.9261 27.8331 59.9141 27.8834 59.9141C27.939 59.9141 27.992 59.9261 28.0423 59.9491C28.0953 59.9726 28.1245 60.0051 28.1297 60.0471L27.9708 61.5001H23.1032C23.0634 61.5001 23.0303 61.4766 23.0038 61.4296C22.98 61.3831 22.9681 61.3401 22.9681 61.3011ZM30.0855 61.5001C30.0458 61.5001 30.0127 61.4766 29.9862 61.4296C29.9624 61.3831 29.9505 61.3401 29.9505 61.3011C29.9505 61.2566 29.9597 61.2226 29.9783 61.1991C29.9968 61.1761 30.0313 61.1616 30.0816 61.1561C30.2247 61.1486 30.3425 61.1356 30.4352 61.1171C30.5279 61.0991 30.6074 61.0641 30.6737 61.0116C30.7425 60.9596 30.777 60.8831 30.777 60.7811V56.6796C30.777 56.5756 30.7399 56.4976 30.6657 56.4456C30.5942 56.3931 30.5108 56.3596 30.4154 56.3441C30.32 56.3256 30.2008 56.3111 30.0577 56.3011C29.9995 56.2956 29.961 56.2851 29.9425 56.2696C29.924 56.2516 29.9147 56.2136 29.9147 56.1561C29.9147 56.1171 29.9266 56.0756 29.9505 56.0311C29.977 55.9846 30.0101 55.9596 30.0498 55.9571H32.5929V55.9766L33.9241 59.6171L35.1956 56.3011C35.2115 56.2616 35.2261 56.2046 35.2393 56.1291C35.2552 56.0536 35.2632 55.9961 35.2632 55.9571H37.5559C37.5957 55.9571 37.6275 55.9806 37.6513 56.0276C37.6778 56.0741 37.6911 56.1171 37.6911 56.1561C37.6911 56.2006 37.6817 56.2346 37.6632 56.2581C37.6447 56.2811 37.6102 56.2956 37.5599 56.3011C37.1758 56.3296 36.9837 56.4131 36.9837 56.5511V60.7776C36.9837 60.8816 37.0142 60.9596 37.0751 61.0116C37.136 61.0611 37.2023 61.0941 37.2738 61.1096C37.3453 61.1251 37.4486 61.1406 37.5837 61.1561C37.642 61.1616 37.6804 61.1731 37.699 61.1916C37.7175 61.2071 37.7268 61.2436 37.7268 61.3011C37.7268 61.3401 37.7135 61.3831 37.687 61.4296C37.6632 61.4766 37.6314 61.5001 37.5917 61.5001H35.0287C34.989 61.5001 34.9558 61.4766 34.9294 61.4296C34.9055 61.3831 34.8936 61.3401 34.8936 61.3011C34.8936 61.2566 34.9029 61.2226 34.9214 61.1991C34.94 61.1761 34.9744 61.1616 35.0248 61.1561C35.1916 61.1431 35.336 61.1171 35.4579 61.0781C35.5797 61.0391 35.6406 60.9821 35.6406 60.9061V56.4961H35.5294L33.6221 61.5001H33.3955L31.3134 56.4961H31.1624V60.7776C31.1624 60.8791 31.2021 60.9571 31.2816 61.0116C31.3611 61.0641 31.4511 61.0991 31.5518 61.1171C31.6525 61.1331 31.777 61.1461 31.9253 61.1561C31.9836 61.1616 32.022 61.1731 32.0406 61.1916C32.0591 61.2071 32.0684 61.2436 32.0684 61.3011C32.0684 61.3401 32.0551 61.3831 32.0286 61.4296C32.0048 61.4766 31.973 61.5001 31.9333 61.5001H30.0855ZM38.0153 61.3011C38.0153 61.2566 38.0246 61.2226 38.0431 61.1991C38.0616 61.1761 38.0961 61.1616 38.1464 61.1561C38.3054 61.1431 38.4418 61.1186 38.5557 61.0821C38.6696 61.0431 38.7266 60.9846 38.7266 60.9061V56.6796C38.7266 56.5781 38.6961 56.5016 38.6352 56.4491C38.5742 56.3971 38.5067 56.3636 38.4325 56.3476C38.361 56.3321 38.2577 56.3166 38.1226 56.3011C38.0643 56.2956 38.0259 56.2851 38.0073 56.2696C37.9888 56.2516 37.9795 56.2136 37.9795 56.1561C37.9795 56.1171 37.9914 56.0741 38.0153 56.0276C38.0417 55.9806 38.0749 55.9571 38.1146 55.9571H42.72L42.8591 57.2266C42.8617 57.2656 42.8419 57.2981 42.7995 57.3241C42.7571 57.3476 42.716 57.3596 42.6763 57.3596C42.5333 57.3596 42.4379 57.3166 42.3902 57.2306C42.3558 57.1656 42.3001 57.0561 42.2233 56.9026C42.1492 56.7516 42.0882 56.6406 42.0405 56.5706C41.9955 56.4976 41.9385 56.4416 41.8697 56.4026C41.8035 56.3636 41.716 56.3441 41.6074 56.3441H40.0538V58.4611H41.1147C41.1783 58.4531 41.2392 58.4076 41.2975 58.3241C41.3558 58.2411 41.4047 58.1471 41.4445 58.0431C41.4842 57.9361 41.508 57.8531 41.516 57.7931C41.5266 57.7096 41.5875 57.6681 41.6988 57.6681C41.7386 57.6681 41.7849 57.6811 41.8379 57.7071C41.8908 57.7306 41.9173 57.7616 41.9173 57.8011V59.5311C41.9173 59.5706 41.8908 59.6031 41.8379 59.6291C41.7849 59.6526 41.7386 59.6641 41.6988 59.6641C41.6485 59.6641 41.6047 59.6551 41.5677 59.6366C41.5306 59.6161 41.5094 59.5821 41.5041 59.5351C41.4988 59.4701 41.4763 59.3816 41.4365 59.2696C41.3968 59.1551 41.3465 59.0546 41.2855 58.9691C41.2246 58.8801 41.1597 58.8361 41.0908 58.8361H40.0538V60.7306C40.0538 60.9596 40.1742 61.0846 40.4153 61.1056H41.5637C41.7226 61.1056 41.8604 61.0716 41.9769 61.0041C42.0962 60.9361 42.2074 60.8271 42.3108 60.6761C42.4167 60.5246 42.5333 60.3141 42.6604 60.0431C42.6789 60.0016 42.716 59.9701 42.7717 59.9491C42.8273 59.9261 42.8803 59.9141 42.9306 59.9141C42.9863 59.9141 43.0393 59.9261 43.0896 59.9491C43.1426 59.9726 43.1717 60.0051 43.177 60.0471L43.018 61.5001H38.1504C38.1107 61.5001 38.0775 61.4766 38.0511 61.4296C38.0272 61.3831 38.0153 61.3401 38.0153 61.3011ZM43.6205 61.5001C43.5807 61.5001 43.5476 61.4766 43.5211 61.4296C43.4973 61.3831 43.4853 61.3401 43.4853 61.3011C43.4853 61.2566 43.4946 61.2226 43.5131 61.1991C43.5317 61.1761 43.5661 61.1616 43.6164 61.1561C43.7754 61.1431 43.9105 61.1186 44.0218 61.0821C44.1357 61.0431 44.1926 60.9846 44.1926 60.9061V56.6796C44.1926 56.5781 44.1622 56.5016 44.1012 56.4491C44.0403 56.3971 43.9728 56.3636 43.8986 56.3476C43.8271 56.3321 43.7238 56.3166 43.5887 56.3011C43.5304 56.2956 43.492 56.2851 43.4734 56.2696C43.4548 56.2516 43.4456 56.2136 43.4456 56.1561C43.4456 56.1171 43.4575 56.0741 43.4813 56.0276C43.5078 55.9806 43.541 55.9571 43.5807 55.9571H46.3463C47.0351 55.9596 47.6218 56.0861 48.1066 56.3361C48.5914 56.5836 48.9556 56.9091 49.1994 57.3126C49.4431 57.7161 49.565 58.1511 49.565 58.6171C49.565 59.2526 49.4113 59.7881 49.104 60.2226C48.7967 60.6551 48.4165 60.9766 47.9636 61.1876C47.5106 61.3961 47.0669 61.5001 46.6324 61.5001H43.6205ZM45.5317 60.8441C45.5317 60.9141 45.5914 60.9756 45.7105 61.0276C45.8324 61.0796 46.0483 61.1056 46.3583 61.1056C46.7317 61.1056 47.0338 61.0511 47.2642 60.9416C47.4947 60.8296 47.6775 60.5951 47.8126 60.2386C47.9477 59.8791 48.0152 59.3441 48.0152 58.6331C48.0152 58.0211 47.9411 57.5471 47.7927 57.2111C47.647 56.8726 47.451 56.6421 47.2046 56.5196C46.9609 56.3971 46.6655 56.3361 46.3185 56.3361H45.5357L45.5317 60.8441ZM49.9965 61.5001C49.9567 61.5001 49.9236 61.4766 49.8971 61.4296C49.8733 61.3831 49.8614 61.3401 49.8614 61.3011C49.8614 61.2566 49.8706 61.2226 49.8892 61.1991C49.9077 61.1761 49.9421 61.1616 49.9925 61.1561C50.1514 61.1431 50.2865 61.1186 50.3978 61.0821C50.5117 61.0431 50.5687 60.9846 50.5687 60.9061L50.5726 56.6796C50.5726 56.5756 50.5408 56.4976 50.4773 56.4456C50.4163 56.3931 50.3461 56.3596 50.2667 56.3441C50.1872 56.3256 50.0879 56.3111 49.9686 56.3011C49.9104 56.2956 49.872 56.2851 49.8534 56.2696C49.8349 56.2516 49.8256 56.2136 49.8256 56.1561C49.8256 56.1171 49.8375 56.0741 49.8614 56.0276C49.8879 55.9806 49.921 55.9571 49.9607 55.9571H52.4841C52.5238 55.9571 52.5553 55.9806 52.5792 56.0276C52.6057 56.0741 52.6189 56.1171 52.6189 56.1561C52.6189 56.2006 52.6098 56.2346 52.5915 56.2581C52.5726 56.2811 52.538 56.2956 52.4877 56.3011C52.1037 56.3296 51.9119 56.4131 51.9119 56.5511L51.9079 60.7776C51.9079 60.8816 51.9384 60.9596 51.9994 61.0116C52.063 61.0641 52.1342 61.0991 52.2135 61.1171C52.2934 61.1331 52.3926 61.1461 52.5116 61.1561C52.5701 61.1616 52.6082 61.1731 52.6271 61.1916C52.6454 61.2071 52.655 61.2436 52.655 61.3011C52.655 61.3401 52.6418 61.3831 52.6148 61.4296C52.5915 61.4766 52.5594 61.5001 52.5197 61.5001H49.9965ZM58.7208 61.1561C58.7793 61.1616 58.8175 61.1731 58.8363 61.1916C58.8546 61.2071 58.8638 61.2436 58.8638 61.3011C58.8638 61.3401 58.8505 61.3831 58.8241 61.4296C58.8002 61.4766 58.7687 61.5001 58.729 61.5001H56.2571C56.2174 61.5001 56.1843 61.4766 56.1579 61.4296C56.134 61.3831 56.1223 61.3401 56.1223 61.3011C56.1223 61.2566 56.1315 61.2226 56.1498 61.1991C56.1686 61.1761 56.2032 61.1616 56.2535 61.1561L56.4122 61.1486C56.5419 61.1461 56.6319 61.1396 56.6823 61.1291C56.7326 61.1161 56.7581 61.0886 56.7581 61.0471C56.7581 61.0286 56.754 61.0081 56.7459 60.9846L56.2495 59.6366L54.3462 59.6331L53.8533 60.9846C53.8452 61.0026 53.8411 61.0196 53.8411 61.0351C53.8411 61.0821 53.8742 61.1121 53.9408 61.1251C54.0069 61.1381 54.1127 61.1461 54.2587 61.1486L54.4255 61.1561C54.4759 61.1616 54.51 61.1761 54.5288 61.1991C54.5471 61.2226 54.5568 61.2566 54.5568 61.3011C54.5568 61.3401 54.5435 61.3831 54.5171 61.4296C54.4932 61.4766 54.4611 61.5001 54.4215 61.5001H52.7405C52.6983 61.5001 52.6652 61.4806 52.6413 61.4416C52.6174 61.4026 52.6057 61.3556 52.6057 61.3011C52.6057 61.2436 52.6148 61.2071 52.6332 61.1916C52.652 61.1731 52.6901 61.1616 52.7486 61.1561C52.77 61.1536 52.8041 61.1526 52.8519 61.1526C52.9343 61.1496 53.0029 61.1431 53.0584 61.1331C53.1169 61.1201 53.1723 61.0926 53.2252 61.0511C53.2786 61.0066 53.3223 60.9416 53.3564 60.8556L55.2637 55.8711H56.1935L58.081 60.8556C58.1156 60.9441 58.1608 61.0106 58.2163 61.0546C58.2717 61.0966 58.3287 61.1226 58.3872 61.1331C58.4452 61.1431 58.5184 61.1496 58.6059 61.1526C58.6588 61.1526 58.6969 61.1536 58.7208 61.1561ZM55.3833 56.8516L54.4571 59.3011H56.1299L55.3833 56.8516Z" fill="#352664"/>
<path d="M9.31836 25.9587L17.1881 33.7215V18.1958L9.31836 25.9587Z" fill="#352664"/>
<path d="M16.6425 17.6594H0.363281V34.2582H16.6425L8.23302 25.9588L16.6425 17.6594Z" fill="#352664"/>
<path d="M18.4961 34.2582H34.7795V17.6594H18.4961L26.9098 25.9588L18.4961 34.2582Z" fill="#352664"/>
<path d="M51.4191 17.2838C51.4191 8.25815 44.2691 0.81306 35.14 0.334332L34.776 0.30957H17.957V16.9042H18.5009H35.55V34.2004C44.4824 33.5236 51.4191 26.1734 51.4191 17.2838Z" fill="#352664"/>
<path d="M34.7801 35.0134H17.957V51.608H34.7801V35.0134Z" fill="#352664"/>
</svg>
