<svg width="165" height="27" viewBox="0 0 165 27" fill="none" xmlns="http://www.w3.org/2000/svg">
<path d="M5.87109 26C5.69531 26 5.54883 25.8945 5.43164 25.6836C5.32617 25.4727 5.27344 25.2793 5.27344 25.1035C5.27344 24.9043 5.31445 24.752 5.39648 24.6465C5.47852 24.541 5.63086 24.4766 5.85352 24.4531C6.91992 24.3945 7.78711 24.2539 8.45508 24.0312C9.13477 23.7969 9.47461 23.3867 9.47461 22.8008V2.79688H5.08008C4.4707 2.79688 3.9668 3.1543 3.56836 3.86914C3.18164 4.57227 2.89453 5.35742 2.70703 6.22461C2.53125 7.0918 2.41992 7.83008 2.37305 8.43945C2.34961 8.63867 2.23242 8.78516 2.02148 8.87891C1.82227 8.97266 1.60547 9.01953 1.37109 9.01953C1.19531 9.01953 1.00195 8.9668 0.791016 8.86133C0.580078 8.74414 0.474609 8.59766 0.474609 8.42188C0.533203 6.66406 0.603516 5 0.685547 3.42969C0.779297 1.84766 0.884766 1.05664 1.00195 1.05664H23.625C23.7422 1.05664 23.8418 1.84766 23.9238 3.42969C24.0176 5 24.0938 6.66406 24.1523 8.42188C24.1523 8.59766 24.0469 8.74414 23.8359 8.86133C23.625 8.9668 23.4316 9.01953 23.2559 9.01953C23.0215 9.01953 22.7988 8.97266 22.5879 8.87891C22.3887 8.78516 22.2773 8.63867 22.2539 8.43945C22.1133 7.17383 21.8438 5.91992 21.4453 4.67773C21.0469 3.42383 20.4141 2.79688 19.5469 2.79688H15.3809V22.748C15.3809 23.2168 15.5625 23.5684 15.9258 23.8027C16.2891 24.0371 16.7051 24.1953 17.1738 24.2773C17.6426 24.3477 18.2285 24.4062 18.9316 24.4531C19.1895 24.4766 19.3594 24.5293 19.4414 24.6113C19.5234 24.6816 19.5645 24.8457 19.5645 25.1035C19.5645 25.2793 19.5059 25.4727 19.3887 25.6836C19.2832 25.8945 19.1426 26 18.9668 26H5.87109ZM37.5926 26.5098C34.9559 26.5098 32.6473 25.9297 30.6668 24.7695C28.6863 23.5977 27.1629 22.0156 26.0965 20.0234C25.0418 18.0312 24.5145 15.8281 24.5145 13.4141C24.5145 11 25.0418 8.81445 26.0965 6.85742C27.1512 4.90039 28.6688 3.35938 30.6492 2.23438C32.6297 1.09766 34.9441 0.529297 37.5926 0.529297C40.241 0.529297 42.5555 1.09766 44.5359 2.23438C46.5164 3.35938 48.034 4.90039 49.0887 6.85742C50.1551 8.81445 50.6883 11 50.6883 13.4141C50.6883 15.8281 50.1551 18.0312 49.0887 20.0234C48.0223 22.0156 46.4988 23.5977 44.5184 24.7695C42.5379 25.9297 40.2293 26.5098 37.5926 26.5098ZM37.6629 24.8574C39.8191 24.8574 41.407 23.873 42.4266 21.9043C43.4461 19.9238 43.9559 17.1055 43.9559 13.4492C43.9559 9.81641 43.4285 7.02734 42.3738 5.08203C41.3309 3.13672 39.7254 2.16406 37.5574 2.16406C35.3895 2.16406 33.7898 3.13672 32.7586 5.08203C31.7391 7.01562 31.2293 9.80469 31.2293 13.4492C31.2293 17.082 31.7566 19.8945 32.8113 21.8867C33.8777 23.8672 35.4949 24.8574 37.6629 24.8574ZM52.4742 26C52.2984 26 52.152 25.8945 52.0348 25.6836C51.9293 25.4727 51.8766 25.2793 51.8766 25.1035C51.8766 24.9043 51.9176 24.752 51.9996 24.6465C52.0816 24.541 52.234 24.4766 52.4566 24.4531C53.0895 24.418 53.6109 24.3594 54.0211 24.2773C54.4313 24.1953 54.7828 24.0371 55.0758 23.8027C55.3805 23.5684 55.5328 23.2227 55.5328 22.7656V4.30859C55.5328 3.83984 55.3688 3.48828 55.0406 3.25391C54.7242 3.01953 54.3551 2.86719 53.9332 2.79688C53.5113 2.71484 52.984 2.65039 52.3512 2.60352C52.0934 2.58008 51.9234 2.5332 51.8414 2.46289C51.7594 2.38086 51.7184 2.21094 51.7184 1.95312C51.7184 1.77734 51.7711 1.58984 51.8766 1.39062C51.9938 1.17969 52.1402 1.06836 52.316 1.05664H63.566V1.14453L69.4547 17.5273L75.0797 2.60352C75.15 2.42773 75.2145 2.16992 75.273 1.83008C75.3434 1.49023 75.3785 1.23242 75.3785 1.05664H85.5211C85.6969 1.05664 85.8375 1.16211 85.943 1.37305C86.0602 1.58398 86.1188 1.77734 86.1188 1.95312C86.1188 2.15234 86.0777 2.30469 85.9957 2.41016C85.9137 2.51562 85.7613 2.58008 85.5387 2.60352C83.8395 2.73242 82.9898 3.10742 82.9898 3.72852V22.748C82.9898 23.2168 83.1246 23.5684 83.3941 23.8027C83.6637 24.0254 83.9566 24.1719 84.273 24.2422C84.5895 24.3125 85.0465 24.3828 85.6441 24.4531C85.902 24.4766 86.0719 24.5293 86.1539 24.6113C86.2359 24.6816 86.277 24.8457 86.277 25.1035C86.277 25.2793 86.2184 25.4727 86.1012 25.6836C85.9957 25.8945 85.8551 26 85.6793 26H74.3414C74.1656 26 74.0191 25.8945 73.902 25.6836C73.7965 25.4727 73.7438 25.2793 73.7438 25.1035C73.7438 24.9043 73.7848 24.752 73.8668 24.6465C73.9488 24.541 74.1012 24.4766 74.3238 24.4531C75.0621 24.3945 75.7008 24.2773 76.2398 24.1016C76.7789 23.9258 77.0484 23.668 77.0484 23.3281V3.48242H76.5563L68.1188 26H67.1168L57.9059 3.48242H57.2379V22.748C57.2379 23.2051 57.4137 23.5566 57.7652 23.8027C58.1168 24.0371 58.5152 24.1953 58.9605 24.2773C59.4059 24.3477 59.9566 24.4062 60.6129 24.4531C60.8707 24.4766 61.0406 24.5293 61.1227 24.6113C61.2047 24.6816 61.2457 24.8457 61.2457 25.1035C61.2457 25.2793 61.1871 25.4727 61.0699 25.6836C60.9645 25.8945 60.8238 26 60.648 26H52.4742ZM100.368 26.5098C97.7309 26.5098 95.4223 25.9297 93.4418 24.7695C91.4613 23.5977 89.9379 22.0156 88.8715 20.0234C87.8168 18.0312 87.2895 15.8281 87.2895 13.4141C87.2895 11 87.8168 8.81445 88.8715 6.85742C89.9262 4.90039 91.4437 3.35938 93.4242 2.23438C95.4047 1.09766 97.7191 0.529297 100.368 0.529297C103.016 0.529297 105.33 1.09766 107.311 2.23438C109.291 3.35938 110.809 4.90039 111.864 6.85742C112.93 8.81445 113.463 11 113.463 13.4141C113.463 15.8281 112.93 18.0312 111.864 20.0234C110.797 22.0156 109.274 23.5977 107.293 24.7695C105.313 25.9297 103.004 26.5098 100.368 26.5098ZM100.438 24.8574C102.594 24.8574 104.182 23.873 105.202 21.9043C106.221 19.9238 106.731 17.1055 106.731 13.4492C106.731 9.81641 106.204 7.02734 105.149 5.08203C104.106 3.13672 102.5 2.16406 100.332 2.16406C98.1645 2.16406 96.5648 3.13672 95.5336 5.08203C94.5141 7.01562 94.0043 9.80469 94.0043 13.4492C94.0043 17.082 94.5316 19.8945 95.5863 21.8867C96.6527 23.8672 98.2699 24.8574 100.438 24.8574ZM128.978 26.5273C126.423 26.5273 124.073 26.1172 121.929 25.2969C119.796 24.4648 118.062 23.0879 116.726 21.166C115.39 19.2324 114.722 16.707 114.722 13.5898C114.722 10.6719 115.413 8.23438 116.796 6.27734C118.191 4.30859 119.948 2.86133 122.07 1.93555C124.202 0.998047 126.382 0.529297 128.609 0.529297C130.366 0.529297 131.784 0.646484 132.863 0.880859C133.941 1.11523 134.925 1.4082 135.816 1.75977C136.038 1.85352 136.243 1.92969 136.431 1.98828C136.63 2.04687 136.794 2.07617 136.923 2.07617L137.222 7.70117C137.245 7.87695 137.105 8.04102 136.8 8.19336C136.507 8.33398 136.261 8.4043 136.062 8.4043L135.816 8.42188C135.511 8.42188 135.218 8.38086 134.937 8.29883C134.655 8.2168 134.497 8.08789 134.462 7.91211C134.146 6.16602 133.542 4.7832 132.652 3.76367C131.773 2.73242 130.413 2.2168 128.573 2.2168C127.366 2.2168 126.253 2.48633 125.234 3.02539C124.214 3.55273 123.347 4.6543 122.632 6.33008C121.917 8.00586 121.56 10.4258 121.56 13.5898C121.56 16.5898 121.952 18.9277 122.738 20.6035C123.523 22.2676 124.46 23.3926 125.55 23.9785C126.652 24.5645 127.788 24.8574 128.96 24.8574C130.097 24.8574 131.093 24.582 131.948 24.0312C132.804 23.4688 133.495 22.7305 134.023 21.8164C134.562 20.8906 134.937 19.8652 135.148 18.7402C135.218 18.3535 135.499 18.1602 135.991 18.1602C136.202 18.1602 136.46 18.2188 136.765 18.3359C137.081 18.4414 137.239 18.582 137.239 18.7578L136.747 24.1016C136.724 24.2891 136.331 24.5879 135.57 24.998C134.808 25.3965 133.835 25.748 132.652 26.0527C131.48 26.3691 130.255 26.5273 128.978 26.5273ZM164.18 24.4531C164.438 24.4766 164.607 24.5293 164.689 24.6113C164.771 24.6816 164.812 24.8457 164.812 25.1035C164.812 25.2793 164.754 25.4727 164.637 25.6836C164.531 25.8945 164.391 26 164.215 26H153.281C153.105 26 152.959 25.8945 152.842 25.6836C152.736 25.4727 152.684 25.2793 152.684 25.1035C152.684 24.9043 152.725 24.752 152.807 24.6465C152.889 24.541 153.041 24.4766 153.264 24.4531L153.967 24.418C154.541 24.4062 154.939 24.377 155.162 24.3301C155.385 24.2715 155.496 24.1484 155.496 23.9609C155.496 23.8789 155.479 23.7852 155.443 23.6797L153.246 17.6152L144.826 17.5977L142.646 23.6797C142.611 23.7617 142.594 23.8379 142.594 23.9082C142.594 24.1191 142.74 24.2539 143.033 24.3125C143.326 24.3711 143.795 24.4062 144.439 24.418L145.178 24.4531C145.4 24.4766 145.553 24.541 145.635 24.6465C145.717 24.752 145.758 24.9043 145.758 25.1035C145.758 25.2793 145.699 25.4727 145.582 25.6836C145.477 25.8945 145.336 26 145.16 26H137.725C137.537 26 137.391 25.9121 137.285 25.7363C137.18 25.5605 137.127 25.3496 137.127 25.1035C137.127 24.8457 137.168 24.6816 137.25 24.6113C137.332 24.5293 137.502 24.4766 137.76 24.4531C137.854 24.4414 138.006 24.4355 138.217 24.4355C138.58 24.4238 138.885 24.3945 139.131 24.3477C139.389 24.2891 139.635 24.166 139.869 23.9785C140.104 23.7793 140.297 23.4863 140.449 23.0996L148.887 0.669922H153L161.35 23.0996C161.502 23.498 161.701 23.7969 161.947 23.9961C162.193 24.1836 162.445 24.3008 162.703 24.3477C162.961 24.3945 163.283 24.4238 163.67 24.4355C163.904 24.4355 164.074 24.4414 164.18 24.4531ZM149.414 5.08203L145.318 16.1035H152.719L149.414 5.08203Z" fill="#8B8B8B"/>
</svg>
