<svg width="168" height="28" viewBox="0 0 168 28" fill="none" xmlns="http://www.w3.org/2000/svg">
<path d="M5.97702 26.9629C5.79804 26.9629 5.6489 26.8535 5.52958 26.6348C5.42219 26.4161 5.3685 26.2155 5.3685 26.0332C5.3685 25.8266 5.41026 25.6687 5.49378 25.5593C5.57731 25.4499 5.73242 25.3831 5.95913 25.3587C7.04492 25.2979 7.92788 25.1521 8.60799 24.9212C9.30004 24.6782 9.64606 24.2528 9.64606 23.6452V2.9004H5.17163C4.55117 2.9004 4.03811 3.27105 3.63242 4.01237C3.23867 4.74154 2.94634 5.55577 2.75543 6.45508C2.57646 7.35439 2.4631 8.12001 2.41538 8.75195C2.39151 8.95855 2.27219 9.11046 2.05742 9.20769C1.85459 9.30491 1.63384 9.35351 1.3952 9.35351C1.21623 9.35351 1.01935 9.29883 0.804582 9.18945C0.589808 9.06792 0.482422 8.91602 0.482422 8.73373C0.542081 6.9108 0.613673 5.18511 0.697195 3.55664C0.79265 1.91602 0.900036 1.0957 1.01935 1.0957H24.0537C24.1731 1.0957 24.2745 1.91602 24.358 3.55664C24.4535 5.18511 24.5311 6.9108 24.5906 8.73373C24.5906 8.91602 24.4833 9.06792 24.2685 9.18945C24.0537 9.29883 23.8568 9.35351 23.6779 9.35351C23.4393 9.35351 23.2125 9.30491 22.9978 9.20769C22.795 9.11046 22.6815 8.95855 22.6577 8.75195C22.5145 7.43946 22.2401 6.1391 21.8344 4.85091C21.4288 3.55057 20.7844 2.9004 19.9015 2.9004H15.6597V23.5904C15.6597 24.0766 15.8446 24.4412 16.2145 24.6842C16.5844 24.9273 17.008 25.0913 17.4852 25.1764C17.9626 25.2494 18.5591 25.3101 19.275 25.3587C19.5376 25.3831 19.7106 25.4377 19.7941 25.5228C19.8776 25.5957 19.9194 25.7658 19.9194 26.0332C19.9194 26.2155 19.8597 26.4161 19.7404 26.6348C19.633 26.8535 19.4898 26.9629 19.3108 26.9629H5.97702ZM38.2753 27.4916C35.5906 27.4916 33.2401 26.89 31.2236 25.6868C29.2071 24.4716 27.656 22.8309 26.5702 20.7649C25.4963 18.6989 24.9594 16.4143 24.9594 13.9108C24.9594 11.4073 25.4963 9.14084 26.5702 7.11133C27.644 5.08181 29.1892 3.48373 31.2056 2.31706C33.2222 1.13824 35.5786 0.548828 38.2753 0.548828C40.9718 0.548828 43.3284 1.13824 45.3448 2.31706C47.3613 3.48373 48.9065 5.08181 49.9804 7.11133C51.0662 9.14084 51.6091 11.4073 51.6091 13.9108C51.6091 16.4143 51.0662 18.6989 49.9804 20.7649C48.8946 22.8309 47.3434 24.4716 45.327 25.6868C43.3105 26.89 40.9599 27.4916 38.2753 27.4916ZM38.3469 25.778C40.5423 25.778 42.159 24.7571 43.1972 22.7155C44.2352 20.6616 44.7543 17.739 44.7543 13.9472C44.7543 10.1799 44.2173 7.28754 43.1434 5.27018C42.0816 3.25282 40.4469 2.24414 38.2394 2.24414C36.0321 2.24414 34.4033 3.25282 33.3534 5.27018C32.3154 7.27539 31.7963 10.1678 31.7963 13.9472C31.7963 17.7146 32.3332 20.6313 33.4071 22.6972C34.4928 24.7511 36.1394 25.778 38.3469 25.778ZM53.4275 26.9629C53.2485 26.9629 53.0994 26.8535 52.9801 26.6348C52.8727 26.4161 52.819 26.2155 52.819 26.0332C52.819 25.8266 52.8607 25.6687 52.9442 25.5593C53.0277 25.4499 53.1829 25.3831 53.4095 25.3587C54.0539 25.3223 54.5848 25.2615 55.0025 25.1764C55.4201 25.0913 55.778 24.9273 56.0764 24.6842C56.3866 24.4412 56.5417 24.0827 56.5417 23.6087V4.46809C56.5417 3.98198 56.3747 3.6174 56.0405 3.37435C55.7184 3.13129 55.3426 2.97331 54.913 2.9004C54.4834 2.81532 53.9465 2.74848 53.3022 2.69987C53.0397 2.67557 52.8666 2.62695 52.7832 2.55404C52.6997 2.46897 52.6579 2.29275 52.6579 2.02539C52.6579 1.84309 52.7116 1.64865 52.819 1.44205C52.9383 1.22331 53.0874 1.10786 53.2664 1.0957H64.7209V1.18685L70.7167 18.1764L76.444 2.69987C76.5155 2.51757 76.5812 2.25021 76.6408 1.89779C76.7125 1.54535 76.7482 1.27799 76.7482 1.0957H87.0752C87.2542 1.0957 87.3974 1.20508 87.5048 1.42383C87.6241 1.64257 87.6838 1.84309 87.6838 2.02539C87.6838 2.23198 87.6419 2.38998 87.5584 2.49935C87.4749 2.60872 87.3198 2.67557 87.0931 2.69987C85.363 2.83355 84.4979 3.22244 84.4979 3.86654V23.5904C84.4979 24.0766 84.6351 24.4412 84.9095 24.6842C85.184 24.9152 85.4823 25.0671 85.8044 25.14C86.1267 25.2129 86.592 25.2858 87.2004 25.3587C87.463 25.3831 87.636 25.4377 87.7195 25.5228C87.803 25.5957 87.8449 25.7658 87.8449 26.0332C87.8449 26.2155 87.7852 26.4161 87.6659 26.6348C87.5584 26.8535 87.4153 26.9629 87.2363 26.9629H75.6922C75.5132 26.9629 75.3641 26.8535 75.2449 26.6348C75.1374 26.4161 75.0838 26.2155 75.0838 26.0332C75.0838 25.8266 75.1255 25.6687 75.209 25.5593C75.2925 25.4499 75.4477 25.3831 75.6743 25.3587C76.426 25.2979 77.0764 25.1764 77.6252 24.9942C78.1741 24.8119 78.4485 24.5445 78.4485 24.192V3.61133H77.9474L69.3565 26.9629H68.3363L58.9579 3.61133H58.2778V23.5904C58.2778 24.0645 58.4568 24.429 58.8147 24.6842C59.1727 24.9273 59.5783 25.0913 60.0317 25.1764C60.4852 25.2494 61.0459 25.3101 61.7141 25.3587C61.9766 25.3831 62.1496 25.4377 62.2332 25.5228C62.3167 25.5957 62.3584 25.7658 62.3584 26.0332C62.3584 26.2155 62.2988 26.4161 62.1794 26.6348C62.0721 26.8535 61.9289 26.9629 61.7499 26.9629H53.4275ZM102.192 27.4916C99.507 27.4916 97.1564 26.89 95.1399 25.6868C93.1234 24.4716 91.5723 22.8309 90.4865 20.7649C89.4126 18.6989 88.8758 16.4143 88.8758 13.9108C88.8758 11.4073 89.4126 9.14084 90.4865 7.11133C91.5604 5.08181 93.1055 3.48373 95.122 2.31706C97.1385 1.13824 99.495 0.548828 102.192 0.548828C104.888 0.548828 107.244 1.13824 109.261 2.31706C111.277 3.48373 112.823 5.08181 113.897 7.11133C114.982 9.14084 115.525 11.4073 115.525 13.9108C115.525 16.4143 114.982 18.6989 113.897 20.7649C112.811 22.8309 111.26 24.4716 109.243 25.6868C107.227 26.89 104.876 27.4916 102.192 27.4916ZM102.263 25.778C104.459 25.778 106.075 24.7571 107.114 22.7155C108.151 20.6616 108.671 17.739 108.671 13.9472C108.671 10.1799 108.134 7.28754 107.06 5.27018C105.998 3.25282 104.363 2.24414 102.155 2.24414C99.9485 2.24414 98.3197 3.25282 97.2698 5.27018C96.2317 7.27539 95.7127 10.1678 95.7127 13.9472C95.7127 17.7146 96.2495 20.6313 97.3234 22.6972C98.4092 24.7511 100.056 25.778 102.263 25.778ZM131.322 27.5097C128.721 27.5097 126.328 27.0844 124.145 26.2337C121.973 25.3708 120.208 23.9429 118.847 21.9499C117.487 19.9446 116.807 17.3257 116.807 14.0931C116.807 11.0671 117.511 8.53928 118.919 6.50976C120.339 4.46809 122.128 2.96723 124.289 2.00716C126.459 1.03494 128.679 0.548828 130.947 0.548828C132.735 0.548828 134.179 0.670355 135.278 0.913411C136.375 1.15646 137.377 1.46028 138.285 1.82487C138.511 1.9221 138.719 2.00109 138.911 2.06185C139.113 2.12261 139.28 2.15299 139.412 2.15299L139.716 7.98633C139.74 8.16862 139.597 8.33876 139.286 8.49675C138.988 8.64257 138.738 8.7155 138.535 8.7155L138.285 8.73373C137.974 8.73373 137.676 8.69119 137.39 8.60612C137.102 8.52105 136.942 8.38737 136.906 8.20508C136.584 6.39432 135.969 4.96028 135.063 3.90299C134.168 2.83355 132.783 2.29883 130.91 2.29883C129.681 2.29883 128.548 2.57834 127.51 3.13737C126.472 3.68424 125.589 4.82661 124.861 6.56445C124.133 8.3023 123.769 10.8119 123.769 14.0931C123.769 17.2042 124.168 19.6287 124.969 21.3665C125.768 23.0923 126.722 24.2589 127.832 24.8665C128.954 25.4742 130.111 25.778 131.304 25.778C132.462 25.778 133.476 25.4924 134.346 24.9212C135.218 24.3379 135.921 23.5723 136.459 22.6243C137.008 21.6643 137.39 20.6009 137.604 19.4342C137.676 19.0332 137.962 18.8327 138.463 18.8327C138.678 18.8327 138.94 18.8935 139.251 19.0149C139.573 19.1243 139.733 19.2701 139.733 19.4525L139.232 24.9942C139.209 25.1886 138.809 25.4985 138.034 25.9238C137.258 26.337 136.268 26.7016 135.063 27.0175C133.87 27.3457 132.622 27.5097 131.322 27.5097ZM167.164 25.3587C167.427 25.3831 167.599 25.4377 167.683 25.5228C167.766 25.5957 167.808 25.7658 167.808 26.0332C167.808 26.2155 167.749 26.4161 167.63 26.6348C167.522 26.8535 167.379 26.9629 167.2 26.9629H156.067C155.888 26.9629 155.739 26.8535 155.62 26.6348C155.512 26.4161 155.459 26.2155 155.459 26.0332C155.459 25.8266 155.501 25.6687 155.584 25.5593C155.668 25.4499 155.823 25.3831 156.05 25.3587L156.766 25.3223C157.35 25.3101 157.755 25.2798 157.982 25.2311C158.209 25.1704 158.322 25.0427 158.322 24.8483C158.322 24.7632 158.305 24.6661 158.268 24.5567L156.031 18.2675L147.458 18.2494L145.239 24.5567C145.203 24.6417 145.186 24.7207 145.186 24.7936C145.186 25.0123 145.334 25.1521 145.633 25.2129C145.931 25.2737 146.409 25.3101 147.064 25.3223L147.817 25.3587C148.043 25.3831 148.199 25.4499 148.282 25.5593C148.366 25.6687 148.407 25.8266 148.407 26.0332C148.407 26.2155 148.347 26.4161 148.228 26.6348C148.121 26.8535 147.978 26.9629 147.798 26.9629H140.228C140.037 26.9629 139.888 26.8717 139.78 26.6894C139.673 26.5071 139.619 26.2884 139.619 26.0332C139.619 25.7658 139.661 25.5957 139.745 25.5228C139.828 25.4377 140.001 25.3831 140.264 25.3587C140.36 25.3466 140.514 25.3404 140.729 25.3404C141.099 25.3283 141.409 25.2979 141.66 25.2494C141.923 25.1886 142.173 25.061 142.411 24.8665C142.651 24.6599 142.847 24.3561 143.002 23.9551L151.593 0.694661H155.781L164.283 23.9551C164.438 24.3682 164.64 24.6782 164.891 24.8848C165.141 25.0792 165.398 25.2008 165.66 25.2494C165.923 25.2979 166.251 25.3283 166.645 25.3404C166.883 25.3404 167.056 25.3466 167.164 25.3587ZM152.13 5.27018L147.959 16.6999H155.495L152.13 5.27018Z" fill="#F68A20"/>
</svg>
