<svg width="146" height="77" viewBox="0 0 146 77" fill="none" xmlns="http://www.w3.org/2000/svg">
<path d="M26.1602 9.48599L30.9032 0.316162L47.1875 30.9877H37.3853L26.1602 9.48599Z" fill="white"/>
<path d="M58.4121 9.01173L53.511 0L44.3412 17.3911L49.4004 26.5609L58.4121 9.01173Z" fill="white"/>
<path d="M54.6172 43.0033L59.3602 33.8335L75.6446 64.505H65.8423L54.6172 43.0033Z" fill="white"/>
<path d="M86.8691 42.5291L81.968 33.5173L72.7982 50.9084L77.8574 60.0782L86.8691 42.5291Z" fill="white"/>
<path d="M88.7676 43.3196L93.5106 34.1498L109.795 64.8213H99.9927L88.7676 43.3196Z" fill="white"/>
<path d="M121.02 42.8452L116.118 33.8335L106.949 51.2246L112.008 60.3944L121.02 42.8452Z" fill="white"/>
<path fill-rule="evenodd" clip-rule="evenodd" d="M68.8477 0H62.8398V30.9877H69.4801V30.9877H80.8633V25.2961H69.4801V17.7073H80.8633V12.0156H69.4801V5.69162H80.8633V0H69.4801H68.8477Z" fill="white"/>
<path fill-rule="evenodd" clip-rule="evenodd" d="M87.8184 0H94.4586H94.4586H98.5692H99.2016L99.2026 0.0171872C101.739 0.154988 104.141 1.1167 105.948 2.73209C107.904 4.48141 109.004 6.85401 109.004 9.32793C109.004 11.8019 107.904 14.1745 105.948 15.9238C105.299 16.5034 104.574 16.9989 103.794 17.4023L112.64 30.6715H104.893L97.807 18.6558H94.4586V30.9877H87.8184V0ZM101.704 12.1303C100.949 12.8049 99.9505 13.2112 98.8931 13.2804H94.4586V5.37542H98.8928C99.9502 5.44457 100.949 5.85088 101.704 6.52561C102.535 7.26884 103.002 8.27686 103.002 9.32793C103.002 10.379 102.535 11.387 101.704 12.1303Z" fill="white"/>
<path fill-rule="evenodd" clip-rule="evenodd" d="M20.5486 36.5888C19.0333 35.7993 15.4696 34.3402 13.5922 34.1844C11.7148 34.0287 10.4302 34.0939 8.5473 34.4049C6.75115 34.9197 5.16552 35.525 3.87481 36.5888C2.5841 37.6525 1.65747 38.9213 1.177 40.2828C0.696533 41.6443 0.677059 43.0564 1.1203 44.3942C1.52961 45.6295 2.17969 46.9953 3.27082 47.9831L3.2094 48.0948L3.96318 48.5094C4.14533 48.6234 4.34003 48.7296 4.54461 48.8292L12.2548 53.0702C12.4266 53.255 12.5752 53.4065 12.6885 53.5007C13.2794 53.9918 13.6711 54.5523 13.8798 55.2079C14.0884 55.8636 14.1074 56.5942 13.8845 57.2596C13.6787 57.8736 13.3571 58.1487 12.8357 58.5945L12.8356 58.5946C12.792 58.6319 12.747 58.6704 12.7005 58.7104C12.2059 59.0423 11.7422 59.0704 11.2252 59.1018C11.0591 59.1118 10.8875 59.1222 10.7075 59.1432C9.93858 59.2326 9.04121 59.1474 8.23756 59.0712C8.1314 59.0611 8.02687 59.0512 7.9245 59.0418C7.0471 58.9618 2.70607 57.5976 1.99715 57.2081L0 62.3925C1.60668 63.2753 5.38425 64.9102 7.37277 65.0916C9.36129 65.273 10.7215 65.2065 12.7147 64.8702C14.6154 64.3074 16.293 63.6432 17.6571 62.4691C19.0212 61.295 19.9993 59.8918 20.5046 58.3837C21.0099 56.8756 21.0269 55.3091 20.5542 53.8232C20.0814 52.3372 19.1333 50.9775 17.7941 49.8646C17.6689 49.7606 17.5394 49.6645 17.4057 49.5753L17.4462 49.5016L8.37962 44.5146C7.91553 44.108 7.60132 43.6486 7.42609 43.1197C7.23051 42.5295 7.21409 41.8709 7.42609 41.2702C7.6217 40.7159 7.92605 40.4667 8.41933 40.0627C8.46065 40.0289 8.50329 39.994 8.54731 39.9577C9.0151 39.6566 9.45301 39.6294 9.94128 39.5992C10.0982 39.5894 10.2603 39.5794 10.4302 39.5598C11.1566 39.4762 12.0038 39.5495 12.7625 39.6151C12.8628 39.6237 12.9614 39.6323 13.0581 39.6403C13.8865 39.709 17.9828 40.9219 18.6514 41.2702L20.5486 36.5888Z" fill="white"/>
<path fill-rule="evenodd" clip-rule="evenodd" d="M38.0279 39.8414H38.3733L42.1234 51.857H34.2778L38.0279 39.8414ZM32.6001 57.2325L30.429 64.1889H23.3145L34.0653 35.0525V34.4659H42.1284H42.2865V34.8944L53.0374 64.0307H45.9228L43.8011 57.2325H32.6001Z" fill="white"/>
<path fill-rule="evenodd" clip-rule="evenodd" d="M118.965 34.7821H126.079L132.391 46.4815H132.574L138.886 34.7821H146L135.882 52.9637L135.882 52.9637V64.1888H129.241V52.6834L129.083 52.9637L118.965 34.7821Z" fill="white"/>
<path d="M37.7181 74.3023H36.9055V70.0847C36.9076 69.6627 36.933 69.2411 36.9817 68.8219V68.8219C36.9284 69.0243 36.8605 69.2227 36.7786 69.4154L34.3918 74.3023H33.9982L31.6368 69.5164C31.5543 69.311 31.4864 69.1 31.4336 68.8851V68.8851C31.4336 69.125 31.4336 69.5417 31.4336 70.1478V74.3023H30.6719V68.0516H31.7383L33.8585 72.3703C33.9836 72.61 34.0897 72.8591 34.1759 73.1153C34.3156 72.7743 34.4298 72.5218 34.5187 72.345L36.677 68.0516H37.6927L37.7181 74.3023Z" fill="white"/>
<path d="M47.4552 74.3013H43.748V68.0507H47.2521V68.7073H44.5479V70.7656H47.0871V71.4222H44.5479V73.5815H47.4552V74.3013Z" fill="white"/>
<path d="M52.9395 74.3013V68.0507H54.8438C57.2814 68.0507 58.5002 69.0609 58.5002 71.0686C58.5145 71.5029 58.4307 71.9348 58.255 72.3325C58.0792 72.7303 57.8159 73.0837 57.4846 73.3669C56.7261 74.0015 55.7583 74.3343 54.7677 74.3013H52.9395ZM53.8028 68.7073V73.5815H54.8311C55.589 73.6288 56.3382 73.3999 56.9386 72.9375C57.1802 72.6957 57.3656 72.4042 57.4818 72.0835C57.598 71.7629 57.6423 71.4208 57.6115 71.0813C57.6115 69.5028 56.672 68.7073 54.793 68.7073H53.8028Z" fill="white"/>
<path d="M64.836 74.3013H64.0234V68.0507H64.836V74.3013Z" fill="white"/>
<path d="M76.2112 74.3011H75.386L74.6496 72.5712H71.7296L70.9678 74.3011H70.0664L72.7198 68.1136H73.5578L76.2112 74.3011ZM74.3195 71.8514L73.2404 69.2501C73.1885 69.1162 73.1543 68.9761 73.1388 68.8334V68.8334C73.1228 68.9774 73.0842 69.118 73.0245 69.2501L71.9581 71.8893L74.3195 71.8514Z" fill="white"/>
<path d="M89.1231 71.902V74.3012H88.3105V68.0506H90.2149C90.8113 68.024 91.3999 68.1925 91.8908 68.5304C92.0927 68.6944 92.253 68.9032 92.3589 69.1401C92.4647 69.377 92.5131 69.6353 92.5002 69.8942C92.5153 70.1644 92.4682 70.4345 92.3627 70.684C92.2571 70.9334 92.0957 71.1556 91.8908 71.3337C91.3688 71.7335 90.7205 71.935 90.0626 71.902H89.1231ZM89.1231 68.7072V71.2327H89.9737C90.4233 71.2632 90.8702 71.1432 91.2433 70.8918C91.3894 70.7762 91.5058 70.6278 91.583 70.4588C91.6603 70.2898 91.6961 70.1049 91.6876 69.9195C91.6876 69.0987 91.1544 68.6567 90.0753 68.6567L89.1231 68.7072Z" fill="white"/>
<path d="M101.604 74.3013H98.0234V68.0507H98.836V73.5815H101.604V74.3013Z" fill="white"/>
<path d="M111.253 73.9855C110.644 74.2274 109.99 74.3351 109.336 74.3012C108.905 74.3222 108.475 74.2583 108.07 74.1131C107.665 73.9679 107.292 73.7443 106.974 73.4552C106.681 73.1629 106.452 72.8134 106.301 72.4287C106.15 72.0441 106.081 71.6326 106.098 71.2201C106.091 70.7764 106.179 70.3362 106.356 69.929C106.533 69.5218 106.796 69.1569 107.127 68.8587C107.829 68.255 108.738 67.9431 109.666 67.9874C110.223 67.9666 110.779 68.0523 111.303 68.24V69.0103C110.798 68.7458 110.236 68.6072 109.666 68.6062C109.313 68.5875 108.959 68.6406 108.628 68.7621C108.296 68.8837 107.992 69.0713 107.736 69.3133C107.484 69.5615 107.287 69.8594 107.158 70.1878C107.029 70.5162 106.971 70.8679 106.987 71.2201C106.962 71.5513 107.006 71.8841 107.118 72.1972C107.229 72.5104 107.405 72.7969 107.634 73.0385C107.875 73.2685 108.16 73.4475 108.472 73.5647C108.784 73.682 109.117 73.7349 109.45 73.7203C110.077 73.7353 110.697 73.5919 111.253 73.3036V73.9855Z" fill="white"/>
</svg>
