<svg width="208" height="37" viewBox="0 0 208 37" fill="none" xmlns="http://www.w3.org/2000/svg">
<path d="M11.2393 12.3655C12.1405 12.4226 12.9282 12.6082 13.6023 12.9222C14.2765 13.2291 14.7945 13.6502 15.1564 14.1855C15.5254 14.7137 15.7099 15.3346 15.7099 16.0484C15.7099 17.5615 15.1918 18.6928 14.1558 19.4422C13.1269 20.1845 11.5658 20.5556 9.47243 20.5556H1.53191C1.42547 20.5556 1.33677 20.4914 1.26581 20.3629C1.20195 20.2344 1.17001 20.1167 1.17001 20.0096C1.17001 19.8883 1.19485 19.7955 1.24452 19.7312C1.29419 19.667 1.38645 19.6278 1.52127 19.6135C2.03928 19.5778 2.47924 19.51 2.84114 19.4101C3.20304 19.303 3.38399 19.1424 3.38399 18.9283L3.39463 7.34437C3.39463 7.05887 3.29529 6.84477 3.0966 6.70203C2.89791 6.55928 2.67083 6.46646 2.41537 6.42366C2.15992 6.37369 1.84059 6.33445 1.45741 6.3059C1.30129 6.2916 1.1984 6.26305 1.14873 6.22025C1.09906 6.17028 1.07422 6.06682 1.07422 5.90977C1.07422 5.8027 1.10615 5.68494 1.17001 5.55649C1.24098 5.42799 1.32968 5.36377 1.43612 5.36377H8.82313C10.7462 5.36377 12.2009 5.6314 13.1872 6.16672C14.1807 6.69486 14.6774 7.52996 14.6774 8.67193C14.6774 9.38567 14.5248 10.0102 14.2197 10.5455C13.9216 11.0736 13.5136 11.4912 12.9956 11.7981C12.4776 12.105 11.8922 12.2941 11.2393 12.3655ZM6.97107 11.9694H7.88645C8.82313 11.9694 9.60722 11.741 10.2388 11.2842C10.8774 10.8203 11.1967 10.0815 11.1967 9.06806C11.1967 7.29083 10.1891 6.40224 8.17384 6.40224H6.97107V11.9694ZM8.63153 19.4743C9.56821 19.4743 10.3346 19.2423 10.9307 18.7784C11.5338 18.3145 11.8354 17.4152 11.8354 16.0805C11.8354 15.1098 11.6332 14.3996 11.2287 13.95C10.8242 13.5003 10.363 13.2291 9.84497 13.1363C9.33405 13.0436 8.69184 12.9971 7.91838 12.9971H6.97107V19.0782C6.99945 19.1852 7.14846 19.278 7.41809 19.3565C7.68776 19.4351 8.09222 19.4743 8.63153 19.4743ZM16.5997 20.0096C16.5997 19.8883 16.6245 19.7955 16.6742 19.7312C16.7239 19.667 16.8161 19.6278 16.951 19.6135C17.3767 19.5778 17.7422 19.51 18.0473 19.4101C18.3524 19.303 18.505 19.1424 18.505 18.9283V7.34437C18.505 7.06604 18.4234 6.85546 18.2602 6.71272C18.097 6.56997 17.916 6.4772 17.7174 6.43435C17.5257 6.39155 17.249 6.3487 16.8871 6.3059C16.731 6.2916 16.6281 6.26305 16.5784 6.22025C16.5288 6.17028 16.5039 6.06682 16.5039 5.90977C16.5039 5.8027 16.5358 5.68494 16.5997 5.55649C16.6707 5.42799 16.7594 5.36377 16.8658 5.36377H29.2023L29.5749 8.84323C29.582 8.9503 29.5288 9.03951 29.4152 9.11086C29.3017 9.17509 29.1917 9.2072 29.0852 9.2072C28.7021 9.2072 28.4466 9.08944 28.3189 8.85392C28.2266 8.6755 28.0776 8.37571 27.8718 7.95464C27.6731 7.54065 27.5099 7.23734 27.3822 7.04462C27.2616 6.84477 27.109 6.69129 26.9245 6.58427C26.7471 6.4772 26.5129 6.42366 26.222 6.42366H22.0601V12.2263H24.9021C25.0724 12.2049 25.2356 12.08 25.3917 11.8516C25.5478 11.6232 25.6791 11.3663 25.7856 11.0808C25.892 10.7882 25.9559 10.5598 25.9772 10.3956C26.0056 10.1672 26.1687 10.053 26.4668 10.053C26.5733 10.053 26.6974 10.0887 26.8393 10.1601C26.9813 10.2243 27.0522 10.3099 27.0522 10.417V15.1598C27.0522 15.2668 26.9813 15.3561 26.8393 15.4274C26.6974 15.4917 26.5733 15.5238 26.4668 15.5238C26.332 15.5238 26.2149 15.4988 26.1155 15.4488C26.0162 15.3917 25.9594 15.299 25.9452 15.1705C25.931 14.992 25.8707 14.7494 25.7643 14.4425C25.6578 14.1284 25.523 13.8536 25.3598 13.6181C25.1966 13.3754 25.0227 13.2541 24.8382 13.2541H22.0601V18.4465C22.0601 19.0746 22.383 19.4172 23.0288 19.4743H26.1049C26.5307 19.4743 26.8996 19.3815 27.2119 19.1959C27.5312 19.0104 27.8292 18.7106 28.106 18.2966C28.3898 17.8827 28.7021 17.3045 29.0427 16.5623C29.0923 16.4481 29.1917 16.3624 29.3407 16.3053C29.4897 16.2411 29.6316 16.209 29.7665 16.209C29.9155 16.209 30.0574 16.2411 30.1922 16.3053C30.3341 16.3695 30.4122 16.4587 30.4264 16.5729L30.0006 20.5556H16.9616C16.8552 20.5556 16.7665 20.4914 16.6955 20.3629C16.6316 20.2344 16.5997 20.1167 16.5997 20.0096ZM31.7633 7.65485C31.6427 7.33368 31.5149 7.08742 31.3801 6.91613C31.2524 6.7377 31.0892 6.60564 30.8905 6.52C30.6989 6.42722 30.4328 6.35587 30.0922 6.3059C29.929 6.28448 29.8225 6.25236 29.7729 6.20956C29.7232 6.15959 29.6983 6.05964 29.6983 5.90977C29.6983 5.8027 29.7338 5.68494 29.8048 5.55649C29.8686 5.42799 29.9538 5.36377 30.0602 5.36377H36.9896C37.096 5.36377 37.1812 5.42799 37.245 5.55649C37.3159 5.68494 37.3515 5.8027 37.3515 5.90977C37.3515 6.03109 37.3266 6.12387 37.2769 6.18814C37.2273 6.25236 37.135 6.2916 37.0002 6.3059C36.4396 6.3059 36.0387 6.37725 35.7974 6.52C35.5633 6.66274 35.4462 6.84834 35.4462 7.07673C35.4462 7.17663 35.4639 7.28014 35.4994 7.38721L38.8523 16.0805L42.3116 5.68494H44.1637L48.2615 15.7593L51.3697 7.3551C51.4051 7.24803 51.4228 7.14808 51.4228 7.05531C51.4228 6.55572 50.7702 6.3059 49.4646 6.3059C49.3297 6.2916 49.2375 6.25236 49.1875 6.18814C49.138 6.12387 49.113 6.03109 49.113 5.90977C49.113 5.8027 49.1453 5.68494 49.2089 5.55649C49.2797 5.42799 49.3687 5.36377 49.475 5.36377H54.6373C54.744 5.36377 54.829 5.42799 54.893 5.55649C54.9638 5.68494 54.9993 5.8027 54.9993 5.90977C54.9993 6.06682 54.9711 6.17384 54.9143 6.23094C54.8644 6.28091 54.7654 6.3059 54.616 6.3059C54.1409 6.3059 53.7681 6.37012 53.4988 6.49862C53.2358 6.62707 53.041 6.79836 52.9129 7.01251C52.7853 7.22661 52.6504 7.52996 52.5087 7.92252L47.7188 20.7483H46.4095L42.0242 9.98877L38.4159 20.7483H37.1066L31.7633 7.65485ZM54.7186 20.0096C54.7186 19.8883 54.7431 19.7955 54.7931 19.7312C54.8426 19.667 54.9348 19.6278 55.0697 19.6135C55.4952 19.5778 55.8608 19.51 56.166 19.4101C56.4712 19.303 56.6238 19.1424 56.6238 18.9283V7.34437C56.6238 7.06604 56.542 6.85546 56.379 6.71272C56.2155 6.56997 56.0347 6.4772 55.8358 6.43435C55.6446 6.39155 55.3676 6.3487 55.0056 6.3059C54.8499 6.2916 54.7468 6.26305 54.6973 6.22025C54.6473 6.17028 54.6228 6.06682 54.6228 5.90977C54.6228 5.8027 54.6546 5.68494 54.7186 5.55649C54.7894 5.42799 54.878 5.36377 54.9843 5.36377H67.3212L67.6936 8.84323C67.7004 8.9503 67.6473 9.03951 67.5338 9.11086C67.4202 9.17509 67.3103 9.2072 67.204 9.2072C66.8207 9.2072 66.5651 9.08944 66.4375 8.85392C66.3453 8.6755 66.1963 8.37571 65.9906 7.95464C65.7916 7.54065 65.6286 7.23734 65.501 7.04462C65.3802 6.84477 65.2276 6.69129 65.0432 6.58427C64.8656 6.4772 64.6318 6.42366 64.3406 6.42366H60.1788V12.2263H63.0209C63.1912 12.2049 63.3542 12.08 63.5105 11.8516C63.6667 11.6232 63.7979 11.3663 63.9042 11.0808C64.0105 10.7882 64.0745 10.5598 64.0959 10.3956C64.124 10.1672 64.2875 10.053 64.5854 10.053C64.6917 10.053 64.8161 10.0887 64.9578 10.1601C65.1 10.2243 65.1708 10.3099 65.1708 10.417V15.1598C65.1708 15.2668 65.1 15.3561 64.9578 15.4274C64.8161 15.4917 64.6917 15.5238 64.5854 15.5238C64.4506 15.5238 64.3334 15.4988 64.2344 15.4488C64.1349 15.3917 64.0781 15.299 64.0641 15.1705C64.0495 14.992 63.9896 14.7494 63.8829 14.4425C63.7766 14.1284 63.6417 13.8536 63.4787 13.6181C63.3152 13.3754 63.1412 13.2541 62.9569 13.2541H60.1788V18.4465C60.1788 19.0746 60.5017 19.4172 61.1475 19.4743H64.2235C64.6495 19.4743 65.0182 19.3815 65.3307 19.1959C65.65 19.0104 65.9479 18.7106 66.2245 18.2966C66.5083 17.8827 66.8208 17.3045 67.1614 16.5623C67.2109 16.4481 67.3103 16.3624 67.4593 16.3053C67.6082 16.2411 67.7504 16.209 67.8853 16.209C68.0342 16.209 68.1759 16.2411 68.3108 16.3053C68.453 16.3695 68.5311 16.4587 68.5452 16.5729L68.1192 20.5556H55.0801C54.9738 20.5556 54.8853 20.4914 54.814 20.3629C54.7504 20.2344 54.7186 20.1167 54.7186 20.0096ZM69.7328 20.5556C69.6265 20.5556 69.5379 20.4914 69.4666 20.3629C69.403 20.2344 69.3712 20.1167 69.3712 20.0096C69.3712 19.8883 69.3958 19.7955 69.4457 19.7312C69.4952 19.667 69.5874 19.6278 69.7223 19.6135C70.1124 19.5849 70.4676 19.4993 70.7868 19.3565C71.1061 19.2138 71.2655 19.0354 71.2655 18.8212V7.34437C71.2655 7.05887 71.1878 6.84477 71.0316 6.70203C70.8827 6.55215 70.6978 6.45577 70.478 6.41297C70.265 6.363 69.9884 6.32732 69.6478 6.3059C69.4916 6.2916 69.389 6.26305 69.339 6.22025C69.2895 6.17028 69.2645 6.06682 69.2645 5.90977C69.2645 5.8027 69.2963 5.68494 69.3603 5.55649C69.4312 5.42799 69.5202 5.36377 69.6265 5.36377H76.9178C77.0241 5.36377 77.1095 5.42799 77.1731 5.55649C77.2439 5.68494 77.2798 5.8027 77.2798 5.90977C77.2798 6.17384 77.1626 6.3059 76.9283 6.3059C76.2684 6.3059 75.7611 6.38086 75.4064 6.53073C75.0585 6.6806 74.8846 6.94111 74.8846 7.31225V18.6607C74.8846 18.9818 74.9664 19.1995 75.1294 19.3137C75.2929 19.4208 75.5268 19.4743 75.832 19.4743H78.7485C79.0605 19.4743 79.3802 19.2887 79.7063 18.9176C80.0401 18.5465 80.3485 18.0825 80.6323 17.5258C80.9162 16.9691 81.1505 16.4088 81.3349 15.845C81.3703 15.7308 81.4807 15.6451 81.665 15.588C81.8567 15.5238 82.027 15.4917 82.176 15.4917C82.3322 15.4917 82.4739 15.5238 82.6015 15.588C82.7364 15.6522 82.7968 15.7414 82.7827 15.8556L82.1546 20.5556H69.7328ZM83.5875 20.5556C83.4807 20.5556 83.3922 20.4914 83.3213 20.3629C83.2573 20.2344 83.2255 20.1167 83.2255 20.0096C83.2255 19.8883 83.25 19.7955 83.3 19.7312C83.3495 19.667 83.4417 19.6278 83.5766 19.6135C83.9671 19.5849 84.3218 19.4993 84.6411 19.3565C84.9603 19.2138 85.1202 19.0354 85.1202 18.8212V7.34437C85.1202 7.05887 85.0421 6.84477 84.8859 6.70203C84.7369 6.55215 84.5525 6.45577 84.3323 6.41297C84.1197 6.363 83.8427 6.32732 83.5021 6.3059C83.3459 6.2916 83.2432 6.26305 83.1937 6.22025C83.1438 6.17028 83.1188 6.06682 83.1188 5.90977C83.1188 5.8027 83.151 5.68494 83.2146 5.55649C83.2859 5.42799 83.3745 5.36377 83.4807 5.36377H90.7721C90.8784 5.36377 90.9637 5.42799 91.0278 5.55649C91.0986 5.68494 91.134 5.8027 91.134 5.90977C91.134 6.17384 91.0169 6.3059 90.7825 6.3059C90.1226 6.3059 89.6154 6.38086 89.2607 6.53073C88.9128 6.6806 88.7389 6.94111 88.7389 7.31225V18.6607C88.7389 18.9818 88.8206 19.1995 88.9841 19.3137C89.1471 19.4208 89.381 19.4743 89.6862 19.4743H92.6028C92.9152 19.4743 93.2345 19.2887 93.561 18.9176C93.8944 18.5465 94.2032 18.0825 94.487 17.5258C94.7709 16.9691 95.0047 16.4088 95.1896 15.845C95.225 15.7308 95.3349 15.6451 95.5193 15.588C95.7109 15.5238 95.8813 15.4917 96.0302 15.4917C96.1864 15.4917 96.3281 15.5238 96.4562 15.588C96.5911 15.6522 96.651 15.7414 96.637 15.8556L96.0089 20.5556H83.5875Z" fill="#C85D67"/>
<path d="M103.898 20.5555C103.792 20.5555 103.703 20.4913 103.632 20.3628C103.569 20.2343 103.537 20.1166 103.537 20.0095C103.537 19.8882 103.561 19.7953 103.611 19.7311C103.661 19.6669 103.753 19.6277 103.888 19.6134C104.534 19.5777 105.059 19.492 105.463 19.3564C105.875 19.2137 106.081 18.9638 106.081 18.607V6.42354H103.419C103.051 6.42354 102.745 6.64125 102.504 7.07661C102.27 7.50485 102.096 7.98307 101.982 8.51121C101.876 9.03939 101.809 9.48901 101.78 9.86015C101.766 9.98152 101.695 10.0707 101.567 10.1278C101.447 10.1849 101.316 10.2135 101.174 10.2135C101.067 10.2135 100.95 10.1814 100.823 10.1171C100.694 10.0457 100.631 9.95654 100.631 9.84947C100.666 8.77889 100.709 7.76536 100.758 6.80893C100.815 5.84543 100.879 5.36365 100.95 5.36365H114.649C114.72 5.36365 114.78 5.84543 114.83 6.80893C114.887 7.76536 114.933 8.77889 114.968 9.84947C114.968 9.95654 114.904 10.0457 114.777 10.1171C114.649 10.1814 114.532 10.2135 114.426 10.2135C114.283 10.2135 114.149 10.1849 114.021 10.1278C113.901 10.0707 113.833 9.98152 113.819 9.86015C113.733 9.08932 113.57 8.32566 113.329 7.56908C113.088 6.80537 112.705 6.42354 112.179 6.42354H109.657V18.5749C109.657 18.8604 109.767 19.0745 109.987 19.2172C110.207 19.36 110.459 19.4564 110.742 19.5063C111.026 19.5491 111.381 19.5848 111.807 19.6134C111.963 19.6277 112.066 19.6598 112.116 19.7097C112.165 19.7525 112.19 19.8524 112.19 20.0095C112.19 20.1166 112.155 20.2343 112.084 20.3628C112.02 20.4913 111.935 20.5555 111.828 20.5555H103.898ZM115.709 20.5555C115.603 20.5555 115.514 20.4913 115.443 20.3628C115.379 20.2343 115.348 20.1166 115.348 20.0095C115.348 19.8882 115.372 19.7953 115.422 19.7311C115.472 19.6669 115.564 19.6277 115.699 19.6134C116.664 19.5348 117.146 19.3064 117.146 18.9282L117.157 7.34425C117.157 7.05875 117.082 6.84465 116.933 6.70191C116.784 6.55916 116.614 6.46995 116.423 6.43423C116.238 6.39143 115.975 6.34858 115.635 6.30578C115.479 6.29148 115.376 6.26293 115.326 6.22013C115.276 6.17016 115.252 6.0667 115.252 5.90965C115.252 5.80258 115.284 5.68482 115.348 5.55637C115.418 5.42787 115.507 5.36365 115.613 5.36365L116.774 5.35296C116.965 5.34579 117.256 5.34223 117.646 5.34223C118.03 5.34223 118.739 5.32797 119.775 5.29942C120.982 5.27088 121.954 5.25658 122.692 5.25658C124.65 5.25658 126.148 5.58848 127.184 6.25224C128.227 6.91601 128.748 7.93666 128.748 9.31415C128.748 10.2135 128.571 10.945 128.216 11.5089C127.861 12.0728 127.403 12.5046 126.843 12.8043C126.289 13.1041 125.626 13.3539 124.852 13.5538C125.491 13.618 126.009 13.7928 126.407 14.0783C126.811 14.3638 127.127 14.6993 127.354 15.0847C127.581 15.4701 127.833 15.9911 128.11 16.6478C128.294 17.0689 128.44 17.4008 128.546 17.6434C128.66 17.879 128.791 18.1145 128.94 18.3501C129.167 18.7854 129.398 19.0959 129.632 19.2815C129.873 19.467 130.139 19.5741 130.43 19.6027C130.579 19.6169 130.678 19.6562 130.728 19.7204C130.785 19.7847 130.813 19.8988 130.813 20.063C130.813 20.1629 130.778 20.27 130.707 20.3842C130.643 20.4984 130.558 20.5555 130.451 20.5555H126.822C126.446 20.5555 126.126 20.4163 125.864 20.1379C125.601 19.8596 125.385 19.517 125.214 19.1102C125.051 18.7033 124.86 18.1466 124.639 17.44C124.398 16.6549 124.178 16.0268 123.98 15.5558C123.781 15.0847 123.511 14.685 123.171 14.3567C122.837 14.0284 122.422 13.8642 121.925 13.8642H120.659V18.5749C120.659 18.8604 120.747 19.078 120.925 19.228C121.102 19.3707 121.311 19.4635 121.553 19.5063C121.794 19.5491 122.099 19.5848 122.468 19.6134C122.624 19.6277 122.727 19.6598 122.777 19.7097C122.826 19.7525 122.851 19.8524 122.851 20.0095C122.851 20.1166 122.816 20.2343 122.745 20.3628C122.681 20.4913 122.596 20.5555 122.489 20.5555H115.709ZM122.192 12.9435C123.135 12.9435 123.859 12.6937 124.363 12.1941C124.874 11.6873 125.129 10.838 125.129 9.64606C125.129 8.53976 124.885 7.7047 124.395 7.14084C123.912 6.57698 123.167 6.29505 122.16 6.29505H120.659V12.9435H122.192ZM146.743 19.6134C146.899 19.6277 147.002 19.6598 147.052 19.7097C147.102 19.7525 147.126 19.8524 147.126 20.0095C147.126 20.1166 147.091 20.2343 147.02 20.3628C146.956 20.4913 146.871 20.5555 146.765 20.5555H140.144C140.037 20.5555 139.949 20.4913 139.878 20.3628C139.814 20.2343 139.782 20.1166 139.782 20.0095C139.782 19.8882 139.807 19.7953 139.857 19.7311C139.906 19.6669 139.998 19.6277 140.133 19.6134L140.559 19.5919C140.907 19.5848 141.148 19.5669 141.283 19.5384C141.417 19.5027 141.485 19.4278 141.485 19.3136C141.485 19.2636 141.474 19.2065 141.453 19.1423L140.123 15.4487L135.024 15.438L133.704 19.1423C133.683 19.1922 133.672 19.2386 133.672 19.2815C133.672 19.4099 133.761 19.492 133.938 19.5277C134.116 19.5634 134.4 19.5848 134.79 19.5919L135.237 19.6134C135.372 19.6277 135.464 19.6669 135.514 19.7311C135.564 19.7953 135.588 19.8882 135.588 20.0095C135.588 20.1166 135.553 20.2343 135.482 20.3628C135.418 20.4913 135.333 20.5555 135.226 20.5555H130.724C130.61 20.5555 130.522 20.5019 130.458 20.3949C130.394 20.2879 130.362 20.1594 130.362 20.0095C130.362 19.8524 130.387 19.7525 130.436 19.7097C130.486 19.6598 130.589 19.6277 130.745 19.6134C130.802 19.6062 130.894 19.6027 131.022 19.6027C131.242 19.5955 131.426 19.5777 131.575 19.5491C131.731 19.5135 131.88 19.4385 132.023 19.3243C132.164 19.203 132.281 19.0245 132.374 18.789L137.483 5.12813H139.973L145.029 18.789C145.122 19.0317 145.242 19.2137 145.391 19.335C145.54 19.4492 145.693 19.5206 145.849 19.5491C146.005 19.5777 146.2 19.5955 146.434 19.6027C146.577 19.6027 146.679 19.6062 146.743 19.6134ZM137.802 7.81533L135.322 14.528H139.803L137.802 7.81533ZM147.474 20.5555C147.367 20.5555 147.278 20.4913 147.207 20.3628C147.143 20.2343 147.112 20.1166 147.112 20.0095C147.112 19.8882 147.136 19.7953 147.186 19.7311C147.236 19.6669 147.328 19.6277 147.463 19.6134C147.889 19.5777 148.251 19.5098 148.549 19.4099C148.854 19.3029 149.006 19.1423 149.006 18.9282V7.34425C149.006 7.06592 148.925 6.85534 148.761 6.7126C148.598 6.56985 148.417 6.47708 148.218 6.43423C148.027 6.39143 147.75 6.34858 147.388 6.30578C147.232 6.29148 147.129 6.26293 147.079 6.22013C147.03 6.17016 147.005 6.0667 147.005 5.90965C147.005 5.80258 147.037 5.68482 147.101 5.55637C147.172 5.42787 147.261 5.36365 147.367 5.36365H154.775C156.62 5.37078 158.192 5.71693 159.491 6.40212C160.789 7.08018 161.765 7.97233 162.418 9.07863C163.07 10.1849 163.397 11.3768 163.397 12.6544C163.397 14.3959 162.985 15.8627 162.162 17.0546C161.339 18.2394 160.321 19.1209 159.107 19.699C157.894 20.27 156.705 20.5555 155.541 20.5555H147.474ZM152.593 18.7569C152.593 18.9496 152.753 19.1173 153.072 19.2601C153.398 19.4028 153.977 19.4742 154.807 19.4742C155.808 19.4742 156.616 19.3243 157.234 19.0245C157.851 18.7176 158.341 18.0753 158.703 17.0974C159.065 16.1125 159.246 14.6458 159.246 12.6973C159.246 11.02 159.047 9.72097 158.65 8.80026C158.26 7.87243 157.734 7.24078 157.074 6.90532C156.422 6.56985 155.631 6.40212 154.701 6.40212H152.604L152.593 18.7569ZM164.553 20.5555C164.446 20.5555 164.358 20.4913 164.287 20.3628C164.223 20.2343 164.191 20.1166 164.191 20.0095C164.191 19.8882 164.216 19.7953 164.266 19.7311C164.315 19.6669 164.407 19.6277 164.542 19.6134C164.968 19.5777 165.33 19.5098 165.628 19.4099C165.933 19.3029 166.085 19.1423 166.085 18.9282L166.096 7.34425C166.096 7.05875 166.011 6.84465 165.841 6.70191C165.678 6.55916 165.49 6.46634 165.277 6.42354C165.064 6.37357 164.798 6.33433 164.478 6.30578C164.322 6.29148 164.219 6.26293 164.17 6.22013C164.12 6.17016 164.095 6.0667 164.095 5.90965C164.095 5.80258 164.127 5.68482 164.191 5.55637C164.262 5.42787 164.351 5.36365 164.457 5.36365H171.216C171.323 5.36365 171.408 5.42787 171.472 5.55637C171.543 5.68482 171.578 5.80258 171.578 5.90965C171.578 6.03097 171.553 6.12375 171.503 6.18802C171.454 6.25224 171.362 6.29148 171.227 6.30578C170.198 6.3843 169.683 6.6127 169.683 6.99096L169.673 18.5749C169.673 18.8604 169.755 19.0745 169.918 19.2172C170.088 19.36 170.28 19.4564 170.493 19.5063C170.705 19.5491 170.971 19.5848 171.29 19.6134C171.447 19.6277 171.55 19.6598 171.599 19.7097C171.649 19.7525 171.674 19.8524 171.674 20.0095C171.674 20.1166 171.638 20.2343 171.567 20.3628C171.503 20.4913 171.419 20.5555 171.312 20.5555H164.553ZM172.543 20.5555C172.436 20.5555 172.347 20.4913 172.276 20.3628C172.212 20.2343 172.181 20.1166 172.181 20.0095C172.181 19.8882 172.205 19.7953 172.255 19.7311C172.305 19.6669 172.397 19.6277 172.532 19.6134C173.845 19.5135 174.501 19.2137 174.501 18.7141V7.92241C174.501 7.63691 174.384 7.37636 174.15 7.14084C173.915 6.90532 173.635 6.71616 173.309 6.57341C172.989 6.42354 172.709 6.33433 172.468 6.30578C172.312 6.29148 172.209 6.26293 172.159 6.22013C172.109 6.17016 172.085 6.0667 172.085 5.90965C172.085 5.80258 172.117 5.68482 172.181 5.55637C172.251 5.42787 172.34 5.36365 172.447 5.36365H177.641L186.263 15.5558H186.39V7.34425C186.39 7.06592 186.284 6.85534 186.071 6.7126C185.858 6.56985 185.649 6.48064 185.443 6.44496C185.244 6.40212 184.914 6.35575 184.453 6.30578C184.297 6.29148 184.194 6.26293 184.144 6.22013C184.095 6.17016 184.07 6.0667 184.07 5.90965C184.07 5.80258 184.102 5.68482 184.166 5.55637C184.237 5.42787 184.325 5.36365 184.432 5.36365H189.488C189.594 5.36365 189.679 5.42787 189.743 5.55637C189.814 5.68482 189.85 5.80258 189.85 5.90965C189.85 6.03097 189.825 6.12375 189.775 6.18802C189.726 6.25224 189.633 6.29148 189.499 6.30578C188.257 6.44853 187.636 6.77682 187.636 7.29071V19.3457C187.636 19.4742 187.646 19.6098 187.667 19.7525L187.7 20.1272C187.721 20.3771 187.6 20.5626 187.338 20.6839C187.082 20.8124 186.812 20.8767 186.528 20.8767C186.422 20.8767 186.312 20.8517 186.199 20.8017C186.093 20.7589 186.011 20.7054 185.954 20.6411L176.034 8.88591H175.853V18.5749C175.853 18.8247 175.952 19.0209 176.151 19.1637C176.356 19.3064 176.587 19.4064 176.842 19.4635C177.105 19.5135 177.417 19.5563 177.779 19.5919L178.003 19.6134C178.159 19.6277 178.262 19.6598 178.312 19.7097C178.361 19.7525 178.386 19.8524 178.386 20.0095C178.386 20.1166 178.351 20.2343 178.279 20.3628C178.216 20.4913 178.13 20.5555 178.024 20.5555H172.543ZM198.307 20.8767C197.037 20.8767 195.739 20.6126 194.412 20.0844C193.092 19.5563 191.974 18.7033 191.059 17.5257C190.15 16.3409 189.696 14.8314 189.696 12.997C189.696 11.1627 190.144 9.64962 191.038 8.45767C191.932 7.26577 193.046 6.39855 194.38 5.85612C195.714 5.31368 197.058 5.04248 198.414 5.04248C199.634 5.04248 200.709 5.14238 201.639 5.34223C202.576 5.53495 203.303 5.74904 203.821 5.98461L204.055 9.30347C204.062 9.41766 203.991 9.51756 203.842 9.60321C203.7 9.68886 203.573 9.73171 203.459 9.73171L203.31 9.74239C203.14 9.74239 202.973 9.71741 202.81 9.66748C202.654 9.61751 202.565 9.53899 202.544 9.43191C202.267 8.40414 201.806 7.58694 201.16 6.98023C200.514 6.37357 199.592 6.07026 198.393 6.07026C197.733 6.07026 197.052 6.25937 196.349 6.63764C195.646 7.00883 195.032 7.70826 194.507 8.73604C193.99 9.76382 193.73 11.1842 193.73 12.997C193.73 14.6172 193.986 15.9412 194.497 16.969C195.015 17.9967 195.639 18.7355 196.37 19.1851C197.101 19.6348 197.807 19.8596 198.489 19.8596C199.383 19.8596 199.993 19.7311 200.319 19.4742C200.653 19.2172 200.82 18.8854 200.82 18.4785V15.6735C200.82 15.388 200.72 15.1739 200.521 15.0312C200.323 14.8885 200.096 14.7956 199.84 14.7528C199.592 14.71 199.258 14.6707 198.84 14.6351C198.683 14.6208 198.581 14.5922 198.531 14.5494C198.481 14.4995 198.456 14.3959 198.456 14.2389C198.456 14.1319 198.488 14.0141 198.552 13.8856C198.623 13.7572 198.712 13.6929 198.818 13.6929H205.471C205.577 13.6929 205.663 13.7572 205.726 13.8856C205.798 14.0141 205.833 14.1319 205.833 14.2389C205.833 14.3603 205.808 14.453 205.759 14.5173C205.709 14.5815 205.616 14.6208 205.481 14.6351C205.113 14.6779 204.825 14.7493 204.62 14.8492C204.421 14.9491 204.322 15.1061 204.322 15.3203L204.332 19.2386C204.211 19.4171 203.871 19.6383 203.31 19.9024C202.75 20.1665 202.029 20.3949 201.149 20.5876C200.276 20.7803 199.329 20.8767 198.307 20.8767Z" fill="#3C3A3F"/>
<path d="M108.598 34.7161C108.562 34.7161 108.533 34.6946 108.509 34.6518C108.488 34.609 108.477 34.5697 108.477 34.5341C108.477 34.4936 108.486 34.4627 108.502 34.4413C108.519 34.4199 108.549 34.4068 108.594 34.402C108.736 34.3901 108.857 34.3675 108.956 34.3342C109.058 34.2985 109.109 34.245 109.109 34.1736L109.112 30.3123C109.112 30.2171 109.084 30.1458 109.027 30.0982C108.973 30.0506 108.91 30.0197 108.839 30.0054C108.768 29.9887 108.68 29.9757 108.573 29.9662C108.521 29.9614 108.487 29.9519 108.47 29.9376C108.453 29.9209 108.445 29.8865 108.445 29.8341C108.445 29.7984 108.456 29.7592 108.477 29.7164C108.501 29.6735 108.531 29.6521 108.566 29.6521H110.819C110.855 29.6521 110.883 29.6735 110.904 29.7164C110.928 29.7592 110.939 29.7984 110.939 29.8341C110.939 29.8745 110.931 29.9055 110.915 29.9269C110.898 29.9483 110.867 29.9614 110.822 29.9662C110.479 29.9923 110.308 30.0684 110.308 30.1946L110.305 34.0559C110.305 34.151 110.332 34.2224 110.386 34.27C110.443 34.3176 110.507 34.3497 110.578 34.3663C110.649 34.3806 110.737 34.3925 110.844 34.402C110.896 34.4068 110.93 34.4175 110.947 34.4341C110.963 34.4484 110.972 34.4817 110.972 34.5341C110.972 34.5697 110.96 34.609 110.936 34.6518C110.915 34.6946 110.886 34.7161 110.851 34.7161H108.598ZM111.35 34.7161C111.314 34.7161 111.285 34.6946 111.261 34.6518C111.24 34.609 111.229 34.5697 111.229 34.5341C111.229 34.4936 111.237 34.4627 111.254 34.4413C111.271 34.4199 111.301 34.4068 111.346 34.402C111.474 34.3949 111.579 34.383 111.662 34.3663C111.745 34.3497 111.816 34.3176 111.875 34.27C111.936 34.2224 111.967 34.1522 111.967 34.0594V30.3123C111.967 30.2171 111.934 30.1458 111.868 30.0982C111.804 30.0506 111.729 30.0197 111.644 30.0054C111.559 29.9887 111.453 29.9757 111.325 29.9662C111.273 29.9614 111.239 29.9519 111.222 29.9376C111.206 29.9209 111.197 29.8865 111.197 29.8341C111.197 29.7984 111.208 29.7603 111.229 29.7199C111.253 29.6771 111.282 29.6545 111.318 29.6521H113.589V29.6699L114.777 32.996L115.912 29.9662C115.927 29.9304 115.94 29.8781 115.951 29.8091C115.966 29.7401 115.973 29.6878 115.973 29.6521H118.02C118.056 29.6521 118.084 29.6735 118.105 29.7164C118.129 29.7592 118.14 29.7984 118.14 29.8341C118.14 29.8745 118.132 29.9055 118.116 29.9269C118.099 29.9483 118.069 29.9614 118.024 29.9662C117.68 29.9923 117.509 30.0684 117.509 30.1946V34.0559C117.509 34.151 117.536 34.2224 117.591 34.27C117.645 34.3152 117.704 34.3449 117.768 34.3592C117.832 34.3735 117.924 34.3877 118.045 34.402C118.097 34.4068 118.131 34.4175 118.148 34.4341C118.165 34.4484 118.173 34.4817 118.173 34.5341C118.173 34.5697 118.161 34.609 118.137 34.6518C118.116 34.6946 118.087 34.7161 118.052 34.7161H115.763C115.728 34.7161 115.699 34.6946 115.675 34.6518C115.654 34.609 115.643 34.5697 115.643 34.5341C115.643 34.4936 115.651 34.4627 115.668 34.4413C115.684 34.4199 115.715 34.4068 115.76 34.402C115.909 34.3901 116.038 34.3663 116.147 34.3306C116.255 34.2949 116.31 34.2426 116.31 34.1736V30.1446H116.21L114.507 34.7161H114.305L112.446 30.1446H112.311V34.0559C112.311 34.1486 112.347 34.22 112.418 34.27C112.489 34.3176 112.569 34.3497 112.659 34.3663C112.749 34.3806 112.86 34.3925 112.993 34.402C113.044 34.4068 113.079 34.4175 113.095 34.4341C113.112 34.4484 113.12 34.4817 113.12 34.5341C113.12 34.5697 113.109 34.609 113.085 34.6518C113.064 34.6946 113.035 34.7161 113 34.7161H111.35ZM118.586 34.7161C118.551 34.7161 118.522 34.6946 118.497 34.6518C118.477 34.609 118.466 34.5697 118.466 34.5341C118.466 34.4936 118.474 34.4627 118.491 34.4413C118.507 34.4199 118.538 34.4068 118.583 34.402C118.883 34.3782 119.033 34.3021 119.033 34.1736V30.3123C119.033 30.2171 119.008 30.1458 118.959 30.0982C118.909 30.0506 118.853 30.0209 118.789 30.009C118.727 29.9947 118.64 29.9804 118.526 29.9662C118.474 29.9614 118.44 29.9519 118.423 29.9376C118.407 29.9209 118.398 29.8865 118.398 29.8341C118.398 29.7984 118.409 29.7592 118.43 29.7164C118.454 29.6735 118.483 29.6521 118.519 29.6521H119.566C119.764 29.6521 120.034 29.645 120.374 29.6307C120.668 29.6212 120.869 29.6164 120.978 29.6164C122.286 29.6164 122.94 30.1149 122.94 31.1117C122.94 31.44 122.866 31.7255 122.72 31.9682C122.573 32.2085 122.345 32.3964 122.035 32.5321C121.727 32.6676 121.339 32.7355 120.871 32.7355H120.222V34.0559C120.222 34.1486 120.267 34.22 120.357 34.27C120.449 34.3176 120.547 34.3497 120.651 34.3663C120.758 34.3806 120.889 34.3925 121.045 34.402C121.097 34.4068 121.131 34.4175 121.148 34.4341C121.165 34.4484 121.173 34.4817 121.173 34.5341C121.173 34.5697 121.161 34.609 121.137 34.6518C121.116 34.6946 121.088 34.7161 121.052 34.7161H118.586ZM120.612 32.3929C120.908 32.3929 121.151 32.3012 121.343 32.1181C121.537 31.9349 121.634 31.6244 121.634 31.1866C121.634 30.8655 121.596 30.6168 121.521 30.4408C121.447 30.2624 121.337 30.1387 121.191 30.0696C121.044 29.9983 120.851 29.9626 120.612 29.9626H120.222V32.3929H120.612ZM125.748 34.8196C125.216 34.8196 124.75 34.7018 124.351 34.4662C123.951 34.2283 123.643 33.9072 123.428 33.5027C123.215 33.0982 123.109 32.651 123.109 32.1609C123.109 31.6708 123.215 31.2271 123.428 30.8298C123.641 30.4325 123.947 30.1196 124.347 29.8912C124.747 29.6604 125.214 29.5451 125.748 29.5451C126.283 29.5451 126.75 29.6604 127.15 29.8912C127.55 30.1196 127.856 30.4325 128.069 30.8298C128.284 31.2271 128.392 31.6708 128.392 32.1609C128.392 32.651 128.284 33.0982 128.069 33.5027C127.853 33.9072 127.546 34.2283 127.146 34.4662C126.747 34.7018 126.281 34.8196 125.748 34.8196ZM125.762 34.4841C126.198 34.4841 126.518 34.2843 126.724 33.8846C126.93 33.4825 127.033 32.9103 127.033 32.168C127.033 31.4305 126.926 30.8643 126.713 30.4693C126.503 30.0744 126.179 29.8769 125.741 29.8769C125.304 29.8769 124.981 30.0744 124.773 30.4693C124.567 30.8619 124.464 31.4281 124.464 32.168C124.464 32.9056 124.57 33.4766 124.783 33.881C124.999 34.2831 125.325 34.4841 125.762 34.4841ZM128.88 34.7161C128.844 34.7161 128.815 34.6946 128.791 34.6518C128.77 34.609 128.759 34.5697 128.759 34.5341C128.759 34.4936 128.768 34.4627 128.784 34.4413C128.801 34.4199 128.832 34.4068 128.877 34.402C129.198 34.3758 129.359 34.2997 129.359 34.1736L129.362 30.3123C129.362 30.2171 129.338 30.1458 129.288 30.0982C129.238 30.0506 129.181 30.0209 129.118 30.009C129.056 29.9947 128.969 29.9804 128.855 29.9662C128.803 29.9614 128.769 29.9519 128.752 29.9376C128.736 29.9209 128.727 29.8865 128.727 29.8341C128.727 29.7984 128.738 29.7592 128.759 29.7164C128.783 29.6735 128.813 29.6521 128.848 29.6521L129.235 29.6485C129.298 29.6461 129.396 29.645 129.526 29.645C129.653 29.645 129.89 29.6402 130.235 29.6307C130.637 29.6212 130.962 29.6164 131.207 29.6164C131.86 29.6164 132.359 29.727 132.705 29.9483C133.052 30.1696 133.226 30.5098 133.226 30.969C133.226 31.2687 133.167 31.5126 133.049 31.7005C132.931 31.8885 132.778 32.0324 132.591 32.1324C132.407 32.2323 132.185 32.3155 131.928 32.3821C132.141 32.4036 132.313 32.4618 132.446 32.557C132.581 32.6522 132.686 32.764 132.761 32.8925C132.837 33.021 132.921 33.1946 133.013 33.4135C133.075 33.5538 133.123 33.6645 133.159 33.7454C133.197 33.8239 133.24 33.9024 133.29 33.9809C133.366 34.126 133.443 34.2295 133.521 34.2914C133.601 34.3532 133.69 34.3889 133.787 34.3985C133.836 34.4032 133.869 34.4163 133.886 34.4377C133.905 34.4591 133.914 34.4972 133.914 34.5519C133.914 34.5852 133.903 34.6209 133.879 34.659C133.858 34.697 133.829 34.7161 133.794 34.7161H132.584C132.459 34.7161 132.352 34.6696 132.264 34.5769C132.177 34.4841 132.105 34.3699 132.048 34.2343C131.994 34.0987 131.93 33.9131 131.857 33.6776C131.776 33.4158 131.703 33.2065 131.637 33.0495C131.571 32.8925 131.481 32.7592 131.367 32.6498C131.256 32.5404 131.117 32.4856 130.952 32.4856H130.53V34.0559C130.53 34.151 130.559 34.2236 130.618 34.2735C130.678 34.3211 130.747 34.352 130.828 34.3663C130.908 34.3806 131.01 34.3925 131.133 34.402C131.185 34.4068 131.219 34.4175 131.236 34.4341C131.252 34.4484 131.261 34.4817 131.261 34.5341C131.261 34.5697 131.249 34.609 131.225 34.6518C131.204 34.6946 131.175 34.7161 131.14 34.7161H128.88ZM131.041 32.1787C131.355 32.1787 131.596 32.0954 131.764 31.9289C131.935 31.76 132.02 31.4769 132.02 31.0796C132.02 30.7108 131.938 30.4325 131.775 30.2445C131.614 30.0566 131.366 29.9626 131.03 29.9626H130.53V32.1787H131.041ZM134.988 34.7161C134.953 34.7161 134.923 34.6946 134.899 34.6518C134.878 34.609 134.868 34.5697 134.868 34.5341C134.868 34.4936 134.876 34.4627 134.892 34.4413C134.909 34.4199 134.94 34.4068 134.985 34.402C135.2 34.3901 135.375 34.3616 135.51 34.3164C135.647 34.2688 135.716 34.1855 135.716 34.0665V30.0054H134.829C134.706 30.0054 134.604 30.078 134.523 30.2231C134.445 30.3659 134.387 30.5252 134.349 30.7013C134.314 30.8774 134.292 31.0272 134.282 31.1509C134.277 31.1914 134.254 31.2212 134.211 31.2402C134.171 31.2592 134.127 31.2687 134.08 31.2687C134.044 31.2687 134.005 31.258 133.963 31.2366C133.92 31.2128 133.899 31.1831 133.899 31.1474C133.911 30.7905 133.925 30.4527 133.942 30.1339C133.96 29.8127 133.982 29.6521 134.005 29.6521H138.572C138.595 29.6521 138.615 29.8127 138.632 30.1339C138.651 30.4527 138.666 30.7905 138.678 31.1474C138.678 31.1831 138.657 31.2128 138.614 31.2366C138.572 31.258 138.533 31.2687 138.497 31.2687C138.45 31.2687 138.405 31.2592 138.362 31.2402C138.322 31.2212 138.3 31.1914 138.295 31.1509C138.267 30.894 138.212 30.6394 138.132 30.3872C138.051 30.1327 137.924 30.0054 137.748 30.0054H136.908V34.0559C136.908 34.151 136.944 34.2224 137.018 34.27C137.091 34.3176 137.175 34.3497 137.27 34.3663C137.364 34.3806 137.483 34.3925 137.624 34.402C137.677 34.4068 137.711 34.4175 137.727 34.4341C137.744 34.4484 137.752 34.4817 137.752 34.5341C137.752 34.5697 137.74 34.609 137.717 34.6518C137.695 34.6946 137.667 34.7161 137.632 34.7161H134.988ZM140.286 34.5341C140.286 34.4936 140.294 34.4627 140.311 34.4413C140.327 34.4199 140.358 34.4068 140.403 34.402C140.545 34.3901 140.667 34.3675 140.769 34.3342C140.87 34.2985 140.921 34.245 140.921 34.1736V30.3123C140.921 30.2195 140.894 30.1493 140.84 30.1017C140.785 30.0542 140.725 30.0233 140.659 30.009C140.595 29.9947 140.503 29.9804 140.382 29.9662C140.33 29.9614 140.296 29.9519 140.279 29.9376C140.263 29.9209 140.254 29.8865 140.254 29.8341C140.254 29.7984 140.265 29.7592 140.286 29.7164C140.31 29.6735 140.339 29.6521 140.375 29.6521H144.487L144.611 30.8119C144.614 30.8476 144.596 30.8774 144.558 30.9011C144.52 30.9225 144.483 30.9333 144.448 30.9333C144.32 30.9333 144.235 30.894 144.193 30.8155C144.162 30.756 144.112 30.6561 144.043 30.5157C143.977 30.3777 143.923 30.2766 143.88 30.2124C143.84 30.1458 143.789 30.0946 143.728 30.0589C143.669 30.0233 143.591 30.0054 143.494 30.0054H142.106V31.9396H143.054C143.11 31.9325 143.165 31.8909 143.217 31.8147C143.269 31.7386 143.313 31.653 143.348 31.5578C143.383 31.4602 143.405 31.3841 143.412 31.3294C143.422 31.2533 143.476 31.2152 143.575 31.2152C143.61 31.2152 143.652 31.2271 143.699 31.2509C143.747 31.2723 143.77 31.3008 143.77 31.3365V32.9174C143.77 32.9531 143.747 32.9829 143.699 33.0067C143.652 33.0281 143.61 33.0388 143.575 33.0388C143.53 33.0388 143.491 33.0305 143.458 33.0138C143.425 32.9948 143.406 32.9639 143.401 32.921C143.397 32.8615 143.377 32.7806 143.341 32.6784C143.305 32.5737 143.26 32.4821 143.206 32.4036C143.152 32.3227 143.094 32.2822 143.032 32.2822H142.106V34.013C142.106 34.2224 142.214 34.3366 142.429 34.3556H143.455C143.596 34.3556 143.719 34.3247 143.823 34.2628C143.93 34.201 144.029 34.101 144.121 33.9631C144.216 33.8251 144.32 33.6324 144.434 33.3849C144.45 33.3469 144.483 33.3183 144.533 33.2993C144.583 33.2779 144.63 33.2672 144.675 33.2672C144.725 33.2672 144.772 33.2779 144.817 33.2993C144.864 33.3207 144.89 33.3504 144.895 33.3885L144.753 34.7161H140.407C140.371 34.7161 140.342 34.6946 140.318 34.6518C140.297 34.609 140.286 34.5697 140.286 34.5341ZM145.022 34.7161C144.986 34.7161 144.956 34.6946 144.933 34.6518C144.911 34.609 144.901 34.5697 144.901 34.5341C144.901 34.4817 144.909 34.4484 144.926 34.4341C144.942 34.4175 144.977 34.4068 145.028 34.402C145.165 34.3877 145.285 34.364 145.387 34.3306C145.488 34.2973 145.583 34.2295 145.671 34.1272L147.164 32.3714L145.617 30.2409C145.549 30.1339 145.467 30.0649 145.373 30.034C145.278 30.0007 145.165 29.9804 145.036 29.9733L144.957 29.9662C144.905 29.9614 144.871 29.9519 144.854 29.9376C144.838 29.9209 144.83 29.8865 144.83 29.8341C144.83 29.7984 144.84 29.7592 144.862 29.7164C144.885 29.6735 144.915 29.6521 144.95 29.6521H147.416C147.452 29.6521 147.48 29.6735 147.501 29.7164C147.525 29.7592 147.537 29.7984 147.537 29.8341C147.537 29.8745 147.528 29.9055 147.512 29.9269C147.495 29.9483 147.465 29.9614 147.42 29.9662C147.273 29.9733 147.163 29.9816 147.09 29.9911C147.019 30.0007 146.969 30.0149 146.941 30.034C146.913 30.053 146.898 30.0792 146.898 30.1125C146.898 30.1244 146.904 30.1398 146.916 30.1588L147.959 31.6077L148.999 30.2302C149.015 30.2064 149.023 30.1826 149.023 30.1588C149.023 30.1065 148.982 30.0637 148.899 30.0304C148.816 29.9947 148.71 29.9733 148.58 29.9662C148.535 29.9614 148.504 29.9483 148.488 29.9269C148.471 29.9055 148.463 29.8745 148.463 29.8341C148.463 29.7984 148.474 29.7592 148.495 29.7164C148.518 29.6735 148.548 29.6521 148.583 29.6521H150.198C150.233 29.6521 150.262 29.6735 150.283 29.7164C150.307 29.7592 150.319 29.7984 150.319 29.8341C150.319 29.8865 150.31 29.9209 150.294 29.9376C150.277 29.9519 150.243 29.9614 150.191 29.9662C150.169 29.9685 150.114 29.9733 150.024 29.9804C149.936 29.9875 149.85 30.0125 149.765 30.0554C149.682 30.0958 149.61 30.1577 149.548 30.2409L148.172 31.9111L149.832 34.1272C149.901 34.2343 149.98 34.3045 150.07 34.3378C150.162 34.3687 150.271 34.3877 150.396 34.3949L150.474 34.402C150.527 34.4068 150.561 34.4175 150.578 34.4341C150.594 34.4484 150.603 34.4817 150.603 34.5341C150.603 34.5697 150.591 34.609 150.567 34.6518C150.546 34.6946 150.517 34.7161 150.482 34.7161H147.98C147.945 34.7161 147.915 34.6946 147.892 34.6518C147.87 34.609 147.86 34.5697 147.86 34.5341C147.86 34.4936 147.868 34.4627 147.884 34.4413C147.901 34.4199 147.932 34.4068 147.977 34.402C148.14 34.4068 148.272 34.3996 148.374 34.3806C148.479 34.3592 148.53 34.3294 148.53 34.2914C148.53 34.2676 148.523 34.2426 148.509 34.2164C148.497 34.1903 148.476 34.1546 148.445 34.1094L147.367 32.6462L146.228 34.1379C146.214 34.1593 146.206 34.1796 146.206 34.1986C146.206 34.2533 146.255 34.2997 146.352 34.3378C146.451 34.3735 146.573 34.3949 146.717 34.402C146.762 34.4068 146.793 34.4199 146.81 34.4413C146.826 34.4627 146.834 34.4936 146.834 34.5341C146.834 34.5697 146.823 34.609 146.799 34.6518C146.778 34.6946 146.749 34.7161 146.714 34.7161H145.022ZM150.835 34.7161C150.8 34.7161 150.77 34.6946 150.747 34.6518C150.725 34.609 150.715 34.5697 150.715 34.5341C150.715 34.4936 150.723 34.4627 150.739 34.4413C150.756 34.4199 150.786 34.4068 150.831 34.402C151.132 34.3782 151.282 34.3021 151.282 34.1736V30.3123C151.282 30.2171 151.257 30.1458 151.207 30.0982C151.158 30.0506 151.101 30.0209 151.037 30.009C150.976 29.9947 150.888 29.9804 150.775 29.9662C150.723 29.9614 150.688 29.9519 150.672 29.9376C150.655 29.9209 150.647 29.8865 150.647 29.8341C150.647 29.7984 150.658 29.7592 150.679 29.7164C150.702 29.6735 150.732 29.6521 150.768 29.6521H151.814C152.013 29.6521 152.283 29.645 152.624 29.6307C152.916 29.6212 153.118 29.6164 153.227 29.6164C154.535 29.6164 155.189 30.1149 155.189 31.1117C155.189 31.44 155.115 31.7255 154.969 31.9682C154.822 32.2085 154.594 32.3964 154.284 32.5321C153.976 32.6676 153.589 32.7355 153.12 32.7355H152.471V34.0559C152.471 34.1486 152.516 34.22 152.606 34.27C152.698 34.3176 152.796 34.3497 152.9 34.3663C153.006 34.3806 153.138 34.3925 153.294 34.402C153.346 34.4068 153.38 34.4175 153.397 34.4341C153.413 34.4484 153.421 34.4817 153.421 34.5341C153.421 34.5697 153.41 34.609 153.386 34.6518C153.365 34.6946 153.337 34.7161 153.301 34.7161H150.835ZM152.861 32.3929C153.157 32.3929 153.401 32.3012 153.592 32.1181C153.786 31.9349 153.883 31.6244 153.883 31.1866C153.883 30.8655 153.845 30.6168 153.769 30.4408C153.696 30.2624 153.586 30.1387 153.44 30.0696C153.293 29.9983 153.1 29.9626 152.861 29.9626H152.471V32.3929H152.861ZM157.997 34.8196C157.465 34.8196 156.999 34.7018 156.599 34.4662C156.199 34.2283 155.892 33.9072 155.677 33.5027C155.464 33.0982 155.357 32.651 155.357 32.1609C155.357 31.6708 155.464 31.2271 155.677 30.8298C155.89 30.4325 156.196 30.1196 156.596 29.8912C156.996 29.6604 157.462 29.5451 157.997 29.5451C158.532 29.5451 158.999 29.6604 159.399 29.8912C159.799 30.1196 160.105 30.4325 160.318 30.8298C160.533 31.2271 160.641 31.6708 160.641 32.1609C160.641 32.651 160.533 33.0982 160.318 33.5027C160.102 33.9072 159.795 34.2283 159.395 34.4662C158.995 34.7018 158.529 34.8196 157.997 34.8196ZM158.012 34.4841C158.447 34.4841 158.767 34.2843 158.973 33.8846C159.179 33.4825 159.282 32.9103 159.282 32.168C159.282 31.4305 159.175 30.8643 158.962 30.4693C158.752 30.0744 158.428 29.8769 157.99 29.8769C157.552 29.8769 157.229 30.0744 157.021 30.4693C156.816 30.8619 156.713 31.4281 156.713 32.168C156.713 32.9056 156.819 33.4766 157.032 33.881C157.247 34.2831 157.574 34.4841 158.012 34.4841ZM161.129 34.7161C161.093 34.7161 161.064 34.6946 161.04 34.6518C161.019 34.609 161.008 34.5697 161.008 34.5341C161.008 34.4936 161.016 34.4627 161.033 34.4413C161.049 34.4199 161.08 34.4068 161.125 34.402C161.447 34.3758 161.607 34.2997 161.607 34.1736L161.611 30.3123C161.611 30.2171 161.587 30.1458 161.537 30.0982C161.487 30.0506 161.43 30.0209 161.366 30.009C161.305 29.9947 161.217 29.9804 161.104 29.9662C161.052 29.9614 161.018 29.9519 161.001 29.9376C160.984 29.9209 160.976 29.8865 160.976 29.8341C160.976 29.7984 160.987 29.7592 161.008 29.7164C161.032 29.6735 161.061 29.6521 161.097 29.6521L161.484 29.6485C161.548 29.6461 161.644 29.645 161.775 29.645C161.902 29.645 162.139 29.6402 162.484 29.6307C162.886 29.6212 163.21 29.6164 163.456 29.6164C164.109 29.6164 164.608 29.727 164.954 29.9483C165.301 30.1696 165.475 30.5098 165.475 30.969C165.475 31.2687 165.416 31.5126 165.297 31.7005C165.179 31.8885 165.027 32.0324 164.84 32.1324C164.655 32.2323 164.434 32.3155 164.177 32.3821C164.389 32.4036 164.562 32.4618 164.694 32.557C164.829 32.6522 164.935 32.764 165.01 32.8925C165.086 33.021 165.17 33.1946 165.262 33.4135C165.324 33.5538 165.372 33.6645 165.408 33.7454C165.445 33.8239 165.489 33.9024 165.539 33.9809C165.614 34.126 165.692 34.2295 165.769 34.2914C165.85 34.3532 165.939 34.3889 166.035 34.3985C166.085 34.4032 166.119 34.4163 166.135 34.4377C166.154 34.4591 166.164 34.4972 166.164 34.5519C166.164 34.5852 166.152 34.6209 166.128 34.659C166.107 34.697 166.078 34.7161 166.043 34.7161H164.833C164.708 34.7161 164.601 34.6696 164.514 34.5769C164.426 34.4841 164.354 34.3699 164.297 34.2343C164.243 34.0987 164.179 33.9131 164.105 33.6776C164.025 33.4158 163.952 33.2065 163.885 33.0495C163.819 32.8925 163.729 32.7592 163.616 32.6498C163.505 32.5404 163.366 32.4856 163.201 32.4856H162.779V34.0559C162.779 34.151 162.808 34.2236 162.867 34.2735C162.926 34.3211 162.996 34.352 163.077 34.3663C163.157 34.3806 163.259 34.3925 163.382 34.402C163.434 34.4068 163.468 34.4175 163.484 34.4341C163.501 34.4484 163.509 34.4817 163.509 34.5341C163.509 34.5697 163.498 34.609 163.474 34.6518C163.453 34.6946 163.424 34.7161 163.389 34.7161H161.129ZM163.29 32.1787C163.604 32.1787 163.846 32.0954 164.013 31.9289C164.183 31.76 164.269 31.4769 164.269 31.0796C164.269 30.7108 164.187 30.4325 164.024 30.2445C163.863 30.0566 163.615 29.9626 163.279 29.9626H162.779V32.1787H163.29ZM167.237 34.7161C167.202 34.7161 167.172 34.6946 167.148 34.6518C167.127 34.609 167.116 34.5697 167.116 34.5341C167.116 34.4936 167.124 34.4627 167.141 34.4413C167.158 34.4199 167.189 34.4068 167.233 34.402C167.449 34.3901 167.624 34.3616 167.758 34.3164C167.896 34.2688 167.964 34.1855 167.964 34.0665V30.0054H167.077C166.954 30.0054 166.852 30.078 166.772 30.2231C166.694 30.3659 166.636 30.5252 166.599 30.7013C166.563 30.8774 166.54 31.0272 166.531 31.1509C166.526 31.1914 166.503 31.2212 166.46 31.2402C166.42 31.2592 166.376 31.2687 166.329 31.2687C166.293 31.2687 166.254 31.258 166.212 31.2366C166.169 31.2128 166.148 31.1831 166.148 31.1474C166.159 30.7905 166.174 30.4527 166.19 30.1339C166.209 29.8127 166.231 29.6521 166.254 29.6521H170.82C170.844 29.6521 170.864 29.8127 170.881 30.1339C170.9 30.4527 170.915 30.7905 170.927 31.1474C170.927 31.1831 170.906 31.2128 170.863 31.2366C170.82 31.258 170.781 31.2687 170.746 31.2687C170.699 31.2687 170.654 31.2592 170.611 31.2402C170.571 31.2212 170.548 31.1914 170.544 31.1509C170.516 30.894 170.461 30.6394 170.381 30.3872C170.3 30.1327 170.172 30.0054 169.997 30.0054H169.156V34.0559C169.156 34.151 169.193 34.2224 169.267 34.27C169.34 34.3176 169.424 34.3497 169.518 34.3663C169.613 34.3806 169.731 34.3925 169.873 34.402C169.925 34.4068 169.96 34.4175 169.976 34.4341C169.992 34.4484 170.001 34.4817 170.001 34.5341C170.001 34.5697 169.989 34.609 169.966 34.6518C169.944 34.6946 169.916 34.7161 169.88 34.7161H167.237ZM174.149 34.8231C173.785 34.8231 173.462 34.7696 173.181 34.6625C172.899 34.5531 172.679 34.3937 172.521 34.1843C172.362 33.9726 172.283 33.7204 172.283 33.4278C172.283 33.2041 172.34 32.9995 172.453 32.8139C172.567 32.626 172.72 32.4642 172.914 32.3286C173.111 32.193 173.332 32.0871 173.578 32.011C173.384 31.7945 173.233 31.5816 173.124 31.3722C173.018 31.1604 172.964 30.938 172.964 30.7049C172.964 30.4479 173.039 30.2302 173.188 30.0518C173.337 29.871 173.532 29.7366 173.773 29.6485C174.014 29.5581 174.275 29.5129 174.554 29.5129C175.027 29.5129 175.38 29.5986 175.615 29.7699C175.851 29.9412 175.969 30.1886 175.969 30.5122C175.969 30.6977 175.915 30.8702 175.806 31.0296C175.697 31.1866 175.565 31.3258 175.409 31.4472C175.253 31.5661 175.067 31.691 174.852 31.8219L176.197 33.2457C176.395 32.9008 176.499 32.6343 176.509 32.4464C176.52 32.2584 176.526 32.1609 176.526 32.1537C176.531 31.9563 176.35 31.8373 175.984 31.7969C175.939 31.7921 175.909 31.779 175.895 31.7576C175.883 31.7339 175.877 31.6981 175.877 31.6506C175.877 31.6149 175.888 31.5839 175.909 31.5578C175.93 31.5316 175.959 31.5185 175.994 31.5185H177.602C177.639 31.5185 177.669 31.5328 177.69 31.5614C177.712 31.5899 177.723 31.6244 177.726 31.6648C177.721 31.7529 177.681 31.7969 177.605 31.7969C177.501 31.7969 177.403 31.8314 177.311 31.9004C177.221 31.967 177.156 32.0598 177.115 32.1787C177.052 32.3738 176.995 32.5356 176.945 32.6641C176.898 32.7926 176.829 32.9329 176.739 33.0852C176.652 33.2351 176.544 33.3659 176.416 33.4777L176.885 33.9595C177.003 34.0785 177.134 34.1855 177.279 34.2807C177.425 34.3735 177.571 34.4258 177.715 34.4377C177.767 34.4424 177.802 34.4532 177.818 34.4698C177.835 34.4841 177.843 34.5174 177.843 34.5697C177.843 34.6078 177.832 34.6423 177.811 34.6732C177.79 34.7018 177.76 34.7161 177.722 34.7161H176.065L175.625 34.2557C175.429 34.4199 175.198 34.5554 174.934 34.6625C174.671 34.7696 174.409 34.8231 174.149 34.8231ZM174.586 31.5328C174.825 31.4091 174.985 31.2568 175.068 31.076C175.153 30.8928 175.196 30.7108 175.196 30.53C175.196 30.4396 175.173 30.3397 175.128 30.2302C175.086 30.1208 175.022 30.0268 174.937 29.9483C174.854 29.8698 174.754 29.8305 174.635 29.8305C174.437 29.8305 174.289 29.8781 174.192 29.9733C174.095 30.0684 174.047 30.2124 174.047 30.4051C174.047 30.5645 174.067 30.7049 174.107 30.8262C174.149 30.9452 174.205 31.0522 174.274 31.1474C174.342 31.2425 174.446 31.371 174.586 31.5328ZM174.511 34.2164C174.677 34.2164 174.84 34.1986 175.001 34.1629C175.164 34.1248 175.299 34.0701 175.405 33.9988L173.887 32.35C173.766 32.4476 173.673 32.5642 173.607 32.6997C173.54 32.8354 173.507 33.0019 173.507 33.1994C173.507 33.4111 173.548 33.5931 173.631 33.7454C173.716 33.8976 173.834 34.0142 173.983 34.0951C174.134 34.176 174.31 34.2164 174.511 34.2164ZM181.59 34.8231C181.363 34.8231 181.161 34.8005 180.983 34.7553C180.806 34.7101 180.671 34.6696 180.579 34.634C180.489 34.5983 180.435 34.5769 180.416 34.5697C180.378 34.5554 180.333 34.5353 180.281 34.5091C180.274 34.5067 180.258 34.4995 180.235 34.4877C180.211 34.4758 180.19 34.4698 180.171 34.4698C180.145 34.4698 180.123 34.477 180.104 34.4912C180.087 34.5055 180.067 34.5257 180.043 34.5519C179.996 34.6066 179.951 34.6447 179.908 34.6661C179.868 34.6875 179.826 34.6982 179.781 34.6982C179.719 34.6982 179.671 34.6828 179.635 34.6518C179.6 34.6185 179.583 34.5769 179.585 34.5269C179.59 34.4746 179.593 34.4211 179.593 34.3663V34.2236C179.593 34.0642 179.587 33.9036 179.575 33.7418C179.565 33.58 179.56 33.4861 179.557 33.4599C179.545 33.3124 179.54 33.2113 179.54 33.1565C179.54 32.99 179.608 32.9068 179.745 32.9068C179.859 32.9068 179.93 32.9567 179.958 33.0566C179.984 33.1565 180.015 33.2553 180.05 33.3528C180.086 33.4504 180.135 33.555 180.199 33.6669C180.344 33.9167 180.542 34.1177 180.795 34.27C181.049 34.4222 181.323 34.4983 181.619 34.4983C181.756 34.4983 181.883 34.4746 182.002 34.427C182.12 34.3794 182.214 34.308 182.286 34.2129C182.359 34.1153 182.396 33.9976 182.396 33.8596C182.396 33.6692 182.343 33.5039 182.239 33.3635C182.135 33.2208 182.009 33.1006 181.86 33.0031C181.713 32.9031 181.515 32.7878 181.264 32.6569L181.04 32.5392C180.738 32.3774 180.496 32.237 180.317 32.1181C180.139 31.9967 179.983 31.8397 179.848 31.647C179.716 31.4543 179.649 31.2247 179.649 30.9582C179.649 30.6799 179.725 30.4336 179.877 30.2195C180.03 30.0054 180.243 29.84 180.515 29.7235C180.789 29.6069 181.102 29.5486 181.452 29.5486C181.634 29.5486 181.787 29.5605 181.91 29.5843C182.035 29.6081 182.157 29.6402 182.275 29.6807C182.287 29.6854 182.32 29.6961 182.374 29.7128C182.431 29.727 182.481 29.7342 182.523 29.7342C182.559 29.7342 182.585 29.7294 182.601 29.7199C182.62 29.7104 182.639 29.6961 182.658 29.6771C182.68 29.6557 182.697 29.6402 182.711 29.6307C182.737 29.614 182.77 29.6057 182.811 29.6057C182.872 29.6057 182.929 29.62 182.981 29.6485C183.036 29.6747 183.063 29.7056 183.063 29.7413C183.065 29.8627 183.075 30.0125 183.091 30.191C183.108 30.3694 183.118 30.4848 183.123 30.5372C183.142 30.6942 183.151 30.7953 183.151 30.8405C183.151 30.9142 183.13 30.9678 183.087 31.0011C183.047 31.032 182.994 31.0475 182.928 31.0475C182.843 31.0475 182.784 31.0201 182.75 30.9654C182.84 31.1462 182.827 31.0891 182.711 30.7941C182.598 30.4991 182.449 30.2707 182.264 30.1089C182.082 29.9447 181.829 29.8627 181.505 29.8627C181.261 29.8627 181.055 29.9126 180.888 30.0125C180.722 30.1101 180.639 30.2659 180.639 30.4801C180.639 30.6609 180.699 30.825 180.82 30.9725C180.941 31.1176 181.088 31.2437 181.26 31.3508C181.435 31.4579 181.658 31.5792 181.927 31.7148C182.244 31.8718 182.507 32.0205 182.715 32.1609C182.926 32.2989 183.102 32.4666 183.244 32.6641C183.388 32.8615 183.46 33.0911 183.46 33.3528C183.46 33.6479 183.375 33.9072 183.205 34.1308C183.036 34.352 182.809 34.5233 182.523 34.6447C182.239 34.7637 181.928 34.8231 181.59 34.8231ZM188.851 34.402C188.904 34.4068 188.938 34.4175 188.954 34.4341C188.971 34.4484 188.979 34.4817 188.979 34.5341C188.979 34.5697 188.968 34.609 188.944 34.6518C188.923 34.6946 188.894 34.7161 188.859 34.7161H186.652C186.617 34.7161 186.587 34.6946 186.563 34.6518C186.542 34.609 186.531 34.5697 186.531 34.5341C186.531 34.4936 186.539 34.4627 186.556 34.4413C186.572 34.4199 186.603 34.4068 186.648 34.402L186.79 34.3949C186.906 34.3925 186.987 34.3865 187.032 34.377C187.077 34.3651 187.099 34.3402 187.099 34.3021C187.099 34.2854 187.095 34.2664 187.088 34.245L186.645 33.0138L184.945 33.0102L184.505 34.245C184.498 34.2616 184.495 34.2771 184.495 34.2914C184.495 34.3342 184.524 34.3616 184.583 34.3735C184.642 34.3853 184.737 34.3925 184.867 34.3949L185.016 34.402C185.061 34.4068 185.092 34.4199 185.108 34.4413C185.125 34.4627 185.133 34.4936 185.133 34.5341C185.133 34.5697 185.121 34.609 185.098 34.6518C185.077 34.6946 185.048 34.7161 185.012 34.7161H183.512C183.474 34.7161 183.444 34.6982 183.423 34.6625C183.402 34.6268 183.391 34.584 183.391 34.5341C183.391 34.4817 183.399 34.4484 183.416 34.4341C183.432 34.4175 183.467 34.4068 183.519 34.402C183.538 34.3996 183.569 34.3985 183.611 34.3985C183.685 34.3961 183.746 34.3901 183.796 34.3806C183.848 34.3687 183.898 34.3437 183.945 34.3057C183.992 34.2652 184.031 34.2057 184.062 34.1272L185.765 29.5736H186.595L188.281 34.1272C188.311 34.2081 188.351 34.2688 188.401 34.3092C188.451 34.3473 188.502 34.3711 188.553 34.3806C188.606 34.3901 188.671 34.3961 188.749 34.3985C188.796 34.3985 188.831 34.3996 188.851 34.402ZM185.871 30.4693L185.045 32.7069H186.538L185.871 30.4693ZM189.095 34.7161C189.059 34.7161 189.03 34.6946 189.006 34.6518C188.985 34.609 188.974 34.5697 188.974 34.5341C188.974 34.4936 188.983 34.4627 188.999 34.4413C189.016 34.4199 189.047 34.4068 189.092 34.402C189.222 34.3925 189.34 34.364 189.446 34.3164C189.553 34.2688 189.606 34.2093 189.606 34.1379V30.3123C189.606 30.2171 189.58 30.1458 189.528 30.0982C189.478 30.0482 189.417 30.0161 189.343 30.0018C189.272 29.9852 189.18 29.9733 189.067 29.9662C189.014 29.9614 188.98 29.9519 188.964 29.9376C188.947 29.9209 188.939 29.8865 188.939 29.8341C188.939 29.7984 188.949 29.7592 188.971 29.7164C188.994 29.6735 189.024 29.6521 189.059 29.6521H191.49C191.525 29.6521 191.554 29.6735 191.575 29.7164C191.599 29.7592 191.611 29.7984 191.611 29.8341C191.611 29.9221 191.572 29.9662 191.494 29.9662C191.273 29.9662 191.104 29.9911 190.986 30.0411C190.87 30.0911 190.812 30.1779 190.812 30.3016V34.0844C190.812 34.1915 190.84 34.264 190.894 34.3021C190.948 34.3378 191.026 34.3556 191.128 34.3556H192.1C192.204 34.3556 192.311 34.2938 192.42 34.1701C192.531 34.0464 192.634 33.8917 192.728 33.7061C192.823 33.5205 192.901 33.3338 192.962 33.1458C192.974 33.1078 193.011 33.0792 193.072 33.0602C193.136 33.0388 193.193 33.0281 193.243 33.0281C193.295 33.0281 193.342 33.0388 193.385 33.0602C193.43 33.0816 193.45 33.1113 193.445 33.1494L193.236 34.7161H189.095ZM193.589 34.5341C193.589 34.4936 193.597 34.4627 193.614 34.4413C193.63 34.4199 193.661 34.4068 193.706 34.402C193.848 34.3901 193.97 34.3675 194.071 34.3342C194.173 34.2985 194.224 34.245 194.224 34.1736V30.3123C194.224 30.2195 194.197 30.1493 194.143 30.1017C194.088 30.0542 194.028 30.0233 193.961 30.009C193.897 29.9947 193.805 29.9804 193.685 29.9662C193.633 29.9614 193.599 29.9519 193.582 29.9376C193.565 29.9209 193.557 29.8865 193.557 29.8341C193.557 29.7984 193.568 29.7592 193.589 29.7164C193.613 29.6735 193.642 29.6521 193.678 29.6521H197.79L197.914 30.8119C197.916 30.8476 197.898 30.8774 197.861 30.9011C197.823 30.9225 197.786 30.9333 197.751 30.9333C197.623 30.9333 197.538 30.894 197.495 30.8155C197.465 30.756 197.415 30.6561 197.346 30.5157C197.28 30.3777 197.226 30.2766 197.183 30.2124C197.143 30.1458 197.092 30.0946 197.031 30.0589C196.972 30.0233 196.893 30.0054 196.796 30.0054H195.409V31.9396H196.357C196.413 31.9325 196.467 31.8909 196.52 31.8147C196.571 31.7386 196.616 31.653 196.651 31.5578C196.686 31.4602 196.708 31.3841 196.715 31.3294C196.724 31.2533 196.779 31.2152 196.878 31.2152C196.913 31.2152 196.955 31.2271 197.002 31.2509C197.05 31.2723 197.073 31.3008 197.073 31.3365V32.9174C197.073 32.9531 197.05 32.9829 197.002 33.0067C196.955 33.0281 196.913 33.0388 196.878 33.0388C196.833 33.0388 196.794 33.0305 196.761 33.0138C196.728 32.9948 196.709 32.9639 196.704 32.921C196.7 32.8615 196.679 32.7806 196.644 32.6784C196.608 32.5737 196.563 32.4821 196.509 32.4036C196.455 32.3227 196.397 32.2822 196.335 32.2822H195.409V34.013C195.409 34.2224 195.517 34.3366 195.732 34.3556H196.757C196.899 34.3556 197.022 34.3247 197.126 34.2628C197.233 34.201 197.332 34.101 197.424 33.9631C197.519 33.8251 197.623 33.6324 197.737 33.3849C197.753 33.3469 197.786 33.3183 197.836 33.2993C197.886 33.2779 197.933 33.2672 197.978 33.2672C198.027 33.2672 198.075 33.2779 198.12 33.2993C198.167 33.3207 198.193 33.3504 198.198 33.3885L198.056 34.7161H193.709C193.674 34.7161 193.644 34.6946 193.621 34.6518C193.6 34.609 193.589 34.5697 193.589 34.5341ZM200.595 34.8231C200.368 34.8231 200.166 34.8005 199.988 34.7553C199.811 34.7101 199.676 34.6696 199.584 34.634C199.494 34.5983 199.439 34.5769 199.42 34.5697C199.383 34.5554 199.338 34.5353 199.285 34.5091C199.279 34.5067 199.263 34.4995 199.24 34.4877C199.216 34.4758 199.195 34.4698 199.176 34.4698C199.15 34.4698 199.127 34.477 199.108 34.4912C199.092 34.5055 199.072 34.5257 199.048 34.5519C199.001 34.6066 198.956 34.6447 198.913 34.6661C198.873 34.6875 198.83 34.6982 198.785 34.6982C198.724 34.6982 198.676 34.6828 198.64 34.6518C198.604 34.6185 198.588 34.5769 198.59 34.5269C198.595 34.4746 198.597 34.4211 198.597 34.3663V34.2236C198.597 34.0642 198.592 33.9036 198.58 33.7418C198.57 33.58 198.564 33.4861 198.562 33.4599C198.55 33.3124 198.544 33.2113 198.544 33.1565C198.544 32.99 198.613 32.9068 198.75 32.9068C198.864 32.9068 198.934 32.9567 198.963 33.0566C198.989 33.1565 199.02 33.2553 199.055 33.3528C199.091 33.4504 199.14 33.555 199.204 33.6669C199.349 33.9167 199.547 34.1177 199.8 34.27C200.053 34.4222 200.328 34.4983 200.623 34.4983C200.761 34.4983 200.888 34.4746 201.007 34.427C201.125 34.3794 201.219 34.308 201.291 34.2129C201.364 34.1153 201.4 33.9976 201.4 33.8596C201.4 33.6692 201.348 33.5039 201.244 33.3635C201.14 33.2208 201.013 33.1006 200.865 33.0031C200.718 32.9031 200.519 32.7878 200.269 32.6569L200.045 32.5392C199.742 32.3774 199.501 32.237 199.321 32.1181C199.144 31.9967 198.988 31.8397 198.853 31.647C198.721 31.4543 198.654 31.2247 198.654 30.9582C198.654 30.6799 198.73 30.4336 198.881 30.2195C199.035 30.0054 199.248 29.84 199.52 29.7235C199.794 29.6069 200.107 29.5486 200.457 29.5486C200.639 29.5486 200.791 29.5605 200.914 29.5843C201.039 29.6081 201.162 29.6402 201.28 29.6807C201.291 29.6854 201.325 29.6961 201.379 29.7128C201.436 29.727 201.485 29.7342 201.528 29.7342C201.563 29.7342 201.589 29.7294 201.606 29.7199C201.625 29.7104 201.644 29.6961 201.663 29.6771C201.684 29.6557 201.702 29.6402 201.716 29.6307C201.742 29.614 201.775 29.6057 201.816 29.6057C201.877 29.6057 201.934 29.62 201.986 29.6485C202.04 29.6747 202.068 29.7056 202.068 29.7413C202.07 29.8627 202.079 30.0125 202.096 30.191C202.112 30.3694 202.123 30.4848 202.128 30.5372C202.147 30.6942 202.156 30.7953 202.156 30.8405C202.156 30.9142 202.135 30.9678 202.092 31.0011C202.052 31.032 201.999 31.0475 201.933 31.0475C201.847 31.0475 201.788 31.0201 201.755 30.9654C201.845 31.1462 201.832 31.0891 201.716 30.7941C201.603 30.4991 201.454 30.2707 201.269 30.1089C201.087 29.9447 200.834 29.8627 200.51 29.8627C200.266 29.8627 200.06 29.9126 199.892 30.0125C199.727 30.1101 199.644 30.2659 199.644 30.4801C199.644 30.6609 199.704 30.825 199.825 30.9725C199.946 31.1176 200.092 31.2437 200.265 31.3508C200.44 31.4579 200.662 31.5792 200.932 31.7148C201.249 31.8718 201.512 32.0205 201.72 32.1609C201.93 32.2989 202.106 32.4666 202.248 32.6641C202.393 32.8615 202.465 33.0911 202.465 33.3528C202.465 33.6479 202.38 33.9072 202.209 34.1308C202.041 34.352 201.814 34.5233 201.528 34.6447C201.244 34.7637 200.933 34.8231 200.595 34.8231Z" fill="black"/>
</svg>
