<svg width="146" height="142" viewBox="0 0 146 142" fill="none" xmlns="http://www.w3.org/2000/svg">
<path d="M63.9749 141.285C41.8077 131.457 32.5213 125.203 18.2786 113.501H40.2128C48.6196 119.45 54.2427 122.265 64.8889 126.13C74.9247 122.132 79.8908 119.336 87.7371 113.501H108.758C92.6181 126.515 82.9047 132.743 63.9749 141.285Z" fill="#808080"/>
<path d="M20.1064 78.1403H8.22534V19.2051C36.9806 18.9939 49.1701 14.9212 63.9749 0.682678C77.4321 15.2061 92.6935 18.5726 120.638 19.2051V78.1403H107.843V30.1502C86.6054 30.0444 76.9482 27.1657 63.9749 16.6793C50.5456 27.183 41.6846 31.185 20.1064 30.1502V78.1403Z" fill="#808080"/>
<path d="M64.8889 78.1403H61.2332C61.2332 78.1403 61.8612 70.4095 61.2332 65.5113C60.8063 62.1814 60.6168 60.2539 59.4054 57.092C58.3429 54.3188 57.4143 52.8659 55.7496 50.3565C53.8885 47.551 52.8478 45.8914 50.266 43.6211C48.0452 41.6682 46.7495 40.3892 43.8686 39.4115C41.8314 38.72 38.385 38.5695 38.385 38.5695L47.6219 58.2018C47.6219 58.2018 47.75 58.152 47.5242 58.7758C47.205 59.6581 45.6964 60.4597 45.6964 60.4597C45.6964 60.4597 43.5892 61.787 42.0407 62.1436C40.3095 62.5423 39.2258 62.4429 37.4711 62.1436C35.5812 61.8212 34.4147 61.5513 32.9014 60.4597C31.4963 59.4462 31.1711 58.2018 31.1711 58.2018C37.3076 61.3826 40.7492 62.2801 47.6219 58.2018L38.385 38.5695C38.385 38.5695 45.3075 38.0726 49.3521 39.4115C52.0601 40.3078 55.7496 42.7792 55.7496 42.7792C58.4618 44.7682 59.8687 46.053 62.1472 48.6727C64.4255 51.2924 65.6599 53.008 66.7167 56.2501C67.3412 58.1655 67.4273 59.3105 67.6307 61.3017C67.8982 63.9204 67.9046 65.4188 67.6307 68.0371C67.2071 72.0855 64.8889 78.1403 64.8889 78.1403Z" fill="#808080"/>
<path d="M69.4583 59.6178L66.7167 51.1985C66.7167 51.1985 68.9669 46.7116 71.2864 44.4631C72.8609 42.9369 73.9343 42.2344 75.8563 41.0953C77.8694 39.9021 79.0511 39.2182 81.3398 38.5695C85.4333 37.4092 92.307 38.5695 92.307 38.5695L101.569 56.7946C101.569 56.7946 101.672 58.152 101.446 58.7759C101.127 59.6581 99.6179 60.4597 99.6179 60.4597C99.6179 60.4597 97.5109 61.787 95.9625 62.1436C94.231 62.5423 93.1473 62.4429 91.3926 62.1436C89.5028 61.8212 88.3362 61.5513 86.8234 60.4597C85.4182 59.4462 85.118 56.7946 85.118 56.7946C91.6291 61.9562 95.0008 62.747 101.569 56.7946L92.307 38.5695L87.7371 39.4115C85.5519 39.9318 84.1892 40.0254 82.2535 41.0953C79.4322 42.655 76.77 46.9888 76.77 46.9888L69.4583 59.6178Z" fill="#808080"/>
<path d="M71.2864 31.8341V36.8856C70.3912 40.6641 68.5208 41.522 64.8889 42.7792C60.6467 40.9245 59.0643 39.5907 59.4053 36.0438V31.8341L55.7496 30.1502L66.7167 27.6245L75.8562 30.1502L71.2864 31.8341Z" fill="#808080"/>
<path d="M38.385 38.5695C38.385 38.5695 41.8314 38.72 43.8685 39.4115C46.7495 40.3892 48.0452 41.6682 50.266 43.6211C52.8477 45.8914 53.8885 47.551 55.7496 50.3565C57.4142 52.8659 58.3428 54.3188 59.4053 57.092C60.6167 60.2539 60.8062 62.1814 61.2331 65.5113C61.8611 70.4095 61.2331 78.1403 61.2331 78.1403H64.8889C64.8889 78.1403 67.2071 72.0855 67.6307 68.0371C67.9046 65.4188 67.8982 63.9204 67.6307 61.3017C67.4272 59.3104 67.3412 58.1655 66.7167 56.2501C65.6598 53.008 64.4255 51.2924 62.1471 48.6727C59.8687 46.053 58.4617 44.7682 55.7496 42.7792C55.7496 42.7792 52.0601 40.3078 49.3521 39.4115C45.3075 38.0726 38.385 38.5695 38.385 38.5695ZM38.385 38.5695L47.6218 58.2018L38.385 38.5695ZM92.307 38.5695L87.7371 39.4115C85.5519 39.9318 84.1892 40.0254 82.2535 41.0953C79.4322 42.6549 76.7699 46.9888 76.7699 46.9888L69.4583 59.6178C68.3878 56.3298 67.7874 54.4864 66.7167 51.1985C66.7167 51.1985 68.9668 46.7116 71.2864 44.4631C72.8608 42.9369 73.9343 42.2343 75.8562 41.0953C77.8694 39.9021 79.0511 39.2182 81.3398 38.5695C85.4333 37.4092 92.307 38.5695 92.307 38.5695ZM92.307 38.5695L101.569 56.7946L92.307 38.5695ZM38.385 39.4115L31.1711 58.2018L38.385 39.4115ZM31.1711 58.2018C37.3076 61.3826 40.7492 62.2801 47.6218 58.2018H31.1711ZM31.1711 58.2018C31.1711 58.2018 31.4963 59.4462 32.9014 60.4597C34.4147 61.5513 35.5811 61.8212 37.4711 62.1436C39.2257 62.4429 40.3094 62.5423 42.0407 62.1436C43.5891 61.787 45.6964 60.4597 45.6964 60.4597C45.6964 60.4597 47.205 59.6581 47.5242 58.7758C47.7499 58.152 47.6218 58.2018 47.6218 58.2018H31.1711ZM59.4053 36.8856H71.2864H59.4053ZM71.2864 36.8856V31.8341L75.8562 30.1502L66.7167 27.6244L55.7496 30.1502L59.4053 31.8341V36.0438C59.0643 39.5907 60.6467 40.9245 64.8889 42.7792C68.5208 41.522 70.3912 40.6641 71.2864 36.8856ZM85.118 56.7946C91.629 61.9562 95.0008 62.747 101.569 56.7946H85.118ZM85.118 56.7946C85.118 56.7946 85.4182 59.4462 86.8234 60.4597C88.3362 61.5513 89.5028 61.8212 91.3926 62.1436C93.1473 62.4429 94.231 62.5423 95.9624 62.1436C97.5109 61.787 99.6179 60.4597 99.6179 60.4597C99.6179 60.4597 101.127 59.6581 101.446 58.7758C101.672 58.152 101.569 56.7946 101.569 56.7946H85.118ZM85.118 56.7946L92.307 39.4115L85.118 56.7946ZM18.2786 113.501C32.5213 125.203 41.8077 131.456 63.9749 141.285C82.9047 132.743 92.6181 126.515 108.758 113.501H87.7371C79.8908 119.336 74.9247 122.132 64.8889 126.13C54.2428 122.265 48.6196 119.45 40.2128 113.501H18.2786ZM8.22534 78.1403H20.1064V30.1502C41.6846 31.185 50.5456 27.183 63.9749 16.6793C76.9482 27.1657 86.6054 30.0444 107.843 30.1502V78.1403H120.638V19.2051C92.6935 18.5726 77.4321 15.2061 63.9749 0.682678C49.1701 14.9212 36.9806 18.9939 8.22534 19.2051V78.1403Z" stroke="#808080" stroke-width="0.5"/>
<path d="M56.6638 36.0438V31.8341V30.9922L57.5777 31.8341V36.8857H56.6638V36.0438Z" fill="#808080"/>
<path d="M5.07657 86.7333L7.51042 81.4855H10.1451L6.30556 88.9098V93.1336H3.85562V88.9098L0.0160522 81.4855H2.65877L5.07657 86.7333ZM18.25 88.0858H13.6232V91.2057H19.0533V93.1336H11.2135V81.4855H19.0372V83.4298H13.6232V86.2056H18.25V88.0858ZM26.5315 90.0779C26.5315 89.6246 26.3709 89.2777 26.0496 89.0374C25.7283 88.7924 25.15 88.5363 24.3146 88.2694C23.4792 87.9977 22.8179 87.7308 22.3305 87.47C21.0025 86.7552 20.3385 85.7919 20.3385 84.5815C20.3385 83.9521 20.5152 83.3923 20.8686 82.9014C21.2274 82.4058 21.7388 82.0187 22.4028 81.7415C23.0722 81.4643 23.8219 81.3257 24.6519 81.3257C25.4873 81.3257 26.2317 81.4773 26.885 81.7811C27.5383 82.0801 28.0444 82.5041 28.4032 83.0536C28.7673 83.6025 28.9494 84.2272 28.9494 84.9256H26.5396C26.5396 84.3924 26.3709 83.9787 26.0336 83.6858C25.6962 83.3868 25.2223 83.2373 24.6117 83.2373C24.0227 83.2373 23.5649 83.3629 23.2382 83.6134C22.9116 83.8585 22.7482 84.1842 22.7482 84.5897C22.7482 84.9679 22.9383 85.2854 23.3185 85.5414C23.7041 85.7974 24.269 86.0377 25.0134 86.2616C26.3843 86.6726 27.383 87.1819 28.0096 87.7895C28.6361 88.3978 28.9494 89.1549 28.9494 90.0615C28.9494 91.0698 28.5665 91.8617 27.8007 92.4379C27.0349 93.0086 26.0041 93.294 24.7082 93.294C23.8085 93.294 22.9892 93.1309 22.2502 92.8059C21.5112 92.4755 20.9463 92.0242 20.5553 91.4535C20.1698 90.8834 19.977 90.2219 19.977 89.4696H22.3948C22.3948 90.7551 23.1659 91.3975 24.7082 91.3975C25.2812 91.3975 25.7283 91.2828 26.0496 91.0541C26.3709 90.8193 26.5315 90.4936 26.5315 90.0779Z" fill="#808080"/>
<path d="M40.1066 93.1336H37.6968V88.1417H32.9978V93.1336H30.588V81.4855H32.9978V86.2056H37.6968V81.4855H40.1066V93.1336ZM44.7815 93.1336H42.3718V81.4855H44.7815V93.1336ZM56.1316 89.7741L57.706 81.4855H60.1077L57.5132 93.1336H55.0874L53.1836 85.3413L51.2799 93.1336H48.8541L46.2596 81.4855H48.6613L50.2437 89.7577L52.1715 81.4855H54.2118L56.1316 89.7741ZM67.6664 90.7339H63.4412L62.638 93.1336H60.0756L64.4292 81.4855H66.6623L71.0403 93.1336H68.4776L67.6664 90.7339ZM64.0919 88.7896H67.0157L65.5458 84.4293L64.0919 88.7896ZM78.197 90.0779C78.197 89.6246 78.0366 89.2777 77.7152 89.0374C77.3937 88.7924 76.8152 88.5363 75.9803 88.2694C75.1447 87.9977 74.4833 87.7308 73.9959 87.47C72.6682 86.7552 72.004 85.7919 72.004 84.5815C72.004 83.9521 72.1809 83.3923 72.5339 82.9014C72.8931 82.4058 73.4044 82.0187 74.0686 81.7415C74.7376 81.4643 75.4875 81.3257 76.3175 81.3257C77.1531 81.3257 77.8975 81.4773 78.5507 81.7811C79.204 82.0801 79.7098 82.5041 80.0683 83.0536C80.433 83.6025 80.6146 84.2272 80.6146 84.9256H78.2053C78.2053 84.3924 78.0366 83.9787 77.6987 83.6858C77.3615 83.3868 76.8878 83.2373 76.2771 83.2373C75.6883 83.2373 75.2304 83.3629 74.9035 83.6134C74.5772 83.8585 74.4134 84.1842 74.4134 84.5897C74.4134 84.9679 74.6039 85.2854 74.9843 85.5414C75.3696 85.7974 75.9344 86.0377 76.6788 86.2616C78.0497 86.6726 79.0484 87.1819 79.6749 87.7895C80.3014 88.3978 80.6146 89.1549 80.6146 90.0615C80.6146 91.0698 80.2321 91.8617 79.4665 92.4379C78.7002 93.0086 77.6692 93.294 76.3737 93.294C75.4738 93.294 74.6547 93.1309 73.9157 92.8059C73.1768 92.4755 72.612 92.0242 72.2206 91.4535C71.8354 90.8834 71.6428 90.2219 71.6428 89.4696H74.0604C74.0604 90.7551 74.8315 91.3975 76.3737 91.3975C76.9468 91.3975 77.3937 91.2828 77.7152 91.0541C78.0366 90.8193 78.197 90.4936 78.197 90.0779ZM93.3865 88.0858H88.7598V91.2057H94.1899V93.1336H86.3504V81.4855H94.1741V83.4298H88.7598V86.2056H93.3865V88.0858ZM99.6357 86.7333L102.07 81.4855H104.705L100.865 88.9098V93.1336H98.415V88.9098L94.5758 81.4855H97.2182L99.6357 86.7333ZM111.171 90.7339H106.945L106.143 93.1336H103.58L107.934 81.4855H110.167L114.544 93.1336H111.982L111.171 90.7339ZM107.597 88.7896H110.52L109.05 84.4293L107.597 88.7896ZM121.702 90.0779C121.702 89.6246 121.541 89.2777 121.22 89.0374C120.898 88.7924 120.32 88.5363 119.484 88.2694C118.649 87.9977 117.988 87.7308 117.501 87.47C116.172 86.7552 115.509 85.7919 115.509 84.5815C115.509 83.9521 115.685 83.3923 116.038 82.9014C116.397 82.4058 116.909 82.0187 117.572 81.7415C118.242 81.4643 118.992 81.3257 119.822 81.3257C120.657 81.3257 121.401 81.4773 122.055 81.7811C122.709 82.0801 123.214 82.5041 123.573 83.0536C123.937 83.6025 124.119 84.2272 124.119 84.9256H121.709C121.709 84.3924 121.541 83.9787 121.203 83.6858C120.866 83.3868 120.392 83.2373 119.782 83.2373C119.193 83.2373 118.735 83.3629 118.408 83.6134C118.082 83.8585 117.918 84.1842 117.918 84.5897C117.918 84.9679 118.109 85.2854 118.488 85.5414C118.874 85.7974 119.439 86.0377 120.183 86.2616C121.554 86.6726 122.553 87.1819 123.179 87.7895C123.806 88.3978 124.119 89.1549 124.119 90.0615C124.119 91.0698 123.737 91.8617 122.97 92.4379C122.205 93.0086 121.174 93.294 119.878 93.294C118.978 93.294 118.159 93.1309 117.42 92.8059C116.681 92.4755 116.116 92.0242 115.725 91.4535C115.34 90.8834 115.147 90.2219 115.147 89.4696H117.565C117.565 90.7551 118.336 91.3975 119.878 91.3975C120.451 91.3975 120.898 91.2828 121.22 91.0541C121.541 90.8193 121.702 90.4936 121.702 90.0779ZM134.61 81.4855V89.1576C134.61 90.4322 134.208 91.4405 133.405 92.1819C132.607 92.9233 131.514 93.294 130.128 93.294C128.762 93.294 127.678 92.9336 126.875 92.214C126.071 91.4938 125.661 90.5045 125.646 89.2457V81.4855H128.055V89.174C128.055 89.9365 128.237 90.4936 128.601 90.8459C128.971 91.1927 129.479 91.3661 130.128 91.3661C131.482 91.3661 132.17 90.6561 132.192 89.2375V81.4855H134.61Z" fill="#808080"/>
<path d="M36.2827 103.285C36.2827 103.016 36.3577 102.766 36.5076 102.536C36.6603 102.307 36.9387 102.052 37.343 101.772C37.169 101.54 37.0324 101.323 36.9333 101.12C36.8343 100.915 36.7847 100.702 36.7847 100.481C36.7847 100.027 36.928 99.6587 37.2145 99.3761C37.5036 99.0907 37.8919 98.9481 38.3792 98.9481C38.8156 98.9481 39.1731 99.0778 39.4515 99.3365C39.7327 99.5953 39.8733 99.9175 39.8733 100.305C39.8733 100.768 39.6376 101.178 39.1664 101.533L38.7166 101.856L39.7247 103.024C39.8826 102.715 39.9616 102.374 39.9616 102H40.9496C40.9496 102.758 40.7742 103.371 40.4235 103.84L41.299 104.853H39.9817L39.6805 104.509C39.2494 104.791 38.7541 104.933 38.1944 104.933C37.6161 104.933 37.1529 104.782 36.8048 104.481C36.4567 104.177 36.2827 103.778 36.2827 103.285ZM38.2507 104.005C38.5291 104.005 38.7929 103.927 39.0419 103.773L37.8892 102.445L37.8049 102.504C37.5666 102.707 37.4474 102.946 37.4474 103.22C37.4474 103.452 37.521 103.642 37.6683 103.788C37.8183 103.932 38.0124 104.005 38.2507 104.005ZM37.825 100.464C37.825 100.664 37.9428 100.916 38.1784 101.221L38.4877 101.017C38.6457 100.915 38.7541 100.817 38.813 100.72C38.8745 100.625 38.9054 100.51 38.9054 100.376C38.9054 100.243 38.8558 100.127 38.7568 100.029C38.6576 99.9298 38.5305 99.8806 38.3752 99.8806C38.2092 99.8806 38.0753 99.9339 37.9736 100.04C37.8745 100.147 37.825 100.288 37.825 100.464ZM47.2673 103.652H45.1546L44.753 104.853H43.4719L45.6487 99.0286H46.7652L48.9541 104.853H47.6729L47.2673 103.652ZM45.48 102.68H46.942L46.2069 100.501L45.48 102.68ZM52.5326 103.325C52.5326 103.098 52.4523 102.925 52.2917 102.805C52.131 102.682 51.8418 102.554 51.4241 102.42C51.0064 102.284 50.6757 102.151 50.4321 102.02C49.768 101.663 49.436 101.182 49.436 100.576C49.436 100.262 49.5244 99.9817 49.7011 99.7366C49.8805 99.4881 50.1362 99.2949 50.4682 99.1563C50.8029 99.0177 51.1778 98.9481 51.5928 98.9481C52.0105 98.9481 52.3827 99.0245 52.7093 99.1761C53.036 99.3256 53.289 99.5379 53.4684 99.8123C53.6505 100.087 53.7415 100.399 53.7415 100.748H52.5366C52.5366 100.482 52.4523 100.275 52.2836 100.128C52.1149 99.9789 51.8779 99.9045 51.5727 99.9045C51.2782 99.9045 51.0493 99.9673 50.8859 100.092C50.7226 100.215 50.641 100.378 50.641 100.58C50.641 100.769 50.736 100.929 50.9261 101.056C51.1189 101.185 51.4013 101.305 51.7735 101.417C52.459 101.621 52.9583 101.877 53.2716 102.181C53.5849 102.484 53.7415 102.863 53.7415 103.317C53.7415 103.82 53.5501 104.216 53.1672 104.504C52.7843 104.79 52.2689 104.933 51.6209 104.933C51.1711 104.933 50.7614 104.851 50.3919 104.689C50.0224 104.523 49.7399 104.298 49.5445 104.012C49.3517 103.727 49.2553 103.396 49.2553 103.02H50.4642C50.4642 103.663 50.8497 103.984 51.6209 103.984C51.9074 103.984 52.131 103.927 52.2917 103.812C52.4523 103.696 52.5326 103.532 52.5326 103.325ZM57.5931 103.325C57.5931 103.098 57.5128 102.925 57.3522 102.805C57.1915 102.682 56.9023 102.554 56.4846 102.42C56.067 102.284 55.7362 102.151 55.4926 102.02C54.8286 101.663 54.4966 101.182 54.4966 100.576C54.4966 100.262 54.5849 99.9817 54.7617 99.7366C54.941 99.4881 55.1967 99.2949 55.5287 99.1563C55.8634 99.0177 56.2383 98.9481 56.6533 98.9481C57.071 98.9481 57.4432 99.0245 57.7698 99.1761C58.0965 99.3256 58.3495 99.5379 58.5289 99.8123C58.711 100.087 58.802 100.399 58.802 100.748H57.5971C57.5971 100.482 57.5128 100.275 57.3441 100.128C57.1755 99.9789 56.9385 99.9045 56.6332 99.9045C56.3387 99.9045 56.1098 99.9673 55.9464 100.092C55.7831 100.215 55.7015 100.378 55.7015 100.58C55.7015 100.769 55.7965 100.929 55.9866 101.056C56.1794 101.185 56.4618 101.305 56.834 101.417C57.5195 101.621 58.0188 101.877 58.3321 102.181C58.6454 102.484 58.802 102.863 58.802 103.317C58.802 103.82 58.6106 104.216 58.2277 104.504C57.8448 104.79 57.3294 104.933 56.6815 104.933C56.2316 104.933 55.8219 104.851 55.4525 104.689C55.0829 104.523 54.8005 104.298 54.605 104.012C54.4122 103.727 54.3158 103.396 54.3158 103.02H55.5248C55.5248 103.663 55.9103 103.984 56.6815 103.984C56.9679 103.984 57.1915 103.927 57.3522 103.812C57.5128 103.696 57.5931 103.532 57.5931 103.325ZM64.4248 102.073C64.4248 102.646 64.3231 103.149 64.1196 103.581C63.9161 104.012 63.6243 104.346 63.2441 104.58C62.8665 104.815 62.4328 104.933 61.9427 104.933C61.4581 104.933 61.0257 104.816 60.6455 104.584C60.2653 104.352 59.9708 104.022 59.7619 103.592C59.5531 103.16 59.4473 102.665 59.4446 102.105V101.817C59.4446 101.243 59.5477 100.739 59.7539 100.305C59.9628 99.867 60.2559 99.5324 60.6335 99.3003C61.0137 99.0655 61.4474 98.9481 61.9347 98.9481C62.4221 98.9481 62.8544 99.0655 63.232 99.3003C63.6122 99.5324 63.9054 99.867 64.1116 100.305C64.3204 100.739 64.4248 101.242 64.4248 101.813V102.073ZM63.2039 101.809C63.2039 101.198 63.0941 100.734 62.8745 100.417C62.655 100.099 62.3417 99.9407 61.9347 99.9407C61.5304 99.9407 61.2185 100.098 60.9989 100.412C60.7794 100.724 60.6683 101.183 60.6656 101.789V102.073C60.6656 102.667 60.7754 103.129 60.9949 103.457C61.2144 103.784 61.5304 103.949 61.9427 103.949C62.3471 103.949 62.6577 103.791 62.8745 103.476C63.0914 103.159 63.2012 102.698 63.2039 102.093V101.809ZM69.8908 102.912C69.8456 103.539 69.6125 104.033 69.1924 104.393C68.7742 104.752 68.2229 104.933 67.5374 104.933C66.7877 104.933 66.1974 104.682 65.7663 104.181C65.3379 103.676 65.1237 102.986 65.1237 102.108V101.753C65.1237 101.193 65.2227 100.699 65.4209 100.272C65.619 99.8458 65.9015 99.5188 66.2683 99.2921C66.6378 99.0627 67.0662 98.9481 67.5535 98.9481C68.2283 98.9481 68.7715 99.1283 69.1841 99.4881C69.5968 99.8485 69.8346 100.354 69.899 101.004H68.694C68.6646 100.628 68.559 100.356 68.3769 100.189C68.1974 100.018 67.923 99.9325 67.5535 99.9325C67.1518 99.9325 66.8507 100.077 66.6498 100.365C66.4517 100.65 66.3499 101.094 66.3446 101.697V102.136C66.3446 102.766 66.4397 103.226 66.6297 103.517C66.8226 103.807 67.1251 103.953 67.5374 103.953C67.9096 103.953 68.1867 103.869 68.3688 103.7C68.5535 103.53 68.6591 103.267 68.6858 102.912H69.8908ZM71.9636 104.853H70.7586V99.0286H71.9636V104.853ZM76.4574 103.652H74.3448L73.9432 104.853H72.6621L74.8391 99.0286H75.9556L78.1443 104.853H76.8632L76.4574 103.652ZM74.6704 102.68H76.1325L75.397 100.501L74.6704 102.68ZM82.6106 100H80.8196V104.853H79.6146V100H77.8475V99.0286H82.6106V100ZM86.8193 102.329H84.5059V103.889H87.221V104.853H83.3016V99.0286H87.2134V100H84.5059V101.389H86.8193V102.329ZM90.9608 103.325C90.9608 103.098 90.8799 102.925 90.7195 102.805C90.5591 102.682 90.2698 102.554 89.8517 102.42C89.4343 102.284 89.1039 102.151 88.8599 102.02C88.1957 101.663 87.8639 101.182 87.8639 100.576C87.8639 100.262 87.9523 99.9817 88.1292 99.7366C88.3081 99.4881 88.5637 99.2949 88.8962 99.1563C89.2307 99.0177 89.6056 98.9481 90.0203 98.9481C90.4384 98.9481 90.8106 99.0245 91.1369 99.1761C91.4639 99.3256 91.7168 99.5379 91.8964 99.8123C92.078 100.087 92.1692 100.399 92.1692 100.748H90.9642C90.9642 100.482 90.8799 100.275 90.7113 100.128C90.5426 99.9789 90.3055 99.9045 90.0004 99.9045C89.7057 99.9045 89.4768 99.9673 89.3136 100.092C89.1505 100.215 89.0689 100.378 89.0689 100.58C89.0689 100.769 89.1635 100.929 89.3541 101.056C89.5467 101.185 89.8291 101.305 90.2013 101.417C90.8867 101.621 91.3864 101.877 91.6997 102.181C92.0129 102.484 92.1692 102.863 92.1692 103.317C92.1692 103.82 91.978 104.216 91.5948 104.504C91.2123 104.79 90.6968 104.933 90.0484 104.933C89.5988 104.933 89.1896 104.851 88.8194 104.689C88.45 104.523 88.1676 104.298 87.9722 104.012C87.7796 103.727 87.6829 103.396 87.6829 103.02H88.8921C88.8921 103.663 89.2773 103.984 90.0484 103.984C90.3349 103.984 90.5591 103.927 90.7195 103.812C90.8799 103.696 90.9608 103.532 90.9608 103.325Z" fill="#808080"/>
</svg>
