<svg width="71" height="75" viewBox="0 0 71 75" fill="none" xmlns="http://www.w3.org/2000/svg">
<path d="M33.4775 74.6225C21.8773 69.4313 17.0177 66.1284 9.56445 59.9478H21.0427C25.442 63.0898 28.3846 64.5765 33.9558 66.6181C39.2075 64.5065 41.8063 63.0296 45.9123 59.9478H56.9124C48.4665 66.8214 43.3835 70.111 33.4775 74.6225Z" fill="#10284E"/>
<path d="M10.5221 41.2713H4.30469V10.1436C19.3524 10.032 25.7312 7.88093 33.4786 0.360596C40.5207 8.0314 48.5071 9.80948 63.1308 10.1436V41.2713H56.435V15.9244C45.3212 15.8685 40.2675 14.3481 33.4786 8.80953C26.451 14.3573 21.814 16.471 10.5221 15.9244V41.2713Z" fill="#10284E"/>
<path d="M33.9571 41.2712H32.0441C32.0441 41.2712 32.3727 37.188 32.0441 34.6009C31.8207 32.8422 31.7215 31.8242 31.0876 30.1541C30.5316 28.6894 30.0456 27.922 29.1745 26.5967C28.2006 25.1149 27.656 24.2383 26.3049 23.0392C25.1428 22.0077 24.4647 21.3322 22.9571 20.8158C21.8911 20.4506 20.0876 20.3711 20.0876 20.3711L24.9212 30.7403C24.9212 30.7403 24.9883 30.714 24.8702 31.0435C24.7031 31.5095 23.9137 31.9328 23.9137 31.9328C23.9137 31.9328 22.8109 32.6339 22.0006 32.8222C21.0946 33.0328 20.5275 32.9803 19.6093 32.8222C18.6203 32.6519 18.0099 32.5094 17.218 31.9328C16.4827 31.3975 16.3125 30.7403 16.3125 30.7403C19.5238 32.4203 21.3248 32.8943 24.9212 30.7403L20.0876 20.3711C20.0876 20.3711 23.7101 20.1087 25.8267 20.8158C27.2438 21.2893 29.1745 22.5946 29.1745 22.5946C30.5938 23.6451 31.33 24.3237 32.5224 25.7073C33.7146 27.091 34.3606 27.9971 34.9136 29.7095C35.2404 30.7211 35.2855 31.3259 35.3919 32.3775C35.5319 33.7607 35.5353 34.5521 35.3919 35.935C35.1702 38.0732 33.9571 41.2712 33.9571 41.2712Z" fill="#10284E"/>
<path d="M36.3468 31.4883L34.9121 27.0415C34.9121 27.0415 36.0896 24.6716 37.3034 23.484C38.1274 22.678 38.6891 22.3069 39.6949 21.7053C40.7483 21.0751 41.3667 20.7139 42.5644 20.3712C44.7065 19.7584 48.3035 20.3712 48.3035 20.3712L53.1502 29.9972C53.1502 29.9972 53.204 30.7141 53.086 31.0436C52.9189 31.5096 52.1294 31.933 52.1294 31.933C52.1294 31.933 51.0268 32.634 50.2165 32.8223C49.3104 33.0329 48.7433 32.9804 47.825 32.8223C46.8361 32.6521 46.2256 32.5095 45.434 31.933C44.6987 31.3977 44.5415 29.9972 44.5415 29.9972C47.9488 32.7234 49.7132 33.141 53.1502 29.9972L48.3035 20.3712L45.9121 20.8159C44.7686 21.0907 44.0555 21.1402 43.0426 21.7053C41.5662 22.529 40.173 24.8181 40.173 24.8181L36.3468 31.4883Z" fill="#10284E"/>
<path d="M37.3043 16.8137V19.4818C36.8358 21.4775 35.857 21.9306 33.9565 22.5946C31.7365 21.615 30.9084 20.9106 31.0869 19.0371V16.8137L29.1738 15.9244L34.913 14.5903L39.6957 15.9244L37.3043 16.8137Z" fill="#10284E"/>
<path d="M20.0873 20.3712C20.0873 20.3712 21.8908 20.4508 22.9569 20.8159C24.4645 21.3324 25.1425 22.0079 26.3047 23.0393C27.6557 24.2384 28.2003 25.115 29.1742 26.5968C30.0454 27.9222 30.5313 28.6895 31.0873 30.1542C31.7212 31.8243 31.8204 32.8423 32.0438 34.6011C32.3724 37.1881 32.0438 41.2713 32.0438 41.2713H33.9569C33.9569 41.2713 35.17 38.0733 35.3917 35.9351C35.535 34.5522 35.5317 33.7608 35.3917 32.3777C35.2852 31.326 35.2401 30.7212 34.9134 29.7096C34.3603 27.9972 33.7144 27.0911 32.5221 25.7074C31.3298 24.3238 30.5935 23.6452 29.1742 22.5947C29.1742 22.5947 27.2435 21.2894 25.8264 20.8159C23.7099 20.1088 20.0873 20.3712 20.0873 20.3712ZM20.0873 20.3712L24.921 30.7404L20.0873 20.3712ZM48.3048 20.3712L45.9134 20.8159C44.7699 21.0907 44.0568 21.1402 43.0438 21.7053C41.5674 22.529 40.1743 24.8181 40.1743 24.8181L36.348 31.4883C35.7878 29.7517 35.4737 28.7781 34.9134 27.0415C34.9134 27.0415 36.0909 24.6716 37.3047 23.484C38.1286 22.678 38.6903 22.3069 39.6961 21.7053C40.7496 21.0751 41.368 20.7139 42.5657 20.3712C44.7078 19.7584 48.3048 20.3712 48.3048 20.3712ZM48.3048 20.3712L53.1515 29.9972L48.3048 20.3712ZM20.0873 20.8159L16.3122 30.7404L20.0873 20.8159ZM16.3122 30.7404C19.5235 32.4204 21.3245 32.8944 24.921 30.7404H16.3122ZM16.3122 30.7404C16.3122 30.7404 16.4824 31.3977 17.2177 31.933C18.0097 32.5095 18.6201 32.6521 19.609 32.8223C20.5273 32.9804 21.0944 33.0329 22.0003 32.8223C22.8107 32.634 23.9134 31.933 23.9134 31.933C23.9134 31.933 24.7028 31.5096 24.8699 31.0436C24.988 30.7141 24.921 30.7404 24.921 30.7404H16.3122ZM31.0873 19.4819H37.3047H31.0873ZM37.3047 19.4819V16.8138L39.6961 15.9244L34.9134 14.5904L29.1742 15.9244L31.0873 16.8138V19.0372C30.9088 20.9106 31.7369 21.6151 33.9569 22.5947C35.8575 21.9307 36.8362 21.4775 37.3047 19.4819ZM44.5428 29.9972C47.9501 32.7233 49.7145 33.141 53.1515 29.9972H44.5428ZM44.5428 29.9972C44.5428 29.9972 44.6999 31.3977 45.4352 31.933C46.2269 32.5095 46.8374 32.6521 47.8263 32.8223C48.7446 32.9804 49.3117 33.0329 50.2177 32.8223C51.028 32.634 52.1306 31.933 52.1306 31.933C52.1306 31.933 52.9201 31.5096 53.0873 31.0436C53.2053 30.7141 53.1515 29.9972 53.1515 29.9972H44.5428ZM44.5428 29.9972L48.3048 20.8159L44.5428 29.9972ZM9.56557 59.9477C17.0188 66.1284 21.8784 69.4313 33.4786 74.6225C43.3846 70.111 48.4677 66.8214 56.9135 59.9477H45.9134C41.8074 63.0296 39.2086 64.5065 33.9569 66.618C28.3857 64.5765 25.4431 63.0898 21.0438 59.9477H9.56557ZM4.30469 41.2713H10.5221V15.9244C21.814 16.471 26.451 14.3573 33.4786 8.80953C40.2675 14.3481 45.3212 15.8685 56.435 15.9244V41.2713H63.1308V10.1436C48.5071 9.80948 40.5207 8.0314 33.4786 0.360596C25.7312 7.88093 19.3524 10.032 4.30469 10.1436V41.2713Z" stroke="#10284E" stroke-width="0.5"/>
<path d="M29.6523 19.0372V16.8138V16.3691L30.1306 16.8138V19.4819H29.6523V19.0372Z" fill="#10284E"/>
<path d="M2.656 45.8097L3.92963 43.038H5.30839L3.29913 46.9593V49.1902H2.01707V46.9593L0.0078125 43.038H1.39075L2.656 45.8097ZM9.54968 46.524H7.12848V48.1719H9.97003V49.1902H5.86745V43.038H9.9616V44.0649H7.12848V45.531H9.54968V46.524ZM13.8834 47.5762C13.8834 47.3368 13.7994 47.1536 13.6312 47.0267C13.4631 46.8972 13.1605 46.762 12.7233 46.621C12.2861 46.4775 11.9401 46.3365 11.685 46.1988C10.9901 45.8213 10.6426 45.3125 10.6426 44.6732C10.6426 44.3408 10.7351 44.0451 10.92 43.7858C11.1078 43.524 11.3754 43.3196 11.7229 43.1732C12.0732 43.0268 12.4655 42.9536 12.8998 42.9536C13.337 42.9536 13.7265 43.0337 14.0684 43.1941C14.4103 43.3521 14.6751 43.576 14.8629 43.8662C15.0534 44.1561 15.1487 44.4861 15.1487 44.8549H13.8877C13.8877 44.5733 13.7994 44.3548 13.6228 44.2001C13.4463 44.0422 13.1983 43.9632 12.8788 43.9632C12.5706 43.9632 12.331 44.0296 12.16 44.1619C11.9891 44.2914 11.9036 44.4633 11.9036 44.6775C11.9036 44.8773 12.0031 45.045 12.2021 45.1802C12.4038 45.3154 12.6995 45.4423 13.089 45.5606C13.8064 45.7777 14.329 46.0466 14.6569 46.3676C14.9847 46.6888 15.1487 47.0887 15.1487 47.5676C15.1487 48.1001 14.9483 48.5184 14.5476 48.8227C14.1469 49.1242 13.6074 49.2749 12.9293 49.2749C12.4585 49.2749 12.0297 49.1887 11.643 49.0171C11.2563 48.8426 10.9606 48.6042 10.7561 48.3028C10.5543 48.0017 10.4534 47.6523 10.4534 47.2549H11.7187C11.7187 47.9339 12.1222 48.2732 12.9293 48.2732C13.2291 48.2732 13.4631 48.2126 13.6312 48.0918C13.7994 47.9678 13.8834 47.7958 13.8834 47.5762Z" fill="#D6DFFF"/>
<path d="M20.987 49.1902H19.7259V46.5536H17.2669V49.1902H16.0059V43.038H17.2669V45.531H19.7259V43.038H20.987V49.1902ZM23.4334 49.1902H22.1723V43.038H23.4334V49.1902ZM29.3729 47.4158L30.1968 43.038H31.4536L30.0959 49.1902H28.8264L27.8302 45.0745L26.834 49.1902H25.5645L24.2068 43.038H25.4637L26.2917 47.4071L27.3006 43.038H28.3682L29.3729 47.4158ZM35.4091 47.9227H33.198L32.7777 49.1902H31.4368L33.7151 43.038H34.8836L37.1746 49.1902H35.8336L35.4091 47.9227ZM33.5385 46.8958H35.0686L34.2993 44.5928L33.5385 46.8958ZM40.9198 47.5762C40.9198 47.3368 40.8359 47.1536 40.6676 47.0267C40.4994 46.8972 40.1967 46.762 39.7598 46.621C39.3225 46.4775 38.9764 46.3365 38.7213 46.1988C38.0265 45.8213 37.679 45.3125 37.679 44.6732C37.679 44.3408 37.7715 44.0451 37.9562 43.7858C38.1442 43.524 38.4118 43.3196 38.7594 43.1732C39.1094 43.0268 39.5019 42.9536 39.9362 42.9536C40.3735 42.9536 40.763 43.0337 41.1049 43.1941C41.4467 43.3521 41.7114 43.576 41.899 43.8662C42.0898 44.1561 42.1849 44.4861 42.1849 44.8549H40.9241C40.9241 44.5733 40.8359 44.3548 40.659 44.2001C40.4825 44.0422 40.2347 43.9632 39.9151 43.9632C39.607 43.9632 39.3674 44.0296 39.1963 44.1619C39.0255 44.2914 38.9398 44.4633 38.9398 44.6775C38.9398 44.8773 39.0395 45.045 39.2386 45.1802C39.4402 45.3154 39.7357 45.4423 40.1253 45.5606C40.8427 45.7777 41.3653 46.0466 41.6931 46.3676C42.021 46.6888 42.1849 47.0887 42.1849 47.5676C42.1849 48.1001 41.9848 48.5184 41.5841 48.8227C41.1831 49.1242 40.6436 49.2749 39.9657 49.2749C39.4947 49.2749 39.066 49.1887 38.6794 49.0171C38.2927 48.8426 37.9971 48.6042 37.7923 48.3028C37.5907 48.0017 37.4899 47.6523 37.4899 47.2549H38.7551C38.7551 47.9339 39.1586 48.2732 39.9657 48.2732C40.2655 48.2732 40.4994 48.2126 40.6676 48.0918C40.8359 47.9678 40.9198 47.7958 40.9198 47.5762ZM48.8685 46.524H46.4473V48.1719H49.2889V49.1902H45.1865V43.038H49.2806V44.0649H46.4473V45.531H48.8685V46.524ZM52.1387 45.8097L53.4124 43.038H54.7913L52.7818 46.9593V49.1902H51.4999V46.9593L49.4908 43.038H50.8736L52.1387 45.8097ZM58.1752 47.9227H55.9638L55.5438 49.1902H54.2026L56.4811 43.038H57.6497L59.9403 49.1902H58.5995L58.1752 47.9227ZM56.3046 46.8958H57.8344L57.0654 44.5928L56.3046 46.8958ZM63.6858 47.5762C63.6858 47.3368 63.6016 47.1536 63.4337 47.0267C63.2655 46.8972 62.9627 46.762 62.5255 46.621C62.0886 46.4775 61.7424 46.3365 61.4874 46.1988C60.7922 45.8213 60.445 45.3125 60.445 44.6732C60.445 44.3408 60.5372 44.0451 60.7223 43.7858C60.9099 43.524 61.1778 43.3196 61.5251 43.1732C61.8755 43.0268 62.2679 42.9536 62.7023 42.9536C63.1392 42.9536 63.5287 43.0337 63.8706 43.1941C64.2128 43.3521 64.4775 43.576 64.6651 43.8662C64.8556 44.1561 64.951 44.4861 64.951 44.8549H63.6898C63.6898 44.5733 63.6016 44.3548 63.4251 44.2001C63.2486 44.0422 63.0007 43.9632 62.6811 43.9632C62.373 43.9632 62.1334 44.0296 61.9623 44.1619C61.7916 44.2914 61.7058 44.4633 61.7058 44.6775C61.7058 44.8773 61.8056 45.045 62.0043 45.1802C62.2062 45.3154 62.5018 45.4423 62.8913 45.5606C63.6087 45.7777 64.1313 46.0466 64.4592 46.3676C64.787 46.6888 64.951 47.0887 64.951 47.5676C64.951 48.1001 64.7508 48.5184 64.3498 48.8227C63.9491 49.1242 63.4096 49.2749 62.7317 49.2749C62.2607 49.2749 61.8321 49.1887 61.4454 49.0171C61.0588 48.8426 60.7628 48.6042 60.5584 48.3028C60.3568 48.0017 60.2556 47.6523 60.2556 47.2549H61.5211C61.5211 47.9339 61.9246 48.2732 62.7317 48.2732C63.0316 48.2732 63.2655 48.2126 63.4337 48.0918C63.6016 47.9678 63.6858 47.7958 63.6858 47.5762ZM70.4408 43.038V47.0902C70.4408 47.7633 70.2306 48.2959 69.8102 48.6875C69.3927 49.0791 68.8209 49.2749 68.0953 49.2749C67.3808 49.2749 66.8133 49.0845 66.3929 48.7045C65.9725 48.324 65.758 47.8016 65.7498 47.1367V43.038H67.0106V47.0988C67.0106 47.5016 67.106 47.7958 67.2965 47.9819C67.4898 48.165 67.756 48.2566 68.0953 48.2566C68.8041 48.2566 69.1642 47.8816 69.1753 47.1323V43.038H70.4408Z" fill="#10284E"/>
<path d="M18.9863 54.5516C18.9863 54.4095 19.0256 54.2776 19.104 54.1564C19.1839 54.0353 19.3296 53.9008 19.5412 53.7529C19.4501 53.6303 19.3786 53.5157 19.3268 53.4086C19.275 53.3001 19.249 53.1876 19.249 53.0707C19.249 52.8313 19.324 52.6366 19.4739 52.4873C19.6252 52.3366 19.8284 52.2612 20.0834 52.2612C20.3118 52.2612 20.4989 52.3297 20.6446 52.4664C20.7917 52.6031 20.8653 52.7733 20.8653 52.9777C20.8653 53.2225 20.742 53.4389 20.4954 53.6264L20.26 53.7973L20.7875 54.4142C20.8702 54.2509 20.9115 54.0706 20.9115 53.8734H21.4285C21.4285 54.2736 21.3368 54.5974 21.1532 54.8451L21.6114 55.3799H20.922L20.7644 55.1981C20.5388 55.3474 20.2796 55.4221 19.9867 55.4221C19.6841 55.4221 19.4417 55.3424 19.2595 55.1834C19.0774 55.0229 18.9863 54.8123 18.9863 54.5516ZM20.0162 54.932C20.1619 54.932 20.2999 54.8909 20.4302 54.8094L19.827 54.1081L19.7829 54.1395C19.6582 54.2466 19.5958 54.3728 19.5958 54.5177C19.5958 54.6403 19.6343 54.7402 19.7114 54.8177C19.7899 54.8938 19.8915 54.932 20.0162 54.932ZM19.7934 53.0621C19.7934 53.1677 19.8551 53.3008 19.9783 53.4616L20.1402 53.3538C20.2229 53.3001 20.2796 53.2481 20.3104 53.1973C20.3426 53.1468 20.3588 53.0862 20.3588 53.0156C20.3588 52.9452 20.3328 52.8839 20.281 52.832C20.2291 52.7797 20.1626 52.7538 20.0813 52.7538C19.9944 52.7538 19.9244 52.7819 19.8712 52.8382C19.8193 52.8944 19.7934 52.969 19.7934 53.0621ZM24.7346 54.746H23.629L23.4189 55.3799H22.7484L23.8875 52.3038H24.4719L25.6173 55.3799H24.9468L24.7346 54.746ZM23.7993 54.2325H24.5643L24.1797 53.0812L23.7993 54.2325ZM27.4899 54.5729C27.4899 54.4532 27.4479 54.3616 27.3638 54.2981C27.2798 54.2332 27.1284 54.1658 26.9098 54.0951C26.6913 54.0234 26.5182 53.9531 26.3907 53.8838C26.0432 53.6952 25.8695 53.441 25.8695 53.1212C25.8695 52.955 25.9157 52.8071 26.0082 52.6777C26.1021 52.5464 26.2359 52.4444 26.4096 52.3712C26.5848 52.298 26.781 52.2612 26.9981 52.2612C27.2167 52.2612 27.4115 52.3016 27.5824 52.3817C27.7534 52.4606 27.8857 52.5728 27.9797 52.7177C28.0749 52.8627 28.1226 53.0275 28.1226 53.2121H27.492C27.492 53.0714 27.4479 52.9622 27.3596 52.8847C27.2713 52.8057 27.1473 52.7664 26.9876 52.7664C26.8335 52.7664 26.7137 52.7996 26.6282 52.8656C26.5428 52.9305 26.5 53.0163 26.5 53.1234C26.5 53.2232 26.5497 53.3073 26.6493 53.3747C26.7501 53.4425 26.8979 53.5059 27.0927 53.5651C27.4514 53.6733 27.7127 53.8081 27.8766 53.9686C28.0406 54.129 28.1226 54.3291 28.1226 54.5686C28.1226 54.8347 28.0224 55.0438 27.822 55.196C27.6216 55.3467 27.3519 55.4221 27.0128 55.4221C26.7774 55.4221 26.5631 55.3791 26.3697 55.2933C26.1763 55.2057 26.0285 55.0867 25.9262 54.936C25.8254 54.7853 25.7749 54.6108 25.7749 54.4121H26.4075C26.4075 54.7517 26.6093 54.9212 27.0128 54.9212C27.1628 54.9212 27.2798 54.8909 27.3638 54.8303C27.4479 54.7687 27.4899 54.6825 27.4899 54.5729ZM30.1381 54.5729C30.1381 54.4532 30.0961 54.3616 30.012 54.2981C29.9279 54.2332 29.7766 54.1658 29.558 54.0951C29.3395 54.0234 29.1664 53.9531 29.0389 53.8838C28.6914 53.6952 28.5177 53.441 28.5177 53.1212C28.5177 52.955 28.5639 52.8071 28.6564 52.6777C28.7503 52.5464 28.8841 52.4444 29.0578 52.3712C29.233 52.298 29.4291 52.2612 29.6463 52.2612C29.8649 52.2612 30.0597 52.3016 30.2306 52.3817C30.4015 52.4606 30.5339 52.5728 30.6278 52.7177C30.7231 52.8627 30.7707 53.0275 30.7707 53.2121H30.1402C30.1402 53.0714 30.0961 52.9622 30.0078 52.8847C29.9196 52.8057 29.7955 52.7664 29.6358 52.7664C29.4817 52.7664 29.3619 52.7996 29.2764 52.8656C29.1909 52.9305 29.1482 53.0163 29.1482 53.1234C29.1482 53.2232 29.1979 53.3073 29.2974 53.3747C29.3983 53.4425 29.5461 53.5059 29.7409 53.5651C30.0996 53.6733 30.3609 53.8081 30.5248 53.9686C30.6888 54.129 30.7707 54.3291 30.7707 54.5686C30.7707 54.8347 30.6706 55.0438 30.4702 55.196C30.2698 55.3467 30.0001 55.4221 29.661 55.4221C29.4256 55.4221 29.2112 55.3791 29.0179 55.2933C28.8245 55.2057 28.6767 55.0867 28.5744 54.936C28.4735 54.7853 28.4231 54.6108 28.4231 54.4121H29.0557C29.0557 54.7517 29.2575 54.9212 29.661 54.9212C29.8109 54.9212 29.9279 54.8909 30.012 54.8303C30.0961 54.7687 30.1381 54.6825 30.1381 54.5729ZM33.7132 53.9116C33.7132 54.2141 33.6599 54.4799 33.5534 54.7081C33.4469 54.936 33.2942 55.1123 33.0953 55.236C32.8977 55.36 32.6707 55.4221 32.4143 55.4221C32.1607 55.4221 31.9344 55.3608 31.7354 55.2382C31.5365 55.1156 31.3823 54.941 31.2731 54.7142C31.1638 54.486 31.1084 54.2242 31.107 53.9285V53.7764C31.107 53.4735 31.161 53.2074 31.2689 52.9777C31.3782 52.7466 31.5316 52.5699 31.7291 52.4473C31.9281 52.3232 32.1551 52.2612 32.4101 52.2612C32.6651 52.2612 32.8914 52.3232 33.0889 52.4473C33.2879 52.5699 33.4413 52.7466 33.5492 52.9777C33.6585 53.2074 33.7132 53.4728 33.7132 53.7742V53.9116ZM33.0742 53.7721C33.0742 53.4493 33.0168 53.2045 32.9019 53.0368C32.787 52.8692 32.6231 52.7855 32.4101 52.7855C32.1985 52.7855 32.0353 52.8684 31.9204 53.0347C31.8055 53.1994 31.7474 53.4418 31.746 53.7616V53.9116C31.746 54.2257 31.8034 54.4694 31.9183 54.6425C32.0332 54.8156 32.1985 54.9025 32.4143 54.9025C32.6259 54.9025 32.7884 54.8192 32.9019 54.6529C33.0154 54.4853 33.0728 54.2419 33.0742 53.9221V53.7721ZM36.5735 54.3551C36.5499 54.6861 36.4279 54.9468 36.208 55.1368C35.9892 55.3269 35.7007 55.4221 35.342 55.4221C34.9497 55.4221 34.6407 55.2897 34.4152 55.0251C34.191 54.7586 34.0789 54.394 34.0789 53.9303V53.7425C34.0789 53.4468 34.1307 53.1861 34.2344 52.9608C34.3381 52.7354 34.4859 52.5627 34.6779 52.443C34.8712 52.3218 35.0954 52.2612 35.3504 52.2612C35.7035 52.2612 35.9878 52.3564 36.2037 52.5464C36.4197 52.7368 36.5441 53.0037 36.5778 53.3473H35.9473C35.9318 53.1486 35.8766 53.0051 35.7813 52.9164C35.6874 52.8263 35.5438 52.7812 35.3504 52.7812C35.1402 52.7812 34.9826 52.8573 34.8775 53.0094C34.7739 53.1601 34.7206 53.3945 34.7178 53.7129V53.9451C34.7178 54.2776 34.7675 54.5206 34.867 54.6742C34.9679 54.8278 35.1262 54.9046 35.342 54.9046C35.5368 54.9046 35.6818 54.8603 35.7771 54.7712C35.8737 54.6811 35.929 54.5426 35.9429 54.3551H36.5735ZM37.6582 55.3799H37.0276V52.3038H37.6582V55.3799ZM40.0098 54.746H38.9043L38.6941 55.3799H38.0237L39.163 52.3038H39.7473L40.8926 55.3799H40.2222L40.0098 54.746ZM39.0747 54.2325H39.8398L39.4549 53.0812L39.0747 54.2325ZM43.2298 52.8169H42.2926V55.3799H41.662V52.8169H40.7373V52.3038H43.2298V52.8169ZM45.4322 54.0468H44.2216V54.8707H45.6424V55.3799H43.5914V52.3038H45.6385V52.8169H44.2216V53.5503H45.4322V54.0468ZM47.5995 54.5729C47.5995 54.4532 47.5572 54.3616 47.4732 54.2981C47.3893 54.2332 47.2379 54.1658 47.0191 54.0951C46.8007 54.0234 46.6278 53.9531 46.5001 53.8838C46.1525 53.6952 45.9789 53.441 45.9789 53.1212C45.9789 52.955 46.0252 52.8071 46.1177 52.6777C46.2113 52.5464 46.3451 52.4444 46.5191 52.3712C46.6941 52.298 46.8903 52.2612 47.1073 52.2612C47.3262 52.2612 47.5209 52.3016 47.6917 52.3817C47.8628 52.4606 47.9951 52.5728 48.0891 52.7177C48.1842 52.8627 48.2319 53.0275 48.2319 53.2121H47.6013C47.6013 53.0714 47.5572 52.9622 47.4689 52.8847C47.3807 52.8057 47.2566 52.7664 47.0969 52.7664C46.9427 52.7664 46.8229 52.7996 46.7375 52.8656C46.6522 52.9305 46.6095 53.0163 46.6095 53.1234C46.6095 53.2232 46.659 53.3073 46.7587 53.3747C46.8595 53.4425 47.0073 53.5059 47.202 53.5651C47.5607 53.6733 47.8222 53.8081 47.9862 53.9686C48.1501 54.129 48.2319 54.3291 48.2319 54.5686C48.2319 54.8347 48.1318 55.0438 47.9313 55.196C47.7311 55.3467 47.4614 55.4221 47.1221 55.4221C46.8867 55.4221 46.6726 55.3791 46.4789 55.2933C46.2856 55.2057 46.1378 55.0867 46.0356 54.936C45.9348 54.7853 45.8842 54.6108 45.8842 54.4121H46.5169C46.5169 54.7517 46.7185 54.9212 47.1221 54.9212C47.272 54.9212 47.3893 54.8909 47.4732 54.8303C47.5572 54.7687 47.5995 54.6825 47.5995 54.5729Z" fill="#10284E"/>
</svg>
